<svg xmlns="http://www.w3.org/2000/svg" viewBox="0 0 122.37 306.19"><defs><style>.cls-1{fill:#a3ddec;}</style></defs><title>Asset 11</title><g id="Layer_2" data-name="Layer 2"><g id="big_palm_trees" data-name="big palm trees"><path class="cls-1" d="M101.9,107.17l-.9-.69-7.77,24c.62.43,1.23.9,1.83,1.4,6.27,5.22,11.25,11.4,16.17,18.14A113.1,113.1,0,0,1,122.37,169V131.62C117.17,122.38,109.92,113.35,101.9,107.17Z"/><path class="cls-1" d="M113.8,77.42l-1-.75-8.45,26.13c.67.47,1.34,1,2,1.52,6.15,5.12,11.16,11.1,16,17.6V85.28A73.12,73.12,0,0,0,113.8,77.42Z"/><path class="cls-1" d="M114.32,69.19c.67.47,1.34,1,2,1.52a75.94,75.94,0,0,1,6.06,5.68V44.3Z"/><path class="cls-1" d="M67.94,87.68c-24.24,13.78-45.56,36-57.09,60.81,9.65-6.94,17.19-17,27.17-23.75,11.24-7.59,22.49-13.52,35.36-17.58,8.65-2.73,17-4.93,25.85-5.46.85-.05,1.69-.06,2.51,0l8.68-26.06-1.23,0C95.43,75.94,79.82,80.93,67.94,87.68Z"/><path class="cls-1" d="M79.85,54.71c-24.24,13.78-45.56,36-57.09,60.81,9.65-6.94,17.19-17,27.17-23.75C61.18,84.19,72.42,78.25,85.3,74.2c8.65-2.73,17-4.93,25.85-5.46.85-.05,1.69-.06,2.51,0l8.69-26.06-1.23,0C107.34,43,91.74,48,79.85,54.71Z"/><path class="cls-1" d="M31.1,84c9.65-6.94,17.19-17,27.17-23.75C69.52,52.69,80.76,46.75,93.64,42.7c8.65-2.73,17-4.93,25.85-5.46.85-.05,1.69-.06,2.51,0l.38-1.12V11.71a96.43,96.43,0,0,0-34.18,11.5C64,37,42.63,59.25,31.1,84Z"/><path class="cls-1" d="M81.73,0C64.86,13.26,50.61,30.5,41.92,49.18c9.65-6.94,17.19-17,27.17-23.75,11.24-7.59,22.49-13.52,35.36-17.58a131.9,131.9,0,0,1,17.92-4.53V0Z"/><path class="cls-1" d="M115.72,170c-5.12-11.48-14-23.69-24-31.42l-.9-.69-7.78,24c.62.43,1.23.9,1.83,1.4,6.27,5.22,11.25,11.4,16.17,18.14a123.56,123.56,0,0,1,16.61,32.3c2.51,7.05,3.37,14.63,4.7,22v-47A129,129,0,0,0,115.72,170Z"/><path class="cls-1" d="M81.54,169.6l-.76-.59-6.61,20.43q.79.55,1.56,1.19c5.33,4.44,9.56,9.69,13.74,15.42a105,105,0,0,1,14.12,27.46c3.16,8.87,3.24,18.71,6.1,27.55,4.22-20.94,1.12-44.84-7.76-64.75C97.58,186.55,90.07,176.17,81.54,169.6Z"/><path class="cls-1" d="M72.48,197.06l-.63-.48-5.42,16.75q.65.45,1.28,1A68.48,68.48,0,0,1,79,226.94a86.16,86.16,0,0,1,11.58,22.52c2.59,7.27,2.66,15.34,5,22.59,3.46-17.17.92-36.77-6.36-53.1C85.64,211,79.48,202.44,72.48,197.06Z"/><path class="cls-1" d="M64.93,219.93l-.5-.39L60.07,233c.35.24.69.5,1,.79A55.07,55.07,0,0,1,70.17,244a69.33,69.33,0,0,1,9.32,18.12c2.09,5.86,2.14,12.35,4,18.18,2.79-13.82.74-29.6-5.12-42.74A47.89,47.89,0,0,0,64.93,219.93Z"/><path class="cls-1" d="M58.85,238.19l-.37-.28-3.17,9.81q.38.27.75.57a40.11,40.11,0,0,1,6.6,7.4,50.45,50.45,0,0,1,6.78,13.18c1.52,4.26,1.55,9,2.93,13.22A53,53,0,0,0,68.64,251,34.84,34.84,0,0,0,58.85,238.19Z"/><path class="cls-1" d="M53.62,254l-.27-.21L51,261.17c.19.13.38.27.56.43a30.1,30.1,0,0,1,4.95,5.55A37.9,37.9,0,0,1,61.56,277c1.14,3.19,1.17,6.73,2.2,9.92A39.75,39.75,0,0,0,61,263.63,26.12,26.12,0,0,0,53.62,254Z"/><path class="cls-1" d="M62.19,118c-22.18,12.87-41.61,33.52-52,56.4C19,167.92,25.84,158.59,35,152.31a123.64,123.64,0,0,1,32.38-16.46c7.94-2.58,15.59-4.67,23.73-5.23.78-.05,1.55-.07,2.31-.06l7.78-24-1.13,0C87.37,107,73.06,111.67,62.19,118Z"/><path class="cls-1" d="M52,149.42c-22.18,12.87-41.61,33.52-52,56.4,8.82-6.46,15.67-15.78,24.8-22.07A123.57,123.57,0,0,1,57.18,167.3c7.94-2.58,15.59-4.67,23.73-5.23.79-.06,1.55-.07,2.31-.06L91,138l-1.14,0C77.2,138.4,62.89,143.12,52,149.42Z"/><path class="cls-1" d="M47.8,178.8c-18.85,10.94-35.37,28.49-44.21,47.94,7.5-5.49,13.32-13.42,21.08-18.76a105,105,0,0,1,27.52-14c6.75-2.19,13.25-4,20.17-4.45.67,0,1.32-.06,2,0l6.61-20.43-1,0C69.21,169.42,57,173.44,47.8,178.8Z"/><path class="cls-1" d="M44.85,204.61c-15.46,9-29,23.36-36.25,39.31,6.15-4.5,10.92-11,17.29-15.38a86.18,86.18,0,0,1,22.57-11.47A68.48,68.48,0,0,1,65,213.42c.55,0,1.08,0,1.61,0L72,196.62l-.79,0C62.41,196.92,52.43,200.21,44.85,204.61Z"/><path class="cls-1" d="M42.72,226c-12.44,7.22-23.34,18.81-29.18,31.64,4.95-3.62,8.79-8.85,13.91-12.38A69.32,69.32,0,0,1,45.62,236a55,55,0,0,1,13.31-2.94q.66,0,1.29,0l4.36-13.48-.64,0A47.91,47.91,0,0,0,42.72,226Z"/><path class="cls-1" d="M42.74,242.63a53,53,0,0,0-21.22,23c3.6-2.64,6.39-6.44,10.12-9a50.46,50.46,0,0,1,13.21-6.72,40.16,40.16,0,0,1,9.68-2.13c.32,0,.63,0,.94,0l3.17-9.8h-.46A34.84,34.84,0,0,0,42.74,242.63Z"/><path class="cls-1" d="M41.58,257.36a39.77,39.77,0,0,0-15.92,17.26c2.7-2,4.8-4.83,7.59-6.75a37.88,37.88,0,0,1,9.91-5,30.09,30.09,0,0,1,7.26-1.6c.24,0,.48,0,.71,0l2.38-7.36h-.35A26.13,26.13,0,0,0,41.58,257.36Z"/><path class="cls-1" d="M36.49,306.19s9.93-13.79,14.67-29.42c2.17-7.15,3.21-14.7,1.79-21.46Z"/><path class="cls-1" d="M41.82,273.79c-5.3,15.43-5.33,32.41-5.33,32.41l16.46-50.88C47.82,260,44.25,266.71,41.82,273.79Z"/><polygon class="cls-1" points="48.17 278.35 122.37 51.7 122.37 43.5 45.75 277.56 48.17 278.35"/><polygon class="cls-1" points="45.75 277.56 122.37 43.5 122.37 35.31 43.32 276.78 45.75 277.56"/></g></g></svg>