<svg id="Layer_1" data-name="Layer 1" xmlns="http://www.w3.org/2000/svg" viewBox="0 0 254.49 83.24"><defs><style>.cls-1{fill:#fff;}</style></defs><title>heather</title><path class="cls-1" d="M493.36,789.87a74.21,74.21,0,0,0,5.54,7.12c32.92,37,85.38,26.89,109.68,58.09a30.19,30.19,0,0,1,.89-3.16c-19.83-29.28-85.66-18.81-115.53-62.49Z" transform="translate(-475.51 -772.74)"/><path class="cls-1" d="M587.84,811.22c7.55,6.06,12.41,15,6.13,29.18C593.76,840.09,586.48,826.34,587.84,811.22Z" transform="translate(-475.51 -772.74)"/><path class="cls-1" d="M575,808c9.44,6.32,11.37,16.58,8.23,27.26C582.89,835,574.31,824.71,575,808Z" transform="translate(-475.51 -772.74)"/><path class="cls-1" d="M562.38,805.65c9.35,5.15,11.51,15.89,9.66,25.48C571.73,830.92,562.35,822,562.38,805.65Z" transform="translate(-475.51 -772.74)"/><path class="cls-1" d="M550.87,803.86c8.93,4.85,10.55,17,9.79,23.71C560,827.19,549.92,818.91,550.87,803.86Z" transform="translate(-475.51 -772.74)"/><path class="cls-1" d="M541.1,801.86c6.72,4.48,8.34,16.27,8.06,22.62C547.26,823.62,538.71,816,541.1,801.86Z" transform="translate(-475.51 -772.74)"/><path class="cls-1" d="M531.71,798.93c6,3.75,6.74,15,6,22.07-2.93-1.49-7.26-7.89-7.11-15.35A26.78,26.78,0,0,1,531.71,798.93Z" transform="translate(-475.51 -772.74)"/><path class="cls-1" d="M522.87,794.95A6.7,6.7,0,0,1,524,796a12.88,12.88,0,0,1,1.2,1.74c3,4.91,1.82,17,1.55,18.67C522.77,813.87,518.57,805,522.87,794.95Z" transform="translate(-475.51 -772.74)"/><path class="cls-1" d="M514.73,789.86c4.69,4.15,3.07,14.64,1.63,20.75C511.87,807,509.54,798.4,514.73,789.86Z" transform="translate(-475.51 -772.74)"/><path class="cls-1" d="M507.45,783.65c4.17,3.84,1.47,13.32-.62,19.82C502.41,799.14,501.43,790.77,507.45,783.65Z" transform="translate(-475.51 -772.74)"/><path class="cls-1" d="M501.3,776.38c3.62,3.85.24,11.21-2.88,18.65C493.53,788.42,495.61,781.06,501.3,776.38Z" transform="translate(-475.51 -772.74)"/><path class="cls-1" d="M486.06,772.74c.12,1.85,0,.51,0,.93a.77.77,0,0,1-.83-.59s0,0,0,0c9.62,7.87,9.07,17,8.92,17.38a14.9,14.9,0,0,1-9.09-17.38.84.84,0,0,0,1,.57C486.08,773.26,486.18,774.59,486.06,772.74Z" transform="translate(-475.51 -772.74)"/><path class="cls-1" d="M570.33,856c12.29-.23,25-14.29,25.29-14.66C581.79,840.53,575.43,848.08,570.33,856Z" transform="translate(-475.51 -772.74)"/><path class="cls-1" d="M560.68,851.65c12-.62,23.06-13.56,24.18-15.54C571.77,837,566.54,842,560.68,851.65Z" transform="translate(-475.51 -772.74)"/><path class="cls-1" d="M550.44,847.68c12-.5,22.21-13.74,23.23-15.78C559.49,833.48,554.93,840,550.44,847.68Z" transform="translate(-475.51 -772.74)"/><path class="cls-1" d="M538.82,843.62c12.94.48,22.52-13.29,23.43-15.26C549,830.2,543.84,836.74,538.82,843.62Z" transform="translate(-475.51 -772.74)"/><path class="cls-1" d="M526,838.18c13.49,2.43,22.78-8.46,24.74-12.87C536.14,827.57,531.78,832.11,526,838.18Z" transform="translate(-475.51 -772.74)"/><path class="cls-1" d="M513.54,831.35c12.26,4.52,23.63-5.9,25.59-9.31C524.88,822.23,519.94,826.49,513.54,831.35Z" transform="translate(-475.51 -772.74)"/><path class="cls-1" d="M501.89,823c11.24,6,23.09-1.46,26-5.29C514.6,816.29,510.49,818.36,501.89,823Z" transform="translate(-475.51 -772.74)"/><path class="cls-1" d="M491.39,812.94c10.86,8.21,23.13,1.74,25.89-.91C505.25,808.81,500.51,809.91,491.39,812.94Z" transform="translate(-475.51 -772.74)"/><path class="cls-1" d="M482.45,801.37c9.3,10.22,22.26,5.56,25,3.68C495.61,800.1,493.27,800,482.45,801.37Z" transform="translate(-475.51 -772.74)"/><path class="cls-1" d="M475.51,788.32c4.72,8.54,13.15,11,21.72,8.87a9.52,9.52,0,0,0,1.46-.5l-.56-.36-1-.66C487.13,789.5,486.77,789.43,475.51,788.32Z" transform="translate(-475.51 -772.74)"/><path class="cls-1" d="M712.15,789.87a74.25,74.25,0,0,1-5.54,7.12c-32.92,37-85.38,26.89-109.68,58.09a30.11,30.11,0,0,0-.89-3.16c19.83-29.28,85.66-18.81,115.53-62.49Z" transform="translate(-475.51 -772.74)"/><path class="cls-1" d="M617.67,811.22c-7.55,6.06-12.41,15-6.13,29.18C611.75,840.09,619,826.34,617.67,811.22Z" transform="translate(-475.51 -772.74)"/><path class="cls-1" d="M630.54,808c-9.44,6.32-11.37,16.58-8.23,27.26C622.62,835,631.2,824.71,630.54,808Z" transform="translate(-475.51 -772.74)"/><path class="cls-1" d="M643.13,805.65c-9.35,5.15-11.51,15.89-9.66,25.48C633.78,830.92,643.16,822,643.13,805.65Z" transform="translate(-475.51 -772.74)"/><path class="cls-1" d="M654.64,803.86c-8.93,4.85-10.55,17-9.79,23.71C645.55,827.19,655.59,818.91,654.64,803.86Z" transform="translate(-475.51 -772.74)"/><path class="cls-1" d="M664.41,801.86c-6.72,4.48-8.34,16.27-8.06,22.62C658.25,823.62,666.8,816,664.41,801.86Z" transform="translate(-475.51 -772.74)"/><path class="cls-1" d="M673.8,798.93c-6,3.75-6.74,15-6,22.07,2.93-1.49,7.26-7.89,7.11-15.35A26.79,26.79,0,0,0,673.8,798.93Z" transform="translate(-475.51 -772.74)"/><path class="cls-1" d="M682.64,794.95A6.7,6.7,0,0,0,681.5,796a12.86,12.86,0,0,0-1.2,1.74c-3,4.91-1.82,17-1.55,18.67C682.74,813.87,686.94,805,682.64,794.95Z" transform="translate(-475.51 -772.74)"/><path class="cls-1" d="M690.78,789.86c-4.69,4.15-3.07,14.64-1.63,20.75C693.64,807,696,798.4,690.78,789.86Z" transform="translate(-475.51 -772.74)"/><path class="cls-1" d="M698.06,783.65c-4.17,3.84-1.47,13.32.62,19.82C703.1,799.14,704.08,790.77,698.06,783.65Z" transform="translate(-475.51 -772.74)"/><path class="cls-1" d="M704.21,776.38c-3.62,3.85-.24,11.21,2.88,18.65C712,788.42,709.9,781.06,704.21,776.38Z" transform="translate(-475.51 -772.74)"/><path class="cls-1" d="M719.45,772.74c-.12,1.85,0,.51,0,.93a.77.77,0,0,0,.83-.59s0,0,0,0c-9.62,7.87-9.07,17-8.92,17.38a14.9,14.9,0,0,0,9.09-17.38.84.84,0,0,1-1,.57C719.43,773.26,719.33,774.59,719.45,772.74Z" transform="translate(-475.51 -772.74)"/><path class="cls-1" d="M635.18,856c-12.29-.23-25-14.29-25.29-14.66C623.72,840.53,630.08,848.08,635.18,856Z" transform="translate(-475.51 -772.74)"/><path class="cls-1" d="M644.83,851.65c-12-.62-23.06-13.56-24.18-15.54C633.74,837,639,842,644.83,851.65Z" transform="translate(-475.51 -772.74)"/><path class="cls-1" d="M655.07,847.68c-12-.5-22.21-13.74-23.23-15.78C646,833.48,650.58,840,655.07,847.68Z" transform="translate(-475.51 -772.74)"/><path class="cls-1" d="M666.69,843.62c-12.94.48-22.52-13.29-23.43-15.26C656.55,830.2,661.67,836.74,666.69,843.62Z" transform="translate(-475.51 -772.74)"/><path class="cls-1" d="M679.56,838.18c-13.49,2.43-22.78-8.46-24.74-12.87C669.37,827.57,673.73,832.11,679.56,838.18Z" transform="translate(-475.51 -772.74)"/><path class="cls-1" d="M692,831.35c-12.26,4.52-23.63-5.9-25.59-9.31C680.63,822.23,685.57,826.49,692,831.35Z" transform="translate(-475.51 -772.74)"/><path class="cls-1" d="M703.62,823c-11.24,6-23.09-1.46-26-5.29C690.91,816.29,695,818.36,703.62,823Z" transform="translate(-475.51 -772.74)"/><path class="cls-1" d="M714.12,812.94c-10.86,8.21-23.13,1.74-25.89-.91C700.26,808.81,705,809.91,714.12,812.94Z" transform="translate(-475.51 -772.74)"/><path class="cls-1" d="M723.06,801.37c-9.3,10.22-22.26,5.56-25,3.68C709.9,800.1,712.24,800,723.06,801.37Z" transform="translate(-475.51 -772.74)"/><path class="cls-1" d="M730,788.32c-4.72,8.54-13.15,11-21.72,8.87a9.53,9.53,0,0,1-1.46-.5l.56-.36,1-.66C718.38,789.5,718.74,789.43,730,788.32Z" transform="translate(-475.51 -772.74)"/></svg>