<svg xmlns="http://www.w3.org/2000/svg" viewBox="0 0 49.13 37.75"><defs><style>.cls-1{fill:#a3cb97;}.cls-2{fill:#ffd8ae;}.cls-3{fill:#ffc380;}.cls-4{fill:#6e8e63;}.cls-5{fill:#7dcfe6;}</style></defs><title>Asset 23</title><g id="Layer_2" data-name="Layer 2"><g id="content_page" data-name="content page"><path class="cls-1" d="M30,32.57s-2.5-21-3.83-24l-.83-.68a.92.92,0,0,0-1,0l0,.05c1.37,3.25,1.29,19.23,1.27,24.59C26,32.32,30,32.57,30,32.57Z"/><path class="cls-2" d="M28.16,32.65h0c-4.69.37-8.61,2.18-10.45,4.65a1.6,1.6,0,0,0,1.09.46c1,0,1-.74,2-.74s1,.74,1.95.74,1-.74,2-.74,1,.74,2,.74,1-.74,2-.74,1,.74,2,.74,1-.74,2-.74,1,.74,2,.74,1-.74,1.95-.74,1,.74,2,.74,1-.74,2-.74,1,.74,2,.74l.28,0c-1.89-3-6.79-5.16-12.55-5.16l-.84,0-1,.06Z"/><path class="cls-3" d="M11.05,37.75c1,0,1-.74,2-.74s1,.74,1.95.74,1-.74,1.95-.74a1.34,1.34,0,0,1,.86.28C19.6,34.83,23.52,33,28.2,32.65h0c-.73,0-1.47-.08-2.22-.08h-.39q-.9,0-1.78.06a24.79,24.79,0,0,0-11.3,3.1l-.2.13a10.25,10.25,0,0,0-1.25,1q-.24.21-.45.44l-.26.29A1.31,1.31,0,0,0,11.05,37.75Z"/><path class="cls-4" d="M25.36,7.92l.83.68,11.15,9.18A9.9,9.9,0,0,0,36,12.49H32.6a1.91,1.91,0,0,1,1.77-1.91c-2.72-2.44-6.62-3-8.51-3.13L38.52,6.23c-4.94-4.94-10.4-1.49-12.65.36A13.53,13.53,0,0,1,32.15.76c-4-1.11-6,.84-7,3.05-.83-2.07-2.83-4-7.1-3.79,0,0,3.26,1.62,5.84,6.46-2.34-1.87-7.67-5.08-12.5-.24L24,7.45C14,8,14.38,20,14.38,20l9.9-12,0-.05A.92.92,0,0,1,25.36,7.92Z"/><path class="cls-5" d="M41.48,3.41h7.65A2.86,2.86,0,0,0,44,1.62a1.89,1.89,0,0,0-.65-.12h-.14A1.91,1.91,0,0,0,41.48,3.41Z"/><path class="cls-5" d="M10.26,17.84a4.41,4.41,0,0,0-6.3.62,2.93,2.93,0,0,0-4,2.78H11.84a4.44,4.44,0,0,0-1.58-3.4Z"/></g></g></svg>