<svg xmlns="http://www.w3.org/2000/svg" viewBox="0 0 138.92 113.49"><defs><style>.cls-1{fill:#a3ddec;}</style></defs><title>Asset 10</title><g id="Layer_2" data-name="Layer 2"><g id="big_palm_trees" data-name="big palm trees"><path class="cls-1" d="M132.58,36.18A120.87,120.87,0,0,0,138.92,0h-9.78c.24,1,.48,2.06.7,3.1C132.11,13.95,130.65,25.43,132.58,36.18Z"/><path class="cls-1" d="M118.26,66c7.07-20.36,8.19-44.1,3.83-66h-18a124.64,124.64,0,0,1,11.4,32.89C117.8,43.73,116.33,55.21,118.26,66Z"/><path class="cls-1" d="M77.08,4.28c4.68,5.12,8.16,10.89,11.54,17.13A105,105,0,0,1,98.91,50.52c1.94,9.22.69,19,2.33,28.12,7-20.18,7.15-44.28,1-65.21A75.57,75.57,0,0,0,96.84,0H77.09L75.69,2.9Q76.4,3.55,77.08,4.28Z"/><path class="cls-1" d="M73,10.21l-.55-.56L64.82,25.52Q65.4,26,66,26.65a68.51,68.51,0,0,1,9.46,14,86.16,86.16,0,0,1,8.43,23.87c1.59,7.56.56,15.56,1.91,23.06,5.75-16.55,5.87-36.31.86-53.47C84.17,25.75,79.21,16.49,73,10.21Z"/><path class="cls-1" d="M62.44,31.85,62,31.4,55.85,44.17c.31.29.62.59.92.92A55.08,55.08,0,0,1,64.38,56.4a69.31,69.31,0,0,1,6.79,19.21c1.28,6.08.46,12.52,1.54,18.56,4.63-13.32,4.72-29.23.69-43A47.88,47.88,0,0,0,62.44,31.85Z"/><path class="cls-1" d="M54,49.13l-.33-.33-4.47,9.29c.23.21.45.43.66.67A40.11,40.11,0,0,1,55.36,67,50.44,50.44,0,0,1,60.3,81c.93,4.42.33,9.11,1.12,13.5a53,53,0,0,0,.5-31.3A34.83,34.83,0,0,0,54,49.13Z"/><path class="cls-1" d="M46.63,64.11l-.24-.25-3.35,7c.17.16.34.32.5.5a30.14,30.14,0,0,1,4.16,6.17A37.89,37.89,0,0,1,51.39,88c.7,3.32.25,6.83.84,10.12a39.74,39.74,0,0,0,.38-23.48A26.12,26.12,0,0,0,46.63,64.11Z"/><path class="cls-1" d="M13.38,0H6.46A109.84,109.84,0,0,0,0,9.12,109,109,0,0,0,13.38,0Z"/><path class="cls-1" d="M.73,30.33c8.17-4.43,15-11.5,23.42-15.74A105,105,0,0,1,53.31,4.44C60.29,3.18,67,2.29,73.9,2.75q1,.07,1.95.21l1.43-3H30.44A106.47,106.47,0,0,0,.73,30.33Z"/><path class="cls-1" d="M44.6,14C28.08,20.77,12.71,33.2,3.38,48c6.7-3.63,12.31-9.43,19.2-12.91a86.18,86.18,0,0,1,23.91-8.32,68.51,68.51,0,0,1,16.88-1.38c.55,0,1.08.1,1.6.17L72.6,9.72l-.79-.08C63,8.71,52.71,10.63,44.6,14Z"/><path class="cls-1" d="M39.61,34.89C26.3,40.36,13.94,50.37,6.43,62.31c5.39-2.92,9.91-7.59,15.45-10.39a69.33,69.33,0,0,1,19.25-6.7A55,55,0,0,1,54.72,44.1q.66,0,1.29.14l6.14-12.77-.63-.07A47.91,47.91,0,0,0,39.61,34.89Z"/><path class="cls-1" d="M37.39,51.36A53,53,0,0,0,13.26,71.3c3.92-2.13,7.21-5.52,11.24-7.56a50.46,50.46,0,0,1,14-4.87,40.18,40.18,0,0,1,9.88-.81c.32,0,.63.06.94.1l4.46-9.29-.46,0A34.84,34.84,0,0,0,37.39,51.36Z"/><path class="cls-1" d="M34.25,65.8a39.77,39.77,0,0,0-18.1,15c2.94-1.6,5.4-4.14,8.43-5.67a37.87,37.87,0,0,1,10.5-3.65,30.11,30.11,0,0,1,7.41-.61c.24,0,.47,0,.7.08l3.35-7-.34,0A26.13,26.13,0,0,0,34.25,65.8Z"/><path class="cls-1" d="M22.62,113.49s11.7-12.33,18.5-27.17c3.11-6.79,5.17-14.13,4.67-21Z"/><path class="cls-1" d="M32.27,82.1c-7.33,14.58-9.65,31.39-9.65,31.39L45.79,65.3C40.08,69.22,35.63,75.42,32.27,82.1Z"/><polygon class="cls-1" points="37.95 87.48 80.01 0 77.18 0 35.66 86.38 37.95 87.48"/><polygon class="cls-1" points="35.66 86.38 77.18 0 74.35 0 33.36 85.27 35.66 86.38"/></g></g></svg>