<svg xmlns="http://www.w3.org/2000/svg" viewBox="0 0 292.62 87.78"><defs><style>.cls-1{fill:#7dcfe6;}.cls-2{font-size:20px;fill:#ecbe63;font-family:Chantal-MediumItalic, Chantal;font-style:italic;letter-spacing:0.05em;}.cls-3{letter-spacing:-0.01em;}</style></defs><title>Asset 8</title><g id="Layer_2" data-name="Layer 2"><g id="logo_and_text_intro" data-name="logo and text intro"><path class="cls-1" d="M26.17.43C25-2.13,15.35,7.58,13.94,8.81A60.88,60.88,0,0,0,8.7,5C8,4.54,6.92,3.56,6,3.58c-1.79,0-.75,1.88-.22,3,.78,1.73,3.73,4.91,3.35,6.83-.23,1.16-2.2,2.22-3,2.86-1.48,1.15-2.91,2.2-4.28,3.48C1,20.55-.8,21.8.39,23.13s5.18.37,6.67.06c2.15-.44,5.07-1.58,7-.12,1.48,1.13,2.51,3.34,3.24,5,.82,1.89,1.43,4.67,3.42,5.74,2.71,1.45,1.85-2.51,1.6-4-.37-2.16-1.14-5.59-.13-7.64,1.28-2.58,5.93-1.75,8.38-2.23.91-.18,3.08-.4,3.36-1.53.34-1.37-1.6-2.15-2.48-2.5-2-.79-7.51-1.37-7.38-4C24.2,9,28.86,2.45,26.17.43Z"/><text class="cls-2" transform="translate(51.98 40.42)">CLICK THE LOC<tspan class="cls-3" x="128.86" y="0">A</tspan><tspan x="140.94" y="0">TION</tspan><tspan x="15.82" y="24">FOR MORE INFO</tspan></text><path class="cls-1" d="M284.83,20.5c-1.19-2.55-10.82,7.15-12.23,8.39a60.88,60.88,0,0,0-5.24-3.8c-.66-.47-1.78-1.45-2.67-1.43-1.79,0-.75,1.88-.22,3,.78,1.73,3.73,4.91,3.35,6.83-.23,1.16-2.2,2.22-3,2.86-1.48,1.15-2.91,2.2-4.28,3.48-.83.77-2.66,2-1.47,3.34s5.18.37,6.67.06c2.15-.44,5.07-1.58,7-.12,1.48,1.13,2.51,3.34,3.24,5,.82,1.89,1.43,4.67,3.42,5.74,2.71,1.45,1.85-2.51,1.6-4-.37-2.16-1.14-5.59-.13-7.64,1.28-2.58,5.93-1.75,8.38-2.23.91-.18,3.08-.4,3.36-1.53.34-1.37-1.6-2.15-2.48-2.5-2-.79-7.51-1.37-7.38-4C282.86,29,287.52,22.53,284.83,20.5Z"/><path class="cls-1" d="M97.06,87.78a1,1,0,0,1,0-2c.59,0,1.12-.81,1.7-1.66,1-1.44,2-3,4.12-3s3.16,1.53,4.12,3c.57.86,1.11,1.66,1.7,1.66s1.12-.81,1.7-1.66c1-1.44,2-3,4.12-3s3.16,1.53,4.12,3c.57.86,1.11,1.66,1.7,1.66s1.12-.81,1.7-1.66c1-1.44,2-3,4.12-3s3.16,1.53,4.12,3c.57.86,1.11,1.66,1.7,1.66s1.12-.81,1.7-1.66c1-1.44,2-3,4.12-3s3.16,1.53,4.12,3c.57.86,1.11,1.66,1.69,1.66s1.12-.81,1.7-1.66c1-1.44,2-3,4.12-3s3.16,1.53,4.12,3c.57.86,1.11,1.66,1.7,1.66s1.12-.81,1.69-1.66c1-1.44,2-3,4.12-3s3.16,1.53,4.12,3c.57.86,1.11,1.66,1.7,1.66s1.12-.81,1.7-1.66c1-1.44,2-3,4.12-3s3.16,1.53,4.12,3c.57.86,1.11,1.66,1.7,1.66s1.12-.81,1.7-1.66c1-1.44,2-3,4.12-3s3.16,1.53,4.12,3c.57.86,1.11,1.66,1.7,1.66a1,1,0,0,1,0,2c-1.63,0-2.46-1.23-3.33-2.54-.68-1-1.4-2.09-2.49-2.09s-1.81,1.08-2.49,2.09c-.87,1.31-1.7,2.54-3.33,2.54s-2.46-1.23-3.33-2.54c-.68-1-1.4-2.09-2.49-2.09s-1.81,1.08-2.49,2.09c-.87,1.31-1.7,2.54-3.33,2.54s-2.46-1.23-3.33-2.54c-.68-1-1.4-2.09-2.49-2.09s-1.81,1.08-2.49,2.09c-.87,1.31-1.7,2.54-3.33,2.54s-2.46-1.23-3.33-2.54c-.68-1-1.4-2.09-2.49-2.09s-1.81,1.08-2.49,2.09c-.87,1.31-1.7,2.54-3.33,2.54s-2.46-1.23-3.33-2.54c-.68-1-1.4-2.09-2.49-2.09s-1.81,1.08-2.49,2.09c-.87,1.31-1.7,2.54-3.33,2.54s-2.46-1.23-3.33-2.54c-.68-1-1.4-2.09-2.49-2.09s-1.81,1.08-2.49,2.09c-.87,1.31-1.7,2.54-3.33,2.54s-2.46-1.23-3.33-2.54c-.68-1-1.4-2.09-2.49-2.09s-1.81,1.08-2.49,2.09c-.87,1.31-1.7,2.54-3.33,2.54s-2.46-1.23-3.33-2.54c-.68-1-1.4-2.09-2.49-2.09s-1.81,1.08-2.49,2.09C99.52,86.55,98.69,87.78,97.06,87.78Z"/></g></g></svg>