<svg xmlns="http://www.w3.org/2000/svg" viewBox="0 0 28.75 17.65"><defs><style>.cls-1{fill:#27b3d9;}.cls-2{fill:#8dbf80;}</style></defs><title>Asset 1</title><g id="Layer_2" data-name="Layer 2"><g id="menu_bar" data-name="menu bar"><path class="cls-1" d="M28.39,15.94C25.22,10.61,21.22,4.86,13.84,4.18c0-.62-.07-2.15-.18-3.1A.8.8,0,0,0,13.6.85a.91.91,0,0,0-.84-.76.85.85,0,0,0-.49.17c-1.66,1.17-3.37,2.58-5,3.95C5.87,5.34,4.44,6.52,3.07,7.54a1,1,0,0,0-.22.23,1,1,0,0,0-.35.83A.82.82,0,0,0,3,9.24a47.35,47.35,0,0,1,4.6,2.95,44.82,44.82,0,0,0,4.92,3.12,1,1,0,0,0,.48.13.78.78,0,0,0,.57-.25,1.89,1.89,0,0,0,.42-1.3c0-.46,0-1.8,0-2.15H14c5,0,9.28,2.75,13.12,5.73a1,1,0,0,0,.59.21,1,1,0,0,0,1-.65.72.72,0,0,0-.21-.81.92.92,0,0,0-.1-.24Zm-3.77-2.54C20.86,11,17.5,9.88,14.1,9.88l-.86,0a.89.89,0,0,0-.65.31.84.84,0,0,0-.29.5,16.38,16.38,0,0,0-.2,2.3c-1.22-.71-2.42-1.56-3.59-2.38S6.25,9,5.08,8.33c1.09-.8,2.2-1.77,3.28-2.7S10.76,3.55,12,2.7C12,3.41,12,4.45,12,5a.85.85,0,0,0,.82.88l.22,0c5.67.25,9,3.81,11.56,7.45Zm0,0"/><path class="cls-2" d="M.7,10C3.5,12,6.28,14,9.17,15.81c.66.42,1.45-.52.78-.95C7.12,13.08,4.4,11.13,1.66,9.23a.69.69,0,0,0-.1-.12.85.85,0,0,1,0-1.39l0,0a.7.7,0,0,0,.18-.11C4.42,5.35,7,3.1,9.69,1c.62-.48-.25-1.35-.87-.87C6.13,2.23,3.56,4.48,1,6.69h0a.65.65,0,0,0-.2.14A2.05,2.05,0,0,0,.46,9.71.54.54,0,0,0,.7,10Zm0,0"/></g></g></svg>