<?xml version="1.0" encoding="utf-8"?>
<!-- Generator: Adobe Illustrator 21.0.0, SVG Export Plug-In . SVG Version: 6.00 Build 0)  -->
<svg version="1.1" id="Layer_1" xmlns="http://www.w3.org/2000/svg" xmlns:xlink="http://www.w3.org/1999/xlink" x="0px" y="0px"
	 viewBox="0 0 1000.1 172.3" style="enable-background:new 0 0 1000.1 172.3;" xml:space="preserve">
<style type="text/css">
	.st0{fill:#27B3D9;}
	.st1{fill:#A3DDEC;}
	.st2{fill:#006780;stroke:#006780;stroke-width:0.34;}
	.st3{fill:url(#SVGID_1_);}
	.st4{fill:#7DCFE6;}
	.st5{fill:#DDF4FF;}
	.st6{clip-path:url(#SVGID_3_);}
	.st7{fill:#FFFFFF;}
</style>
<title>Asset 2</title>
<g id="Layer_2">
	<g id="menu_bar">
		<g id="_Group_">
			<path class="st0" d="M141.8,64.7L141.8,64.7c0.2-2.8-0.5-5.6-2-8c0.4,0,0.9,0.1,1.2,0.4c-1.6-3-4.2-3.7-7.2-4.3
				c0.4-0.4,0.9-0.7,1.4-0.9c-2.7-1-5.7-1.1-8.5-0.4c-1.8,0.5-3.6,1.3-5.1,2.3c1.8-1.6,3.9-3,6-4.2c3.2-1.8,6.8-2.3,10.4-1.6
				c-3.5-4-9.6-4.5-13.6-1c0,0-0.1,0.1-0.1,0.1c0.5-0.7,1-1.5,1.6-2.2c-1.7,0.7-3.2,1.9-4.2,3.5c-1.3,1.6-2.2,3.5-2.7,5.6
				c-0.6-3.4-2.1-6.6-4.4-9.1c-0.4-0.5-1.1-1.2-1.7-1.2c0,0.5,0,0.9,0,1.4c-1.3-1.3-3.2-1.9-5-1.5c-1.4,0.2-4.3,1.1-4.8,2.6
				c0.1-0.2,3.8,0.8,4.1,0.8c1.6,0.5,3.1,1.2,4.5,2c2.1,1.4,3.9,3.1,5.4,5c-2.2-2.4-5.4-4.5-8.3-4.3c0.1,0.4,0.2,0.8,0.3,1.2
				c-0.2-0.8-3.7-1.2-4.4-1.3c-1.5-0.2-3.1,0-4.4,0.7c0.5,0.4,0.9,0.9,1.3,1.4c-0.2-0.3-2.6,1-2.9,1.1c-1,0.6-1.8,1.3-2.4,2.3
				c-1.3,2.1-2,4.4-2.2,6.9c0.8-1,1.7-2,2.8-2.8c1.1-0.8,2.2-1.5,3.4-2c5.3-2.4,11.4-3.4,16.9-1.4c-3.5-0.7-7.1,0-10.2,1.8
				c0.4,0,0.8,0.3,1,0.6c-1.5,0.4-2.9,1.1-4.2,2c-1.3,0.9-2.3,2.1-2.8,3.6l1.3-0.6c-1.1,1.9-1.5,4.2-1.1,6.4
				c0.3,2.2,1.5,4.2,3.2,5.6c-0.4-2.4,1.2-5.3,2.2-7.3c0.7-1.5,1.5-3,2.4-4.4c2.4-3.2,5.6-5.6,9.4-7l0.2,0.1
				c0,1.3,0.2,14.8-6.7,25.7c-7.3,11.5-9.2,17.3-9.2,17.3l7.2,2.8c0,0,4-14.7,5.1-17.9s4.4-12.9,4.7-17.9c0.2-4,0.4-8.8,0.4-10.6
				c4.9,1.8,8.5,7.4,9.7,12.2c0.7,2.7,1.1,5.3,1.4,8.1l0.2-0.3l0,0c0,0,0.2,0,0.2-0.1c1.6-1.7,2.7-3.8,3.1-6.1
				c0.4-2.3-0.4-4.7-2.1-6.3h0.9c-0.9-1.8-2.2-3.3-3.9-4.2l1.4-0.1c-1.8-1.7-4.1-2.8-6.5-3.3c2.7,0.1,5.4,0.7,7.9,1.7
				c3.7,1.6,6.8,4.2,8.9,7.6c0.1,0.1,0.2,0.3,0.3,0.4C141.8,65.2,141.8,64.9,141.8,64.7z M118.6,56.4L118.6,56.4L118.6,56.4z"/>
			<path class="st0" d="M27.8,33.5c0.2-0.2,0.4-0.4,0.5-0.6c4-5.5,9.6-9.6,16-11.7c4.4-1.4,8.9-2,13.5-1.9
				c-4.2,0.6-8.1,2.2-11.4,4.8l2.4,0.4c-3,1.4-5.5,3.7-7.2,6.6l1.6,0.2c-3.1,2.5-4.7,6.4-4.4,10.3c0.4,3.9,1.9,7.6,4.4,10.6
				c0.1,0.1,0.3,0.3,0.4,0.2s0,0,0,0l0.3,0.5c0.8-4.5,1.9-9,3.3-13.4c2.6-8,9.4-16.9,17.9-19.3c-0.2,3.1-0.5,11.1-0.7,17.9
				c-0.2,8.5,4.1,25.2,5.6,30.7s6.3,30.7,6.3,30.7l12.6-3.8c0,0-2.5-9.9-13.3-30.2c-10.2-19.3-8.2-41.9-8-44.1l0.3-0.1
				C74,24.3,79.6,28.4,83,34.1c1.4,2.5,2.6,5.1,3.5,7.8c1.4,3.6,3.8,8.7,2.8,12.7c3.1-1.9,5.3-5.6,6.1-9c0.9-3.7,0.5-7.5-1.1-11
				l2.1,1.2c-0.6-2.5-2.1-4.8-4.2-6.4c-2.1-1.6-4.3-2.9-6.7-3.8c0.4-0.5,1.1-0.8,1.8-0.9c-4.9-3.5-10.9-5-16.9-4.3
				c9.4-2.7,19.5-0.2,28.2,4.5c2,1,3.8,2.3,5.5,3.8c1.6,1.6,3,3.3,4.3,5.1c0-4.1-1-8.2-2.8-11.8c-0.9-1.6-2.2-3-3.7-4.1
				c-0.4-0.3-4.3-2.8-4.7-2.3c0.7-0.8,1.4-1.6,2.3-2.2c-2.2-1.4-4.8-2-7.4-1.8c-1.2,0-7.1,0.4-7.5,1.6c0.3-0.7,0.5-1.4,0.7-2.1
				c-5-0.6-10.6,2.5-14.6,6.2c2.8-3.1,6.1-5.7,9.8-7.7C83,8.6,85.6,7.6,88.3,7c0.4-0.1,6.9-1.3,7-0.9c-0.7-2.6-5.5-4.4-7.8-5
				c-3-0.8-6.2-0.1-8.6,1.9c0.1-0.8,0.2-1.5,0.2-2.3c-1-0.1-2.2,1.1-3,1.8c-4.2,4-7.2,9.1-8.6,14.7c-0.2-3.4-1.9-6.8-3.8-9.7
				C62,5,60,2.3,57.1,1.2C58,2.4,58.8,3.7,59.5,5c-6.2-6.5-16.5-6.7-23-0.4c-0.1,0.1-0.1,0.1-0.2,0.2c6-1,12.1,1,17.2,4.1
				c3.5,2.2,6.7,4.8,9.6,7.8c-2.5-2-5.3-3.5-8.3-4.6c-4.6-1.6-9.6-1.8-14.3-0.5c0.9,0.4,1.7,1,2.3,1.7c-5.2,0.6-9.7,1.4-12.7,6.3
				c0.6-0.4,1.3-0.6,2-0.5c-2.9,3.8-4.4,8.4-4.3,13.1l0,0C27.6,32.7,27.7,33.1,27.8,33.5z M67.8,21.3L67.8,21.3
				C67.8,21.3,67.8,21.3,67.8,21.3L67.8,21.3z"/>
			<path class="st0" d="M60.7,104.4c0,0,14.6-11.9,28.8-12.5c16.1-0.6,29.8,14.7,29.8,14.7S104.3,107.3,60.7,104.4z"/>
		</g>
		<path class="st0" d="M0,87.5c0,0,171.2,18.2,227.8,20.6c72.2,3.1,184.9-21,257.2-22.3c48.6-0.9,255.8,21.9,266.1,22.3
			c28,1.2,82.9-14.6,110.9-15.2c34.7-0.8,138,12.6,138,12.6v40H0.1L0,87.5z"/>
		<path class="st1" d="M0,91.5c0,0,171.2,18.2,227.8,20.6c72.2,3.1,184.9-21,257.2-22.3c48.6-0.9,255.8,21.9,266.1,22.3
			c28,1.2,82.9-14.6,110.9-15.2c34.7-0.8,138,12.6,138,12.6v62.9H0.1L0,91.5z"/>
		<path class="st2" d="M67.8,155.7c0-0.4-0.1-0.5-0.2-0.5h-0.4c-0.1,0-0.2,0-0.2-0.1s0-0.1,0.1-0.1l1.6,0.1h1.6c0.1,0,0.1,0,0.1,0.1
			s0.1,0.8,0.1,0.9s0,0.1,0,0.1h-0.1c0,0-0.1,0-0.1-0.1l-0.2-0.3c-0.2-0.3-0.4-0.4-0.9-0.4s-0.6,0-0.6,0.3v1.4h0.5
			c0.4,0,0.5,0,0.6-0.3s0.1-0.3,0.2-0.3s0.1,0,0.1,0.1s0,0.5-0.1,0.8s0,0.4,0,0.6s0,0.1-0.1,0.1s-0.1,0-0.1-0.3s-0.2-0.3-0.5-0.3
			h-0.6v1.5c0,0.2,0.1,0.2,0.8,0.3s0.8,0,1.1-0.4l0.3-0.4c0,0,0,0,0.1,0h0.1c0,0,0.1,0,0.1,0.1c0,0,0,0.1,0,0.1l-0.3,0.8
			c0,0-0.1,0.1-0.2,0.1l-1.4-0.1h-1.9c-0.1,0-0.1-0.1-0.1-0.1s0-0.1,0.2-0.1h0.4c0.2,0,0.2-0.1,0.2-0.5L67.8,155.7z"/>
		<path class="st2" d="M74.7,157.6c0,1,0.4,1.4,1.1,1.4c0.9,0,1.3-0.8,1.4-2.7c0-0.9,0-0.9-0.4-1h-0.2c0,0-0.1,0-0.1-0.1
			s0-0.1,0.1-0.1h0.8h0.8c0.1,0,0.1,0,0.1,0.1s0,0.1-0.1,0.1h-0.3c-0.3,0-0.4,0.4-0.5,2c-0.1,1.1-0.6,2.1-1.9,2.1
			c-1.1,0-1.6-0.8-1.5-1.8v-1.8c0-0.4-0.1-0.5-0.3-0.5h-0.3c0,0-0.1,0-0.1-0.1s0-0.1,0.1-0.1h1h1.1c0.1,0,0.1,0.1,0.1,0.1
			s0,0.1-0.1,0.1h-0.3c-0.3,0-0.4,0.1-0.4,0.5L74.7,157.6z"/>
		<path class="st2" d="M81.2,156c0-0.4-0.1-0.5-0.3-0.5h-0.4c0,0-0.1,0-0.1-0.1s0-0.1,0.1-0.1h1.1h1.2c0.9,0,1.4,0.5,1.4,1.1
			c0,0.9-0.9,1-0.9,1.1c0,0.1,0.1,0.2,0.2,0.3l0.8,1.4c0.1,0.1,0.2,0.2,0.3,0.2c0.2,0,0.2,0,0.2,0.1s0,0.2-0.1,0.2h-0.6h-0.6
			c-0.1,0-0.1-0.1-0.2-0.3l-0.6-1.4c-0.1-0.2-0.2-0.3-0.4-0.3H82v1.1c0,0.4,0.1,0.5,0.2,0.5h0.3c0.1,0,0.1,0,0.1,0.1s0,0.1-0.1,0.1
			h-1h-1c-0.1,0-0.1-0.1-0.1-0.1s0-0.1,0.1-0.1H81c0.1,0,0.2-0.1,0.3-0.5L81.2,156z M82,157.4h0.4c0.5,0,0.9-0.3,0.9-0.8
			c0,0,0,0,0,0c0.1-0.5-0.3-0.9-0.8-1c0,0-0.1,0-0.1,0c-0.4,0-0.5,0-0.5,0.8L82,157.4z"/>
		<path class="st2" d="M89.5,155.4c1.2,0,2.2,1,2.2,2.3c0,1.2-1,2.2-2.3,2.2c-1.2,0-2.2-1-2.2-2.3c0,0,0,0,0,0
			c-0.1-1.1,0.7-2.1,1.8-2.2C89.1,155.3,89.3,155.3,89.5,155.4z M89.4,159.6c0.8,0,1.3-0.7,1.4-2s-0.5-2-1.3-2s-1.3,0.7-1.4,2
			S88.6,159.6,89.4,159.6z"/>
		<path class="st2" d="M95,156.3c0-0.3-0.1-0.4-0.3-0.5h-0.3c-0.1,0-0.1,0-0.1-0.1s0-0.1,0.1-0.1h1h1.1c0.7-0.1,1.3,0.5,1.4,1.2
			c0,0,0,0.1,0,0.1c0,0.7-0.5,1.2-1.2,1.2c-0.1,0-0.1,0-0.2,0c-0.3,0-0.5,0-0.8-0.1v1.1c0,0.4,0.1,0.5,0.3,0.5h0.4
			c0,0,0.1,0,0.1,0.1s0,0.1-0.1,0.1h-1.1h-1.1c-0.1,0-0.1-0.1-0.1-0.1s0-0.1,0.1-0.1h0.4c0.2,0,0.3-0.1,0.3-0.5L95,156.3z
			 M96.1,155.9c-0.3,0-0.4,0-0.4,1.4c0,0.4,0,0.5,0.3,0.5c0.5,0,1-0.4,1-0.9c0,0,0-0.1,0-0.1C97.1,156.3,96.7,155.9,96.1,155.9
			C96.2,155.9,96.2,155.9,96.1,155.9z"/>
		<path class="st2" d="M101.3,156.5c0-0.4-0.1-0.5-0.2-0.5h-0.4c-0.1,0-0.2,0-0.2-0.1s0-0.1,0.1-0.1l1.6,0.1h1.6
			c0.1,0,0.1,0,0.1,0.1s0.1,0.8,0.1,0.9s0,0.1,0,0.1h-0.1c0,0-0.1,0-0.1-0.1l-0.2-0.3c-0.2-0.3-0.4-0.4-0.9-0.4s-0.6,0-0.6,0.3v1.4
			h0.5c0.4,0,0.5,0,0.6-0.3s0.1-0.3,0.2-0.3s0.1,0,0.1,0.1s0,0.5-0.1,0.8s0,0.4,0,0.6s0,0.1-0.1,0.1s-0.1,0-0.1-0.3
			s-0.2-0.3-0.5-0.3H102v1.5c0,0.2,0.1,0.2,0.8,0.3s0.8,0,1.1-0.4l0.3-0.4c0,0,0,0,0.1,0h0.1c0,0,0.1,0,0.1,0.1c0,0,0,0.1,0,0.1
			L104,160c0,0-0.1,0.1-0.2,0.1l-1.4-0.1h-1.9c-0.1,0-0.1-0.1-0.1-0.1s0-0.1,0.2-0.1h0.4c0.2,0,0.2-0.1,0.2-0.5L101.3,156.5z"/>
		
			<linearGradient id="SVGID_1_" gradientUnits="userSpaceOnUse" x1="-27.4049" y1="-108.7054" x2="103.6985" y2="-108.7054" gradientTransform="matrix(1 2.000000e-02 2.000000e-02 -1 50.42 38.74)">
			<stop  offset="0" style="stop-color:#D61F26"/>
			<stop  offset="0.49" style="stop-color:#F7B611"/>
			<stop  offset="1" style="stop-color:#00AFD6"/>
		</linearGradient>
		<path class="st3" d="M140,149.2c-32.8-0.8-101.7-2.6-109.8-2.8c-3-0.1-5.2-0.2-7.3-0.3h-0.3c-0.5-0.1-1.3-0.1-2.5-0.1
			c-0.3,0-0.6,0.2-0.6,0.4s0.2,0.5,0.6,0.5c0.5,0.2,1.1,0.3,1.7,0.4c0.2,0,0.5,0,0.7,0.1c1.9,0.3,3.8,0.6,5.7,0.7
			c1.6,0,3.3,0,4.9-0.1c1.2-0.1,2.9-0.1,5.5,0c4.6,0.1,13.5,0.3,23,0.5c43,1.1,89,2.3,89,1.8S149.6,149.5,140,149.2z"/>
		<path class="st2" d="M125.4,133.5c0-0.1-0.2-0.5-0.5-0.5s-0.9,0.4-0.9,0.7s0-0.2,0,0.3c0,0.2,0,1.1,0,1.4c0,0.6,0,2.2,0,3.5
			c-0.1,5.7-0.1,6,0.5,6s0.6-0.4,0.6-1.8c0.1-4.4,0.3-7.7,0.4-8.7C125.4,134,125.4,133.8,125.4,133.5z"/>
		<path class="st2" d="M35,136.5c-0.2,0-1.5-0.1-1.7-0.1l0.2-5.6l0,0c0-0.3-0.3-0.6-0.6-0.6c-0.3,0-0.6,0.2-0.7,0.5l0,0l0,0l0,0v3.5
			v0.1c0,0.1,0,0.2,0,0.3c0,0.6,0,1.3-0.1,1.8l-4.8-0.1c0-0.8,0.2-7.3,0.3-9.2l0,0v-1.9l0,0c0-0.3-0.3-0.6-0.6-0.6
			c-0.3,0-0.6,0.2-0.7,0.5l0,0l0,0l0,0v1.4c0,0,0,0.1,0,0.1l0,0c0,0.8-0.1,6.9-0.2,9.8c-0.9,0.1-1.4,0.2-1.5,0.5s0.1,0.6,0.7,0.6
			h0.7v0.1c0,1.6-0.2,3-0.2,4.3c0,0.3,0.1,0.5,0.3,0.5c0.5,0,0.8-0.2,0.8-0.9l0.1-3.2c0-0.2-0.1-0.8,0.2-0.8
			c0.7-0.1,3.5-0.1,4.7-0.2L32,148.9c0,0.6,0.1,0.6,0.5,0.7s0.6-0.7,0.6-1.1l0.4-10.9c0,0,0-0.1,0.2-0.1l1.4,0.1
			c0.3,0,0.4-0.5,0.5-0.8S35.2,136.5,35,136.5z M62,134.1c0-0.1-0.1-0.6-0.8-0.7h-0.1c-0.2,0.1-0.3,0.2-0.4,0.3
			c-0.1,0.1-0.1,0.2-0.2,0.3c-0.2,0.9-2.9,5.1-3.6,6.6c-0.9-1.8-1.6-3.7-2-5.6c0-0.2-0.5-0.3-0.7-0.3s-0.3,0.1-0.5,0.5
			c-1,1.9-2.1,3.7-3.4,5.4c-1-2.3-1.8-4.6-2.5-6.9l-0.4-1.4l0,0l0,0v-0.2l-0.2-0.7l0,0c-0.1-0.1-0.2-0.2-0.4-0.2
			c-0.1,0-0.2,0-0.2,0.1c-0.4,0.2-1,0.6-1,0.8s0.3,0.6,0.7,1.6c1,2.2,1.8,4.5,2.5,6.8l0.4,1.6l0.1,0.2c0,0.1,0.1,0.2,0.1,0.2l0,0
			l0,0c0.1,0.1,0.3,0.1,0.4,0.1c0.3,0,0.5-0.1,0.6-0.4l0,0c0.9-1.8,2.1-3.6,3.4-5.1c0.8,0.8,1.7,3.9,2,5.1c0,0.1,0,0.1,0.1,0.1
			c0.1,0.2,0.3,0.4,0.6,0.3c0.3,0,0.5-0.1,0.6-0.4l0,0c0.6-1.5,1.4-3,2.3-4.3C60.9,135.8,62,134.4,62,134.1z M75.2,132.1l-0.1-0.1
			c-0.1-0.1-0.3-0.2-0.5-0.2c-0.4,0-0.8,0.4-0.8,0.8c0,0,0,0,0,0c0,0,0,0,0,0.1l0,0c0,0.2,0,0.3,0,0.5c0,0.2,0,0.4,0,0.5
			c0,0.1,0,0.2,0,0.4c0,0.6,0,1.1,0,2.2c-0.1,5.1-0.1,8.6,0.4,8.6s0.6-0.3,0.6-1.6c0.1-3.9,0.3-9.3,0.4-10.2c0-0.1,0-0.1,0-0.2
			c0,0,0-0.2,0-0.2C75.3,132.5,75.3,132.3,75.2,132.1L75.2,132.1z M81,132.4c0-0.1-0.2-0.5-0.5-0.5s-0.9,0.4-0.9,0.7s0-0.2,0,0.3
			c0,0.2,0,1.1,0,1.4c0,0.6,0,2.2,0,3.5c-0.1,5.7-0.1,6,0.5,6s0.6-0.4,0.6-1.8c0.1-4.4,0.3-7.7,0.4-8.8C81,132.9,81,132.7,81,132.4
			L81,132.4z M78.5,129c-0.7,1-1.3,2.1-1.8,3.3c0,0.2,0.4,0.4,0.6,0.4s0.8-0.3,0.8-0.5s0-0.2,0-0.4c0-0.3,0.8-2.5,0.8-2.6
			S78.6,129,78.5,129z M47.5,141.6l-0.2-0.3l-0.1-0.2l-1.1-1.3l0,0c-1.4-1.5-1.7-1.8-4.8-6.7l-0.2-0.2l0,0l-0.9-1.4l0,0
			c-0.1-0.1-0.2-0.2-0.3-0.2h-0.1c-0.3,0-0.9,0.5-0.9,0.7s0.3,0.4,0.5,0.7c0.1,0.2,0.1,0.4,0.1,0.6c0,0.8-2.4,5.5-3.8,7.6
			c-0.3,0.5-0.6,0.7-0.6,1s0.3,0.5,0.9,0.5h0.1c0.2,0,0.3-0.1,0.4-0.3v-0.1l0.1-0.1c0-0.1,0-0.1,0.1-0.2l0.9-1.9
			c0.2-0.7,0.9-1.1,1.6-0.9l4.7,0.1l2,2.9l0.5,0.6l0.2,0.2c0,0,0.1,0.1,0.1,0.1l0,0l0,0c0.1,0,0.1,0,0.2,0.1c0.4,0,0.7-0.4,0.7-0.7
			C47.6,142,47.5,141.8,47.5,141.6L47.5,141.6z M38.9,132.1c0.1,0.1,0.2,0.2,0.2,0.4L38.9,132.1z M40.4,137.9
			c-1.7,0-1.8-0.1-1.8-0.3s0.1-0.3,0.4-0.9l1.2-2.5l2.7,3.6C42.1,137.9,41.2,138,40.4,137.9L40.4,137.9z M72.7,141.9l-0.2-0.3
			l-0.1-0.2l-1.2-1.3l0,0c-1.4-1.5-1.7-1.7-4.8-6.4l-0.2-0.2l0,0l-0.9-1.4l0,0c-0.1-0.2-0.2-0.3-0.4-0.3h-0.1
			c-0.3,0-0.9,0.5-0.9,0.7s0.3,0.4,0.6,0.7c0.1,0.2,0.1,0.4,0.1,0.6c0,0.8-3.4,6.8-4.7,8.7c-0.3,0.5-0.6,0.7-0.6,1s0.3,0.5,0.9,0.5
			h0.1c0.1,0,0.3-0.1,0.4-0.3v-0.1l0.1-0.1c0-0.1,0-0.1,0.1-0.1l1.9-3.4c0.3-0.6,0.9-1,1.6-0.9l4.7,0.1l2,2.7l0.5,0.6l0.2,0.2
			l0.1,0.1h0.1l0,0c0.1,0,0.1,0,0.2,0.1c0.4,0,0.7-0.3,0.7-0.7c0,0,0,0,0,0C72.8,142.2,72.7,142,72.7,141.9L72.7,141.9z M64.2,132.9
			c0.1,0.1,0.2,0.2,0.2,0.4L64.2,132.9z M65.6,138.3c-1.7,0-1.8-0.1-1.8-0.3s0.1-0.2,0.4-0.9l1.2-2.4l2.7,3.4
			C67.3,138.4,66.5,138.4,65.6,138.3L65.6,138.3z"/>
		<path class="st2" d="M90.7,144.6c0-0.3,0.4-7,0.5-9.6c0.1-1,0.1-2.1,0-3.1h-2c-0.2,0-0.4,0-0.7,0s-0.4-0.4-0.4-0.7
			c0-0.3,0.3-0.5,0.6-0.5c0.5,0,1.3,0.2,3.3,0.2c1.3,0,2.6-0.1,3.9,0c0.2,0,0.3,0.1,0.3,0.3c-0.1,0.4-0.4,0.6-0.8,0.7
			c-0.7,0.1-1.9,0-2.6,0c-0.3,1.4-0.6,10.4-0.6,12.1S90.7,145,90.7,144.6z"/>
		<path class="st2" d="M99.6,133.9c1.9,0,3.5,1.5,3.4,4.8s-2.3,4.8-4.4,4.8c-1.8,0-3.7-1.6-3.7-4.6
			C94.9,136.6,96.3,133.8,99.6,133.9z M99,142.3c1,0,2.7-0.6,2.8-3.4s-1.2-3.9-2.6-4c-1.9,0-3,1.7-3,3.7
			C96.1,139.5,96.6,142.3,99,142.3z"/>
		<path class="st2" d="M104.7,134.1c0.3-0.1,0.5-0.2,0.8-0.2c0.1,0,0.2,0.1,0.2,0.4s-0.1,0.9-0.1,1.4c0,1.6-0.1,6.5,3.2,6.6
			c3.7,0.1,3.3-5.3,3.4-6.7c0-0.8,0-1.2,0.3-1.2c0.2,0.1,0.5,0.2,0.6,0.4c0.2,0.1,0.2,0.3,0.2,0.5c0,0.5-0.2,8.5-5,8.4
			c-3.3-0.1-4.1-6.8-4-9C104.4,134.4,104.5,134.2,104.7,134.1z"/>
		<path class="st2" d="M120.3,135.8c0.1,1.1-0.5,2.1-1.5,2.6l-1.3,0.5l0,0c0.2,0,0.4,0.1,0.6,0.3c1.9,2.5,3.8,4,3.8,4.2
			c0,0.2-0.1,0.4-0.2,0.5c-0.2,0.2-0.4,0.3-0.7,0.3c-0.2,0-0.4-0.1-0.5-0.3c-0.3-0.4-0.7-0.9-1.5-1.9l-1.9-2.1
			c-0.2-0.2-0.5-0.4-0.8-0.3c0,0.4-0.1,0.8-0.1,1.4l-0.1,2.9c0,0.2-0.1,0.4-0.3,0.4s-1,0.1-0.9-0.8c0-0.3,0.3-3.6,0.3-4.4
			c0-1.2,0-2.7,0-3.6c0-0.6-0.2-1.1,0.1-1.3c0.9-0.6,1.8-0.9,2.9-0.9c1.2,0,2.1,1,2.1,2.1C120.3,135.6,120.3,135.7,120.3,135.8z
			 M116.4,138.4c0,0.1,0.2,0.1,0.3,0.1s2.3-0.9,2.3-2.6c0-1.2-0.5-1.6-1.2-1.6c-0.5,0-0.9,0.2-1.2,0.5c-0.2,0.9-0.3,1.8-0.3,2.8
			L116.4,138.4z"/>
		<path class="st2" d="M127.6,143.5c0.3,0,0.8,0.4,1.4,0.4c0.6,0,1.1-0.4,1.1-1c0-1.4-1.9-4.6-2-6s1.3-3.4,2.9-3.3
			c0.3,0,1.4,0.2,1.4,0.6s-0.1,0.6-0.8,0.6c-1.6,0-2.2,0.8-2.2,1.7c0,1.2,1.8,3.9,1.8,6c0,0.4-0.5,2.7-2.2,2.7
			c-0.4,0-1.4-0.4-1.5-0.6c-0.1-0.2-0.1-0.4-0.1-0.6C127.4,143.6,127.5,143.5,127.6,143.5z"/>
		<path class="st2" d="M132.6,143.8c0,0.1,0.1,0.6,0.8,0.7h0.1c0.2-0.1,0.3-0.2,0.4-0.3c0.1-0.1,0.1-0.2,0.2-0.3
			c0.2-0.9,2.9-5.1,3.6-6.6c0.9,1.8,1.6,3.7,2,5.6c0,0.2,0.5,0.3,0.6,0.3s0.3-0.1,0.5-0.5c1-1.9,2.1-3.7,3.4-5.4
			c1,2.3,1.8,4.6,2.6,6.9l0.4,1.4l0,0l0,0v0.2l0.2,0.7l0,0c0.1,0.1,0.2,0.2,0.4,0.2c0.1,0,0.2,0,0.2-0.1c0.4-0.2,1-0.6,1-0.8
			s-0.3-0.6-0.7-1.6c-1-2.2-1.8-4.5-2.6-6.9l-0.4-1.6l-0.1-0.2c0-0.1-0.1-0.2-0.1-0.2l0,0l0,0c-0.1-0.1-0.3-0.1-0.4-0.1
			c-0.3,0-0.5,0.1-0.6,0.4l0,0c-0.9,1.8-2.1,3.6-3.4,5.1c-0.8-0.8-1.7-3.9-2-5.1c0-0.1,0-0.1-0.1-0.1c-0.1-0.2-0.3-0.4-0.6-0.3
			c-0.3,0-0.5,0.1-0.6,0.4l0,0c-0.6,1.5-1.4,3-2.3,4.4C133.7,142.1,132.6,143.4,132.6,143.8z"/>
		<path class="st4" d="M918.5,100.5l8.5-20.9c0.1-0.2,0.2-0.2,0.4-0.2l0.5,0.2c0.2,0.1,0.2,0.2,0.2,0.4l-8.4,20.9h0
			c-0.3,0.7-0.6,1.4-0.9,2.2l-9.2,23c-0.1,0.2-0.2,0.2-0.4,0.2l-0.5-0.2c-0.2-0.1-0.2-0.2-0.2-0.4l6.5-18.1
			C915.9,105.2,917.8,102.3,918.5,100.5L918.5,100.5z"/>
		<path class="st5" d="M927.9,79.4l0.6,0.5c0,0.1,0,0.2-0.1,0.2c4.4,3.2,8,7.5,10.4,12.3c2.3,4.4,4,9.1,5,14
			c-2.5,4.5-9.4,3.8-12.1-0.2c0.1-2.6,0-5.4-0.1-7.9c-0.3-3.5-0.8-7.1-1.5-10.5c-0.4-2.6-1.1-5.2-1.9-7.7
			C928.2,80.1,927.8,79.5,927.9,79.4z"/>
		<path class="st5" d="M890.2,80.4c4.4-1.4,8.8-2.5,13.4-3.3c4-0.6,8-0.8,12-0.6c4.1,0.2,8.2,1.2,12,2.8c0,0.1,0.1,0.1,0.1,0.2
			l-0.1-0.1h-0.1c-0.1,0.1-0.2,0.2-0.3,0.3l0,0c-0.4,0.5-0.7,1.5-1.5,3c-0.3,0.5-0.8,1.5-1.4,2.8c-2.6,5.4-4.9,11-6.7,16.7
			c-0.1,0-3.4,3.6-8.9,0.2c-4.7-2.9-4.3-6.8-4.3-6.8c4-4.7,8.6-8.7,13.9-12c1.7-1.2,3.5-2.2,5.3-3.1c1.1-0.6,2.4-0.9,3.6-1.1h0.1
			H927c-0.7-0.3-1.4-0.5-2.1-0.6l-0.9-0.1c-5.1-0.7-11.6,0.6-17.2,2.6c-5.5,1.9-10.1,4.4-11.9,6C891.9,89.9,885,84.2,890.2,80.4z"/>
		<path class="st4" d="M927.6,79.3c0.1,0,0.3,0.1,0.4,0.1c0.4,0.7,1.5,5.5,2.1,8.4c0.7,3.5,1.2,7,1.5,10.5c0.1,2.6,0.2,5.3,0.1,7.9
			c-1.3,4.3-13.8,1.4-14.2-4c1.8-5.7,4.1-11.3,6.7-16.7c0.7-1.3,1.2-2.3,1.4-2.8c0.8-1.5,1.1-2.5,1.5-3
			C927.3,79.5,927.4,79.4,927.6,79.3z"/>
		<path class="st4" d="M928.1,79.4c6.5,3.5,13.5,9,17.3,14.7c2.2,3.2,4.6,8.1,4.6,11.9c-1.2,5.4-6.2,0.7-6.2,0.5
			c-1-4.9-2.7-9.6-5-14c-2.4-4.9-6-9.2-10.5-12.5C928.2,79.8,928.1,79.6,928.1,79.4z"/>
		<path class="st4" d="M906.8,81.3c5.6-1.9,12.2-3.3,17.2-2.6l0.9,0.2c0.7,0.1,1.4,0.3,2.1,0.6h0.1H927c-1.3,0.2-2.5,0.5-3.6,1.1
			c-1.8,0.9-3.6,2-5.3,3.1c-6.1,4.2-12.3,9.9-13.9,12c-3.9,2.3-12.7-5.5-9.4-8.4C896.6,85.6,901.3,83.1,906.8,81.3z"/>
		
			<ellipse transform="matrix(0.3927 -0.9197 0.9197 0.3927 490.1451 900.9576)" class="st1" cx="927.2" cy="79.4" rx="0.7" ry="2.5"/>
		<path class="st1" d="M871.9,119.6c0.2,0.2,0.5,0.3,0.8,0.4c0,0,0.1-0.1,0.2-0.2l0.6-0.8l6.7,2.4c-0.1,0.1-0.2,0.2-0.2,0.4
			s-0.3,0.3-0.1,0.5c0.2,0.2,0.5,0.3,0.8,0.4c0,0,0.2-0.2,0.3-0.2c1.3-1.8,2.6-3.7,3.9-5.6c0.1-0.2,0.4-0.3,0.6-0.2c0,0,0,0,0,0
			c0.7,0.2,1.3,0.5,2,0.7s0.4,0.2,0.8-0.3l2.5,0.8c1.4,0.5,2.9,1,4.3,1.5c0.2,0.1,0.4,0,0.5-0.1c0,0,0,0,0-0.1
			c0.3-0.6,0.2-0.8-0.4-0.9c-0.7-0.1-1.2-0.7-1.3-1.4c-0.5-1.8-1.1-3.6-1.6-5.4c-0.3-1.1-0.7-2.1-1-3.2c-0.1-0.2,0-0.4,0.1-0.6
			c1.5-2,2.9-4.1,4.4-6.1c0.2-0.3,0.2-0.4-0.1-0.7s-0.5-0.3-0.8,0.1c-0.6,0.8-0.6,0.8-1.5,0.6l-6-1.1l-0.3-0.1
			c0.1-0.3,0-0.7-0.3-0.9c-0.1,0-0.2-0.1-0.3-0.1c-0.1,0-0.2,0.1-0.3,0.2l-3.7,5.1l-0.6,0.9c-0.3-0.2-0.7-0.1-1,0.2
			c-0.1,0.1-0.1,0.2,0,0.3c0.2,0.4,0.1,0.9-0.2,1.2c-1.2,1.7-2.4,3.4-3.6,5c-0.1,0.2-0.3,0.2-0.5,0.1c0,0,0,0,0,0
			c-1.1-0.4-2.2-0.7-3.2-1.1c-0.3-0.1-0.5,0-0.6,0.3c-0.2,0.5-0.1,0.6,0.3,0.8l3.1,1l-1.1,1.5l-2.8,4
			C871.9,119.3,871.7,119.4,871.9,119.6z M881.4,109.5c-0.5,0.5-1,1.1-1.6,1.6c-0.4,0.3-0.8,0.6-1.2,0.8l0-0.1l2.6-3.6
			c0.1,0.3,0.2,0.5,0.3,0.8C881.6,109.1,881.6,109.3,881.4,109.5z M883.1,113.9c0.3,0.1,0.4,0.3,0.5,0.7l-3.5-1.2
			c-0.6-0.2-0.5-0.2-0.8,0.3l-1.6-0.5c0.1-0.3,0.3-0.4,0.5-0.3c0.2,0.1,0.4,0.1,0.6,0.2c0.1,0,0.3,0,0.4-0.1
			c0.2-0.2,0.5-0.2,0.8-0.1C881,113.2,882.1,113.5,883.1,113.9z M885.9,115.3l4.3-6l2.6,8.3L885.9,115.3z M884.9,114
			c0.8-1.2,1.7-2.5,2.6-3.7s1.9-2.6,2.8-3.9c1-1.3,1.9-2.6,2.7-4l0.6,0.1l-8.6,12.2h-0.1C884.8,114.4,884.7,114.2,884.9,114
			L884.9,114z M882.5,108.2c-0.1-0.3-0.2-0.5-0.3-0.8c-0.1-0.2-0.1-0.5,0.1-0.6c0.7-0.9,1.3-1.9,2-2.8l1.3-2
			C884.9,104.2,883.8,106.3,882.5,108.2L882.5,108.2z M873.9,118.5C873.9,118.4,873.9,118.4,873.9,118.5l3.4-4.3l4,1.3l2.5,0.8
			l-3.2,4.6L873.9,118.5z"/>
		<path class="st4" d="M871.9,119.6c0.2,0.2,0.5,0.3,0.8,0.4c0,0,0.1-0.1,0.2-0.2l0.6-0.8l6.7,2.4c-0.1,0.1-0.2,0.2-0.2,0.4
			s-0.3,0.3-0.1,0.5c0.2,0.2,0.5,0.3,0.8,0.4c0,0,0.2-0.2,0.3-0.2c1.3-1.8,2.6-3.7,3.9-5.6c0.1-0.2,0.4-0.3,0.6-0.2c0,0,0,0,0,0
			c0.7,0.2,1.3,0.5,2,0.7s0.4,0.2,0.8-0.3l2.5,0.8c1.4,0.5,2.9,1,4.3,1.5c0.2,0.1,0.4,0,0.5-0.1c0,0,0,0,0-0.1
			c0.3-0.6,0.2-0.8-0.4-0.9c-0.7-0.1-1.2-0.7-1.3-1.4c-0.5-1.8-1.1-3.6-1.6-5.4c-0.3-1.1-0.7-2.1-1-3.2c-0.1-0.2,0-0.4,0.1-0.6
			c1.5-2,2.9-4.1,4.4-6.1c0.2-0.3,0.2-0.4-0.1-0.7s-0.5-0.3-0.8,0.1c-0.6,0.8-0.6,0.8-1.5,0.6l-6-1.1l-0.3-0.1
			c0.1-0.3,0-0.7-0.3-0.9c-0.1,0-0.2-0.1-0.3-0.1c-0.1,0-0.2,0.1-0.3,0.2l-3.7,5.1l-0.6,0.9c-0.3-0.2-0.7-0.1-1,0.2
			c-0.1,0.1-0.1,0.2,0,0.3c0.2,0.4,0.1,0.9-0.2,1.2c-1.2,1.7-2.4,3.4-3.6,5c-0.1,0.2-0.3,0.2-0.5,0.1c0,0,0,0,0,0
			c-1.1-0.4-2.2-0.7-3.2-1.1c-0.3-0.1-0.5,0-0.6,0.3c-0.2,0.5-0.1,0.6,0.3,0.8l3.1,1l-1.1,1.5l-2.8,4
			C871.9,119.3,871.7,119.4,871.9,119.6z M881.4,109.5c-0.5,0.5-1,1.1-1.6,1.6c-0.4,0.3-0.8,0.6-1.2,0.8l0-0.1l2.6-3.6
			c0.1,0.3,0.2,0.5,0.3,0.8C881.6,109.1,881.6,109.3,881.4,109.5z M883.1,113.9c0.3,0.1,0.4,0.3,0.5,0.7l-3.5-1.2
			c-0.6-0.2-0.5-0.2-0.8,0.3l-1.6-0.5c0.1-0.3,0.3-0.4,0.5-0.3c0.2,0.1,0.4,0.1,0.6,0.2c0.1,0,0.3,0,0.4-0.1
			c0.2-0.2,0.5-0.2,0.8-0.1C881,113.2,882.1,113.5,883.1,113.9z M885.9,115.3l4.3-6l2.6,8.3L885.9,115.3z M884.9,114
			c0.8-1.2,1.7-2.5,2.6-3.7s1.9-2.6,2.8-3.9c1-1.3,1.9-2.6,2.7-4l0.6,0.1l-8.6,12.2h-0.1C884.8,114.4,884.7,114.2,884.9,114
			L884.9,114z M882.5,108.2c-0.1-0.3-0.2-0.5-0.3-0.8c-0.1-0.2-0.1-0.5,0.1-0.6c0.7-0.9,1.3-1.9,2-2.8l1.3-2
			C884.9,104.2,883.8,106.3,882.5,108.2L882.5,108.2z M873.9,118.5C873.9,118.4,873.9,118.4,873.9,118.5l3.4-4.3l4,1.3l2.5,0.8
			l-3.2,4.6L873.9,118.5z"/>
		<g>
			<defs>
				<path id="SVGID_2_" d="M871.9,119.6c0.2,0.2,0.5,0.3,0.8,0.4c0,0,0.1-0.1,0.2-0.2l0.6-0.8l6.7,2.4c-0.1,0.1-0.2,0.2-0.2,0.4
					s-0.3,0.3-0.1,0.5c0.2,0.2,0.5,0.3,0.8,0.4c0,0,0.2-0.2,0.3-0.2c1.3-1.8,2.6-3.7,3.9-5.6c0.1-0.2,0.4-0.3,0.6-0.2c0,0,0,0,0,0
					c0.7,0.2,1.3,0.5,2,0.7s0.4,0.2,0.8-0.3l2.5,0.8c1.4,0.5,2.9,1,4.3,1.5c0.2,0.1,0.4,0,0.5-0.1c0,0,0,0,0-0.1
					c0.3-0.6,0.2-0.8-0.4-0.9c-0.7-0.1-1.2-0.7-1.3-1.4c-0.5-1.8-1.1-3.6-1.6-5.4c-0.3-1.1-0.7-2.1-1-3.2c-0.1-0.2,0-0.4,0.1-0.6
					c1.5-2,2.9-4.1,4.4-6.1c0.2-0.3,0.2-0.4-0.1-0.7s-0.5-0.3-0.8,0.1c-0.6,0.8-0.6,0.8-1.5,0.6l-6-1.1l-0.3-0.1
					c0.1-0.3,0-0.7-0.3-0.9c-0.1,0-0.2-0.1-0.3-0.1c-0.1,0-0.2,0.1-0.3,0.2l-3.7,5.1l-0.6,0.9c-0.3-0.2-0.7-0.1-1,0.2
					c-0.1,0.1-0.1,0.2,0,0.3c0.2,0.4,0.1,0.9-0.2,1.2c-1.2,1.7-2.4,3.4-3.6,5c-0.1,0.2-0.3,0.2-0.5,0.1c0,0,0,0,0,0
					c-1.1-0.4-2.2-0.7-3.2-1.1c-0.3-0.1-0.5,0-0.6,0.3c-0.2,0.5-0.1,0.6,0.3,0.8l3.1,1l-1.1,1.5l-2.8,4
					C871.9,119.3,871.7,119.4,871.9,119.6z M881.4,109.5c-0.5,0.5-1,1.1-1.6,1.6c-0.4,0.3-0.8,0.6-1.2,0.8l0-0.1l2.6-3.6
					c0.1,0.3,0.2,0.5,0.3,0.8C881.6,109.1,881.6,109.3,881.4,109.5z M883.1,113.9c0.3,0.1,0.4,0.3,0.5,0.7l-3.5-1.2
					c-0.6-0.2-0.5-0.2-0.8,0.3l-1.6-0.5c0.1-0.3,0.3-0.4,0.5-0.3c0.2,0.1,0.4,0.1,0.6,0.2c0.1,0,0.3,0,0.4-0.1
					c0.2-0.2,0.5-0.2,0.8-0.1C881,113.2,882.1,113.5,883.1,113.9z M885.9,115.3l4.3-6l2.6,8.3L885.9,115.3z M884.9,114
					c0.8-1.2,1.7-2.5,2.6-3.7s1.9-2.6,2.8-3.9c1-1.3,1.9-2.6,2.7-4l0.6,0.1l-8.6,12.2h-0.1C884.8,114.4,884.7,114.2,884.9,114
					L884.9,114z M882.5,108.2c-0.1-0.3-0.2-0.5-0.3-0.8c-0.1-0.2-0.1-0.5,0.1-0.6c0.7-0.9,1.3-1.9,2-2.8l1.3-2
					C884.9,104.2,883.8,106.3,882.5,108.2L882.5,108.2z M873.9,118.5C873.9,118.4,873.9,118.4,873.9,118.5l3.4-4.3l4,1.3l2.5,0.8
					l-3.2,4.6L873.9,118.5z"/>
			</defs>
			<clipPath id="SVGID_3_">
				<use xlink:href="#SVGID_2_"  style="overflow:visible;"/>
			</clipPath>
			<g class="st6">
				<polygon class="st7" points="886.2,100.8 893,102.4 891.7,104.4 885.3,102.9 				"/>
				<polygon class="st7" points="884.8,104.3 890.7,105.7 889.4,107.5 883.8,106.1 				"/>
				<polygon class="st7" points="883,107.4 888.4,108.9 887.2,110.6 881.9,109 				"/>
				<polygon class="st7" points="880.5,110.4 886.1,112.1 884.9,113.9 878.7,111.8 				"/>
			</g>
		</g>
		<g id="_Group_2">
			<path id="_Compound_Path_" class="st1" d="M139.8,65.7L139.8,65.7c0.2-2.8-0.5-5.6-2-8c0.4,0,0.9,0.1,1.2,0.4
				c-1.6-3-4.2-3.7-7.2-4.3c0.4-0.4,0.9-0.7,1.4-0.9c-2.7-1-5.7-1.1-8.5-0.4c-1.8,0.5-3.6,1.3-5.1,2.3c1.8-1.6,3.9-3,6-4.2
				c3.1-1.8,6.8-2.4,10.4-1.7c-3.5-4-9.6-4.5-13.6-1c0,0-0.1,0.1-0.1,0.1c0.5-0.7,1-1.5,1.6-2.1c-1.7,0.7-3.2,1.9-4.2,3.5
				c-1.3,1.6-2.3,3.5-2.7,5.6c-0.6-3.4-2.1-6.6-4.4-9.1c-0.4-0.5-1.1-1.2-1.7-1.2c0,0.5,0,0.9,0,1.4c-1.3-1.3-3.2-1.9-5-1.5
				c-1.4,0.2-4.3,1.1-4.8,2.6C101,47,104.8,48,105,48c1.6,0.5,3.1,1.2,4.5,2c2.1,1.4,3.9,3.1,5.4,5c-2.2-2.4-5.4-4.5-8.3-4.3
				c0.1,0.4,0.2,0.8,0.3,1.2c-0.2-0.8-3.7-1.2-4.4-1.3c-1.5-0.2-3.1,0-4.4,0.7c0.5,0.4,0.9,0.9,1.3,1.4c-0.2-0.3-2.6,1-2.9,1.1
				c-1,0.6-1.8,1.3-2.4,2.3c-1.3,2.1-2,4.4-2.2,6.9c0.8-1,1.7-2,2.8-2.8c1.1-0.8,2.2-1.5,3.4-2c5.3-2.4,11.4-3.4,16.9-1.4
				c-3.5-0.7-7.1-0.1-10.2,1.8c0.4,0,0.8,0.3,1,0.6c-1.5,0.4-2.9,1.1-4.2,2c-1.3,0.9-2.3,2.2-2.7,3.6l1.3-0.6
				c-1.1,1.9-1.5,4.2-1.1,6.4c0.3,2.2,1.5,4.2,3.2,5.6c-0.4-2.4,1.2-5.3,2.2-7.3c0.7-1.5,1.5-3,2.4-4.4c2.4-3.2,5.6-5.6,9.4-7
				l0.2,0.1c0,1.3,0.2,14.8-6.7,25.7c-7.3,11.5-9.2,17.3-9.2,17.3l7.2,2.8c0,0,4-14.7,5.1-17.9s4.4-12.9,4.7-17.9
				c0.2-4,0.4-8.8,0.4-10.6c4.9,1.8,8.5,7.4,9.7,12.2c0.7,2.7,1.1,5.3,1.4,8.1l0.2-0.3l0,0c0,0,0.2,0,0.2-0.1
				c1.6-1.7,2.7-3.8,3.1-6.1c0.4-2.3-0.4-4.7-2.1-6.3h0.9c-0.9-1.8-2.2-3.3-3.9-4.2L129,60c-1.8-1.7-4.1-2.8-6.5-3.3
				c2.7,0.1,5.4,0.7,7.9,1.7c3.7,1.6,6.8,4.2,8.9,7.6c0.1,0.1,0.2,0.3,0.3,0.4C139.7,66.2,139.8,66,139.8,65.7z M116.6,57.4
				L116.6,57.4C116.6,57.4,116.6,57.4,116.6,57.4L116.6,57.4z"/>
			<path id="_Compound_Path_2" class="st1" d="M25.8,34.6c0.2-0.2,0.4-0.4,0.5-0.6c4-5.5,9.6-9.6,16-11.7c4.4-1.4,8.9-2,13.5-1.9
				c-4.2,0.6-8.1,2.2-11.4,4.8l2.4,0.4c-3,1.4-5.5,3.7-7.2,6.6l1.6,0.2c-3.1,2.5-4.7,6.4-4.4,10.3c0.4,3.9,1.9,7.6,4.4,10.6
				c0.1,0.1,0.3,0.3,0.4,0.2s0,0,0,0l0.3,0.5c0.8-4.5,1.9-9,3.3-13.4c2.6-8,9.4-16.8,17.9-19.3c-0.2,3.1-0.5,11.1-0.7,17.8
				c-0.2,8.5,4.1,25.2,5.6,30.7s6.3,30.7,6.3,30.7L87,96.7c0,0-2.5-9.9-13.2-30.2c-10.2-19.3-8.2-41.9-8-44.1l0.3-0.1
				c5.9,3.1,11.4,7.2,14.8,12.9c1.4,2.5,2.6,5.1,3.5,7.8c1.4,3.6,3.8,8.7,2.8,12.7c3.1-1.9,5.3-5.6,6.1-9c0.9-3.7,0.5-7.5-1.1-11
				l2.1,1.2c-0.6-2.5-2.1-4.8-4.2-6.4c-2.1-1.6-4.3-2.9-6.7-3.8c0.4-0.5,1.1-0.8,1.8-0.9c-4.9-3.5-10.9-5-16.9-4.3
				c9.4-2.7,19.5-0.2,28.2,4.5c2,1,3.8,2.3,5.5,3.7c1.6,1.6,3,3.3,4.3,5.2c0-4.1-1-8.2-2.8-11.8c-0.9-1.7-2.1-3.1-3.7-4.2
				c-0.4-0.3-4.3-2.8-4.7-2.3c0.7-0.8,1.4-1.6,2.3-2.2c-2.2-1.3-4.8-1.9-7.4-1.7c-1.2,0-7.1,0.4-7.5,1.6c0.3-0.7,0.5-1.4,0.7-2.1
				c-5-0.6-10.6,2.5-14.6,6.2c2.8-3.1,6.1-5.7,9.8-7.7c2.5-1.3,5.1-2.3,7.9-2.9c0.4-0.1,6.9-1.3,7-0.9c-0.7-2.6-5.5-4.4-7.8-5
				c-3-0.8-6.2-0.1-8.6,1.9C76.9,3.4,77,2.6,77,1.8c-1-0.1-2.2,1.1-3,1.8c-4.2,4-7.2,9.1-8.6,14.7c-0.2-3.4-1.9-6.8-3.8-9.7
				C60,6.1,58,3.4,55,2.2c0.9,1.2,1.7,2.5,2.5,3.8c-6.2-6.5-16.5-6.7-23-0.4c-0.1,0.1-0.1,0.1-0.2,0.2c6-1,12.1,1,17.2,4.1
				c3.5,2.2,6.7,4.8,9.6,7.8c-2.5-2-5.3-3.5-8.3-4.6c-4.6-1.6-9.6-1.8-14.3-0.5c0.9,0.4,1.7,1,2.3,1.7c-5.2,0.6-9.7,1.4-12.7,6.3
				c0.6-0.4,1.3-0.6,2-0.5c-2.8,3.8-4.4,8.4-4.3,13.2l0,0C25.6,33.7,25.6,34.2,25.8,34.6z M65.8,22.3L65.8,22.3
				C65.8,22.3,65.8,22.3,65.8,22.3L65.8,22.3z"/>
			<path id="_Path_" class="st1" d="M58.6,105.4c0,0,14.6-11.9,28.8-12.4c16.1-0.6,29.8,14.7,29.8,14.7S102.2,108.3,58.6,105.4z"/>
		</g>
	</g>
</g>
</svg>
