<svg xmlns="http://www.w3.org/2000/svg" viewBox="0 0 161.94 163.33"><defs><style>.cls-1{fill:#a3ddec;}</style></defs><title>Asset 9</title><g id="Layer_2" data-name="Layer 2"><g id="big_palm_trees" data-name="big palm trees"><path class="cls-1" d="M127.84,39.49c3.72,10.43,3.81,22,7.18,32.41,4.67-23.16,1.72-49.38-7.32-71.9h-22c1.89,2.31,3.71,4.71,5.52,7.19A123.49,123.49,0,0,1,127.84,39.49Z"/><path class="cls-1" d="M149.8,51.54c3.32-16.44,3.09-34.3-.2-51.54H135.22A159.85,159.85,0,0,1,142,16.3C146,27.65,146.14,40.23,149.8,51.54Z"/><path class="cls-1" d="M161.94,0h-6c1,6.08,1.95,12.17,3.81,17.92A122,122,0,0,0,161.94,0Z"/><path class="cls-1" d="M17.69,0h-4c-1,1.86-1.94,3.74-2.82,5.63A76.84,76.84,0,0,0,17.69,0Z"/><path class="cls-1" d="M84.89,20.49c6.27,5.22,11.25,11.4,16.17,18.14a123.56,123.56,0,0,1,16.61,32.3c3.72,10.44,3.81,22,7.18,32.41,5-24.64,1.31-52.76-9.13-76.18A88.71,88.71,0,0,0,96.66,0H89.23L83.06,19.09C83.67,19.53,84.29,20,84.89,20.49Z"/><path class="cls-1" d="M81.54,26.74l-.76-.59L74.16,46.58q.79.55,1.56,1.19c5.33,4.44,9.56,9.69,13.74,15.42a105,105,0,0,1,14.12,27.46c3.16,8.87,3.24,18.71,6.1,27.55,4.22-20.94,1.12-44.84-7.76-64.75C97.58,43.68,90.07,33.31,81.54,26.74Z"/><path class="cls-1" d="M72.48,54.19l-.63-.48L66.44,70.46q.65.45,1.28,1A68.48,68.48,0,0,1,79,84.08,86.16,86.16,0,0,1,90.56,106.6c2.59,7.27,2.66,15.34,5,22.59,3.46-17.17.91-36.77-6.36-53.1C85.64,68.09,79.48,59.57,72.48,54.19Z"/><path class="cls-1" d="M64.93,77.06l-.5-.39L60.07,90.16c.35.24.69.5,1,.79a55.07,55.07,0,0,1,9.07,10.18,69.32,69.32,0,0,1,9.32,18.12c2.09,5.86,2.14,12.35,4,18.18,2.79-13.82.74-29.6-5.12-42.74A47.89,47.89,0,0,0,64.93,77.06Z"/><path class="cls-1" d="M58.85,95.33,58.49,95l-3.17,9.81q.38.27.75.57a40.1,40.1,0,0,1,6.6,7.4A50.44,50.44,0,0,1,69.44,126c1.52,4.26,1.55,9,2.93,13.22a53,53,0,0,0-3.72-31.08A34.84,34.84,0,0,0,58.85,95.33Z"/><path class="cls-1" d="M53.62,111.15l-.27-.21L51,118.3c.19.13.38.27.56.43a30.1,30.1,0,0,1,4.95,5.55,37.9,37.9,0,0,1,5.08,9.89c1.14,3.19,1.17,6.73,2.2,9.92A39.75,39.75,0,0,0,61,120.77,26.12,26.12,0,0,0,53.62,111.15Z"/><path class="cls-1" d="M35,9.45A143.68,143.68,0,0,1,50.6,0H31.37A121.32,121.32,0,0,0,10.17,31.51C19,25.05,25.84,15.73,35,9.45Z"/><path class="cls-1" d="M0,63C8.82,56.5,15.67,47.17,24.8,40.89A123.57,123.57,0,0,1,57.18,24.44c7.94-2.58,15.59-4.67,23.73-5.23.79-.06,1.55-.07,2.31-.06L89.41,0H66.2A88.38,88.38,0,0,0,52,6.56C29.83,19.43,10.41,40.08,0,63Z"/><path class="cls-1" d="M47.8,35.93C28.95,46.87,12.43,64.42,3.59,83.87c7.5-5.49,13.32-13.42,21.08-18.76a105,105,0,0,1,27.52-14c6.75-2.19,13.25-4,20.17-4.45.67,0,1.32-.06,2,0L80.93,26.2l-1,0C69.21,26.56,57,30.57,47.8,35.93Z"/><path class="cls-1" d="M44.85,61.74c-15.46,9-29,23.36-36.25,39.31,6.15-4.5,10.92-11,17.29-15.38A86.17,86.17,0,0,1,48.45,74.2,68.49,68.49,0,0,1,65,70.55c.55,0,1.08,0,1.61,0L72,53.76l-.79,0C62.41,54.05,52.43,57.34,44.85,61.74Z"/><path class="cls-1" d="M42.72,83.15C30.28,90.37,19.38,102,13.54,114.79c4.95-3.62,8.79-8.85,13.91-12.38a69.31,69.31,0,0,1,18.17-9.23,55,55,0,0,1,13.31-2.94q.66,0,1.29,0l4.36-13.48-.64,0A47.91,47.91,0,0,0,42.72,83.15Z"/><path class="cls-1" d="M42.74,99.77a53,53,0,0,0-21.22,23c3.6-2.64,6.39-6.44,10.12-9a50.46,50.46,0,0,1,13.21-6.72,40.16,40.16,0,0,1,9.68-2.13q.48,0,.94,0l3.17-9.8h-.46A34.85,34.85,0,0,0,42.74,99.77Z"/><path class="cls-1" d="M41.58,114.5a39.77,39.77,0,0,0-15.92,17.26c2.7-2,4.8-4.83,7.59-6.75a37.88,37.88,0,0,1,9.91-5,30.08,30.08,0,0,1,7.26-1.6c.24,0,.48,0,.71,0L53.5,111h-.35A26.13,26.13,0,0,0,41.58,114.5Z"/><path class="cls-1" d="M36.49,163.33s9.93-13.79,14.67-29.42c2.17-7.15,3.21-14.7,1.79-21.46Z"/><path class="cls-1" d="M41.82,130.92c-5.3,15.43-5.33,32.41-5.33,32.41l16.46-50.88C47.82,117.1,44.25,123.84,41.82,130.92Z"/><polygon class="cls-1" points="48.17 135.49 92.53 0 89.84 0 45.75 134.7 48.17 135.49"/><polygon class="cls-1" points="45.75 134.7 89.84 0 87.16 0 43.32 133.91 45.75 134.7"/></g></g></svg>