<svg xmlns="http://www.w3.org/2000/svg" viewBox="0 0 300 199.13"><defs><style>.cls-1{opacity:0.5;}.cls-2{fill:#fff;}</style></defs><title>Asset 1</title><g id="Layer_2" data-name="Layer 2"><g id="lense"><g class="cls-1"><polygon class="cls-2" points="5.61 33.23 0 33.23 0 0 31.81 0 31.81 5.61 5.61 5.61 5.61 33.23"/><polygon class="cls-2" points="32.62 199.13 0 199.13 0 167.12 5.61 167.12 5.61 193.52 32.62 193.52 32.62 199.13"/><polygon class="cls-2" points="300 199.13 268.54 199.13 268.54 193.52 294.39 193.52 294.39 166.91 300 166.91 300 199.13"/><polygon class="cls-2" points="300 33.03 294.39 33.03 294.39 5.61 268.34 5.61 268.34 0 300 0 300 33.03"/><polygon class="cls-2" points="111.15 168.01 80.33 168.01 80.33 133.96 85.94 133.96 85.94 162.4 111.15 162.4 111.15 168.01"/><polygon class="cls-2" points="217.39 168.01 184.42 168.01 184.42 162.4 211.78 162.4 211.78 136.65 217.39 136.65 217.39 168.01"/><polygon class="cls-2" points="217.39 59.62 211.78 59.62 211.78 36.56 186.57 36.56 186.57 30.95 217.39 30.95 217.39 59.62"/><polygon class="cls-2" points="85.94 59.62 80.33 59.62 80.33 30.95 111.15 30.95 111.15 36.56 85.94 36.56 85.94 59.62"/><path class="cls-2" d="M148.86,139.46a40,40,0,1,1,40-40A40,40,0,0,1,148.86,139.46Zm0-74.35a34.37,34.37,0,1,0,34.37,34.37A34.41,34.41,0,0,0,148.86,65.11Z"/><rect class="cls-2" x="146.06" y="80.89" width="5.61" height="12.7"/><rect class="cls-2" x="146.06" y="105.37" width="5.61" height="12.7"/><rect class="cls-2" x="130.27" y="96.68" width="12.7" height="5.61"/><rect class="cls-2" x="154.75" y="96.68" width="12.7" height="5.61"/></g></g></g></svg>