<svg id="Layer_1" data-name="Layer 1" xmlns="http://www.w3.org/2000/svg" viewBox="0 0 663.74 591.69"><defs><style>.cls-1{fill:#fff;}.cls-2{fill:#004e76;}.cls-3{fill:#a62055;}.cls-4{fill:#e6331f;}.cls-5{fill:#3abff0;}.cls-6{fill:#96b522;}.cls-7{fill:#fdc300;}</style></defs><title>TA-logo-white-for-lightbox</title><path class="cls-1" d="M38.75,513.87a2.55,2.55,0,0,0-1.86-1.21h-1.1a2.6,2.6,0,0,0-1.86,1.21L.22,587.75a1.94,1.94,0,0,0,1.87,2.85H9A2.77,2.77,0,0,0,11.53,589c2.2-5.05,4.49-10,6.69-15h35.9l6.8,15a2.55,2.55,0,0,0,2.52,1.64h6.92a1.94,1.94,0,0,0,1.87-2.85ZM22.5,564.47,35.9,534.4h.55L50,564.47Z" transform="translate(0 0)"/><path class="cls-1" d="M147.42,513.76h-7.35a2.07,2.07,0,0,0-2.08,2.08V561.4c0,10.88-7.14,19.33-18.45,19.33s-18.21-8.57-18.21-19.54V515.85a2.09,2.09,0,0,0-2.09-2.08H91.87a2.15,2.15,0,0,0-2.08,2.08V562c0,16.68,12.51,29.74,29.74,29.74s30-13.06,30-29.74v-46.1A2.15,2.15,0,0,0,147.42,513.76Z" transform="translate(0 0)"/><path class="cls-1" d="M197.4,546.36c-9.12-3.73-14-7.57-14-13.83,0-4.06,3.18-9.88,12.4-9.88,6.37,0,14.06,5.05,14.83,5.49,1.53,1,3,.33,3.83-1.1s1.87-2.85,2.75-4.17a2.6,2.6,0,0,0-.66-3.73,37.19,37.19,0,0,0-20.31-6.48c-17.46,0-24,11.75-24,20.31,0,12.73,8.78,18.55,20,23.27,10.87,4.5,16.58,8.68,16.58,15.26,0,5.6-4.83,10.2-12.41,10.2-8.44,0-16.91-7-17.56-7.57-1.21-1-2.74-.55-3.73.88s-1.87,3.06-2.86,4.5c-1.1,1.87-.32,2.63.65,3.51a35.59,35.59,0,0,0,23.61,8.67c14.27,0,24.48-9.32,24.48-20.74C221,557.57,210.13,551.52,197.4,546.36Z" transform="translate(0 0)"/><path class="cls-1" d="M296.89,513.76h-55.2a2.08,2.08,0,0,0-2.09,2.08V522a2.09,2.09,0,0,0,2.09,2.08h21.89v64.44a2.16,2.16,0,0,0,2.08,2.08h7.25a2.16,2.16,0,0,0,2.08-2.08V524.08h21.89A2.09,2.09,0,0,0,299,522v-6.15A2.08,2.08,0,0,0,296.89,513.76Z" transform="translate(0 0)"/><path class="cls-1" d="M377,537.25a23.68,23.68,0,0,0-23.93-23.49H323.26a2.08,2.08,0,0,0-2.08,2.08v72.67a2.09,2.09,0,0,0,2.08,2.08h7.13a2.16,2.16,0,0,0,2.09-2.08v-28h16.57l14.6,29.09a2,2,0,0,0,1.75,1H374a2.08,2.08,0,0,0,1.86-3.19l-15-27.88C370.34,555.69,377,547.35,377,537.25Zm-24.81,13.83H332.7V524.41h19.54c7.14,0,13.39,5.92,13.39,13.07A13.64,13.64,0,0,1,352.24,551.08Z" transform="translate(0 0)"/><path class="cls-1" d="M434.15,513.87a2.59,2.59,0,0,0-1.87-1.21h-1.09a2.56,2.56,0,0,0-1.86,1.21l-33.71,73.88a1.93,1.93,0,0,0,1.87,2.85h6.9a2.76,2.76,0,0,0,2.53-1.64c2.2-5.05,4.5-10,6.7-15h35.89l6.81,15a2.56,2.56,0,0,0,2.52,1.64h6.92a1.94,1.94,0,0,0,1.87-2.85Zm-16.24,50.6L431.3,534.4h.55l13.5,30.07Z" transform="translate(0 0)"/><path class="cls-1" d="M533.93,580.39H501.19V515.85a2.16,2.16,0,0,0-2.09-2.08h-7.24a2.08,2.08,0,0,0-2.09,2.08v72.67a2.09,2.09,0,0,0,2.09,2.08h42.07a2.08,2.08,0,0,0,2.08-2.08v-6A2.08,2.08,0,0,0,533.93,580.39Z" transform="translate(0 0)"/><path class="cls-1" d="M567.27,513.76H560a2.15,2.15,0,0,0-2.09,2.08v72.67A2.16,2.16,0,0,0,560,590.6h7.23a2.16,2.16,0,0,0,2.09-2.08V515.85A2.16,2.16,0,0,0,567.27,513.76Z" transform="translate(0 0)"/><path class="cls-1" d="M663.52,587.75,630,513.87a2.61,2.61,0,0,0-1.87-1.21h-1.1a2.6,2.6,0,0,0-1.87,1.21l-33.7,73.88a1.94,1.94,0,0,0,1.86,2.85h6.93a2.76,2.76,0,0,0,2.52-1.64c2.2-5.05,4.5-10,6.7-15H645.4l6.8,15a2.57,2.57,0,0,0,2.53,1.64h6.91A1.94,1.94,0,0,0,663.52,587.75Zm-49.72-23.28,13.39-30.07h.55l13.5,30.07Z" transform="translate(0 0)"/><path class="cls-1" d="M561.75,65.82c-6.23-2.3-28.31-4.83-37.61-5.81-4.31-3.51-15.82-12.33-22.44-12.33a8.12,8.12,0,0,0-4,1,7.37,7.37,0,0,0-3.53,4.61c-.72,2.76.05,5.77,2.29,10.19a35.74,35.74,0,0,0-9.86-2,8.13,8.13,0,0,0-6.74,3,7.22,7.22,0,0,0-1.41,5.95c2,9.58,19.22,22.79,19.22,22.79l-.35.63C481.53,121,455.62,125,441.58,125l-5.07,0a224.23,224.23,0,0,0-29.8,2.07l1.29-3.59a92.15,92.15,0,1,0-118.91,55l1.94.72a130,130,0,0,1-36.57,5.2,141.88,141.88,0,0,1-37.21-5.11c-17.59-4.79-62.54-23.28-101.69-90.43-5-8.64-9-9.35-11.87-9.35A8.2,8.2,0,0,0,97,82.94c-2.25,3.09-2.49,7.47-.71,13,1.59,5,16.56,50,51.53,83,36.85,34.86,83,54.51,141.06,60.07l.18,0a270.52,270.52,0,0,1,35.46,4.48L323,245.6c-4.51,6.09-21.93,16.77-38.76,27.09s-52,27.53-52.31,27.69c-1.8.87-44.33,21.51-59.06,34.42-22.72,19.89-25.73,40.39-21.4,51.9,2.06,5.48,5.9,8.76,10.26,8.76,5.11,0,8.59-3.75,14.9-10.56a196.8,196.8,0,0,1,27-25c35.42-26.94,76.45-49.49,122-67,9.39-3.61,30.47-9.84,36.71-11.67l2.8-.82c-1.47,8-6.74,15-15.34,20.23-7,4-36.73,22.44-49.45,30.33-2.84,1.76-16.67,9.92-22,13-27.74,15.92-53.94,31-85.09,62.23-18.27,18.34-20.1,43-15.58,53.88,2.64,6.35,7.16,7,9,7,6.08,0,11.15-5.46,22.27-17.4,6.23-6.69,14-15,23.57-24.05,35.41-33.37,84.28-61.81,123.55-84.66,18-10.46,33.49-19.49,44.67-27.23,19.06-13,44.25-35.54,56.76-69.24,14.17-14.32,27.07-31.62,39.14-52.53,1.07,7.24,1.77,14.9.82,19.45-1.09,5.21-.48,9.28,1.8,12.1a8.78,8.78,0,0,0,6.85,3.25h0c7.84,0,15.15-9.9,17-23,1.78-12.72,1.94-43.93,1.94-45.24.12-17.86,1.82-27.22,4.52-36.36,1.45-4.45,5.63-13.06,7.42-15.06a39.34,39.34,0,0,1,20.7-12l.58-.16c7.16-2.38,10.55-10.41,10.67-16.85C568.91,72.11,566.28,67.52,561.75,65.82Z" transform="translate(0 0)"/><path class="cls-2" d="M354.05,260.33c-2.05-2-8.54-6.76-25.74-10.8-5.07,6.84-20,16.16-40.62,28.79-17.19,10.53-52.89,28-52.89,28s-43.36,21-57.59,33.44c-29.05,25.44-20.85,49.08-15.5,49.08,4.92,0,13.5-15.68,37.86-34.19,34.82-26.48,75.64-49.45,123.58-67.93,9.86-3.8,31.8-10.26,37.23-11.84a21.66,21.66,0,0,0-5.92-14.11Z" transform="translate(0 0)"/><path class="cls-2" d="M499.56,86.52c3.44-8.84,4.57-12.82-.91-15.18-4.58-2-12.49-4.22-13.57-2.86C483.45,70.58,497,84.9,499.56,86.52Z" transform="translate(0 0)"/><path class="cls-3" d="M456.54,210.15a56.5,56.5,0,0,0-21.35-43,54.64,54.64,0,0,0-4.55-3.26,55.63,55.63,0,0,0-28.18-8.77c-30.76-1.14-57.35,23.41-58,54.59-.47,24.17,12.32,36.92,17.72,42.3.2.21.37.39.53.54,11.95,12,15.92,38.19-9.68,53.79,32.46-18.54,75.63-38.65,98.58-65.44a.84.84,0,0,1,.07-.23C452.53,238.28,456.88,224.24,456.54,210.15Z" transform="translate(0 0)"/><path class="cls-4" d="M327.53,169.93c-19.25,12.19-59.08,30.15-112,15.75C151.61,168.3,112.14,96,109.27,91.2c-4.79-8-9.52-6.13-6.68,2.74s17.83,50,49.77,80.24c31.48,29.78,74.76,52.32,137.15,58.29,52.73,3.58,68.11,15.08,72.7,19.52-5.4-5.38-18.19-18.12-17.72-42.3.62-31.18,27.21-55.73,58-54.59a55.63,55.63,0,0,1,28.18,8.77c-.06-.05-.13-.13-.2-.17C410.7,150,366,146.21,327.53,169.93Z" transform="translate(0 0)"/><path class="cls-5" d="M353.06,306.32c-8.33,4.75-52.68,32.36-54.4,33.4a0,0,0,0,1,0,0c-33.69,20-64,34.09-100.82,71.11C177.1,431.64,181,460.5,186.54,460.5s18.08-17.79,41.3-39.65c52.31-49.31,133.84-88.17,169-112.54,22.38-15.28,44.08-37.49,54.78-67.42C428.69,267.67,385.52,287.79,353.06,306.32Z" transform="translate(0 0)"/><path class="cls-4" d="M559.46,72c-4.8-1.77-24.07-4.21-38-5.65-5.41-4.79-17.9-13.37-20.52-11.93s8.63,17.64,10,20.87A64.07,64.07,0,0,1,503,97.1c-21.59,37.12-60,34.42-64.1,34.5,15,.32,56.83,1.42,86.34-22.85,2.3-2,4.6-4.05,6.85-6.31A46.85,46.85,0,0,1,556,88.7C562.46,86.56,564.28,73.82,559.46,72Z" transform="translate(0 0)"/><path class="cls-6" d="M499.66,172.32s0,0,0,0c1.22,6.71,6.44,29.43,4.14,40.44-2.78,13.29,10.13,7.86,12.64-10,1.74-12.43,1.88-44.37,1.88-44.37.13-19.67,2.23-29.62,4.9-38.56C517.59,133.09,510.05,152,499.66,172.32Z" transform="translate(0 0)"/><path class="cls-7" d="M325.5,155.43c14.23-9.78,35.75-24.57,66-32.11,3.36-.84,6.82-1.55,10.26-2.12A85.55,85.55,0,1,0,291.41,172.3a123.13,123.13,0,0,0,29-13.36C322,157.86,323.7,156.68,325.5,155.43Z" transform="translate(0 0)"/><path class="cls-7" d="M525.29,108.75c-29.51,24.27-71.37,23.17-86.34,22.85-5.81-.12-26.81.12-44.24,4.44-31.86,7.94-53.26,24.59-67.17,33.89C366,146.21,410.7,150,430.44,163.7c.06,0,.13.12.2.17a54.64,54.64,0,0,1,4.55,3.26,56.5,56.5,0,0,1,21.35,43c.33,14.09-4,28.13-4.83,30.5a.25.25,0,0,0,0,.13c20.62-20.56,36.12-45.44,47.91-68.46,10.39-20.35,17.93-39.23,23.54-52.41,3.73-8.78,6.6-15,8.95-17.46C529.89,104.7,527.6,106.79,525.29,108.75Z" transform="translate(0 0)"/></svg>