<?xml version="1.0" standalone="no"?>
<!DOCTYPE svg PUBLIC "-//W3C//DTD SVG 1.1//EN" "http://www.w3.org/Graphics/SVG/1.1/DTD/svg11.dtd" >
<svg xmlns="http://www.w3.org/2000/svg" xmlns:xlink="http://www.w3.org/1999/xlink" version="1.1">
<metadata>
Created by FontForge 20160407 at Fri Oct  7 09:49:37 2016
 By Jimmy Warting
Based on: Domestos Sans. Designer: Gunter Schwarzmaier. 2000 [T-26] Chicago www.t26.com 773.862.1201
</metadata>
<defs>
<font id="DurhamSans-Black" horiz-adv-x="500" >
  <font-face 
    font-family="Durham Sans"
    font-weight="525"
    font-stretch="normal"
    units-per-em="1000"
    panose-1="2 0 9 6 5 0 0 2 0 4"
    ascent="800"
    descent="-200"
    x-height="423"
    cap-height="613"
    bbox="-31 -243.527 1168 903"
    underline-thickness="20"
    underline-position="-133"
    stemh="106"
    stemv="134"
    unicode-range="U+0020-FB02"
  />
<missing-glyph horiz-adv-x="1000" 
 />
    <glyph glyph-name=".notdef" horiz-adv-x="1000" 
 />
    <glyph glyph-name="Lslash" unicode="&#x141;" horiz-adv-x="706" 
d="M666 0h-467v200l-90 -54l-69 87l159 95v295h137v-212l102 61l70 -86l-172 -104v-168h330v-114z" />
    <glyph glyph-name="lslash" unicode="&#x142;" horiz-adv-x="548" 
d="M358 20l-116 -37c-50 67 -41 142 -42 218l-91 -55l-69 86l161 97v234c0 14 -3 71 -3 71l133 -15s4 -43 4 -56v-152l103 61l70 -86l-173 -104v-165c0 -49 23 -97 23 -97z" />
    <glyph glyph-name="Scaron" unicode="&#x160;" horiz-adv-x="532" 
d="M450 773l-184 -99l-184 99l45 78c45 -16 106 -39 140 -55c33 16 92 38 139 55zM288 244l-131 59c-181 82 -137 328 112 328c96 0 167 -43 197 -62l-49 -87c-37 16 -95 39 -149 39c-89 0 -102 -81 -38 -110l120 -55c236 -108 157 -368 -82 -368c-63 0 -115 12 -152 26
c-36 13 -59 27 -76 36l54 92c24 -14 98 -49 166 -45c87 4 129 101 28 147z" />
    <glyph glyph-name="scaron" unicode="&#x161;" horiz-adv-x="467" 
d="M416 558l-184 -99l-184 99l45 78c45 -16 106 -39 140 -55c33 16 92 38 139 55zM411 378l-56 -77c-36 14 -76 30 -116 30c-39 0 -51 -16 -51 -19c0 -46 233 -44 239 -181c4 -87 -90 -141 -196 -142c-89 -1 -191 57 -191 57l60 79c40 -17 83 -34 129 -34s90 30 43 57
c-33 18 -73 26 -109 40c-55 21 -106 53 -107 116c-2 88 98 131 187 127c83 -3 168 -53 168 -53z" />
    <glyph glyph-name="Yacute" unicode="&#xdd;" horiz-adv-x="636" 
d="M295 644l-63 66c37 37 112 109 189 173l80 -82c-77 -66 -164 -129 -206 -157zM386 0h-137v266l-209 357h151l127 -220l127 220h151l-209 -357z" />
    <glyph glyph-name="yacute" unicode="&#xfd;" horiz-adv-x="544" 
d="M255 466l-63 66c37 37 112 110 189 174l80 -83c-77 -66 -164 -128 -206 -157zM102 -189l-15 99c91 14 101 45 126 110c-26 4 -53 21 -68 66l-105 319l126 30l95 -291l1 -2l120 293l122 -32l-186 -460c-31 -76 -96 -123 -216 -132z" />
    <glyph glyph-name="Zcaron" unicode="&#x17d;" horiz-adv-x="579" 
d="M454 766l-184 -98l-184 98l45 78c45 -15 106 -39 140 -54c33 15 92 38 139 54zM539 0h-499v95l313 416h-295v112h460v-94l-313 -416h334v-113z" />
    <glyph glyph-name="zcaron" unicode="&#x17e;" horiz-adv-x="487" 
d="M444 559l-184 -99l-184 99l45 78c45 -16 106 -39 140 -55c33 16 92 38 139 55zM444 0h-404v85l229 236h-212v103h390v-86l-231 -238h228v-100z" />
    <glyph glyph-name="brokenbar" unicode="&#xa6;" horiz-adv-x="191" 
d="M151 286h-111v370h111v-370zM151 -166h-111v371h111v-371z" />
    <glyph glyph-name="minus" unicode="&#x2212;" horiz-adv-x="510" 
d="M470 145h-430v104h430v-104z" />
    <glyph glyph-name="multiply" unicode="&#xd7;" horiz-adv-x="459" 
d="M342 162l-112 111l-112 -111l-78 78l112 111l-112 112l78 78l112 -112l111 112l78 -78l-112 -112l112 -111z" />
    <glyph glyph-name="space" unicode=" " horiz-adv-x="250" 
 />
    <glyph glyph-name="exclam" unicode="!" horiz-adv-x="217" 
d="M160 145h-104l-16 471s62 15 137 15zM171 47c0 -33 -28 -59 -63 -59s-63 26 -63 59c0 34 28 58 63 58c34 0 63 -24 63 -58z" />
    <glyph glyph-name="quotedbl" unicode="&#x22;" horiz-adv-x="355" 
d="M303 510h-93s-15 110 -13 212h118c2 -102 -12 -212 -12 -212zM146 510h-94s-14 110 -12 212h118c2 -102 -12 -212 -12 -212z" />
    <glyph glyph-name="numbersign" unicode="#" horiz-adv-x="620" 
d="M413 -15h-125l29 172h-62l-30 -172h-124l29 171h-90v106h109l11 70h-91v106h109l29 171h125l-30 -171h63l29 171h125l-29 -170h90v-106h-108l-12 -70h91v-106h-109zM336 262l12 71h-63l-12 -71h63z" />
    <glyph glyph-name="dollar" unicode="$" horiz-adv-x="507" 
d="M311 -87h-104v75c-63 7 -113 26 -167 59l48 86s62 -34 119 -42v189l-57 26c-161 74 -136 291 57 323v77h104v-79c62 -12 106 -39 130 -54l-45 -83c-22 10 -52 23 -85 31v-156l20 -10c205 -99 161 -323 -20 -363v-79zM207 415v103c-47 -24 -41 -76 0 -103zM311 223v-107
c31 28 38 73 0 107z" />
    <glyph glyph-name="percent" unicode="%" horiz-adv-x="846" 
d="M634 -29c-110 0 -173 80 -173 176c0 97 60 176 173 176c114 0 172 -79 172 -176c0 -96 -62 -176 -172 -176zM378 -38l-109 30l198 662l109 -30zM213 286c-110 0 -173 80 -173 176c0 97 59 177 173 177s172 -80 172 -177c0 -95 -63 -176 -172 -176zM634 75
c32 0 49 24 49 75s-14 69 -49 69c-36 0 -50 -19 -50 -69s17 -75 50 -75zM261 466h1c0 50 -14 68 -49 68c-36 0 -50 -18 -50 -68c0 -51 17 -75 49 -75c33 0 49 25 49 75z" />
    <glyph glyph-name="ampersand" unicode="&#x26;" horiz-adv-x="694" 
d="M654 48l-93 -72l-72 69c-61 -35 -135 -58 -210 -58c-148 0 -232 51 -239 139c-5 62 38 132 138 217c-19 19 -49 50 -71 75c-93 109 38 213 161 213c122 0 255 -103 161 -213c-22 -26 -56 -58 -77 -78l140 -136c32 48 37 120 37 120h121c2 -25 7 -112 -70 -203zM267 422
c14 14 33 34 50 53c15 16 7 49 -50 49c-55 0 -63 -32 -48 -49c18 -19 35 -39 48 -53zM404 127l-140 134c-58 -54 -93 -103 -90 -125c2 -16 13 -36 109 -36c41 0 84 9 121 27z" />
    <glyph glyph-name="quotesingle" unicode="'" horiz-adv-x="158" 
d="M126 510h-94s-14 110 -12 212h118c2 -102 -12 -212 -12 -212z" />
    <glyph glyph-name="parenleft" unicode="(" horiz-adv-x="370" 
d="M330 -47l-38 -81c-226 70 -252 232 -252 427c0 193 26 357 252 427l38 -80c-124 -58 -150 -132 -156 -239c-2 -34 -2 -70 -2 -108c0 -67 -4 -137 16 -203c16 -55 51 -101 142 -143z" />
    <glyph glyph-name="parenright" unicode=")" horiz-adv-x="370" 
d="M78 -128l-38 81c125 58 151 127 157 243c2 35 1 69 1 103c0 38 0 74 -2 108c-7 107 -32 181 -156 239l38 80c225 -70 252 -234 252 -427c0 -195 -27 -357 -252 -427z" />
    <glyph glyph-name="asterisk" unicode="*" horiz-adv-x="519" 
d="M432 384l-90 -71l-82 111l-79 -111l-93 71l79 105l-127 42l34 108l128 -43v133h114v-133l128 43l35 -108l-126 -41z" />
    <glyph glyph-name="plus" unicode="+" horiz-adv-x="525" 
d="M322 129h-118v163h-164v118h163v164h118v-163h164v-118h-163v-164z" />
    <glyph glyph-name="comma" unicode="," horiz-adv-x="229" 
d="M67 -143l-47 64c39 20 55 34 65 55c-35 6 -57 38 -57 68c0 45 42 77 86 77c63 0 95 -49 95 -97c0 -77 -63 -123 -142 -167z" />
    <glyph glyph-name="hyphen" unicode="-" horiz-adv-x="488" 
d="M428 186h-368v113h368v-113z" />
    <glyph glyph-name="period" unicode="." horiz-adv-x="192" 
d="M172 37c0 -36 -32 -70 -76 -70s-76 34 -76 70s32 70 76 70s76 -34 76 -70z" />
    <glyph glyph-name="slash" unicode="/" horiz-adv-x="436" 
d="M155 -126l-115 32l241 785l115 -33z" />
    <glyph glyph-name="zero" unicode="0" horiz-adv-x="547" 
d="M275 -11c-218 0 -235 162 -235 312c0 149 16 327 235 327c218 0 232 -166 232 -316c0 -148 -13 -323 -232 -323zM275 103c88 0 111 40 116 121c2 26 1 55 1 82c0 28 0 56 -2 83c-6 82 -30 125 -115 125c-116 0 -120 -78 -120 -204c0 -46 -2 -110 15 -152
c13 -31 38 -55 105 -55z" />
    <glyph glyph-name="one" unicode="1" horiz-adv-x="456" 
d="M416 0h-331v113h107v351c-32 -14 -67 -19 -126 -27l-26 92c88 29 123 47 171 99h98v-515h107v-113z" />
    <glyph glyph-name="two" unicode="2" horiz-adv-x="462" 
d="M420 0h-380v93c65 65 267 262 267 352c0 48 -24 70 -69 70c-62 0 -77 -31 -77 -88h-118c0 110 62 201 194 201c104 0 185 -73 185 -182c0 -112 -131 -254 -206 -334h204v-112z" />
    <glyph glyph-name="three" unicode="3" horiz-adv-x="511" 
d="M187 279l19 112c79 0 113 28 113 61c0 38 -24 66 -71 66c-63 0 -89 -21 -90 -79h-115c1 110 73 189 204 189c103 0 184 -70 184 -174c0 -53 -20 -88 -41 -109c55 -39 81 -96 81 -152c0 -81 -65 -203 -237 -204c-131 -1 -193 89 -194 199l116 -1c0 -57 17 -88 79 -88
c85 0 120 54 120 93c0 53 -48 87 -168 87z" />
    <glyph glyph-name="four" unicode="4" horiz-adv-x="552" 
d="M424 0h-111v126h-273v85l270 401h114v-379h88v-107h-88v-126zM313 233v191l-127 -191h127z" />
    <glyph glyph-name="five" unicode="5" horiz-adv-x="521" 
d="M427 498h-204v-74c174 1 258 -108 258 -216c0 -84 -56 -219 -232 -220c-89 -1 -155 45 -209 131l93 69c39 -65 73 -88 110 -88c83 0 121 59 121 107c0 84 -95 121 -255 83v322h348z" />
    <glyph glyph-name="six" unicode="6" horiz-adv-x="528" 
d="M428 621l-15 -106c-111 3 -179 -26 -223 -115c120 45 294 -1 298 -191c2 -111 -87 -220 -213 -220c-182 0 -250 178 -232 330c18 157 135 308 322 309c6 0 17 -1 63 -7zM159 241c3 -75 47 -140 109 -140c70 0 105 49 105 108c0 98 -145 142 -214 32z" />
    <glyph glyph-name="seven" unicode="7" horiz-adv-x="488" 
d="M237 0l-119 -1c44 208 101 354 186 501h-264v112h408v-90c-100 -153 -178 -326 -211 -522z" />
    <glyph glyph-name="eight" unicode="8" horiz-adv-x="532" 
d="M368 333c67 -46 112 -94 122 -155c17 -104 -83 -189 -224 -189c-144 0 -237 87 -225 190c7 61 51 111 122 155c-57 50 -87 102 -82 155c8 73 79 139 185 139c114 0 189 -71 186 -154c-1 -49 -30 -96 -84 -141zM266 397c61 42 70 68 70 74c0 21 -20 45 -71 45
c-50 0 -69 -31 -69 -39c0 -7 10 -37 70 -80zM266 265c-58 -31 -103 -73 -107 -93c-5 -28 15 -71 104 -71c88 0 114 39 110 68c-3 20 -52 64 -107 96z" />
    <glyph glyph-name="nine" unicode="9" horiz-adv-x="528" 
d="M100 -5l15 107c111 -3 179 26 224 114c-121 -45 -295 1 -299 191c-2 110 78 221 213 221c182 0 250 -178 232 -330c-17 -157 -135 -308 -322 -309c-6 0 -17 1 -63 6zM369 375c-3 75 -47 140 -109 140c-75 0 -105 -48 -105 -108c0 -97 145 -141 214 -32z" />
    <glyph glyph-name="colon" unicode=":" horiz-adv-x="192" 
d="M172 332c0 -38 -34 -71 -76 -71s-76 33 -76 71s34 70 76 70s76 -32 76 -70zM172 66c0 -38 -34 -70 -76 -70s-76 32 -76 70s34 71 76 71s76 -33 76 -71z" />
    <glyph glyph-name="semicolon" unicode=";" horiz-adv-x="230" 
d="M191 324c0 -38 -34 -70 -76 -70s-76 32 -76 70s34 70 76 70s76 -32 76 -70zM69 -128l-49 64c38 20 55 34 66 54c-35 6 -57 38 -57 69c0 44 43 76 87 76c62 0 94 -49 94 -97c0 -78 -64 -123 -141 -166z" />
    <glyph glyph-name="less" unicode="&#x3c;" horiz-adv-x="366" 
d="M326 130l-92 -67l-194 214l194 214l92 -69l-126 -144z" />
    <glyph glyph-name="equal" unicode="=" horiz-adv-x="530" 
d="M490 295l-450 -1v111h450v-110zM490 143h-450v111h450v-111z" />
    <glyph glyph-name="greater" unicode="&#x3e;" horiz-adv-x="366" 
d="M132 63l-90 67l124 148l-126 144l92 69l194 -214z" />
    <glyph glyph-name="question" unicode="?" horiz-adv-x="425" 
d="M257 195l-101 -63c-14 58 -19 80 -19 105c0 86 47 118 104 165c19 16 36 33 36 60c0 42 -20 61 -59 61c-52 0 -66 -25 -67 -79h-111c2 104 58 185 177 185c94 0 168 -66 168 -165c0 -77 -41 -113 -77 -142c-31 -25 -63 -46 -63 -91c0 -7 2 -12 12 -36zM271 66
c0 -38 -34 -70 -76 -70s-76 32 -76 70s34 71 76 71s76 -33 76 -71z" />
    <glyph glyph-name="at" unicode="@" horiz-adv-x="783" 
d="M488 123l25 -98c-53 -15 -87 -20 -122 -20c-194 0 -351 157 -351 351c0 195 157 352 351 352c195 0 352 -157 352 -352c0 -146 -74 -240 -169 -240c-63 0 -103 36 -124 92c-27 -21 -58 -34 -100 -34c-59 0 -124 40 -125 116c-1 114 116 131 199 131c-1 21 -10 26 -40 26
c-33 0 -67 -15 -101 -32l-40 71c36 25 84 53 147 53c69 0 134 -28 134 -122v-129c0 -54 21 -83 47 -83c39 0 70 44 70 150c0 138 -112 251 -250 251c-137 0 -250 -113 -250 -251s113 -250 250 -250c25 0 50 3 97 18zM425 338v1c-30 0 -100 1 -101 -43c-1 -25 11 -36 33 -36
c52 0 68 35 68 78z" />
    <glyph glyph-name="A" unicode="A" horiz-adv-x="616" 
d="M596 0h-118l-70 180h-197l-70 -180h-121l237 613h104zM370 281l-61 159l-60 -159h121z" />
    <glyph glyph-name="B" unicode="B" horiz-adv-x="550" 
d="M305 0h-265v613h233c104 0 203 -47 203 -161c0 -46 -15 -92 -52 -123c60 -32 86 -95 86 -146c0 -111 -88 -183 -205 -183zM162 373h108c54 0 89 30 89 77c0 51 -36 60 -91 60h-106v-137zM162 103h147c50 0 81 32 81 79c0 66 -59 89 -123 89h-105v-168z" />
    <glyph glyph-name="C" unicode="C" horiz-adv-x="566" 
d="M465 126l51 -86c-28 -18 -85 -52 -187 -52c-241 0 -292 177 -289 317s60 316 300 316c103 0 159 -36 186 -54l-54 -85c-26 13 -70 35 -133 35c-143 0 -170 -119 -172 -214s20 -211 163 -211c63 0 108 21 135 34z" />
    <glyph glyph-name="D" unicode="D" horiz-adv-x="573" 
d="M238 0h-198v613h202c205 0 291 -137 291 -301c0 -165 -89 -312 -295 -312zM162 103h76c108 0 167 93 167 207c0 119 -48 200 -181 200h-62v-407z" />
    <glyph glyph-name="E" unicode="E" horiz-adv-x="506" 
d="M476 0h-436v613h441l-26 -103h-293v-136h217v-106h-217v-165h314v-103z" />
    <glyph glyph-name="F" unicode="F" horiz-adv-x="501" 
d="M162 0h-122v613h441l-26 -103h-293v-136h217v-106h-217v-268z" />
    <glyph glyph-name="G" unicode="G" horiz-adv-x="598" 
d="M439 118v91h-114l-15 103h248v-247c-8 -8 -82 -77 -227 -77c-241 0 -294 176 -291 317c3 139 63 315 303 315c111 0 185 -51 202 -64l-54 -83c-8 4 -80 44 -149 44c-144 0 -170 -118 -172 -214c-2 -95 21 -212 163 -212c54 0 91 18 106 27z" />
    <glyph glyph-name="H" unicode="H" horiz-adv-x="575" 
d="M535 0h-122v271h-251v-271h-122v613h122v-240h251v240h122v-613z" />
    <glyph glyph-name="I" unicode="I" horiz-adv-x="202" 
d="M162 0h-122v613h122v-613z" />
    <glyph glyph-name="J" unicode="J" horiz-adv-x="262" 
d="M-5 -93l-25 94c29 7 61 10 86 27c23 14 44 38 44 85v498h122v-480c0 -99 -46 -155 -97 -185c-43 -25 -82 -30 -130 -39z" />
    <glyph glyph-name="K" unicode="K" horiz-adv-x="545" 
d="M505 0h-149l-163 196l-39 -57v-139h-114v612h114v-268l170 263h139l-204 -311z" />
    <glyph glyph-name="L" unicode="L" horiz-adv-x="517" 
d="M477 0h-437v614h122v-511h315v-103z" />
    <glyph glyph-name="M" unicode="M" horiz-adv-x="642" 
d="M602 2h-115v407l-113 -248h-105l-112 248v-407h-117v610h146l136 -300l134 300h146v-610z" />
    <glyph glyph-name="N" unicode="N" horiz-adv-x="546" 
d="M506 0h-116l-228 394v-394h-122v613h129l216 -373v373h121v-613z" />
    <glyph glyph-name="O" unicode="O" horiz-adv-x="639" 
d="M321 -12c-238 0 -281 192 -281 316c0 127 39 316 279 316s280 -189 280 -316c0 -124 -40 -316 -278 -316zM319 91c138 0 154 116 152 212c-2 99 -11 214 -152 214c-142 0 -150 -115 -152 -213c-2 -97 14 -213 152 -213z" />
    <glyph glyph-name="P" unicode="P" horiz-adv-x="502" 
d="M162 0h-122v614h242c108 0 200 -82 200 -195c0 -116 -103 -203 -218 -203h-102v-216zM162 319h98c56 0 101 45 101 99c0 48 -35 92 -85 92h-114v-191z" />
    <glyph glyph-name="Q" unicode="Q" horiz-adv-x="654" 
d="M614 2v-114c-102 -11 -143 16 -174 46c-39 37 -64 50 -120 50c-238 0 -280 194 -280 317c0 128 39 318 279 318s280 -190 280 -318c0 -90 -23 -215 -124 -278c48 -27 81 -26 139 -21zM319 87c138 0 154 116 152 214s-11 213 -152 213c-142 0 -150 -114 -152 -213
c-2 -98 13 -214 152 -214z" />
    <glyph glyph-name="R" unicode="R" horiz-adv-x="554" 
d="M514 0h-123l-65 185c-9 24 -27 31 -67 31h-97v-216h-122v614h242c108 0 200 -82 200 -195c0 -62 -33 -131 -83 -165c18 -6 32 -18 40 -39zM162 319h98c56 0 101 45 101 99c0 48 -35 92 -85 92h-114v-191z" />
    <glyph glyph-name="S" unicode="S" horiz-adv-x="501" 
d="M273 242l-125 59c-170 81 -126 320 105 320c68 0 126 -23 182 -58l-44 -81c-30 13 -86 37 -139 37c-92 -1 -103 -86 -39 -116l114 -55c224 -106 146 -360 -75 -360c-81 0 -144 19 -212 60l47 84c19 -10 91 -47 157 -43c88 5 130 106 29 153z" />
    <glyph glyph-name="T" unicode="T" horiz-adv-x="562" 
d="M344 0h-123v510h-180l-1 104h482v-104h-178v-510z" />
    <glyph glyph-name="U" unicode="U" horiz-adv-x="553" 
d="M391 201v412h122v-428c0 -138 -99 -197 -232 -197c-126 0 -241 58 -241 194v431h122v-409c0 -79 33 -110 120 -110c80 0 109 34 109 107z" />
    <glyph glyph-name="V" unicode="V" horiz-adv-x="621" 
d="M373 0h-125l-208 613h122l147 -432l150 432h122z" />
    <glyph glyph-name="W" unicode="W" horiz-adv-x="663" 
d="M565 2h-142l-91 255l-92 -255h-142l-78 610h115l54 -433l95 251h95l94 -251l55 433h115z" />
    <glyph glyph-name="X" unicode="X" horiz-adv-x="649" 
d="M609 0h-139l-146 220l-149 -220h-135l216 320l-197 294h139l127 -192l128 192h134l-195 -294z" />
    <glyph glyph-name="Y" unicode="Y" horiz-adv-x="596" 
d="M358 0h-121v262l-197 352h134l124 -226l124 226h134l-197 -352z" />
    <glyph glyph-name="Z" unicode="Z" horiz-adv-x="547" 
d="M507 0h-467v90l302 420h-285v104h430v-89l-302 -421h322v-104z" />
    <glyph glyph-name="bracketleft" unicode="[" horiz-adv-x="301" 
d="M261 -145h-221v825h221v-123h-89v-579h89v-123z" />
    <glyph glyph-name="backslash" unicode="\" horiz-adv-x="436" 
d="M396 -94l-115 -32l-241 784l115 33z" />
    <glyph glyph-name="bracketright" unicode="]" horiz-adv-x="301" 
d="M261 -145h-221v123h89v579h-89v123h221v-825z" />
    <glyph glyph-name="asciicircum" unicode="^" horiz-adv-x="599" 
d="M559 336l-102 -58l-157 245l-158 -245l-102 58l204 316h112z" />
    <glyph glyph-name="underscore" unicode="_" horiz-adv-x="625" 
d="M585 -145h-545v112h545v-112z" />
    <glyph glyph-name="grave" unicode="`" horiz-adv-x="355" 
d="M315 541l-66 -69c-42 30 -130 93 -209 159l83 86c78 -64 154 -139 192 -176z" />
    <glyph glyph-name="a" unicode="a" horiz-adv-x="499" 
d="M459 0h-59c-24 0 -44 12 -57 30c-28 -21 -69 -41 -135 -41c-85 0 -177 48 -178 138c-2 138 175 144 298 143v17c0 33 -20 42 -69 42c-73 0 -147 -32 -147 -32l-36 84s84 45 192 48c100 3 191 -32 191 -144v-285zM327 186c-64 -2 -165 11 -168 -51c-3 -81 168 -73 168 51z
" />
    <glyph glyph-name="b" unicode="b" horiz-adv-x="526" 
d="M486 251v-56c0 -139 -68 -207 -213 -207c-54 0 -90 19 -114 40c-12 -17 -32 -29 -55 -29h-61v564c0 15 -1 29 -3 71c59 -6 85 -9 134 -15c2 -32 3 -43 3 -56v-166s47 49 125 49c117 0 184 -77 184 -195zM351 204v49c0 62 -18 87 -72 86c-37 0 -73 -19 -102 -45v-154
c10 -14 40 -52 94 -52c67 0 80 45 80 116z" />
    <glyph glyph-name="c" unicode="c" horiz-adv-x="464" 
d="M366 128l66 -72s-72 -66 -162 -66c-154 0 -240 98 -240 220c0 123 86 221 240 221c90 0 164 -66 164 -66l-68 -72s-49 37 -98 37c-71 0 -100 -55 -100 -119c0 -65 29 -121 100 -121c48 0 98 38 98 38z" />
    <glyph glyph-name="d" unicode="d" horiz-adv-x="516" 
d="M473 -1h-61c-23 0 -43 12 -55 29c-24 -21 -60 -40 -114 -40c-145 0 -213 68 -213 207v56c0 118 67 195 184 195c78 0 125 -49 125 -49v166c0 13 1 24 3 56c49 6 75 9 134 15c-2 -42 -3 -57 -3 -71v-564zM339 140v154c-29 26 -65 45 -102 45c-54 1 -72 -24 -72 -86v-49
c0 -71 13 -116 80 -116c54 0 84 38 94 52z" />
    <glyph glyph-name="e" unicode="e" horiz-adv-x="515" 
d="M482 172h-314c5 -52 39 -83 106 -83c60 0 141 26 141 26l39 -86s-80 -38 -178 -38c-157 0 -246 89 -246 222c0 112 80 216 239 216c131 0 216 -83 216 -191c0 -15 0 -30 -3 -66zM173 257h182s0 76 -90 76c-89 0 -92 -76 -92 -76z" />
    <glyph glyph-name="f" unicode="f" horiz-adv-x="373" 
d="M128 0h-61v346h-27v99h26v48c0 87 69 138 162 138c30 0 66 -8 115 -27l-35 -91c-42 12 -58 14 -72 14c-23 0 -35 -10 -35 -37v-45h106l-30 -99h-76v-265c0 -38 -28 -81 -73 -81z" />
    <glyph glyph-name="g" unicode="g" horiz-adv-x="523" 
d="M349 -6v43s-31 -39 -114 -39c-119 0 -195 91 -195 190v58c0 100 69 184 197 184c73 0 111 -41 111 -41v35h135v-423c0 -38 -12 -192 -237 -192c-85 0 -185 65 -185 65l60 82c23 -14 81 -42 126 -42c87 0 102 54 102 80zM349 152v134c-14 12 -50 36 -101 36
c-60 0 -74 -37 -74 -103v-27c0 -57 27 -92 75 -92c50 0 86 36 100 52z" />
    <glyph glyph-name="h" unicode="h" horiz-adv-x="504" 
d="M464 0h-62c-42 0 -73 43 -73 81v189c0 47 -20 65 -68 65c-36 0 -69 -28 -83 -41v-294h-135v559c0 16 -1 32 -3 75l133 -15c3 -34 5 -49 5 -63v-156s49 45 111 45c114 0 175 -86 175 -174v-271z" />
    <glyph glyph-name="i" unicode="i" horiz-adv-x="240" 
d="M200 576c0 -38 -36 -70 -80 -70s-80 32 -80 70c0 39 36 69 80 69s80 -30 80 -69zM114 0h-62v432l135 17v-368c0 -38 -30 -81 -73 -81z" />
    <glyph glyph-name="j" unicode="j" horiz-adv-x="260" 
d="M220 577c0 -40 -36 -71 -80 -71s-80 31 -80 71c0 39 36 70 80 70s80 -31 80 -70zM26 -196l-57 100c27 10 100 43 100 110v413l137 19v-413c0 -85 -39 -141 -80 -175c-30 -26 -62 -41 -100 -54z" />
    <glyph glyph-name="k" unicode="k" horiz-adv-x="469" 
d="M449 0h-141l-135 178l-14 -15v-85c0 -43 -26 -78 -62 -78h-53v565c0 9 0 18 -4 68l116 -11c2 -40 3 -48 3 -57v-245l114 116h155l-177 -178z" />
    <glyph glyph-name="l" unicode="l" horiz-adv-x="230" 
d="M200 20l-114 -37c-16 18 -43 56 -43 129v451c0 14 -3 71 -3 71l133 -15s4 -43 4 -56v-446c0 -49 23 -97 23 -97z" />
    <glyph glyph-name="m" unicode="m" horiz-adv-x="746" 
d="M706 0h-60c-43 0 -72 42 -72 79v216c0 18 -15 31 -42 31c-50 0 -81 -32 -91 -44v-282h-134v280c0 32 -10 46 -46 46c-39 0 -73 -32 -86 -46v-280h-135v424h135v-40c21 19 67 47 109 47c69 0 107 -31 126 -58c29 25 78 58 138 58c104 0 158 -66 158 -145v-286z" />
    <glyph glyph-name="n" unicode="n" horiz-adv-x="514" 
d="M474 0h-62c-44 0 -73 42 -73 79v180c0 44 -18 69 -58 69c-57 0 -93 -33 -106 -47v-281h-135v424h135v-40c26 22 75 47 131 47c164 0 168 -136 168 -143v-288z" />
    <glyph glyph-name="o" unicode="o" horiz-adv-x="539" 
d="M509 208c0 -122 -86 -221 -239 -221s-240 99 -240 221c0 124 82 223 241 223c158 0 238 -99 238 -223zM270 86c74 0 102 54 102 127c0 75 -25 119 -102 119s-102 -44 -102 -119c0 -73 28 -127 102 -127z" />
    <glyph glyph-name="p" unicode="p" horiz-adv-x="512" 
d="M100 -178h-60v602h134v-37s52 45 121 45c128 0 187 -79 187 -177v-90c0 -98 -76 -190 -195 -190c-76 0 -113 39 -113 39v-113c0 -38 -26 -79 -74 -79zM348 168v51c0 59 0 105 -64 105c-53 0 -94 -26 -110 -38v-163c12 -14 48 -48 99 -48c48 0 75 37 75 93z" />
    <glyph glyph-name="q" unicode="q" horiz-adv-x="522" 
d="M482 -178h-61c-48 0 -73 41 -73 79v113s-34 -39 -114 -39c-120 0 -194 92 -194 190v90c0 98 58 177 186 177c79 0 122 -45 122 -45v37h134v-602zM348 123v163c-31 22 -69 38 -110 38c-64 0 -64 -46 -64 -105v-51c0 -56 26 -93 74 -93c51 0 87 34 100 48z" />
    <glyph glyph-name="r" unicode="r" horiz-adv-x="382" 
d="M102 0h-62v424h135v-29c21 19 52 34 82 35c60 3 105 -37 105 -37l-57 -87c-14 7 -40 21 -60 21c-68 0 -70 -78 -70 -81v-168c0 -35 -23 -78 -73 -78z" />
    <glyph glyph-name="s" unicode="s" horiz-adv-x="437" 
d="M401 378l-56 -77c-36 14 -76 30 -116 30c-39 0 -51 -16 -51 -19c0 -46 233 -44 239 -181c4 -87 -90 -141 -196 -142c-89 -1 -191 57 -191 57l60 79c40 -17 83 -34 129 -34s90 30 43 57c-33 18 -73 26 -109 40c-55 21 -106 53 -107 116c-2 88 98 131 187 127
c83 -3 168 -53 168 -53z" />
    <glyph glyph-name="t" unicode="t" horiz-adv-x="345" 
d="M287 103l21 -97c-50 -14 -85 -21 -115 -21c-56 0 -123 35 -123 97v258h-30v99h29v179l135 16v-195h111l-31 -99h-80v-227c0 -35 32 -22 83 -10z" />
    <glyph glyph-name="u" unicode="u" horiz-adv-x="507" 
d="M467 -2h-62c-23 0 -43 13 -56 31c-25 -20 -66 -41 -125 -41c-75 0 -184 32 -184 125v305l135 15v-299c0 -31 25 -48 65 -48s92 51 92 74v258l135 15v-435z" />
    <glyph glyph-name="v" unicode="v" horiz-adv-x="517" 
d="M246 0h-47l-179 401l124 36l114 -263l119 264l120 -37l-151 -330s-39 -71 -100 -71z" />
    <glyph glyph-name="w" unicode="w" horiz-adv-x="762" 
d="M584 0h-50c-56 0 -87 66 -90 73l-62 164l-64 -164c-3 -7 -34 -73 -89 -73h-51l-158 408l125 32l94 -250l90 234h104l90 -234l94 250l125 -32z" />
    <glyph glyph-name="x" unicode="x" horiz-adv-x="545" 
d="M525 0h-150l-102 129l-104 -129h-149l178 222l-161 201h151l85 -107l85 107h150l-161 -201z" />
    <glyph glyph-name="y" unicode="y" horiz-adv-x="504" 
d="M82 -189l-15 99c91 14 101 45 126 110c-26 4 -53 21 -68 66l-105 319l126 30l95 -291l1 -2l120 293l122 -32l-186 -460c-31 -76 -96 -123 -216 -132z" />
    <glyph glyph-name="z" unicode="z" horiz-adv-x="487" 
d="M444 0h-404v85l229 236h-212v103h390v-86l-231 -238h228v-100z" />
    <glyph glyph-name="braceleft" unicode="{" horiz-adv-x="388" 
d="M348 -45v-103c-113 0 -229 22 -229 158v152c0 31 -17 55 -79 55v109c63 0 79 23 79 55v152c0 136 116 157 229 157v-102c-84 0 -100 -7 -100 -67v-151c0 -42 -16 -76 -46 -99c30 -23 46 -57 46 -98v-152c0 -60 15 -66 100 -66z" />
    <glyph glyph-name="bar" unicode="|" horiz-adv-x="205" 
d="M165 -163h-125v871h125v-871z" />
    <glyph glyph-name="braceright" unicode="}" horiz-adv-x="388" 
d="M40 -148v103c85 0 100 6 100 66v152c0 41 16 75 46 98c-30 23 -46 57 -46 99v151c0 61 -15 67 -100 67v102c113 0 229 -21 229 -157v-152c0 -31 17 -55 79 -55v-109c-62 0 -79 -24 -79 -55v-152c0 -136 -116 -158 -229 -158z" />
    <glyph glyph-name="asciitilde" unicode="~" horiz-adv-x="537" 
d="M428 330l69 -80c-54 -45 -99 -70 -147 -70c-72 0 -113 52 -167 52c-16 0 -44 -16 -79 -38l-64 84c60 42 106 61 152 61c69 0 118 -52 158 -52c19 0 65 34 78 43z" />
    <glyph glyph-name="Adieresis" unicode="&#xc4;" horiz-adv-x="656" 
d="M522 784c0 -36 -32 -70 -76 -70s-76 34 -76 70s32 71 76 71s76 -35 76 -71zM283 784h1c0 -35 -32 -70 -75 -70c-44 0 -76 34 -76 70s32 71 76 71s74 -35 74 -71zM616 0h-118l-70 180h-197l-70 -180h-121l237 613h104zM390 281l-61 159l-60 -159h121z" />
    <glyph glyph-name="Aring" unicode="&#xc5;" horiz-adv-x="656" 
d="M448 768c0 -60 -52 -110 -117 -110c-66 0 -118 50 -118 110s52 110 118 110c65 0 117 -50 117 -110zM616 0h-118l-70 180h-197l-70 -180h-121l237 613h104zM361 768c0 18 -14 30 -30 30s-30 -12 -30 -30c0 -16 14 -29 30 -29c15 0 30 13 30 29zM390 281l-61 159l-60 -159
h121z" />
    <glyph glyph-name="Ccedilla" unicode="&#xc7;" horiz-adv-x="600" 
d="M492 127l58 -94c-33 -21 -94 -57 -203 -57c-257 0 -310 184 -307 327s63 328 319 328c109 0 169 -37 201 -59l-60 -93c-33 16 -78 38 -142 38c-145 0 -173 -116 -175 -216c-2 -97 22 -212 166 -212c64 0 111 21 143 38zM260 -242l14 90c58 -2 64 11 64 11
c0 1 -3 12 -39 16v89c102 -15 143 -57 144 -106c1 -61 -63 -111 -183 -100z" />
    <glyph glyph-name="Eacute" unicode="&#xc9;" horiz-adv-x="521" 
d="M235 661l-63 66c37 37 112 110 189 174l80 -83c-77 -66 -164 -128 -206 -157zM476 0h-436v613h441l-26 -103h-293v-136h217v-106h-217v-165h314v-103z" />
    <glyph glyph-name="Ntilde" unicode="&#xd1;" horiz-adv-x="546" 
d="M395 850l58 -84c-36 -25 -87 -61 -133 -61c-47 0 -84 31 -84 31c-11 8 -25 15 -44 5c0 0 -50 -27 -58 -30l-50 87c34 21 90 58 130 58c39 0 68 -17 87 -31c12 -10 24 -15 40 -6c0 0 47 27 54 31zM506 0h-116l-228 394v-394h-122v613h129l216 -373v373h121v-613z" />
    <glyph glyph-name="Odieresis" unicode="&#xd6;" horiz-adv-x="639" 
d="M517 784c0 -36 -32 -70 -76 -70s-76 34 -76 70s32 71 76 71s76 -35 76 -71zM278 784h1c0 -35 -32 -70 -75 -70c-44 0 -76 34 -76 70s32 71 76 71s74 -35 74 -71zM321 -12c-238 0 -281 192 -281 316c0 127 39 316 279 316s280 -189 280 -316c0 -124 -40 -316 -278 -316z
M319 91c138 0 154 116 152 212c-2 99 -11 214 -152 214c-142 0 -150 -115 -152 -213c-2 -97 14 -213 152 -213z" />
    <glyph glyph-name="Udieresis" unicode="&#xdc;" horiz-adv-x="580" 
d="M483 784c0 -36 -32 -70 -76 -70s-76 34 -76 70s32 71 76 71s76 -35 76 -71zM244 784h1c0 -35 -32 -70 -75 -70c-44 0 -76 34 -76 70s32 71 76 71s74 -35 74 -71zM404 204v412h136v-429c0 -139 -104 -199 -246 -199c-132 0 -254 58 -254 197v431h137v-410
c0 -76 31 -105 118 -105c81 0 109 31 109 103z" />
    <glyph glyph-name="aacute" unicode="&#xe1;" horiz-adv-x="523" 
d="M277 450l-63 66c37 37 112 110 189 174l80 -83c-77 -66 -164 -128 -206 -157zM469 0h-59c-24 0 -44 12 -57 30c-28 -21 -69 -41 -135 -41c-85 0 -177 48 -178 138c-2 138 175 144 298 143v17c0 33 -20 42 -69 42c-73 0 -147 -32 -147 -32l-36 84s84 45 192 48
c100 3 191 -32 191 -144v-285zM337 186c-64 -2 -165 11 -168 -51c-3 -81 168 -73 168 51z" />
    <glyph glyph-name="agrave" unicode="&#xe0;" horiz-adv-x="509" 
d="M374 516l-66 -69c-42 30 -130 93 -209 159l83 86c78 -64 154 -139 192 -176zM469 0h-59c-24 0 -44 12 -57 30c-28 -21 -69 -41 -135 -41c-85 0 -177 48 -178 138c-2 138 175 144 298 143v17c0 33 -20 42 -69 42c-73 0 -147 -32 -147 -32l-36 84s84 45 192 48
c100 3 191 -32 191 -144v-285zM337 186c-64 -2 -165 11 -168 -51c-3 -81 168 -73 168 51z" />
    <glyph glyph-name="acircumflex" unicode="&#xe2;" horiz-adv-x="509" 
d="M464 552l-45 -79c-45 17 -106 40 -140 55c-33 -16 -93 -38 -139 -55l-44 79l184 98zM469 0h-59c-24 0 -44 12 -57 30c-28 -21 -69 -41 -135 -41c-85 0 -177 48 -178 138c-2 138 175 144 298 143v17c0 33 -20 42 -69 42c-73 0 -147 -32 -147 -32l-36 84s84 45 192 48
c100 3 191 -32 191 -144v-285zM337 186c-64 -2 -165 11 -168 -51c-3 -81 168 -73 168 51z" />
    <glyph glyph-name="adieresis" unicode="&#xe4;" horiz-adv-x="512" 
d="M472 563c0 -36 -32 -70 -76 -70s-76 34 -76 70s32 71 76 71s76 -35 76 -71zM233 563h1c0 -35 -32 -70 -75 -70c-44 0 -76 34 -76 70s32 71 76 71s74 -35 74 -71zM469 0h-59c-24 0 -44 12 -57 30c-28 -21 -69 -41 -135 -41c-85 0 -177 48 -178 138c-2 138 175 144 298 143
v17c0 33 -20 42 -69 42c-73 0 -147 -32 -147 -32l-36 84s84 45 192 48c100 3 191 -32 191 -144v-285zM337 186c-64 -2 -165 11 -168 -51c-3 -81 168 -73 168 51z" />
    <glyph glyph-name="atilde" unicode="&#xe3;" horiz-adv-x="509" 
d="M399 634l58 -84c-36 -25 -87 -61 -133 -61c-47 0 -84 31 -84 31c-12 8 -25 14 -44 4c0 0 -50 -26 -58 -29l-50 87c34 21 90 58 130 58c39 0 68 -18 87 -32c12 -9 24 -15 39 -6c0 0 48 27 55 32zM469 0h-59c-24 0 -44 12 -57 30c-28 -21 -69 -41 -135 -41
c-85 0 -177 48 -178 138c-2 138 175 144 298 143v17c0 33 -20 42 -69 42c-73 0 -147 -32 -147 -32l-36 84s84 45 192 48c100 3 191 -32 191 -144v-285zM337 186c-64 -2 -165 11 -168 -51c-3 -81 168 -73 168 51z" />
    <glyph glyph-name="aring" unicode="&#xe5;" horiz-adv-x="509" 
d="M393 563c0 -60 -52 -110 -117 -110c-66 0 -118 50 -118 110s52 110 118 110c65 0 117 -50 117 -110zM469 0h-59c-24 0 -44 12 -57 30c-28 -21 -69 -41 -135 -41c-85 0 -177 48 -178 138c-2 138 175 144 298 143v17c0 33 -20 42 -69 42c-73 0 -147 -32 -147 -32l-36 84
s84 45 192 48c100 3 191 -32 191 -144v-285zM276 533c15 0 29 14 29 30c0 18 -14 29 -29 29c-17 0 -31 -11 -31 -29c0 -16 14 -30 31 -30zM337 186c-64 -2 -165 11 -168 -51c-3 -81 168 -73 168 51z" />
    <glyph glyph-name="ccedilla" unicode="&#xe7;" horiz-adv-x="492" 
d="M376 117l76 -69s-82 -73 -172 -73c-154 0 -240 101 -240 229c0 125 86 227 240 227c90 0 172 -73 172 -73l-76 -70s-50 39 -98 39c-71 0 -100 -56 -100 -123c0 -68 29 -125 100 -125c48 0 98 38 98 38zM185 -232l14 88c58 -2 64 10 64 10c0 1 -3 12 -39 16v87
c102 -15 143 -55 144 -104c1 -59 -63 -109 -183 -97z" />
    <glyph glyph-name="eacute" unicode="&#xe9;" horiz-adv-x="535" 
d="M271 450l-63 66c37 37 112 110 189 174l80 -83c-77 -66 -164 -128 -206 -157zM492 172h-314c5 -52 39 -83 106 -83c60 0 141 26 141 26l39 -86s-80 -38 -178 -38c-157 0 -246 89 -246 222c0 112 80 216 239 216c131 0 216 -83 216 -191c0 -15 0 -30 -3 -66zM183 257h182
s0 76 -90 76c-89 0 -92 -76 -92 -76z" />
    <glyph glyph-name="egrave" unicode="&#xe8;" horiz-adv-x="535" 
d="M348 516l-66 -69c-42 30 -130 93 -209 159l83 86c78 -64 154 -139 192 -176zM492 172h-314c5 -52 39 -83 106 -83c60 0 141 26 141 26l39 -86s-80 -38 -178 -38c-157 0 -246 89 -246 222c0 112 80 216 239 216c131 0 216 -83 216 -191c0 -15 0 -30 -3 -66zM183 257h182
s0 76 -90 76c-89 0 -92 -76 -92 -76z" />
    <glyph glyph-name="ecircumflex" unicode="&#xea;" horiz-adv-x="535" 
d="M462 552l-45 -79c-45 17 -106 40 -140 55c-33 -16 -93 -38 -139 -55l-44 79l184 98zM492 172h-314c5 -52 39 -83 106 -83c60 0 141 26 141 26l39 -86s-80 -38 -178 -38c-157 0 -246 89 -246 222c0 112 80 216 239 216c131 0 216 -83 216 -191c0 -15 0 -30 -3 -66z
M183 257h182s0 76 -90 76c-89 0 -92 -76 -92 -76z" />
    <glyph glyph-name="edieresis" unicode="&#xeb;" horiz-adv-x="535" 
d="M471 563c0 -36 -32 -70 -76 -70s-76 34 -76 70s32 71 76 71s76 -35 76 -71zM232 563h1c0 -35 -32 -70 -75 -70c-44 0 -76 34 -76 70s32 71 76 71s74 -35 74 -71zM492 172h-314c5 -52 39 -83 106 -83c60 0 141 26 141 26l39 -86s-80 -38 -178 -38c-157 0 -246 89 -246 222
c0 112 80 216 239 216c131 0 216 -83 216 -191c0 -15 0 -30 -3 -66zM183 257h182s0 76 -90 76c-89 0 -92 -76 -92 -76z" />
    <glyph glyph-name="iacute" unicode="&#xed;" horiz-adv-x="349" 
d="M103 450l-63 66c37 37 112 110 189 174l80 -83c-77 -66 -164 -128 -206 -157zM109 -2h-62v416l135 16v-354c0 -37 -30 -78 -73 -78z" />
    <glyph glyph-name="igrave" unicode="&#xec;" horiz-adv-x="355" 
d="M315 516l-66 -69c-42 30 -130 93 -209 159l83 86c78 -64 154 -139 192 -176zM231 -2h-62v416l135 16v-354c0 -37 -30 -78 -73 -78z" />
    <glyph glyph-name="icircumflex" unicode="&#xee;" horiz-adv-x="448" 
d="M408 552l-45 -79c-45 17 -106 40 -140 55c-33 -16 -93 -38 -139 -55l-44 79l184 98zM220 -2h-62v419l136 16v-357c0 -37 -31 -78 -74 -78z" />
    <glyph glyph-name="idieresis" unicode="&#xef;" horiz-adv-x="469" 
d="M429 563c0 -36 -32 -70 -76 -70s-76 34 -76 70s32 71 76 71s76 -35 76 -71zM190 563h1c0 -35 -32 -70 -75 -70c-44 0 -76 34 -76 70s32 71 76 71s74 -35 74 -71zM228 -5h-61v416l134 16v-354c0 -37 -30 -78 -73 -78z" />
    <glyph glyph-name="ntilde" unicode="&#xf1;" horiz-adv-x="514" 
d="M386 630l58 -84c-36 -25 -87 -61 -133 -61c-47 0 -84 31 -84 31c-12 8 -25 15 -44 5c0 0 -50 -27 -58 -30l-50 87c34 21 90 58 130 58c39 0 68 -17 87 -31c12 -10 24 -15 39 -7c0 0 48 28 55 32zM474 0h-62c-44 0 -73 42 -73 79v180c0 44 -18 69 -58 69
c-57 0 -93 -33 -106 -47v-281h-135v424h135v-40c26 22 75 47 131 47c164 0 168 -136 168 -143v-288z" />
    <glyph glyph-name="oacute" unicode="&#xf3;" horiz-adv-x="559" 
d="M272 450l-63 66c37 37 112 110 189 174l80 -83c-77 -66 -164 -128 -206 -157zM519 208c0 -122 -86 -221 -239 -221s-240 99 -240 221c0 124 82 223 241 223c158 0 238 -99 238 -223zM280 86c74 0 102 54 102 127c0 75 -25 119 -102 119s-102 -44 -102 -119
c0 -73 28 -127 102 -127z" />
    <glyph glyph-name="ograve" unicode="&#xf2;" horiz-adv-x="559" 
d="M352 516l-66 -69c-42 30 -130 93 -209 159l83 86c78 -64 154 -139 192 -176zM519 208c0 -122 -86 -221 -239 -221s-240 99 -240 221c0 124 82 223 241 223c158 0 238 -99 238 -223zM280 86c74 0 102 54 102 127c0 75 -25 119 -102 119s-102 -44 -102 -119
c0 -73 28 -127 102 -127z" />
    <glyph glyph-name="ocircumflex" unicode="&#xf4;" horiz-adv-x="559" 
d="M466 552l-45 -79c-45 17 -106 40 -140 55c-33 -16 -93 -38 -139 -55l-44 79l184 98zM519 208c0 -122 -86 -221 -239 -221s-240 99 -240 221c0 124 82 223 241 223c158 0 238 -99 238 -223zM280 86c74 0 102 54 102 127c0 75 -25 119 -102 119s-102 -44 -102 -119
c0 -73 28 -127 102 -127z" />
    <glyph glyph-name="odieresis" unicode="&#xf6;" horiz-adv-x="559" 
d="M476 563c0 -36 -32 -70 -76 -70s-76 34 -76 70s32 71 76 71s76 -35 76 -71zM237 563h1c0 -35 -32 -70 -75 -70c-44 0 -76 34 -76 70s32 71 76 71s74 -35 74 -71zM519 208c0 -122 -86 -221 -239 -221s-240 99 -240 221c0 124 82 223 241 223c158 0 238 -99 238 -223z
M280 86c74 0 102 54 102 127c0 75 -25 119 -102 119s-102 -44 -102 -119c0 -73 28 -127 102 -127z" />
    <glyph glyph-name="otilde" unicode="&#xf5;" horiz-adv-x="559" 
d="M407 634l58 -84c-36 -25 -87 -61 -133 -61c-47 0 -84 31 -84 31c-12 8 -25 14 -44 4c0 0 -50 -26 -58 -29l-50 87c34 21 90 58 130 58c39 0 68 -18 87 -32c12 -9 24 -15 39 -6c0 0 48 27 55 32zM519 208c0 -122 -86 -221 -239 -221s-240 99 -240 221
c0 124 82 223 241 223c158 0 238 -99 238 -223zM280 86c74 0 102 54 102 127c0 75 -25 119 -102 119s-102 -44 -102 -119c0 -73 28 -127 102 -127z" />
    <glyph glyph-name="uacute" unicode="&#xfa;" horiz-adv-x="507" 
d="M260 450l-63 66c37 37 112 110 189 174l80 -83c-77 -66 -164 -128 -206 -157zM467 -2h-62c-23 0 -43 13 -56 31c-25 -20 -66 -41 -125 -41c-75 0 -184 32 -184 125v305l135 15v-299c0 -31 25 -48 65 -48s92 51 92 74v258l135 15v-435z" />
    <glyph glyph-name="ugrave" unicode="&#xf9;" horiz-adv-x="507" 
d="M327 516l-66 -69c-42 30 -130 93 -209 159l83 86c78 -64 154 -139 192 -176zM467 -2h-62c-23 0 -43 13 -56 31c-25 -20 -66 -41 -125 -41c-75 0 -184 32 -184 125v305l135 15v-299c0 -31 25 -48 65 -48s92 51 92 74v258l135 15v-435z" />
    <glyph glyph-name="ucircumflex" unicode="&#xfb;" horiz-adv-x="507" 
d="M437 552l-45 -79c-45 17 -106 40 -140 55c-33 -16 -93 -38 -139 -55l-44 79l184 98zM467 -2h-62c-23 0 -43 13 -56 31c-25 -20 -66 -41 -125 -41c-75 0 -184 32 -184 125v305l135 15v-299c0 -31 25 -48 65 -48s92 51 92 74v258l135 15v-435z" />
    <glyph glyph-name="udieresis" unicode="&#xfc;" horiz-adv-x="507" 
d="M448 563c0 -36 -32 -70 -76 -70s-76 34 -76 70s32 71 76 71s76 -35 76 -71zM209 563h1c0 -35 -32 -70 -75 -70c-44 0 -76 34 -76 70s32 71 76 71s74 -35 74 -71zM467 -2h-62c-23 0 -43 13 -56 31c-25 -20 -66 -41 -125 -41c-75 0 -184 32 -184 125v305l135 15v-299
c0 -31 25 -48 65 -48s92 51 92 74v258l135 15v-435z" />
    <glyph glyph-name="dagger" unicode="&#x2020;" horiz-adv-x="519" 
d="M322 0h-124v339h-158v109h157v146h124v-145h158v-109h-157v-340z" />
    <glyph glyph-name="degree" unicode="&#xb0;" horiz-adv-x="315" 
d="M275 582c0 -60 -52 -110 -117 -110c-66 0 -118 50 -118 110s52 110 118 110c65 0 117 -50 117 -110zM188 582c0 18 -14 30 -30 30c-17 0 -30 -12 -30 -30c0 -16 14 -29 30 -29c15 0 30 13 30 29z" />
    <glyph glyph-name="cent" unicode="&#xa2;" horiz-adv-x="492" 
d="M334 -83h-119v74c-114 25 -175 113 -175 219c0 107 61 195 175 220v73h119v-73c60 -16 118 -66 118 -66l-75 -69s-20 16 -43 27v-223c18 8 42 27 42 27l76 -68s-57 -51 -118 -67v-74zM215 108v204c-26 -22 -37 -60 -37 -101c0 -42 11 -80 37 -103z" />
    <glyph glyph-name="sterling" unicode="&#xa3;" horiz-adv-x="508" 
d="M468 0h-428v99c4 2 7 5 11 9c44 32 93 81 106 131h-106v110h97l-16 117c-20 143 118 165 182 165c76 0 152 -50 152 -50l-58 -85c-23 12 -62 29 -97 29c-21 0 -49 -11 -43 -53l17 -123h121v-110h-111c-7 -54 -35 -98 -62 -126h235v-113z" />
    <glyph glyph-name="section" unicode="&#xa7;" 
d="M84 42l67 90c47 -27 75 -36 100 -36c37 0 58 14 58 29c0 24 -113 54 -129 60c-66 23 -140 57 -140 132c0 41 27 73 57 94c-22 21 -38 47 -38 80c0 99 108 140 194 140c46 0 106 -13 163 -56l-67 -86c-47 24 -75 34 -99 34c-37 0 -58 -14 -58 -30c0 -3 3 -10 28 -22
c83 -39 240 -59 240 -172c0 -40 -27 -70 -57 -92c22 -19 40 -46 40 -79c0 -99 -107 -141 -195 -141c-50 0 -104 19 -164 55zM214 350c-17 -6 -39 -13 -39 -29c0 -24 91 -46 112 -52c16 5 38 13 38 28c0 8 -8 18 -37 29c-25 10 -53 18 -74 24z" />
    <glyph glyph-name="bullet" unicode="&#x2022;" horiz-adv-x="353" 
d="M313 330c0 -69 -60 -126 -136 -126c-77 0 -137 57 -137 126c0 70 60 128 137 128c76 0 136 -58 136 -128z" />
    <glyph glyph-name="paragraph" unicode="&#xb6;" horiz-adv-x="601" 
d="M561 0h-122v511h-68v-511h-122v265c-105 7 -209 67 -209 170c0 136 125 188 253 188h268v-623z" />
    <glyph glyph-name="germandbls" unicode="&#xdf;" horiz-adv-x="530" 
d="M187 -5v106c30 -1 113 -4 148 26c62 54 -25 92 -65 119c-78 52 -85 106 -25 174c12 14 25 28 35 43c18 30 1 60 -45 60c-50 0 -58 -25 -58 -87v-340c0 -58 -40 -96 -137 -96l1 437c0 107 46 194 192 194c147 0 246 -120 154 -232c-13 -16 -38 -38 -45 -57
c-2 -3 8 -6 15 -11c12 -9 26 -17 32 -20c92 -58 153 -170 40 -262c-79 -64 -242 -54 -242 -54z" />
    <glyph glyph-name="registered" unicode="&#xae;" horiz-adv-x="722" 
d="M682 334c0 -178 -144 -321 -321 -321s-321 143 -321 321c0 177 144 321 321 321s321 -144 321 -321zM361 113c122 0 220 99 220 221c0 121 -98 220 -220 220c-121 0 -220 -99 -220 -220c0 -122 99 -221 220 -221zM491 171h-93l-25 86c-1 4 -6 3 -15 3h-26v-89h-88v328
h127c63 0 108 -47 108 -114c0 -30 -11 -60 -30 -82c5 -8 8 -16 10 -24zM332 349h26c17 0 29 10 29 35c0 23 -7 25 -20 25h-35v-60z" />
    <glyph glyph-name="copyright" unicode="&#xa9;" horiz-adv-x="722" 
d="M682 334c0 -178 -144 -321 -321 -321s-321 143 -321 321c0 177 144 321 321 321s321 -144 321 -321zM361 113c122 0 220 99 220 221c0 121 -98 220 -220 220c-121 0 -220 -99 -220 -220c0 -122 99 -221 220 -221zM433 282l51 -76s-67 -52 -114 -52
c-115 0 -159 84 -159 175s44 175 159 175c47 0 114 -52 114 -52l-51 -77c-27 21 -47 34 -66 34c-40 0 -55 -30 -55 -81c0 -50 15 -81 55 -81c19 0 39 14 66 35z" />
    <glyph glyph-name="trademark" unicode="&#x2122;" horiz-adv-x="638" 
d="M598 373h-95v70l-14 -27h-69l-13 27v-70h-96v288h94l50 -103l50 103h93v-288zM214 373h-96v195h-78v93h251v-93h-77v-195z" />
    <glyph glyph-name="acute" unicode="&#xb4;" horiz-adv-x="349" 
d="M103 475l-63 66c37 37 112 110 189 174l80 -83c-77 -66 -164 -128 -206 -157z" />
    <glyph glyph-name="dieresis" unicode="&#xa8;" horiz-adv-x="469" 
d="M429 598c0 -36 -32 -70 -76 -70s-76 34 -76 70s32 71 76 71s76 -35 76 -71zM190 598h1c0 -35 -32 -70 -75 -70c-44 0 -76 34 -76 70s32 71 76 71s74 -35 74 -71z" />
    <glyph glyph-name="notequal" unicode="&#x2260;" horiz-adv-x="530" 
d="M490 144h-204l-50 -170l-116 32l41 137h-121v111h156l11 39h-167v112h202l43 144l115 -30l-34 -114h124v-111h-158l-12 -39h170v-111z" />
    <glyph glyph-name="AE" unicode="&#xc6;" horiz-adv-x="970" 
d="M924 0h-468v180h-151l-116 -180h-149l402 622h488l-30 -111h-306v-128h228v-114h-228v-157h330v-112zM456 289v124l-80 -124h80z" />
    <glyph glyph-name="Oslash" unicode="&#xd8;" horiz-adv-x="675" 
d="M270 -75l-108 27l22 66c-121 63 -144 197 -144 291c0 128 40 324 297 324c17 0 34 -2 49 -3l17 50l108 -27l-18 -54c121 -61 142 -195 142 -291c0 -124 -41 -324 -296 -324c-17 0 -33 0 -48 2zM452 476l-125 -379c3 -1 7 -1 10 -1c139 0 157 112 155 212
c-1 60 -5 126 -40 168zM224 139l126 382h-13c-143 0 -152 -111 -154 -214c-1 -59 5 -126 41 -168z" />
    <glyph glyph-name="infinity" unicode="&#x221e;" horiz-adv-x="783" 
d="M392 188c-39 -52 -93 -88 -164 -88c-123 0 -188 89 -188 190c0 102 61 188 185 188c76 0 129 -39 166 -96c42 58 97 96 167 96c124 0 185 -86 185 -188c0 -101 -65 -190 -188 -190c-71 0 -123 35 -163 88zM628 287h1c0 61 -32 88 -74 88c-34 0 -72 -44 -99 -89
c24 -44 64 -82 104 -82c38 0 68 33 68 83zM328 282c-27 46 -65 93 -100 93c-42 0 -73 -27 -73 -88c0 -50 31 -83 68 -83c41 0 81 35 105 78z" />
    <glyph glyph-name="plusminus" unicode="&#xb1;" horiz-adv-x="531" 
d="M491 354h-163v-141h-123v140h-163v110h162v140h123v-139h164v-110zM490 73h-450v112h450v-112z" />
    <glyph glyph-name="lessequal" unicode="&#x2264;" horiz-adv-x="530" 
d="M391 262l-92 -66l-194 213l194 214l92 -68l-126 -145zM490 73h-450v112h450v-112z" />
    <glyph glyph-name="greaterequal" unicode="&#x2265;" horiz-adv-x="530" 
d="M231 196l-92 66l126 148l-126 145l92 68l194 -214zM490 73h-450v112h450v-112z" />
    <glyph glyph-name="yen" unicode="&#xa5;" horiz-adv-x="636" 
d="M568 152h-181v-152h-138l1 152h-180v112h179l-14 26h-165v113h99l-129 220h151l127 -220l127 220h151l-129 -220h101v-113h-167l-14 -24l181 -2v-112z" />
    <glyph glyph-name="mu" unicode="&#xb5;" horiz-adv-x="507" 
d="M467 -14h-62c-23 0 -43 13 -56 31c-25 -21 -66 -42 -125 -42c-19 0 -36 3 -49 7v-81c0 -38 -26 -79 -74 -79h-60v284l-1 312l135 15v-308c0 -31 25 -49 65 -49s92 51 92 77v265l135 15v-447z" />
    <glyph glyph-name="mu" unicode="&#x3bc;" horiz-adv-x="507" 
d="M467 -14h-62c-23 0 -43 13 -56 31c-25 -21 -66 -42 -125 -42c-19 0 -36 3 -49 7v-81c0 -38 -26 -79 -74 -79h-60v284l-1 312l135 15v-308c0 -31 25 -49 65 -49s92 51 92 77v265l135 15v-447z" />
    <glyph glyph-name="summation" unicode="&#x2211;" horiz-adv-x="539" 
d="M499 0h-459v94l152 217l-152 218v94h459v-152h-114v41h-188l138 -201l-138 -200h188v42h114v-153z" />
    <glyph glyph-name="product" unicode="&#x220f;" horiz-adv-x="687" 
d="M647 -96l-54 -99c-26 7 -182 56 -182 228v477h-156v-522h-139v522h-76v113h584v-113h-75v-497c0 -66 73 -99 98 -109z" />
    <glyph glyph-name="pi" unicode="&#x3c0;" horiz-adv-x="629" 
d="M539 -99l-54 -96c-26 7 -225 69 -169 289l57 224h-108l-86 -333h-139l87 333h-54l24 106h492l-29 -106h-48l-60 -234c-18 -71 -23 -131 87 -183z" />
    <glyph glyph-name="integral" unicode="&#x222b;" horiz-adv-x="537" 
d="M362 -6v26c-23 -13 -54 -25 -93 -25c-145 0 -229 100 -229 219c0 111 81 217 223 217c41 0 74 -12 98 -24v27l136 -16v-417c0 -39 -18 -192 -242 -192c-113 0 -193 78 -193 78l72 83c12 -11 62 -56 122 -56c89 0 106 53 106 80zM266 100c64 0 99 50 99 113
c0 64 -33 114 -99 114s-94 -46 -94 -112c0 -64 30 -115 94 -115z" />
    <glyph glyph-name="ordfeminine" unicode="&#xaa;" horiz-adv-x="422" 
d="M362 350h-47c-19 0 -33 9 -43 23c-21 -16 -52 -30 -98 -30c-63 0 -133 36 -134 110c-2 109 129 126 218 126c0 22 -12 27 -47 27c-42 0 -83 -17 -108 -28l-44 62c27 18 82 51 159 51c73 0 143 -25 143 -116c0 -67 0 -134 1 -225zM382 223h-333v101h333v-101zM258 498v4
c-39 0 -114 1 -115 -44c-1 -23 11 -34 39 -34c59 0 76 35 76 74z" />
    <glyph glyph-name="ordmasculine" unicode="&#xba;" horiz-adv-x="441" 
d="M401 515c0 -97 -68 -174 -180 -174c-113 0 -181 77 -181 174c0 99 65 176 181 176s180 -77 180 -176zM389 223h-333v101h333v-101zM221 425c50 0 70 39 70 94c0 57 -17 89 -71 89c-53 0 -71 -32 -71 -89c0 -55 21 -94 72 -94z" />
    <glyph glyph-name="Omega" unicode="&#x3a9;" horiz-adv-x="581" 
d="M519 0h-218v121c74 18 111 63 111 110c0 54 -52 95 -121 95s-121 -41 -121 -95c0 -47 40 -94 117 -111v-120h-219v99h38c-39 34 -66 80 -66 132c0 113 120 199 250 199c131 0 251 -86 251 -199c0 -52 -27 -97 -65 -132h43v-99z" />
    <glyph glyph-name="Omega" unicode="&#x2126;" horiz-adv-x="581" 
d="M519 0h-218v121c74 18 111 63 111 110c0 54 -52 95 -121 95s-121 -41 -121 -95c0 -47 40 -94 117 -111v-120h-219v99h38c-39 34 -66 80 -66 132c0 113 120 199 250 199c131 0 251 -86 251 -199c0 -52 -27 -97 -65 -132h43v-99z" />
    <glyph glyph-name="ae" unicode="&#xe6;" horiz-adv-x="827" 
d="M783 177h-312c8 -54 38 -88 104 -88s144 36 144 36l49 -87c-59 -31 -121 -50 -191 -50c-90 0 -145 32 -173 55c-30 -28 -81 -55 -185 -55c-85 0 -178 48 -179 139c-2 134 169 149 297 148v12c0 32 -18 38 -67 38c-67 0 -148 -36 -148 -36l-53 80c70 37 123 62 210 62
c54 0 109 -10 146 -39c39 24 87 39 146 39c130 0 216 -75 216 -185c0 -16 -2 -31 -4 -69zM477 275h176c-8 35 -35 56 -86 56c-47 0 -79 -24 -90 -56zM337 178c-14 1 -29 1 -45 1c-41 0 -116 4 -118 -44c-1 -33 19 -49 56 -49c75 0 104 43 107 92z" />
    <glyph glyph-name="oslash" unicode="&#xf8;" horiz-adv-x="559" 
d="M238 -95l-108 26l26 78c-76 39 -116 113 -116 199c0 128 82 227 241 227h19l24 70l108 -26l-24 -72c76 -38 111 -114 111 -199c0 -125 -86 -228 -239 -228c-5 0 -11 1 -16 1zM368 291l-70 -208c60 8 84 61 84 130c0 32 -4 59 -14 78zM197 127l69 208
c-66 -6 -88 -49 -88 -122c0 -33 6 -62 19 -86z" />
    <glyph glyph-name="questiondown" unicode="&#xbf;" horiz-adv-x="425" 
d="M306 559c0 -38 -34 -71 -76 -71s-76 33 -76 71s34 70 76 70s76 -32 76 -70zM274 181l111 1c-2 -105 -58 -186 -177 -186c-94 0 -168 66 -168 165c0 77 41 113 77 142c31 25 63 47 63 91c0 7 -2 13 -12 36l101 63c14 -57 19 -79 19 -104c0 -87 -46 -119 -104 -166
c-19 -15 -36 -32 -36 -59c0 -42 20 -61 59 -61c52 0 66 24 67 78z" />
    <glyph glyph-name="exclamdown" unicode="&#xa1;" horiz-adv-x="241" 
d="M201 562c0 -39 -36 -70 -80 -70c-45 0 -81 31 -81 70c0 38 36 69 81 69c44 0 80 -31 80 -69zM43 -12l18 487h118l16 -472s-68 -15 -152 -15z" />
    <glyph glyph-name="logicalnot" unicode="&#xac;" horiz-adv-x="585" 
d="M545 164l-128 -1v170h-377v112h505v-281z" />
    <glyph glyph-name="radical" unicode="&#x221a;" horiz-adv-x="536" 
d="M287 28h-129l-118 313l119 37l67 -181l156 406l114 -38z" />
    <glyph glyph-name="florin" unicode="&#x192;" horiz-adv-x="707" 
d="M310 80l40 254h-27l15 100h27l8 51c14 87 87 137 179 137c29 0 65 -6 115 -28l-47 -89c-38 10 -54 13 -68 13c-49 0 -47 -54 -52 -84h106l-45 -100h-77l-44 -279c-22 -138 -121 -230 -247 -229c-66 0 -153 64 -153 64l75 84c22 -18 51 -37 78 -37c46 0 102 45 117 143z
" />
    <glyph glyph-name="approxequal" unicode="&#x2248;" horiz-adv-x="538" 
d="M428 375l70 -79c-55 -46 -100 -70 -148 -70c-70 0 -112 51 -167 51c-13 0 -40 -14 -79 -37l-64 84c60 41 106 59 152 59c69 0 118 -49 158 -49c19 0 64 31 78 41zM428 232l70 -79c-55 -46 -100 -70 -148 -70c-54 0 -85 27 -131 43c-13 5 -24 8 -36 8
c-16 0 -44 -17 -79 -37l-64 82c60 42 106 61 152 61c69 0 118 -50 158 -50c18 0 46 20 78 42z" />
    <glyph glyph-name="Delta" unicode="&#x394;" horiz-adv-x="578" 
d="M538 -21h-498l249 605zM373 85l-84 204l-84 -204h168z" />
    <glyph glyph-name="Delta" unicode="&#x2206;" horiz-adv-x="578" 
d="M538 -21h-498l249 605zM373 85l-84 204l-84 -204h168z" />
    <glyph glyph-name="guillemotleft" unicode="&#xab;" horiz-adv-x="516" 
d="M476 67l-89 -49l-157 205l157 206l89 -50l-98 -155zM286 67l-89 -49l-157 205l157 206l89 -50l-98 -155z" />
    <glyph glyph-name="guillemotright" unicode="&#xbb;" horiz-adv-x="516" 
d="M317 18l-87 49l97 157l-97 155l87 50l159 -206zM127 18l-87 49l97 157l-97 155l87 50l159 -206z" />
    <glyph glyph-name="ellipsis" unicode="&#x2026;" horiz-adv-x="681" 
d="M641 37c0 -36 -32 -70 -76 -70s-76 34 -76 70s32 70 76 70s76 -34 76 -70zM417 37h1c0 -36 -31 -70 -75 -70s-76 34 -76 70s32 70 76 70c43 0 74 -34 74 -70zM191 37h1c0 -36 -32 -70 -76 -70s-76 34 -76 70s32 70 76 70s75 -34 75 -70z" />
    <glyph glyph-name="Agrave" unicode="&#xc0;" horiz-adv-x="656" 
d="M394 727l-66 -69c-42 30 -130 93 -209 159l83 86c78 -64 154 -139 192 -176zM616 0h-118l-70 180h-197l-70 -180h-121l237 613h104zM390 281l-61 159l-60 -159h121z" />
    <glyph glyph-name="Atilde" unicode="&#xc3;" horiz-adv-x="656" 
d="M450 850l58 -84c-36 -25 -87 -61 -133 -61c-47 0 -84 31 -84 31c-12 8 -25 15 -44 5c0 0 -50 -27 -58 -30l-50 87c34 21 90 58 130 58c39 0 68 -17 87 -31c12 -10 24 -15 39 -6c0 0 48 27 55 31zM616 0h-118l-70 180h-197l-70 -180h-121l237 613h104zM390 281l-61 159
l-60 -159h121z" />
    <glyph glyph-name="Otilde" unicode="&#xd5;" horiz-adv-x="639" 
d="M444 850l58 -84c-36 -25 -87 -61 -133 -61c-47 0 -84 31 -84 31c-11 8 -25 15 -44 5c0 0 -50 -27 -58 -30l-50 87c34 21 90 58 130 58c39 0 68 -17 87 -31c12 -10 25 -15 40 -6c0 0 47 27 54 31zM321 -12c-238 0 -281 192 -281 316c0 127 39 316 279 316
s280 -189 280 -316c0 -124 -40 -316 -278 -316zM319 91c138 0 154 116 152 212c-2 99 -11 214 -152 214c-142 0 -150 -115 -152 -213c-2 -97 14 -213 152 -213z" />
    <glyph glyph-name="OE" unicode="&#x152;" horiz-adv-x="903" 
d="M857 -1h-423c-28 -6 -60 -11 -96 -11c-256 0 -298 194 -298 322c0 126 42 321 298 321c29 0 57 -3 82 -8h443l-29 -111h-307v-129h228v-114h-228v-159h330v-111zM390 105v408c-15 4 -32 6 -52 6c-143 0 -155 -110 -155 -209c0 -101 12 -210 155 -210c20 0 37 1 52 5z" />
    <glyph glyph-name="oe" unicode="&#x153;" horiz-adv-x="880" 
d="M836 172h-311c7 -48 38 -82 104 -82c65 0 144 36 144 36l49 -86c-59 -32 -121 -50 -191 -50c-74 0 -136 19 -179 57c-41 -38 -100 -60 -172 -60c-153 0 -240 99 -240 221c0 124 82 223 241 223c73 0 131 -22 172 -59c41 36 98 59 171 59c132 0 216 -82 216 -191
c0 -15 -2 -30 -4 -68zM530 269h176c-8 38 -35 62 -86 62c-46 0 -80 -28 -90 -62zM280 86c74 0 102 54 102 127c0 75 -25 119 -102 119s-102 -44 -102 -119c0 -73 28 -127 102 -127z" />
    <glyph glyph-name="endash" unicode="&#x2013;" horiz-adv-x="607" 
d="M567 198l-527 -1v114h527v-113z" />
    <glyph glyph-name="emdash" unicode="&#x2014;" horiz-adv-x="827" 
d="M787 198l-747 -1v114h747v-113z" />
    <glyph glyph-name="quotedblleft" unicode="&#x201c;" horiz-adv-x="481" 
d="M394 671l47 -64c-37 -19 -54 -33 -66 -54c36 -6 58 -37 58 -68c0 -46 -41 -78 -87 -78c-63 0 -95 51 -95 98c0 76 65 124 143 166zM183 671l47 -64c-37 -19 -54 -33 -66 -54c35 -6 57 -38 57 -68c0 -45 -41 -78 -86 -78c-64 0 -95 51 -95 98c0 76 65 124 143 166z" />
    <glyph glyph-name="quotedblright" unicode="&#x201d;" horiz-adv-x="481" 
d="M300 391l-49 63c38 19 56 34 67 55c-36 6 -58 38 -58 68c0 45 42 77 86 77c63 0 95 -50 95 -97c0 -78 -63 -123 -141 -166zM89 391l-49 63c38 19 56 34 66 55c-35 6 -57 38 -57 68c0 45 42 77 86 77c63 0 94 -50 94 -97h1c0 -78 -64 -123 -141 -166z" />
    <glyph glyph-name="quoteleft" unicode="&#x2018;" horiz-adv-x="270" 
d="M183 671l47 -64c-37 -19 -54 -33 -66 -54c35 -6 57 -38 57 -68c0 -45 -41 -78 -86 -78c-64 0 -95 51 -95 98c0 76 65 124 143 166z" />
    <glyph glyph-name="quoteright" unicode="&#x2019;" horiz-adv-x="270" 
d="M89 391l-49 63c38 19 56 34 66 55c-35 6 -57 38 -57 68c0 45 42 77 86 77c63 0 95 -50 95 -97c0 -78 -64 -123 -141 -166z" />
    <glyph glyph-name="divide" unicode="&#xf7;" horiz-adv-x="530" 
d="M343 352c0 -38 -34 -71 -76 -71s-76 33 -76 71s34 70 76 70s76 -32 76 -70zM490 154h-450v112h450v-112zM343 66c0 -38 -34 -70 -76 -70s-76 32 -76 70s34 71 76 71s76 -33 76 -71z" />
    <glyph glyph-name="ydieresis" unicode="&#xff;" horiz-adv-x="544" 
d="M466 563c0 -36 -32 -70 -76 -70s-76 34 -76 70s32 71 76 71s76 -35 76 -71zM227 563h1c0 -35 -32 -70 -75 -70c-44 0 -76 34 -76 70s32 71 76 71s74 -35 74 -71zM102 -189l-15 99c91 14 101 45 126 110c-26 4 -53 21 -68 66l-105 319l126 30l95 -291l1 -2l120 293
l122 -32l-186 -460c-31 -76 -96 -123 -216 -132z" />
    <glyph glyph-name="Ydieresis" unicode="&#x178;" horiz-adv-x="630" 
d="M510 784c0 -36 -32 -70 -76 -70s-76 34 -76 70s32 71 76 71s76 -35 76 -71zM271 784h1c0 -35 -32 -70 -75 -70c-44 0 -76 34 -76 70s32 71 76 71s74 -35 74 -71zM383 0h-136v263l-207 354h149l126 -218l126 218h149l-206 -354z" />
    <glyph glyph-name="fraction" unicode="&#x2044;" horiz-adv-x="735" 
d="M157 -122h-117l538 810h117z" />
    <glyph glyph-name="currency" unicode="&#xa4;" horiz-adv-x="618" 
d="M505 126l51 -86c-28 -18 -85 -52 -187 -52c-167 0 -243 86 -273 185h-49v87h34c-1 15 -1 30 -1 45c0 6 0 12 1 19h-34v87h47c28 110 104 210 286 210c103 0 159 -36 186 -54l-54 -85c-26 13 -70 35 -133 35c-91 0 -134 -48 -155 -106h247l-41 -87h-222
c0 -7 -1 -14 -1 -21c0 -14 0 -29 1 -43h196l-40 -87h-135c22 -47 64 -81 141 -81c63 0 108 21 135 34z" />
    <glyph glyph-name="guilsinglleft" unicode="&#x2039;" horiz-adv-x="326" 
d="M286 67l-89 -49l-157 205l157 206l89 -50l-98 -155z" />
    <glyph glyph-name="guilsinglright" unicode="&#x203a;" horiz-adv-x="326" 
d="M127 18l-87 49l97 157l-97 155l87 50l159 -206z" />
    <glyph glyph-name="daggerdbl" unicode="&#x2021;" horiz-adv-x="498" 
d="M458 152h-153v-137h-119v136h-146v110h146v116h-146v109h145v137h119v-136h154v-109h-154v-116h154v-110z" />
    <glyph glyph-name="periodcentered" unicode="&#xb7;" horiz-adv-x="232" 
d="M192 258c0 -37 -32 -70 -76 -70s-76 33 -76 70c0 36 32 70 76 70s76 -34 76 -70z" />
    <glyph glyph-name="quotesinglbase" unicode="&#x201a;" horiz-adv-x="269" 
d="M87 -143l-47 64c39 20 55 34 65 55c-35 6 -57 38 -57 68c0 45 42 77 86 77c63 0 95 -49 95 -97c0 -77 -63 -123 -142 -167z" />
    <glyph glyph-name="quotedblbase" unicode="&#x201e;" horiz-adv-x="481" 
d="M300 -142l-49 63c38 19 55 33 66 55c-35 6 -58 35 -58 68c0 45 43 77 87 77c63 0 95 -49 95 -97c0 -51 -37 -100 -76 -127c-13 -9 -28 -18 -65 -39zM87 -143l-47 64c39 20 55 34 65 55c-35 6 -57 38 -57 68c0 45 42 77 86 77c63 0 94 -49 94 -97h1
c0 -77 -63 -123 -142 -167z" />
    <glyph glyph-name="perthousand" unicode="&#x2030;" horiz-adv-x="1208" 
d="M996 -29c-110 0 -173 80 -173 176c0 97 60 176 173 176c114 0 172 -79 172 -176c0 -96 -62 -176 -172 -176zM634 -29c-110 0 -173 80 -173 176c0 97 60 176 173 176c114 0 172 -79 172 -176c0 -96 -62 -176 -172 -176zM378 -38l-109 30l198 662l109 -30zM213 286
c-110 0 -173 80 -173 176c0 97 59 177 173 177s172 -80 172 -177c0 -95 -63 -176 -172 -176zM996 75c32 0 49 24 49 75s-14 69 -49 69c-36 0 -50 -19 -50 -69s17 -75 50 -75zM634 75c32 0 49 24 49 75s-14 69 -49 69c-36 0 -50 -19 -50 -69s17 -75 50 -75zM261 466h1
c0 50 -14 68 -49 68c-36 0 -50 -18 -50 -68c0 -51 17 -75 49 -75c33 0 49 25 49 75z" />
    <glyph glyph-name="Acircumflex" unicode="&#xc2;" horiz-adv-x="656" 
d="M514 761l-45 -79c-45 17 -106 40 -140 55c-33 -16 -93 -38 -139 -55l-44 79l184 98zM616 0h-118l-70 180h-197l-70 -180h-121l237 613h104zM390 281l-61 159l-60 -159h121z" />
    <glyph glyph-name="Ecircumflex" unicode="&#xca;" horiz-adv-x="521" 
d="M437 761l-45 -79c-45 17 -106 40 -140 55c-33 -16 -93 -38 -139 -55l-44 79l184 98zM476 0h-436v613h441l-26 -103h-293v-136h217v-106h-217v-165h314v-103z" />
    <glyph glyph-name="Aacute" unicode="&#xc1;" horiz-adv-x="656" 
d="M326 661l-63 66c37 37 112 110 189 174l80 -83c-77 -66 -164 -128 -206 -157zM616 0h-118l-70 180h-197l-70 -180h-121l237 613h104zM390 281l-61 159l-60 -159h121z" />
    <glyph glyph-name="Edieresis" unicode="&#xcb;" horiz-adv-x="521" 
d="M457 748c0 -35 -32 -69 -76 -69s-76 34 -76 69c0 36 32 71 76 71s76 -35 76 -71zM218 748h1c0 -34 -32 -69 -75 -69c-44 0 -76 34 -76 69c0 36 32 71 76 71s74 -35 74 -71zM476 0h-436v613h441l-26 -103h-293v-136h217v-106h-217v-165h314v-103z" />
    <glyph glyph-name="Egrave" unicode="&#xc8;" horiz-adv-x="521" 
d="M353 725l-66 -69c-42 30 -130 93 -209 159l83 86c78 -64 154 -139 192 -176zM476 0h-436v613h441l-26 -103h-293v-136h217v-106h-217v-165h314v-103z" />
    <glyph glyph-name="Iacute" unicode="&#xcd;" horiz-adv-x="352" 
d="M106 656l-63 65c37 37 112 109 189 172l80 -82c-77 -65 -164 -126 -206 -155zM177 0h-137v616h137v-616z" />
    <glyph glyph-name="Icircumflex" unicode="&#xce;" horiz-adv-x="448" 
d="M408 755l-45 -78c-45 17 -106 40 -140 54c-33 -15 -93 -37 -139 -54l-44 78l184 97zM296 0h-137v616h137v-616z" />
    <glyph glyph-name="Idieresis" unicode="&#xcf;" horiz-adv-x="469" 
d="M429 778c0 -36 -32 -69 -76 -69s-76 33 -76 69c0 35 32 70 76 70s76 -35 76 -70zM190 778h1c0 -35 -32 -69 -75 -69c-44 0 -76 33 -76 69c0 35 32 70 76 70s74 -35 74 -70zM301 0h-136v616h136v-616z" />
    <glyph glyph-name="Igrave" unicode="&#xcc;" horiz-adv-x="361" 
d="M315 719l-66 -68c-42 30 -130 92 -209 157l83 85c78 -63 154 -137 192 -174zM321 0h-137v616h137v-616z" />
    <glyph glyph-name="Oacute" unicode="&#xd3;" horiz-adv-x="639" 
d="M316 661l-63 66c37 37 112 110 189 174l80 -83c-77 -66 -164 -128 -206 -157zM321 -12c-238 0 -281 192 -281 316c0 127 39 316 279 316s280 -189 280 -316c0 -124 -40 -316 -278 -316zM319 91c138 0 154 116 152 212c-2 99 -11 214 -152 214c-142 0 -150 -115 -152 -213
c-2 -97 14 -213 152 -213z" />
    <glyph glyph-name="Ocircumflex" unicode="&#xd4;" horiz-adv-x="639" 
d="M502 754l-45 -79c-45 17 -106 40 -140 55c-33 -16 -93 -38 -139 -55l-44 79l184 98zM321 -12c-238 0 -281 192 -281 316c0 127 39 316 279 316s280 -189 280 -316c0 -124 -40 -316 -278 -316zM319 91c138 0 154 116 152 212c-2 99 -11 214 -152 214
c-142 0 -150 -115 -152 -213c-2 -97 14 -213 152 -213z" />
    <glyph glyph-name="apple" horiz-adv-x="944" 
d="M824 581l-104 -28l92 52zM887 502l-101 -3l99 27zM901 408l-110 15l113 8zM834 323l-91 44l99 -19zM640 0h-199c8 13 16 41 10 68c-8 33 -38 66 -118 65c-140 -2 -94 -101 -74 -122c-62 -10 -174 -13 -192 -13l-27 47l129 3c-95 89 29 156 32 157l-3 10
c-84 -9 -126 24 -127 58c-1 35 39 74 128 77c27 23 -9 40 -9 40c-14 4 -29 81 -32 94c13 5 84 33 128 31c13 -19 19 -46 21 -70c-10 -4 -16 -13 -16 -22s6 -17 15 -21c-2 -9 -5 -15 -9 -18c-9 -74 200 -56 131 19l-64 3c-1 0 -9 1 -9 3c-1 6 -5 36 -5 36c-2 7 4 8 4 8
l297 77c16 4 18 -2 18 -2c26 -36 34 -97 14 -138c-2 -4 -8 -3 -8 -3l-182 13c34 -67 2 -94 -37 -105c-42 -11 -89 -6 -99 6c13 -44 3 -90 2 -93c222 -17 176 -167 175 -171l97 4zM192 255l-1 41c-25 8 -41 -5 -42 -20s11 -29 43 -21z" />
    <glyph glyph-name="Ograve" unicode="&#xd2;" horiz-adv-x="639" 
d="M374 725l-66 -69c-42 30 -130 93 -209 159l83 86c78 -64 154 -139 192 -176zM321 -12c-238 0 -281 192 -281 316c0 127 39 316 279 316s280 -189 280 -316c0 -124 -40 -316 -278 -316zM319 91c138 0 154 116 152 212c-2 99 -11 214 -152 214c-142 0 -150 -115 -152 -213
c-2 -97 14 -213 152 -213z" />
    <glyph glyph-name="Uacute" unicode="&#xda;" horiz-adv-x="580" 
d="M285 661l-63 66c37 37 112 110 189 174l80 -83c-77 -66 -164 -128 -206 -157zM404 204v412h136v-429c0 -139 -104 -199 -246 -199c-132 0 -254 59 -254 197v431h137v-410c0 -76 31 -105 118 -105c81 0 109 31 109 103z" />
    <glyph glyph-name="Ucircumflex" unicode="&#xdb;" horiz-adv-x="580" 
d="M474 761l-45 -79c-45 17 -106 40 -140 55c-33 -16 -93 -38 -139 -55l-44 79l184 98zM404 204v412h136v-429c0 -139 -104 -199 -246 -199c-132 0 -254 58 -254 197v431h137v-410c0 -76 31 -105 118 -105c81 0 109 31 109 103z" />
    <glyph glyph-name="Ugrave" unicode="&#xd9;" horiz-adv-x="580" 
d="M355 725l-66 -69c-42 30 -130 93 -209 159l83 86c78 -64 154 -139 192 -176zM404 204v412h136v-429c0 -139 -104 -199 -246 -199c-132 0 -254 58 -254 197v431h137v-410c0 -76 31 -105 118 -105c81 0 109 31 109 103z" />
    <glyph glyph-name="dotlessi" unicode="&#x131;" horiz-adv-x="215" 
d="M102 0h-62v417l135 16v-355c0 -37 -30 -78 -73 -78z" />
    <glyph glyph-name="circumflex" unicode="&#x2c6;" horiz-adv-x="448" 
d="M408 746l-45 -79c-45 17 -106 40 -140 55c-33 -16 -93 -38 -139 -55l-44 79l184 98z" />
    <glyph glyph-name="tilde" unicode="&#x2dc;" horiz-adv-x="449" 
d="M351 664l58 -84c-36 -25 -87 -61 -133 -61c-47 0 -84 31 -84 31c-12 8 -25 15 -44 5c0 0 -50 -27 -58 -30l-50 87c34 21 90 58 130 58c39 0 68 -17 87 -31c12 -9 24 -15 39 -6c0 0 48 27 55 31z" />
    <glyph glyph-name="macron" unicode="&#xaf;" horiz-adv-x="404" 
d="M364 679l-324 -1v107h324v-106z" />
    <glyph glyph-name="breve" unicode="&#x2d8;" horiz-adv-x="448" 
d="M408 768l-185 -97l-183 97l44 78c46 -16 106 -39 140 -54c34 16 93 38 139 54z" />
    <glyph glyph-name="dotaccent" unicode="&#x2d9;" horiz-adv-x="232" 
d="M192 597c0 -36 -32 -71 -76 -71s-76 35 -76 71s32 70 76 70s76 -34 76 -70z" />
    <glyph glyph-name="ring" unicode="&#x2da;" horiz-adv-x="315" 
d="M275 582c0 -60 -52 -110 -117 -110c-66 0 -118 50 -118 110s52 110 118 110c65 0 117 -50 117 -110zM188 582c0 18 -14 30 -30 30c-17 0 -30 -12 -30 -30c0 -16 14 -29 30 -29c15 0 30 13 30 29z" />
    <glyph glyph-name="cedilla" unicode="&#xb8;" horiz-adv-x="251" 
d="M40 -227l12 85c58 0 64 13 65 17c0 6 -4 16 -40 26v82c100 -21 134 -62 134 -108c1 -56 -53 -109 -171 -102z" />
    <glyph glyph-name="hungarumlaut" unicode="&#x2dd;" horiz-adv-x="347" 
d="M294 -87h-95c-3 45 -12 120 -12 212h120c0 -93 -8 -167 -13 -212zM147 -87h-94c-5 45 -13 119 -13 212h119h1c0 -93 -8 -167 -13 -212z" />
    <glyph glyph-name="ogonek" unicode="&#x2db;" horiz-adv-x="252" 
d="M201 -141l11 -86c-118 -7 -172 46 -172 102c0 46 35 87 135 108v-82c-36 -10 -40 -20 -40 -26c1 -4 8 -16 66 -16z" />
    <glyph glyph-name="caron" unicode="&#x2c7;" horiz-adv-x="448" 
d="M408 587l-184 -99l-184 99l45 78c45 -16 106 -39 140 -55c33 16 92 38 139 55z" />
    <glyph glyph-name="Eth" unicode="&#xd0;" horiz-adv-x="687" 
d="M333 0h-212v254h-81v110h81v258h216c219 0 310 -140 310 -305c0 -166 -93 -317 -314 -317zM418 254h-160v-142h75c109 0 170 88 170 203c0 118 -50 196 -184 196h-61v-147h160v-110z" />
    <glyph glyph-name="uni00A0" unicode="&#xa0;" horiz-adv-x="250" 
 />
    <glyph glyph-name="twosuperior" unicode="&#xb2;" 
 />
    <glyph glyph-name="threesuperior" unicode="&#xb3;" 
 />
    <glyph glyph-name="threequarters" unicode="&#xbe;" 
 />
    <glyph glyph-name="onesuperior" unicode="&#xb9;" 
 />
    <glyph glyph-name="onequarter" unicode="&#xbc;" 
 />
    <glyph glyph-name="onehalf" unicode="&#xbd;" 
 />
    <glyph glyph-name="thorn" unicode="&#xfe;" 
 />
    <glyph glyph-name="Thorn" unicode="&#xde;" 
 />
    <glyph glyph-name="eth" unicode="&#xf0;" 
 />
    <glyph glyph-name="partialdiff" unicode="&#x2202;" 
 />
    <glyph glyph-name="lozenge" unicode="&#x25ca;" 
 />
    <glyph glyph-name="Euro" unicode="&#x20ac;" horiz-adv-x="618" 
d="M505 126l51 -86c-28 -18 -85 -52 -187 -52c-167 0 -243 86 -273 185h-49v87h34c-1 15 -1 30 -1 45c0 6 0 12 1 19h-34v87h47c28 110 104 210 286 210c103 0 159 -36 186 -54l-54 -85c-26 13 -70 35 -133 35c-91 0 -134 -48 -155 -106h247l-41 -87h-222
c0 -7 -1 -14 -1 -21c0 -14 0 -29 1 -43h196l-40 -87h-135c22 -47 64 -81 141 -81c63 0 108 21 135 34z" />
    <glyph glyph-name="fi" unicode="&#xfb01;" 
 />
    <glyph glyph-name="fl" unicode="&#xfb02;" 
 />
    </font>
</defs>
</svg>
