<?xml version="1.0" standalone="no"?>
<!DOCTYPE svg PUBLIC "-//W3C//DTD SVG 1.1//EN" "http://www.w3.org/Graphics/SVG/1.1/DTD/svg11.dtd" >
<svg xmlns="http://www.w3.org/2000/svg" xmlns:xlink="http://www.w3.org/1999/xlink" version="1.1">
<metadata>
Created by FontForge 20160407 at Fri Oct  7 09:55:11 2016
 By Jimmy Wärting
Based on: Domestos Sans. Designer: Gunter Schwarzmaier. 2000 [T-26] Chicago www.t26.com 773.862.1201
</metadata>
<defs>
<font id="DurhamSans-Bold" horiz-adv-x="500" >
  <font-face 
    font-family="Durham Sans"
    font-weight="475"
    font-stretch="normal"
    units-per-em="1000"
    panose-1="2 0 8 6 2 0 0 2 0 4"
    ascent="800"
    descent="-200"
    x-height="423"
    cap-height="613"
    bbox="-20 -253.657 1105 886"
    underline-thickness="20"
    underline-position="-133"
    stemh="1000"
    stemv="1000"
    unicode-range="U+0020-FB02"
  />
<missing-glyph horiz-adv-x="1000" 
 />
    <glyph glyph-name=".notdef" horiz-adv-x="1000" 
 />
    <glyph glyph-name="Lslash" unicode="&#x141;" horiz-adv-x="690" 
d="M640 0h-437v221l-101 -63l-52 68l153 96v301h107v-233l113 70l53 -68l-166 -104v-197h330v-91z" />
    <glyph glyph-name="lslash" unicode="&#x142;" horiz-adv-x="526" 
d="M327 16l-90 -30c-6 8 -31 45 -32 117l-1 119l-102 -64l-52 68l155 97v251c0 15 -2 58 -2 58l103 -12s3 -33 3 -46v-185l114 71l53 -68l-167 -104v-179c0 -55 18 -93 18 -93z" />
    <glyph glyph-name="Scaron" unicode="&#x160;" horiz-adv-x="517" 
d="M433 777l-167 -90l-167 90l34 59c37 -13 102 -37 134 -53c31 16 95 40 133 53zM285 253l-131 62c-167 79 -128 316 105 316c91 0 159 -43 178 -55l-37 -68c-23 10 -84 36 -142 36c-105 -1 -123 -104 -45 -141l120 -57c223 -106 147 -358 -75 -358c-122 0 -198 50 -208 56
l40 71c11 -6 88 -46 161 -42c96 6 154 123 34 180z" />
    <glyph glyph-name="scaron" unicode="&#x161;" horiz-adv-x="451" 
d="M388 563l-167 -91l-167 91l34 58c37 -13 102 -37 134 -53c31 16 95 40 133 53zM50 39l44 62c11 -4 69 -31 124 -31c63 0 115 47 51 85c-32 19 -76 29 -111 44c-54 23 -97 53 -98 112c-2 81 85 124 171 120c79 -3 148 -47 148 -47l-41 -59c-11 4 -64 27 -110 27
c-39 0 -66 -16 -66 -34c0 -32 51 -45 78 -54c71 -24 158 -58 161 -138c4 -81 -79 -136 -181 -137c-85 -1 -170 50 -170 50z" />
    <glyph glyph-name="Yacute" unicode="&#xdd;" horiz-adv-x="606" 
d="M273 677l-48 50c29 29 104 102 171 157l63 -65c-67 -57 -154 -120 -186 -142zM356 0h-107v267l-199 356h117l136 -247l136 247h117l-199 -356z" />
    <glyph glyph-name="yacute" unicode="&#xfd;" horiz-adv-x="526" 
d="M256 466l-48 50c29 29 104 102 171 157l63 -65c-67 -57 -154 -120 -186 -142zM106 -188l-11 76c94 16 104 73 130 141c-25 -2 -59 6 -75 58l-100 321l97 24l91 -291c7 -21 12 -31 16 -37l128 328l94 -26l-181 -466c-29 -74 -89 -120 -189 -128z" />
    <glyph glyph-name="Zcaron" unicode="&#x17d;" horiz-adv-x="569" 
d="M452 771l-167 -90l-167 90l34 59c37 -13 102 -38 134 -53c31 15 95 40 133 53zM519 0h-469v81l326 454h-308v88h430v-80l-326 -454h347v-89z" />
    <glyph glyph-name="zcaron" unicode="&#x17e;" horiz-adv-x="477" 
d="M422 564l-167 -91l-167 91l34 58c37 -13 102 -37 134 -53c31 16 95 40 133 53zM424 0h-374v72l246 270h-229v82h360v-73l-248 -272h245v-79z" />
    <glyph glyph-name="brokenbar" unicode="&#xa6;" horiz-adv-x="195" 
d="M145 297h-95v362h95v-362zM145 -169h-95v363h95v-363z" />
    <glyph glyph-name="minus" unicode="&#x2212;" horiz-adv-x="524" 
d="M474 153h-424v88h424v-88z" />
    <glyph glyph-name="multiply" unicode="&#xd7;" horiz-adv-x="463" 
d="M413 236l-66 -66l-115 115l-116 -115l-66 66l116 115l-116 116l66 66l116 -116l115 116l66 -66l-116 -116z" />
    <glyph glyph-name="space" unicode=" " horiz-adv-x="250" 
 />
    <glyph glyph-name="exclam" unicode="!" horiz-adv-x="231" 
d="M160 150h-88l-16 468s55 13 121 13zM181 46c0 -32 -29 -58 -65 -58c-37 0 -66 26 -66 58c0 33 29 59 66 59c36 0 65 -26 65 -59z" />
    <glyph glyph-name="quotedbl" unicode="&#x22;" horiz-adv-x="301" 
d="M250 522h-71s-13 99 -12 188h94c1 -89 -11 -188 -11 -188zM123 522h-72s-12 99 -11 188h94c1 -89 -11 -188 -11 -188z" />
    <glyph glyph-name="numbersign" unicode="#" horiz-adv-x="614" 
d="M399 -3h-99l29 171h-88l-30 -171h-98l29 171h-92v83h107l15 93h-93v83h107l29 170h99l-30 -170h89l29 170h99l-29 -170h92v-83h-106l-16 -93h93v-83h-107zM344 251l16 93h-89l-16 -93h89z" />
    <glyph glyph-name="dollar" unicode="$" horiz-adv-x="517" 
d="M306 -90h-87v77c-98 9 -159 49 -169 55l40 72s65 -36 129 -41v212l-65 30c-158 73 -133 289 65 316v78h87v-80c67 -11 114 -40 131 -51l-37 -69c-18 8 -54 23 -94 31v-180l27 -13c205 -99 157 -323 -27 -357v-80zM219 401v138c-83 -27 -61 -110 0 -138zM306 241v-152
c53 34 71 105 0 152z" />
    <glyph glyph-name="percent" unicode="%" horiz-adv-x="810" 
d="M601 -16c-102 0 -160 73 -160 163c0 91 55 163 160 163c106 0 159 -72 159 -163c0 -90 -57 -163 -159 -163zM357 -23l-85 24l190 638l85 -24zM210 299c-102 0 -160 73 -160 163c0 91 54 164 160 164s159 -73 159 -164c0 -89 -58 -163 -159 -163zM601 63c43 0 61 35 61 87
c0 54 -15 81 -61 81s-62 -28 -62 -81c0 -52 18 -87 62 -87zM209 379c44 0 62 35 62 87c0 53 -16 80 -61 80c-46 0 -62 -27 -62 -80c0 -52 18 -87 61 -87z" />
    <glyph glyph-name="ampersand" unicode="&#x26;" horiz-adv-x="681" 
d="M628 38l-71 -57l-71 71c-60 -39 -136 -65 -212 -65c-145 0 -218 52 -224 133c-4 59 37 131 144 224c-16 17 -55 57 -80 87c-81 99 28 200 149 200c120 0 230 -101 149 -200c-25 -31 -68 -72 -86 -89l163 -165c44 55 49 134 49 134h93c1 -12 6 -105 -76 -198zM262 406
c13 14 39 40 62 67c28 33 -2 74 -62 74c-59 0 -88 -41 -60 -74c23 -27 47 -53 60 -67zM422 117l-163 163c-63 -59 -109 -120 -105 -154c4 -27 28 -50 124 -50c50 0 101 14 144 41z" />
    <glyph glyph-name="quotesingle" unicode="'" horiz-adv-x="174" 
d="M123 522h-72s-12 99 -11 188h94c1 -89 -11 -188 -11 -188z" />
    <glyph glyph-name="parenleft" unicode="(" horiz-adv-x="356" 
d="M306 -65l-27 -60c-203 65 -229 223 -229 424c0 199 26 359 229 424l27 -59c-119 -58 -146 -139 -152 -252c-2 -36 -2 -73 -2 -113c0 -70 -3 -145 17 -213c18 -61 54 -111 137 -151z" />
    <glyph glyph-name="parenright" unicode=")" horiz-adv-x="356" 
d="M77 -125l-27 60c83 40 120 90 137 151c20 68 17 143 17 213c0 40 0 77 -2 113c-7 113 -33 194 -152 252l27 59c202 -65 229 -225 229 -424c0 -201 -27 -359 -229 -424z" />
    <glyph glyph-name="asterisk" unicode="*" horiz-adv-x="507" 
d="M409 386l-71 -55l-84 114l-82 -114l-73 55l82 109l-131 44l26 84l133 -44v137h89v-137l132 44l27 -84l-130 -43z" />
    <glyph glyph-name="plus" unicode="+" horiz-adv-x="519" 
d="M469 305h-163v-163h-93v163h-163v93h163v163h93v-163h163v-93z" />
    <glyph glyph-name="comma" unicode="," horiz-adv-x="238" 
d="M73 -127l-33 44c37 20 54 37 65 69h-3c-36 0 -59 29 -59 58c0 38 35 65 73 65c54 0 82 -41 82 -85c0 -70 -56 -112 -125 -151z" />
    <glyph glyph-name="hyphen" unicode="-" horiz-adv-x="442" 
d="M392 198h-342v88h342v-88z" />
    <glyph glyph-name="period" unicode="." horiz-adv-x="206" 
d="M166 37c0 -30 -26 -58 -63 -58s-63 28 -63 58s26 58 63 58s63 -28 63 -58z" />
    <glyph glyph-name="slash" unicode="/" horiz-adv-x="426" 
d="M141 -112l-91 26l235 762l91 -25z" />
    <glyph glyph-name="zero" unicode="0" horiz-adv-x="562" 
d="M282 -11c-214 0 -232 156 -232 312c0 155 17 327 232 327c216 0 230 -160 230 -316c0 -154 -14 -323 -230 -323zM282 86c99 0 125 48 130 134c2 28 1 57 1 86s0 58 -2 86c-6 87 -33 138 -129 138c-130 0 -133 -92 -133 -220c0 -49 -2 -115 16 -161c15 -36 45 -63 117 -63
z" />
    <glyph glyph-name="one" unicode="1" horiz-adv-x="465" 
d="M415 0h-321v96h110v389c-35 -19 -71 -25 -132 -33l-22 77c83 28 120 47 169 99h86v-532h110v-96z" />
    <glyph glyph-name="two" unicode="2" horiz-adv-x="474" 
d="M422 0h-372v82c69 69 275 270 275 367c0 56 -28 82 -81 82c-70 0 -90 -38 -90 -91h-101c0 100 60 188 190 188c102 0 181 -71 181 -178c0 -66 -46 -142 -98 -209c-40 -51 -83 -98 -128 -145h224v-96z" />
    <glyph glyph-name="three" unicode="3" horiz-adv-x="528" 
d="M204 288l15 96c75 0 119 26 119 72s-30 79 -84 79c-71 0 -91 -39 -92 -92h-99c1 99 62 185 190 185c102 0 181 -68 181 -169c0 -60 -26 -95 -49 -114c59 -36 91 -96 93 -156c3 -68 -32 -200 -223 -200c-130 0 -204 84 -205 184h99c1 -51 27 -91 100 -91
c101 0 132 57 129 103c-6 70 -63 103 -174 103z" />
    <glyph glyph-name="four" unicode="4" horiz-adv-x="568" 
d="M427 0h-95v130h-282v75l274 407h102v-391h92v-91h-91v-130zM332 221v239l-160 -239h160z" />
    <glyph glyph-name="five" unicode="5" horiz-adv-x="531" 
d="M50 111l80 58c35 -58 72 -85 117 -85c91 0 134 65 134 120c0 99 -112 134 -263 98v310h336l-26 -98h-213v-96c182 5 266 -105 266 -213c0 -83 -55 -216 -229 -217c-88 -1 -152 44 -202 123z" />
    <glyph glyph-name="six" unicode="6" horiz-adv-x="542" 
d="M429 622l-13 -90c-118 3 -194 -34 -242 -149c121 62 314 22 318 -177c3 -109 -85 -217 -210 -217c-177 0 -247 174 -229 329c18 158 136 309 322 310c6 0 18 -1 54 -6zM153 242c2 -81 49 -158 122 -158c80 0 119 57 119 122c0 115 -168 157 -241 36z" />
    <glyph glyph-name="seven" unicode="7" horiz-adv-x="501" 
d="M235 0h-102c44 208 105 360 197 516h-280v96h401v-80c-102 -157 -183 -336 -216 -532z" />
    <glyph glyph-name="eight" unicode="8" horiz-adv-x="547" 
d="M362 333c75 -49 123 -99 133 -160c16 -99 -79 -184 -222 -184c-145 0 -233 87 -222 184c7 63 53 114 133 161c-65 53 -97 107 -91 160c7 69 75 134 180 134c114 0 185 -70 183 -149c-2 -49 -33 -97 -94 -146zM273 388c68 45 82 76 82 88c0 30 -28 56 -83 56
c-54 0 -81 -34 -81 -50c0 -12 14 -48 82 -94zM273 275c-61 -32 -115 -79 -120 -105c-7 -38 22 -86 118 -86c92 0 128 43 122 82c-4 27 -62 76 -120 109z" />
    <glyph glyph-name="nine" unicode="9" horiz-adv-x="542" 
d="M113 -6l13 91c118 -3 195 34 242 148c-120 -61 -314 -21 -318 178c-2 108 77 217 210 217c178 0 248 -174 230 -329c-18 -159 -136 -309 -323 -310c-6 0 -17 1 -54 5zM389 375c-1 80 -49 157 -122 157c-84 0 -119 -56 -119 -122c0 -115 168 -156 241 -35z" />
    <glyph glyph-name="colon" unicode=":" horiz-adv-x="226" 
d="M176 332c0 -32 -28 -59 -63 -59s-63 27 -63 59s28 58 63 58s63 -26 63 -58zM176 66c0 -32 -28 -58 -63 -58s-63 26 -63 58s28 59 63 59s63 -27 63 -59z" />
    <glyph glyph-name="semicolon" unicode=";" horiz-adv-x="259" 
d="M190 324c0 -32 -28 -58 -63 -58s-63 26 -63 58c0 31 28 58 63 58s63 -27 63 -58zM84 -113l-34 45c37 20 54 36 67 68h-4c-35 0 -59 29 -59 59c0 37 36 64 74 64c53 0 81 -40 81 -85c0 -71 -57 -112 -125 -151z" />
    <glyph glyph-name="less" unicode="&#x3c;" horiz-adv-x="352" 
d="M302 132l-72 -53l-180 198l180 198l72 -55l-124 -142z" />
    <glyph glyph-name="equal" unicode="=" horiz-adv-x="524" 
d="M474 306h-424v87h424v-87zM474 155h-424v87h424v-87z" />
    <glyph glyph-name="greater" unicode="&#x3e;" horiz-adv-x="352" 
d="M122 79l-71 53l123 146l-124 142l72 55l180 -198z" />
    <glyph glyph-name="question" unicode="?" horiz-adv-x="436" 
d="M251 193l-85 -53c-12 46 -16 68 -16 92c0 79 44 117 82 146c29 23 63 44 63 86c0 49 -26 73 -72 73c-60 0 -77 -31 -78 -81h-95c1 93 56 171 172 171c93 0 164 -64 164 -160c0 -75 -39 -110 -76 -139c-35 -28 -68 -51 -68 -102c0 -9 2 -17 9 -33zM274 47
c0 -33 -29 -59 -63 -59c-35 0 -63 26 -63 59c0 34 28 58 63 58c34 0 63 -24 63 -58z" />
    <glyph glyph-name="at" unicode="@" horiz-adv-x="811" 
d="M500 106l22 -86c-48 -14 -82 -19 -117 -19c-196 0 -355 159 -355 355c0 197 159 356 355 356c197 0 356 -159 356 -356c0 -149 -75 -240 -167 -240c-65 0 -105 38 -125 100c-29 -25 -61 -40 -107 -40c-58 0 -120 39 -121 112c-1 113 117 128 205 128v5
c0 30 -15 36 -49 36c-35 0 -72 -16 -101 -30l-34 61c31 21 79 49 142 49c69 0 130 -27 130 -118v-133c0 -56 22 -93 56 -93c48 0 80 53 80 162c0 147 -119 266 -265 266s-266 -119 -266 -266s120 -266 266 -266c27 0 53 4 95 17zM447 337v9c-24 0 -49 0 -73 -6
c-25 -6 -45 -19 -46 -46c-1 -30 15 -45 42 -45c59 0 77 42 77 88z" />
    <glyph glyph-name="A" unicode="A" horiz-adv-x="645" 
d="M605 0h-100l-72 186h-218l-72 -186h-103l236 613h94zM401 270l-77 202l-77 -202h154z" />
    <glyph glyph-name="B" unicode="B" horiz-adv-x="545" 
d="M304 0h-264v613h230c106 0 199 -48 199 -156c0 -51 -17 -99 -63 -130c69 -27 99 -95 99 -148c0 -108 -85 -179 -201 -179zM146 365h122c59 0 101 34 101 89c0 63 -47 73 -103 73h-120v-162zM146 87h162c57 0 93 37 93 91c0 77 -70 102 -136 102h-119v-193z" />
    <glyph glyph-name="C" unicode="C" horiz-adv-x="578" 
d="M475 107l43 -73c-20 -12 -77 -46 -180 -46c-240 0 -291 175 -288 316c3 143 60 318 300 318c103 0 159 -37 178 -50l-45 -72c-20 10 -67 34 -134 34c-158 0 -186 -133 -188 -231s21 -228 179 -228c67 0 115 23 135 32z" />
    <glyph glyph-name="D" unicode="D" horiz-adv-x="569" 
d="M244 0h-194v613h198c205 0 291 -135 291 -301s-89 -312 -295 -312zM155 87h89c120 0 182 103 182 223c0 126 -52 217 -196 217h-75v-440z" />
    <glyph glyph-name="E" unicode="E" horiz-adv-x="512" 
d="M480 0h-430v613h432l-21 -86h-306v-161h225v-89h-225v-190h325v-87z" />
    <glyph glyph-name="F" unicode="F" horiz-adv-x="512" 
d="M156 0h-106v613h432l-21 -86h-306v-161h225v-89h-225c0 -99 1 -277 1 -277z" />
    <glyph glyph-name="G" unicode="G" horiz-adv-x="614" 
d="M462 106v110h-119l-13 86h234v-241c-4 -4 -78 -73 -223 -73c-241 0 -294 174 -291 316s63 317 303 317c111 0 186 -53 195 -60l-46 -69s-77 42 -150 42c-158 0 -186 -132 -188 -231c-2 -98 22 -229 179 -229c65 0 106 24 119 32z" />
    <glyph glyph-name="H" unicode="H" horiz-adv-x="591" 
d="M541 0h-106v280h-279v-280h-106v613h106v-248h279v248h106v-613z" />
    <glyph glyph-name="I" unicode="I" horiz-adv-x="206" 
d="M156 0h-106v613h106v-613z" />
    <glyph glyph-name="J" unicode="J" horiz-adv-x="337" 
d="M71 -93l-21 78c30 7 56 10 82 27c25 17 50 44 50 96v505h105v-486c0 -98 -45 -153 -94 -182c-42 -25 -76 -29 -122 -38z" />
    <glyph glyph-name="K" unicode="K" horiz-adv-x="548" 
d="M498 0h-127l-174 209l-50 -73v-136h-97v612h97v-301l191 295h120l-204 -311z" />
    <glyph glyph-name="L" unicode="L" horiz-adv-x="511" 
d="M481 0h-431v614h106v-527h325v-87z" />
    <glyph glyph-name="M" unicode="M" horiz-adv-x="660" 
d="M610 2h-99v456l-133 -292h-95l-133 292v-456h-100v610h134l147 -324l145 324h134v-610z" />
    <glyph glyph-name="N" unicode="N" horiz-adv-x="561" 
d="M511 0h-104l-251 434v-434h-106v613h117l239 -412v412h105v-613z" />
    <glyph glyph-name="O" unicode="O" horiz-adv-x="637" 
d="M320 -12c-237 0 -280 189 -280 316c0 130 39 317 278 317c238 0 279 -187 279 -317c0 -127 -41 -316 -277 -316zM318 74c152 0 169 131 167 229c-2 101 -11 231 -167 231c-157 0 -165 -130 -167 -230c-2 -99 14 -230 167 -230z" />
    <glyph glyph-name="P" unicode="P" horiz-adv-x="536" 
d="M156 0h-106v614h239c107 0 197 -81 197 -191c0 -114 -101 -200 -214 -200h-116v-223zM156 309h111c63 0 114 52 114 113c0 53 -39 105 -98 105h-127v-218z" />
    <glyph glyph-name="Q" unicode="Q" horiz-adv-x="672" 
d="M622 -17v-97c-92 -11 -132 16 -162 45c-42 39 -70 54 -131 54c-237 0 -279 191 -279 317c0 131 39 319 278 319c238 0 279 -188 279 -319c0 -96 -26 -227 -137 -286c13 -9 27 -16 42 -23c21 -9 51 -16 110 -10zM328 72c152 0 169 131 167 230c-2 100 -11 231 -167 231
c-157 0 -165 -130 -167 -231c-2 -99 13 -230 167 -230z" />
    <glyph glyph-name="R" unicode="R" horiz-adv-x="565" 
d="M515 0h-105l-65 184c-12 32 -37 39 -79 39h-110v-223h-106v614h239c107 0 197 -81 197 -191c0 -71 -44 -152 -106 -175c31 -3 53 -13 62 -39zM156 309h111c63 0 114 52 114 113c0 53 -39 105 -98 105h-127v-218z" />
    <glyph glyph-name="S" unicode="S" horiz-adv-x="491" 
d="M281 249l-129 61c-164 78 -126 312 104 312c90 0 156 -43 175 -55l-36 -67c-23 10 -83 36 -140 36c-104 -1 -121 -103 -44 -139l118 -56c219 -105 145 -353 -74 -353c-120 0 -195 49 -205 55l39 70c11 -6 87 -45 159 -41c95 6 152 121 33 177z" />
    <glyph glyph-name="T" unicode="T" horiz-adv-x="578" 
d="M344 0h-107v527h-186l-1 87h478v-87h-184v-527z" />
    <glyph glyph-name="U" unicode="U" horiz-adv-x="568" 
d="M412 198v415h106v-432c0 -135 -95 -193 -230 -193c-128 0 -238 58 -238 190v435h106v-412c0 -88 39 -123 133 -123c89 0 123 39 123 120z" />
    <glyph glyph-name="V" unicode="V" horiz-adv-x="630" 
d="M372 0h-114l-208 613h104l160 -466l162 466h104z" />
    <glyph glyph-name="W" unicode="W" horiz-adv-x="701" 
d="M583 2h-131l-102 283l-101 -283h-131l-78 610h98l61 -478l109 290h85l108 -290l61 478h99z" />
    <glyph glyph-name="X" unicode="X" horiz-adv-x="650" 
d="M600 0h-120l-155 235l-160 -235h-115l216 320l-196 294h119l136 -206l138 206h114l-194 -294z" />
    <glyph glyph-name="Y" unicode="Y" horiz-adv-x="598" 
d="M351 0h-105v263l-196 351h115l134 -244l134 244h115l-196 -351z" />
    <glyph glyph-name="Z" unicode="Z" horiz-adv-x="562" 
d="M512 0h-462v80l321 447h-303v87h423v-79l-321 -447h342v-88z" />
    <glyph glyph-name="bracketleft" unicode="[" horiz-adv-x="290" 
d="M240 -144h-190v821h190v-79h-89v-663h89v-79z" />
    <glyph glyph-name="backslash" unicode="\" horiz-adv-x="426" 
d="M376 -86l-91 -26l-235 763l91 25z" />
    <glyph glyph-name="bracketright" unicode="]" horiz-adv-x="290" 
d="M240 -144h-190v79h89v663h-89v79h190v-821z" />
    <glyph glyph-name="asciicircum" unicode="^" horiz-adv-x="585" 
d="M535 339l-81 -45l-161 251l-162 -251l-81 45l194 301h98z" />
    <glyph glyph-name="underscore" unicode="_" horiz-adv-x="619" 
d="M569 -133h-519v88h519v-88z" />
    <glyph glyph-name="grave" unicode="`" horiz-adv-x="340" 
d="M290 541l-51 -53c-32 23 -120 87 -189 144l66 68c68 -56 144 -130 174 -159z" />
    <glyph glyph-name="a" unicode="a" horiz-adv-x="482" 
d="M442 0h-46c-25 0 -44 17 -53 39c-22 -22 -64 -51 -139 -51c-80 0 -163 47 -164 135c-2 145 184 156 297 153v16c0 47 -33 55 -82 55c-70 0 -142 -35 -142 -35l-39 63c10 5 85 56 190 56c96 0 177 -33 177 -142zM337 184v22c-61 0 -190 3 -193 -76c-1 -43 26 -66 71 -66
c94 0 122 61 122 120z" />
    <glyph glyph-name="b" unicode="b" horiz-adv-x="505" 
d="M465 248v-57c0 -140 -63 -203 -198 -203c-61 0 -97 29 -117 51c-9 -22 -29 -39 -52 -39h-46v574c0 16 -1 30 -2 58c41 -4 67 -7 104 -12c1 -21 2 -33 2 -46v-191c29 22 81 55 140 55c106 0 169 -72 169 -190zM360 199v51c0 69 -21 104 -87 103c-44 0 -86 -24 -117 -54
v-170c7 -11 41 -64 109 -64c83 0 95 62 95 134z" />
    <glyph glyph-name="c" unicode="c" horiz-adv-x="446" 
d="M360 104l56 -52s-67 -62 -151 -62c-144 0 -225 96 -225 220c0 125 81 221 225 221c84 0 151 -62 151 -62l-56 -52s-43 35 -97 35c-85 0 -115 -71 -115 -141c0 -71 30 -142 115 -142c54 0 97 35 97 35z" />
    <glyph glyph-name="d" unicode="d" horiz-adv-x="485" 
d="M443 0h-46c-23 0 -43 17 -52 39c-20 -22 -56 -51 -117 -51c-135 0 -198 63 -198 203v57c0 118 63 190 169 190c58 0 111 -33 140 -55v191c0 13 1 25 2 46c37 5 63 8 104 12c-1 -28 -2 -43 -2 -58v-574zM339 129v170c-31 30 -73 54 -117 54c-67 1 -87 -34 -87 -103v-51
c0 -72 12 -134 95 -134c68 0 102 53 109 64z" />
    <glyph glyph-name="e" unicode="e" horiz-adv-x="486" 
d="M397 102l36 -68c-10 -5 -79 -44 -171 -44c-149 0 -232 87 -232 223c0 114 75 218 225 218c123 0 201 -80 201 -189c0 -16 -1 -32 -3 -59h-314c4 -64 39 -114 121 -114c69 0 137 33 137 33zM143 259h211c-4 54 -37 93 -103 93c-61 0 -103 -43 -108 -93z" />
    <glyph glyph-name="f" unicode="f" horiz-adv-x="329" 
d="M113 0h-46v361h-27v76h26v63c0 83 61 131 147 131c27 0 61 -8 96 -22l-26 -70c-28 8 -46 12 -62 12c-34 0 -50 -20 -50 -53v-61h101l-22 -76h-79v-290c0 -37 -25 -71 -58 -71z" />
    <glyph glyph-name="g" unicode="g" horiz-adv-x="498" 
d="M344 -11v63c-24 -20 -66 -45 -129 -45c-109 0 -180 87 -180 184v60c0 99 64 179 182 179c55 0 101 -27 126 -47v41h105v-429c0 -38 -11 -186 -222 -186c-81 0 -165 58 -165 58l44 62c11 -6 72 -39 122 -39c99 0 117 68 117 99zM344 148v151c-11 11 -53 46 -116 46
c-75 0 -89 -54 -89 -122v-29c0 -61 29 -108 90 -108c63 0 105 50 115 62z" />
    <glyph glyph-name="h" unicode="h" horiz-adv-x="473" 
d="M433 0h-47c-30 0 -58 34 -58 71v197c0 56 -26 82 -83 82c-45 0 -87 -40 -98 -51v-299h-105v569c0 17 -1 34 -2 63l103 -12c2 -24 4 -39 4 -54v-181c27 20 74 51 126 51c103 0 160 -80 160 -167v-269z" />
    <glyph glyph-name="i" unicode="i" horiz-adv-x="230" 
d="M180 587c0 -32 -29 -59 -65 -59s-65 27 -65 59s29 58 65 58s65 -26 65 -58zM109 0h-47v425l105 14v-368c0 -37 -27 -71 -58 -71z" />
    <glyph glyph-name="j" unicode="j" horiz-adv-x="235" 
d="M195 588c0 -33 -29 -59 -65 -59s-65 26 -65 59c0 32 29 59 65 59s65 -27 65 -59zM23 -193l-43 80c12 4 94 41 94 120v414l107 16v-411c0 -166 -147 -215 -158 -219z" />
    <glyph glyph-name="k" unicode="k" horiz-adv-x="461" 
d="M441 0h-120l-144 189l-25 -26v-93c0 -41 -25 -70 -54 -70h-45v573c0 10 0 19 -3 59l99 -10c2 -32 3 -40 3 -49v-278l132 135h131l-171 -173z" />
    <glyph glyph-name="l" unicode="l" horiz-adv-x="224" 
d="M174 16l-89 -30c-7 8 -33 45 -33 117v471c0 15 -2 58 -2 58l103 -12s3 -33 3 -46v-465c0 -55 18 -93 18 -93z" />
    <glyph glyph-name="m" unicode="m" horiz-adv-x="716" 
d="M676 0h-45c-31 0 -57 34 -57 70v230c0 29 -24 48 -57 48c-63 0 -99 -47 -106 -58v-290h-104v284c0 40 -14 64 -61 64c-48 0 -91 -47 -101 -59v-289h-105v424h105v-49c26 23 73 56 124 56c76 0 110 -44 123 -71c24 25 76 71 141 71c94 0 143 -63 143 -141v-290z" />
    <glyph glyph-name="n" unicode="n" horiz-adv-x="484" 
d="M444 0h-47c-32 0 -58 34 -58 70v191c0 51 -20 89 -73 89c-70 0 -112 -49 -121 -60v-290h-105v424h105v-48c27 22 77 55 146 55c149 0 153 -132 153 -138v-293z" />
    <glyph glyph-name="o" unicode="o" horiz-adv-x="509" 
d="M479 208c0 -123 -81 -221 -224 -221s-225 98 -225 221c0 126 77 223 226 223c148 0 223 -97 223 -223zM255 64c88 0 117 71 117 149c0 83 -27 140 -117 140s-117 -57 -117 -140c0 -78 29 -149 117 -149z" />
    <glyph glyph-name="p" unicode="p" horiz-adv-x="482" 
d="M85 -178h-45v602h104v-43c28 21 79 51 136 51c118 0 172 -74 172 -172v-94c0 -96 -71 -185 -180 -185c-64 0 -105 26 -128 48v-138c0 -36 -23 -69 -59 -69zM348 170v53c0 71 -5 124 -79 124c-65 0 -113 -37 -125 -48v-181c9 -12 51 -59 114 -59c61 0 90 50 90 111z" />
    <glyph glyph-name="q" unicode="q" horiz-adv-x="512" 
d="M462 -178h-46c-36 0 -58 33 -58 69v138c-23 -22 -64 -48 -129 -48c-109 0 -179 89 -179 185v94c0 98 53 172 171 172c57 0 109 -30 137 -51v43h104v-602zM358 118v181c-13 11 -60 48 -125 48c-74 0 -79 -53 -79 -124v-53c0 -61 28 -111 89 -111c63 0 105 47 115 59z" />
    <glyph glyph-name="r" unicode="r" horiz-adv-x="348" 
d="M87 0h-47v424h105v-39c20 20 52 44 97 45c54 2 86 -27 86 -27l-43 -72s-30 18 -55 18c-80 0 -85 -97 -85 -101v-179c0 -35 -21 -69 -58 -69z" />
    <glyph glyph-name="s" unicode="s" horiz-adv-x="411" 
d="M30 39l44 62c11 -4 69 -31 124 -31c63 0 115 47 51 85c-32 19 -76 29 -111 44c-54 23 -97 53 -98 112c-2 81 85 124 171 120c79 -3 148 -47 148 -47l-41 -59c-11 4 -64 27 -110 27c-39 0 -66 -16 -66 -34c0 -32 51 -45 78 -54c71 -24 158 -58 161 -138
c4 -81 -79 -136 -181 -137c-85 -1 -170 50 -170 50z" />
    <glyph glyph-name="t" unicode="t" horiz-adv-x="310" 
d="M260 77l16 -75c-37 -10 -70 -17 -98 -17c-51 0 -108 33 -108 88v282h-30v76h29v188l105 13v-201h106l-22 -76h-84v-251c0 -47 40 -38 86 -27z" />
    <glyph glyph-name="u" unicode="u" horiz-adv-x="497" 
d="M447 -1h-47c-21 0 -42 18 -52 41c-21 -21 -62 -52 -129 -52c-74 0 -169 32 -169 119v312l105 13v-303c0 -43 35 -64 80 -64c48 0 107 59 107 92v262l105 13v-433z" />
    <glyph glyph-name="v" unicode="v" horiz-adv-x="477" 
d="M226 0h-37l-169 404l95 29l123 -300l128 301l91 -29l-145 -338s-33 -67 -86 -67z" />
    <glyph glyph-name="w" unicode="w" horiz-adv-x="744" 
d="M564 0h-39c-48 0 -74 61 -76 68l-76 214l-78 -214c-2 -7 -28 -68 -75 -68h-40l-150 411l96 26l104 -293l101 279h82l101 -279l104 293l96 -26z" />
    <glyph glyph-name="x" unicode="x" horiz-adv-x="507" 
d="M477 0h-113l-110 149l-112 -149h-112l167 223l-150 200h114l93 -124l93 124h113l-150 -200z" />
    <glyph glyph-name="y" unicode="y" horiz-adv-x="486" 
d="M86 -188l-11 76c94 16 104 73 130 141c-25 -2 -59 6 -75 58l-100 321l97 24l91 -291c7 -21 12 -31 16 -37l128 328l94 -26l-181 -466c-29 -74 -89 -120 -189 -128z" />
    <glyph glyph-name="z" unicode="z" horiz-adv-x="477" 
d="M424 0h-374v72l246 270h-229v82h360v-73l-248 -272h245v-79z" />
    <glyph glyph-name="braceleft" unicode="{" horiz-adv-x="378" 
d="M328 -69v-79c-97 0 -199 22 -199 150v156c0 40 -23 71 -79 71v85c57 0 79 31 79 71v156c0 128 102 149 199 149v-78c-74 0 -100 -9 -100 -83v-155c0 -49 -21 -84 -58 -103c37 -19 58 -54 58 -102v-156c0 -73 26 -82 100 -82z" />
    <glyph glyph-name="bar" unicode="|" horiz-adv-x="199" 
d="M149 -151h-99v847h99v-847z" />
    <glyph glyph-name="braceright" unicode="}" horiz-adv-x="378" 
d="M50 -148v79c75 0 100 9 100 82v156c0 48 21 83 58 102c-37 19 -58 54 -58 103v155c0 74 -25 83 -100 83v78c97 0 199 -21 199 -149v-156c0 -40 23 -71 79 -71v-85c-56 0 -79 -31 -79 -71v-156c0 -128 -102 -150 -199 -150z" />
    <glyph glyph-name="asciitilde" unicode="~" horiz-adv-x="523" 
d="M419 314l54 -63c-44 -37 -87 -58 -130 -58c-52 0 -83 26 -128 43c-12 5 -25 8 -39 8c-17 0 -48 -17 -76 -34l-50 65c49 35 93 51 135 51c67 0 114 -50 158 -50c20 0 51 22 76 38z" />
    <glyph glyph-name="Adieresis" unicode="&#xc4;" horiz-adv-x="665" 
d="M502 783c0 -29 -26 -57 -62 -57s-62 27 -62 57s26 57 62 57s62 -26 62 -57zM285 783c0 -29 -26 -57 -62 -57s-62 27 -62 57s26 57 62 57s62 -26 62 -57zM615 0h-100l-72 186h-218l-72 -186h-103l236 613h94zM411 270l-77 202l-77 -202h154z" />
    <glyph glyph-name="Aring" unicode="&#xc5;" horiz-adv-x="665" 
d="M439 768c0 -52 -46 -97 -103 -97c-59 0 -105 45 -105 97c0 53 46 97 105 97c57 0 103 -44 103 -97zM615 0h-100l-72 186h-218l-72 -186h-103l236 613h94zM368 768c0 20 -16 32 -32 32c-18 0 -33 -12 -33 -32c0 -17 15 -32 33 -32c16 0 32 15 32 32zM411 270l-77 202
l-77 -202h154z" />
    <glyph glyph-name="Ccedilla" unicode="&#xc7;" horiz-adv-x="578" 
d="M475 107l43 -73c-20 -12 -77 -46 -180 -46c-240 0 -291 175 -288 316c3 143 60 318 300 318c103 0 159 -37 178 -50l-45 -72c-20 10 -67 34 -134 34c-158 0 -186 -133 -188 -231s21 -228 179 -228c67 0 115 23 135 32zM273 -216l10 67c88 -5 78 47 27 53v64
c80 -12 113 -51 114 -93c0 -52 -52 -101 -151 -91z" />
    <glyph glyph-name="Eacute" unicode="&#xc9;" horiz-adv-x="532" 
d="M244 677l-48 50c29 29 104 102 171 157l63 -65c-67 -57 -154 -120 -186 -142zM480 0h-430v613h432l-21 -86h-306v-161h225v-89h-225v-190h325v-87z" />
    <glyph glyph-name="Ntilde" unicode="&#xd1;" horiz-adv-x="561" 
d="M409 834l47 -69c-34 -21 -78 -48 -118 -48c-55 0 -83 42 -108 42c-17 0 -58 -24 -73 -33l-39 68c29 19 78 50 114 50c50 0 86 -42 110 -42c16 0 51 24 67 32zM511 0h-104l-251 434v-434h-106v613h117l239 -412v412h105v-613z" />
    <glyph glyph-name="Odieresis" unicode="&#xd6;" horiz-adv-x="657" 
d="M494 783c0 -29 -26 -57 -62 -57s-62 27 -62 57s26 57 62 57s62 -26 62 -57zM277 783c0 -29 -26 -57 -62 -57s-62 27 -62 57s26 57 62 57s62 -26 62 -57zM330 -12c-237 0 -280 189 -280 316c0 130 39 317 278 317c238 0 279 -187 279 -317c0 -127 -41 -316 -277 -316z
M328 74c152 0 169 131 167 229c-2 101 -11 231 -167 231c-157 0 -165 -130 -167 -230c-2 -99 14 -230 167 -230z" />
    <glyph glyph-name="Udieresis" unicode="&#xdc;" horiz-adv-x="568" 
d="M454 783c0 -29 -26 -57 -62 -57s-62 27 -62 57s26 57 62 57s62 -26 62 -57zM237 783c0 -29 -26 -57 -62 -57s-62 27 -62 57s26 57 62 57s62 -26 62 -57zM412 198v415h106v-432c0 -135 -95 -193 -230 -193c-128 0 -238 58 -238 190v435h106v-412c0 -88 39 -123 133 -123
c89 0 123 39 123 120z" />
    <glyph glyph-name="aacute" unicode="&#xe1;" horiz-adv-x="511" 
d="M275 466l-48 50c29 29 104 102 171 157l63 -65c-67 -57 -154 -120 -186 -142zM452 0h-46c-25 0 -44 17 -53 39c-22 -22 -64 -51 -139 -51c-80 0 -163 47 -164 135c-2 145 184 156 297 153v16c0 47 -33 55 -82 55c-70 0 -142 -35 -142 -35l-39 63c10 5 85 56 190 56
c96 0 177 -33 177 -142zM347 184v22c-61 0 -190 3 -193 -76c-1 -43 26 -66 71 -66c94 0 122 61 122 120z" />
    <glyph glyph-name="agrave" unicode="&#xe0;" horiz-adv-x="502" 
d="M353 516l-51 -53c-32 23 -120 87 -189 144l66 68c68 -56 144 -130 174 -159zM452 0h-46c-25 0 -44 17 -53 39c-22 -22 -64 -51 -139 -51c-80 0 -163 47 -164 135c-2 145 184 156 297 153v16c0 47 -33 55 -82 55c-70 0 -142 -35 -142 -35l-39 63c10 5 85 56 190 56
c96 0 177 -33 177 -142zM347 184v22c-61 0 -190 3 -193 -76c-1 -43 26 -66 71 -66c94 0 122 61 122 120z" />
    <glyph glyph-name="acircumflex" unicode="&#xe2;" horiz-adv-x="502" 
d="M443 547l-34 -59c-37 14 -102 38 -134 53c-31 -16 -96 -39 -133 -53l-33 59l167 89zM452 0h-46c-25 0 -44 17 -53 39c-22 -22 -64 -51 -139 -51c-80 0 -163 47 -164 135c-2 145 184 156 297 153v16c0 47 -33 55 -82 55c-70 0 -142 -35 -142 -35l-39 63c10 5 85 56 190 56
c96 0 177 -33 177 -142zM347 184v22c-61 0 -190 3 -193 -76c-1 -43 26 -66 71 -66c94 0 122 61 122 120z" />
    <glyph glyph-name="adieresis" unicode="&#xe4;" horiz-adv-x="502" 
d="M443 562c0 -29 -26 -57 -62 -57s-62 27 -62 57c0 29 26 57 62 57s62 -27 62 -57zM226 562c0 -29 -26 -57 -62 -57s-62 27 -62 57c0 29 26 57 62 57s62 -27 62 -57zM452 0h-46c-25 0 -44 17 -53 39c-22 -22 -64 -51 -139 -51c-80 0 -163 47 -164 135
c-2 145 184 156 297 153v16c0 47 -33 55 -82 55c-70 0 -142 -35 -142 -35l-39 63c10 5 85 56 190 56c96 0 177 -33 177 -142zM347 184v22c-61 0 -190 3 -193 -76c-1 -43 26 -66 71 -66c94 0 122 61 122 120z" />
    <glyph glyph-name="atilde" unicode="&#xe3;" horiz-adv-x="502" 
d="M401 618l47 -69c-33 -21 -78 -48 -118 -48c-55 0 -83 42 -108 42c-16 0 -58 -25 -73 -33l-39 68c29 19 79 50 114 50c51 0 87 -42 110 -42c16 0 51 24 67 32zM452 0h-46c-25 0 -44 17 -53 39c-22 -22 -64 -51 -139 -51c-80 0 -163 47 -164 135c-2 145 184 156 297 153v16
c0 47 -33 55 -82 55c-70 0 -142 -35 -142 -35l-39 63c10 5 85 56 190 56c96 0 177 -33 177 -142zM347 184v22c-61 0 -190 3 -193 -76c-1 -43 26 -66 71 -66c94 0 122 61 122 120z" />
    <glyph glyph-name="aring" unicode="&#xe5;" horiz-adv-x="502" 
d="M375 563c0 -53 -46 -97 -104 -97c-59 0 -104 44 -104 97c0 52 45 97 104 97c58 0 104 -45 104 -97zM452 0h-46c-25 0 -44 17 -53 39c-22 -22 -64 -51 -139 -51c-80 0 -163 47 -164 135c-2 145 184 156 297 153v16c0 47 -33 55 -82 55c-70 0 -142 -35 -142 -35l-39 63
c10 5 85 56 190 56c96 0 177 -33 177 -142zM303 563c0 19 -15 32 -32 32s-33 -13 -33 -32c0 -18 16 -32 33 -32s32 14 32 32zM347 184v22c-61 0 -190 3 -193 -76c-1 -43 26 -66 71 -66c94 0 122 61 122 120z" />
    <glyph glyph-name="ccedilla" unicode="&#xe7;" horiz-adv-x="476" 
d="M370 99l56 -53s-67 -63 -151 -63c-144 0 -225 98 -225 224s81 224 225 224c84 0 151 -63 151 -63l-56 -53s-43 36 -97 36c-85 0 -115 -72 -115 -144c0 -71 30 -144 115 -144c54 0 97 36 97 36zM197 -216l10 66c88 -4 78 47 27 54v62c80 -12 114 -50 114 -92
c1 -51 -52 -100 -151 -90z" />
    <glyph glyph-name="eacute" unicode="&#xe9;" horiz-adv-x="526" 
d="M269 466l-48 50c29 29 104 102 171 157l63 -65c-67 -57 -154 -120 -186 -142zM417 102l36 -68c-10 -5 -79 -44 -171 -44c-149 0 -232 87 -232 223c0 114 75 218 225 218c123 0 201 -80 201 -189c0 -16 -1 -32 -3 -59h-314c4 -64 39 -114 121 -114c69 0 137 33 137 33z
M163 259h211c-4 54 -37 93 -103 93c-61 0 -103 -43 -108 -93z" />
    <glyph glyph-name="egrave" unicode="&#xe8;" horiz-adv-x="526" 
d="M327 516l-51 -53c-32 23 -120 87 -189 144l66 68c68 -56 144 -130 174 -159zM417 102l36 -68c-10 -5 -79 -44 -171 -44c-149 0 -232 87 -232 223c0 114 75 218 225 218c123 0 201 -80 201 -189c0 -16 -1 -32 -3 -59h-314c4 -64 39 -114 121 -114c69 0 137 33 137 33z
M163 259h211c-4 54 -37 93 -103 93c-61 0 -103 -43 -108 -93z" />
    <glyph glyph-name="ecircumflex" unicode="&#xea;" horiz-adv-x="526" 
d="M437 547l-34 -59c-37 14 -102 38 -134 53c-31 -16 -96 -39 -133 -53l-33 59l167 89zM417 102l36 -68c-10 -5 -79 -44 -171 -44c-149 0 -232 87 -232 223c0 114 75 218 225 218c123 0 201 -80 201 -189c0 -16 -1 -32 -3 -59h-314c4 -64 39 -114 121 -114
c69 0 137 33 137 33zM163 259h211c-4 54 -37 93 -103 93c-61 0 -103 -43 -108 -93z" />
    <glyph glyph-name="edieresis" unicode="&#xeb;" horiz-adv-x="526" 
d="M452 562c0 -29 -26 -57 -62 -57s-62 27 -62 57c0 29 26 57 62 57s62 -27 62 -57zM235 562c0 -29 -26 -57 -62 -57s-62 27 -62 57c0 29 26 57 62 57s62 -27 62 -57zM417 102l36 -68c-10 -5 -79 -44 -171 -44c-149 0 -232 87 -232 223c0 114 75 218 225 218
c123 0 201 -80 201 -189c0 -16 -1 -32 -3 -59h-314c4 -64 39 -114 121 -114c69 0 137 33 137 33zM163 259h211c-4 54 -37 93 -103 93c-61 0 -103 -43 -108 -93z" />
    <glyph glyph-name="iacute" unicode="&#xed;" horiz-adv-x="334" 
d="M98 466l-48 50c29 29 104 102 171 157l63 -65c-67 -57 -154 -120 -186 -142zM102 -2h-47v417l105 14v-362c0 -36 -27 -69 -58 -69z" />
    <glyph glyph-name="igrave" unicode="&#xec;" horiz-adv-x="340" 
d="M290 516l-51 -53c-32 23 -120 87 -189 144l66 68c68 -56 144 -130 174 -159zM223 -2h-47v417l105 14v-362c0 -36 -27 -69 -58 -69z" />
    <glyph glyph-name="icircumflex" unicode="&#xee;" horiz-adv-x="434" 
d="M384 547l-34 -59c-37 14 -102 38 -134 53c-31 -16 -96 -39 -133 -53l-33 59l167 89zM213 -2h-47v420l105 14v-365c0 -36 -27 -69 -58 -69z" />
    <glyph glyph-name="idieresis" unicode="&#xef;" horiz-adv-x="441" 
d="M391 562c0 -29 -26 -57 -62 -57s-62 27 -62 57c0 29 26 57 62 57s62 -27 62 -57zM174 562c0 -29 -26 -57 -62 -57s-62 27 -62 57c0 29 26 57 62 57s62 -27 62 -57zM216 -5h-47v417l105 14v-362c0 -36 -27 -69 -58 -69z" />
    <glyph glyph-name="ntilde" unicode="&#xf1;" horiz-adv-x="504" 
d="M377 614l47 -69c-33 -21 -78 -48 -118 -48c-55 0 -83 42 -108 42c-16 0 -58 -24 -73 -33l-39 68c29 19 79 50 114 50c51 0 87 -42 110 -42c16 0 51 24 67 32zM454 0h-47c-32 0 -58 34 -58 70v191c0 51 -20 89 -73 89c-70 0 -112 -49 -121 -60v-290h-105v424h105v-48
c27 22 77 55 146 55c149 0 153 -132 153 -138v-293z" />
    <glyph glyph-name="oacute" unicode="&#xf3;" horiz-adv-x="549" 
d="M279 466l-48 50c29 29 104 102 171 157l63 -65c-67 -57 -154 -120 -186 -142zM499 208c0 -123 -81 -221 -224 -221s-225 98 -225 221c0 126 77 223 226 223c148 0 223 -97 223 -223zM275 64c88 0 117 71 117 149c0 83 -27 140 -117 140s-117 -57 -117 -140
c0 -78 29 -149 117 -149z" />
    <glyph glyph-name="ograve" unicode="&#xf2;" horiz-adv-x="549" 
d="M320 516l-51 -53c-32 23 -120 87 -189 144l66 68c68 -56 144 -130 174 -159zM499 208c0 -123 -81 -221 -224 -221s-225 98 -225 221c0 126 77 223 226 223c148 0 223 -97 223 -223zM275 64c88 0 117 71 117 149c0 83 -27 140 -117 140s-117 -57 -117 -140
c0 -78 29 -149 117 -149z" />
    <glyph glyph-name="ocircumflex" unicode="&#xf4;" horiz-adv-x="549" 
d="M442 547l-34 -59c-37 14 -102 38 -134 53c-31 -16 -96 -39 -133 -53l-33 59l167 89zM499 208c0 -123 -81 -221 -224 -221s-225 98 -225 221c0 126 77 223 226 223c148 0 223 -97 223 -223zM275 64c88 0 117 71 117 149c0 83 -27 140 -117 140s-117 -57 -117 -140
c0 -78 29 -149 117 -149z" />
    <glyph glyph-name="odieresis" unicode="&#xf6;" horiz-adv-x="549" 
d="M444 562c0 -29 -26 -57 -62 -57s-62 27 -62 57c0 29 26 57 62 57s62 -27 62 -57zM227 562c0 -29 -26 -57 -62 -57s-62 27 -62 57c0 29 26 57 62 57s62 -27 62 -57zM499 208c0 -123 -81 -221 -224 -221s-225 98 -225 221c0 126 77 223 226 223c148 0 223 -97 223 -223z
M275 64c88 0 117 71 117 149c0 83 -27 140 -117 140s-117 -57 -117 -140c0 -78 29 -149 117 -149z" />
    <glyph glyph-name="otilde" unicode="&#xf5;" horiz-adv-x="549" 
d="M398 618l47 -69c-33 -21 -78 -48 -118 -48c-55 0 -83 42 -108 42c-16 0 -58 -25 -73 -33l-39 68c29 19 79 50 114 50c51 0 87 -42 110 -42c16 0 51 24 67 32zM499 208c0 -123 -81 -221 -224 -221s-225 98 -225 221c0 126 77 223 226 223c148 0 223 -97 223 -223zM275 64
c88 0 117 71 117 149c0 83 -27 140 -117 140s-117 -57 -117 -140c0 -78 29 -149 117 -149z" />
    <glyph glyph-name="uacute" unicode="&#xfa;" horiz-adv-x="497" 
d="M257 466l-48 50c29 29 104 102 171 157l63 -65c-67 -57 -154 -120 -186 -142zM447 -1h-47c-21 0 -42 18 -52 41c-21 -21 -62 -52 -129 -52c-74 0 -169 32 -169 119v312l105 13v-303c0 -43 35 -64 80 -64c48 0 107 59 107 92v262l105 13v-433z" />
    <glyph glyph-name="ugrave" unicode="&#xf9;" horiz-adv-x="497" 
d="M305 516l-51 -53c-32 23 -120 87 -189 144l66 68c68 -56 144 -130 174 -159zM447 -1h-47c-21 0 -42 18 -52 41c-21 -21 -62 -52 -129 -52c-74 0 -169 32 -169 119v312l105 13v-303c0 -43 35 -64 80 -64c48 0 107 59 107 92v262l105 13v-433z" />
    <glyph glyph-name="ucircumflex" unicode="&#xfb;" horiz-adv-x="497" 
d="M415 547l-34 -59c-37 14 -102 38 -134 53c-31 -16 -96 -39 -133 -53l-33 59l167 89zM447 -1h-47c-21 0 -42 18 -52 41c-21 -21 -62 -52 -129 -52c-74 0 -169 32 -169 119v312l105 13v-303c0 -43 35 -64 80 -64c48 0 107 59 107 92v262l105 13v-433z" />
    <glyph glyph-name="udieresis" unicode="&#xfc;" horiz-adv-x="497" 
d="M418 562c0 -29 -26 -57 -62 -57s-62 27 -62 57c0 29 26 57 62 57s62 -27 62 -57zM201 562c0 -29 -26 -57 -62 -57s-62 27 -62 57c0 29 26 57 62 57s62 -27 62 -57zM447 -1h-47c-21 0 -42 18 -52 41c-21 -21 -62 -52 -129 -52c-74 0 -169 32 -169 119v312l105 13v-303
c0 -43 35 -64 80 -64c48 0 107 59 107 92v262l105 13v-433z" />
    <glyph glyph-name="dagger" unicode="&#x2020;" horiz-adv-x="513" 
d="M306 0h-99v352h-157v85h157v145h99v-145h157v-85h-157v-352z" />
    <glyph glyph-name="degree" unicode="&#xb0;" horiz-adv-x="308" 
d="M258 582c0 -52 -46 -97 -103 -97c-59 0 -105 45 -105 97c0 53 46 97 105 97c57 0 103 -44 103 -97zM187 582c0 20 -16 32 -32 32c-18 0 -33 -12 -33 -32c0 -17 15 -32 33 -32c16 0 32 15 32 32z" />
    <glyph glyph-name="cent" unicode="&#xa2;" horiz-adv-x="476" 
d="M314 -83h-89v75c-113 20 -175 108 -175 218c0 111 62 199 175 219v74h89v-73c62 -13 112 -59 112 -59l-55 -53s-25 21 -57 30v-275c30 8 56 29 56 29l56 -52s-49 -46 -112 -59v-74zM225 76v268c-49 -21 -67 -78 -67 -133c0 -56 18 -112 67 -135z" />
    <glyph glyph-name="sterling" unicode="&#xa3;" horiz-adv-x="498" 
d="M448 0h-398v83c5 4 111 81 120 166h-109v88h99l-18 137c-18 135 103 157 167 157c71 0 132 -41 132 -41l-43 -67c-11 5 -53 25 -92 25c-28 0 -65 -16 -58 -71l19 -140h119v-88h-110c-4 -75 -51 -132 -81 -160h253v-89z" />
    <glyph glyph-name="section" unicode="&#xa7;" horiz-adv-x="490" 
d="M100 34l50 71c36 -21 67 -32 96 -32c37 0 73 14 73 43s-53 47 -77 55c-75 27 -192 54 -192 146c0 44 31 75 66 97c-27 20 -47 50 -47 84c0 92 95 133 179 133c44 0 100 -13 143 -47l-51 -69c-36 20 -67 31 -95 31c-37 0 -73 -15 -73 -45c0 -12 11 -24 36 -36
c79 -39 232 -60 232 -166c0 -41 -32 -74 -66 -95c27 -20 49 -48 49 -83c0 -92 -95 -134 -180 -134c-46 0 -97 18 -143 47zM209 366c-23 -7 -54 -21 -54 -44c0 -37 97 -60 127 -70c21 8 53 22 53 44c0 18 -17 32 -46 44c-28 11 -59 20 -80 26z" />
    <glyph glyph-name="bullet" unicode="&#x2022;" horiz-adv-x="244" 
d="M194 260c0 -36 -30 -72 -72 -72s-72 36 -72 72s29 70 72 70s72 -34 72 -70z" />
    <glyph glyph-name="paragraph" unicode="&#xb6;" horiz-adv-x="591" 
d="M541 0h-92v535h-98v-535h-92v276c-58 2 -106 17 -146 47c-42 31 -63 70 -63 118c0 130 113 182 238 182h253v-623z" />
    <glyph glyph-name="germandbls" unicode="&#xdf;" horiz-adv-x="520" 
d="M197 -6v83c15 -1 105 -2 143 32c51 46 21 89 -26 120c-52 34 -118 69 -93 139c13 37 47 62 67 95c24 41 -1 83 -58 83c-66 0 -73 -41 -73 -104v-356c0 -52 -32 -86 -107 -86l1 443c0 108 43 188 177 188c139 0 224 -115 142 -220c-15 -19 -39 -41 -47 -62
c-6 -15 41 -43 52 -50c89 -58 141 -164 39 -251c-75 -64 -217 -54 -217 -54z" />
    <glyph glyph-name="registered" unicode="&#xae;" horiz-adv-x="743" 
d="M693 334c0 -178 -144 -322 -322 -322c-177 0 -321 144 -321 322c0 177 144 321 321 321c178 0 322 -144 322 -321zM609 334c0 131 -107 237 -238 237s-237 -106 -237 -237s106 -238 237 -238s238 107 238 238zM508 162h-81l-26 88c-2 6 -10 10 -26 10h-38v-98h-77v340
h130c62 0 108 -46 108 -115c0 -33 -13 -66 -35 -89c7 -9 11 -19 14 -30zM337 338h38c26 0 42 16 42 49c0 30 -12 37 -32 37h-48v-86z" />
    <glyph glyph-name="copyright" unicode="&#xa9;" horiz-adv-x="743" 
d="M693 334c0 -178 -144 -322 -322 -322c-177 0 -321 144 -321 322c0 177 144 321 321 321c178 0 322 -144 322 -321zM609 334c0 131 -107 237 -238 237s-237 -106 -237 -237s106 -238 237 -238s238 107 238 238zM443 266l42 -62s-58 -46 -105 -46c-111 0 -153 80 -153 171
s42 171 153 171c47 0 105 -47 105 -47l-42 -62c-19 14 -42 31 -65 31c-51 0 -68 -41 -68 -94s17 -93 68 -93c23 0 46 17 65 31z" />
    <glyph glyph-name="trademark" unicode="&#x2122;" horiz-adv-x="628" 
d="M578 383h-75v104l-30 -61h-57l-29 61v-104h-76v268h78l56 -116l56 116h77v-268zM204 383h-76v195h-78v73h231v-73h-77v-195z" />
    <glyph glyph-name="acute" unicode="&#xb4;" horiz-adv-x="334" 
d="M98 491l-48 50c29 29 104 102 171 157l63 -65c-67 -57 -154 -120 -186 -142z" />
    <glyph glyph-name="dieresis" unicode="&#xa8;" horiz-adv-x="441" 
d="M391 597c0 -29 -26 -57 -62 -57s-62 27 -62 57s26 57 62 57s62 -26 62 -57zM174 597c0 -29 -26 -57 -62 -57s-62 27 -62 57s26 57 62 57s62 -26 62 -57z" />
    <glyph glyph-name="notequal" unicode="&#x2260;" horiz-adv-x="524" 
d="M474 155h-200l-50 -166l-92 25l43 141h-125v88h152l19 62h-171v88h198l43 142l91 -24l-35 -118h127v-88h-154l-20 -62h174v-88z" />
    <glyph glyph-name="AE" unicode="&#xc6;" horiz-adv-x="937" 
d="M885 0h-434v187h-173l-115 -187h-113l381 616h456l-23 -86h-306v-162h226v-90h-226v-191h327v-87zM451 271v194l-120 -194h120z" />
    <glyph glyph-name="Oslash" unicode="&#xd8;" horiz-adv-x="665" 
d="M255 -73l-79 21l21 66c-122 59 -147 195 -147 295c0 133 40 322 282 322c21 0 42 -2 60 -5l16 51l79 -20l-17 -53c122 -58 145 -194 145 -296c0 -129 -41 -322 -281 -322c-21 0 -41 1 -59 4zM440 511l-138 -435c10 -1 20 -2 30 -2c155 0 172 133 170 234
c-1 71 -6 157 -62 203zM226 106l138 434c-10 2 -20 3 -32 3c-159 0 -167 -133 -169 -235c-2 -69 6 -156 63 -202z" />
    <glyph glyph-name="infinity" unicode="&#x221e;" horiz-adv-x="777" 
d="M389 208c-39 -57 -92 -96 -164 -96c-114 0 -175 81 -175 178s57 176 172 176c77 0 129 -43 166 -106c41 65 97 106 167 106c115 0 172 -79 172 -176s-61 -178 -175 -178c-72 0 -123 38 -163 96zM439 286c24 -47 68 -93 118 -93c48 0 81 40 81 94c0 65 -35 99 -86 99
c-44 0 -87 -55 -113 -100zM339 282c-26 46 -69 104 -114 104c-51 0 -85 -34 -85 -99c0 -54 33 -94 80 -94c50 0 95 43 119 89z" />
    <glyph glyph-name="plusminus" unicode="&#xb1;" horiz-adv-x="525" 
d="M475 345h-163v-140h-98v140h-162v87h162v139h98v-139h163v-87zM474 86h-424v87h424v-87z" />
    <glyph glyph-name="lessequal" unicode="&#x2264;" horiz-adv-x="524" 
d="M370 234l-72 -52l-180 197l180 199l72 -55l-124 -143zM474 86h-424v87h424v-87z" />
    <glyph glyph-name="greaterequal" unicode="&#x2265;" horiz-adv-x="524" 
d="M226 182l-72 52l124 146l-124 143l72 55l180 -199zM474 86h-424v87h424v-87z" />
    <glyph glyph-name="yen" unicode="&#xa5;" horiz-adv-x="606" 
d="M538 158h-181v-158h-108l1 158h-180v90h179v19l-20 36h-159v89h109l-129 231h117l136 -247l136 247h117l-129 -231h111v-89h-161l-20 -36v-19h181v-90z" />
    <glyph glyph-name="mu" unicode="&#xb5;" horiz-adv-x="497" 
d="M447 -7h-47c-21 0 -42 18 -52 42c-21 -22 -62 -54 -129 -54c-29 0 -50 9 -64 17v-107c0 -36 -23 -69 -59 -69h-45v283l-1 314l105 13v-307c0 -43 35 -65 80 -65c48 0 107 60 107 93v266l105 13v-439z" />
    <glyph glyph-name="mu" unicode="&#x3bc;" horiz-adv-x="497" 
d="M447 -7h-47c-21 0 -42 18 -52 42c-21 -22 -62 -54 -129 -54c-29 0 -50 9 -64 17v-107c0 -36 -23 -69 -59 -69h-45v283l-1 314l105 13v-307c0 -43 35 -65 80 -65c48 0 107 60 107 93v266l105 13v-439z" />
    <glyph glyph-name="summation" unicode="&#x2211;" horiz-adv-x="529" 
d="M479 0h-429v80l155 231l-155 232v80h429v-131h-84v44h-230l147 -225l-147 -224h230v44h84v-131z" />
    <glyph glyph-name="product" unicode="&#x220f;" horiz-adv-x="672" 
d="M622 -113l-42 -80c-12 4 -159 53 -159 219v508h-186v-540h-109v540h-76v89h554v-89h-75v-527c0 -79 82 -116 93 -120z" />
    <glyph glyph-name="pi" unicode="&#x3c0;" horiz-adv-x="611" 
d="M510 -114l-42 -79c-12 4 -199 65 -146 283l61 251h-139l-86 -348h-108l87 348h-55l18 83h461l-22 -83h-48l-63 -255c-19 -77 -24 -148 82 -200z" />
    <glyph glyph-name="integral" unicode="&#x222b;" horiz-adv-x="527" 
d="M372 -11v54c-22 -18 -58 -39 -108 -39c-135 0 -214 96 -214 214c0 110 77 213 208 213c52 0 90 -21 113 -37v38l106 -14v-423c0 -38 -16 -186 -227 -186c-106 0 -173 68 -173 68l53 65s54 -52 121 -52c100 0 121 64 121 99zM261 86c76 0 114 62 114 131s-35 134 -114 134
s-109 -61 -109 -132c0 -69 32 -133 109 -133z" />
    <glyph glyph-name="ordfeminine" unicode="&#xaa;" horiz-adv-x="438" 
d="M367 354h-41c-19 0 -33 11 -42 27c-20 -17 -52 -34 -103 -34c-63 0 -130 36 -131 106c-2 107 130 123 225 122v6c0 32 -19 37 -56 37c-45 0 -89 -18 -109 -27l-37 53c21 14 76 47 153 47c74 0 140 -25 140 -112c0 -69 0 -139 1 -225zM388 223h-329v89h329v-89zM275 499
v12c-39 0 -133 0 -134 -53c-1 -29 16 -43 48 -43c66 0 86 41 86 84z" />
    <glyph glyph-name="ordmasculine" unicode="&#xba;" horiz-adv-x="458" 
d="M408 517c0 -96 -67 -172 -179 -172s-179 76 -179 172c0 98 64 174 179 174c116 0 179 -76 179 -174zM395 223h-329v89h329v-89zM229 416c58 0 80 47 80 105c0 61 -19 99 -81 99c-61 0 -80 -38 -80 -99c0 -58 22 -105 81 -105z" />
    <glyph glyph-name="Omega" unicode="&#x3a9;" horiz-adv-x="571" 
d="M499 0h-188v104c69 18 111 72 111 128c0 66 -60 116 -136 116s-136 -50 -136 -116c0 -57 45 -113 117 -129v-103h-189v77h64c-53 36 -92 91 -92 155c0 111 111 198 235 198c125 0 236 -87 236 -198c0 -63 -38 -118 -89 -155h67v-77z" />
    <glyph glyph-name="Omega" unicode="&#x2126;" horiz-adv-x="571" 
d="M499 0h-188v104c69 18 111 72 111 128c0 66 -60 116 -136 116s-136 -50 -136 -116c0 -57 45 -113 117 -129v-103h-189v77h64c-53 36 -92 91 -92 155c0 111 111 198 235 198c125 0 236 -87 236 -198c0 -63 -38 -118 -89 -155h67v-77z" />
    <glyph glyph-name="ae" unicode="&#xe6;" horiz-adv-x="817" 
d="M707 100l36 -67c-10 -6 -79 -45 -171 -45c-100 0 -153 43 -174 65c-25 -30 -70 -65 -184 -65c-80 0 -163 47 -164 135c-2 139 175 145 297 142v27c0 47 -33 55 -82 55c-70 0 -142 -35 -142 -35l-39 63c10 5 85 56 190 56c58 0 112 -12 145 -47c37 29 86 47 147 47
c122 0 201 -74 201 -184c0 -15 -2 -31 -3 -58h-314c4 -70 38 -121 120 -121c70 0 137 32 137 32zM454 265h211c-4 52 -37 87 -103 87c-61 0 -103 -39 -108 -87zM347 184v6c-17 0 -37 1 -60 1c-47 0 -131 -1 -133 -61c-1 -43 26 -66 71 -66c90 0 122 61 122 120z" />
    <glyph glyph-name="oslash" unicode="&#xf8;" horiz-adv-x="549" 
d="M223 -92l-79 20l25 79c-77 36 -119 111 -119 201c0 128 77 224 226 224h30l23 70l79 -20l-23 -72c77 -35 114 -111 114 -202c0 -125 -81 -224 -224 -224c-9 0 -18 1 -27 2zM272 62h3c88 0 117 72 117 151c0 49 -9 90 -34 114zM197 91l84 264h-6c-90 0 -117 -58 -117 -142
c0 -47 11 -93 39 -122z" />
    <glyph glyph-name="questiondown" unicode="&#xbf;" horiz-adv-x="436" 
d="M288 568c0 -33 -28 -58 -63 -58c-34 0 -63 25 -63 58s29 59 63 59c35 0 63 -26 63 -59zM291 160h95c-2 -94 -57 -172 -172 -172c-93 0 -164 64 -164 161c0 74 39 109 76 139c34 28 68 51 68 101c0 10 -2 17 -9 33l85 54c11 -47 16 -68 16 -93c0 -78 -44 -116 -82 -145
c-29 -23 -63 -45 -63 -87c0 -49 26 -73 72 -73c60 0 77 32 78 82z" />
    <glyph glyph-name="exclamdown" unicode="&#xa1;" horiz-adv-x="231" 
d="M181 573c0 -33 -29 -59 -65 -59c-37 0 -66 26 -66 59c0 31 29 58 66 58c36 0 65 -27 65 -58zM54 -12l17 481h88l16 -469s-55 -12 -121 -12z" />
    <glyph glyph-name="logicalnot" unicode="&#xac;" horiz-adv-x="579" 
d="M529 175h-103v170h-376v88h479v-258z" />
    <glyph glyph-name="radical" unicode="&#x221a;" horiz-adv-x="524" 
d="M272 40h-111l-111 294l95 29l75 -200l164 425l90 -30z" />
    <glyph glyph-name="florin" unicode="&#x192;" horiz-adv-x="686" 
d="M540 352h-80l-46 -301c-21 -137 -116 -226 -232 -225c-62 0 -132 55 -132 55l56 64c10 -8 43 -32 76 -32c58 0 116 56 132 160l42 279h-27l11 76h27l10 65c13 82 79 129 164 129c27 0 60 -6 95 -21l-35 -69c-26 7 -44 10 -60 10c-35 0 -55 -20 -60 -55l-9 -59h101z" />
    <glyph glyph-name="approxequal" unicode="&#x2248;" horiz-adv-x="524" 
d="M419 359l55 -62c-45 -38 -88 -59 -131 -59c-51 0 -83 27 -127 43c-13 5 -26 7 -40 7c-17 0 -48 -16 -76 -32l-50 65c49 33 93 50 135 50c67 0 114 -48 158 -48c20 0 51 20 76 36zM419 216l55 -63c-45 -37 -88 -58 -131 -58c-51 0 -83 26 -127 43c-13 3 -26 7 -40 7
c-17 0 -48 -17 -76 -32l-50 64c49 34 93 51 135 51c67 0 114 -49 158 -49c20 0 51 20 76 37z" />
    <glyph glyph-name="Delta" unicode="&#x394;" horiz-adv-x="562" 
d="M512 -9h-462l231 560zM383 73l-102 249l-102 -249h204z" />
    <glyph glyph-name="Delta" unicode="&#x2206;" horiz-adv-x="562" 
d="M512 -9h-462l231 560zM383 73l-102 249l-102 -249h204z" />
    <glyph glyph-name="guillemotleft" unicode="&#xab;" horiz-adv-x="494" 
d="M444 71l-68 -38l-146 190l146 190l68 -37l-95 -152zM264 71l-68 -38l-146 190l146 190l68 -37l-95 -152z" />
    <glyph glyph-name="guillemotright" unicode="&#xbb;" horiz-adv-x="494" 
d="M297 33l-67 38l94 153l-94 152l67 37l147 -190zM117 33l-67 38l94 153l-94 152l67 37l147 -190z" />
    <glyph glyph-name="ellipsis" unicode="&#x2026;" horiz-adv-x="675" 
d="M625 37c0 -30 -26 -58 -63 -58s-63 28 -63 58s26 58 63 58s63 -28 63 -58zM402 37c0 -30 -26 -58 -62 -58c-37 0 -63 28 -63 58s26 58 63 58c36 0 62 -28 62 -58zM176 37c0 -30 -26 -58 -63 -58s-63 28 -63 58s26 58 63 58s63 -28 63 -58z" />
    <glyph glyph-name="Agrave" unicode="&#xc0;" horiz-adv-x="665" 
d="M382 727l-51 -53c-32 23 -120 87 -189 144l66 68c68 -56 144 -130 174 -159zM615 0h-100l-72 186h-218l-72 -186h-103l236 613h94zM411 270l-77 202l-77 -202h154z" />
    <glyph glyph-name="Atilde" unicode="&#xc3;" horiz-adv-x="665" 
d="M451 834l47 -69c-34 -21 -78 -48 -118 -48c-55 0 -83 42 -108 42c-17 0 -58 -24 -73 -33l-39 68c29 19 78 50 114 50c50 0 86 -42 110 -42c16 0 51 24 67 32zM615 0h-100l-72 186h-218l-72 -186h-103l236 613h94zM411 270l-77 202l-77 -202h154z" />
    <glyph glyph-name="Otilde" unicode="&#xd5;" horiz-adv-x="657" 
d="M459 834l47 -69c-33 -21 -77 -48 -118 -48c-54 0 -83 42 -108 42c-16 0 -57 -24 -73 -33l-39 68c30 19 79 50 114 50c51 0 87 -42 110 -42c17 0 51 24 67 32zM330 -12c-237 0 -280 189 -280 316c0 130 39 317 278 317c238 0 279 -187 279 -317c0 -127 -41 -316 -277 -316
zM328 74c152 0 169 131 167 229c-2 101 -11 231 -167 231c-157 0 -165 -130 -167 -230c-2 -99 14 -230 167 -230z" />
    <glyph glyph-name="OE" unicode="&#x152;" horiz-adv-x="881" 
d="M829 0h-406c-26 -7 -58 -12 -93 -12c-239 0 -280 187 -280 319c0 131 41 318 280 318c29 0 56 -3 80 -8h421l-22 -87h-307v-162h226v-90h-226v-192h327v-86zM397 85v442c-19 6 -41 10 -67 10c-157 0 -168 -131 -168 -230c0 -101 11 -232 168 -232c26 0 48 4 67 10z" />
    <glyph glyph-name="oe" unicode="&#x153;" horiz-adv-x="870" 
d="M761 102l36 -68c-10 -5 -79 -44 -171 -44c-78 0 -139 24 -179 69c-39 -45 -97 -72 -172 -72c-143 0 -225 98 -225 221c0 126 77 223 226 223c76 0 134 -26 172 -69c38 42 95 69 171 69c123 0 201 -80 201 -189c0 -16 -2 -32 -3 -59h-314c4 -64 39 -114 121 -114
c69 0 137 33 137 33zM507 259h211c-4 54 -37 93 -103 93c-61 0 -103 -43 -108 -93zM275 64c88 0 117 71 117 149c0 83 -27 140 -117 140s-117 -57 -117 -140c0 -78 29 -149 117 -149z" />
    <glyph glyph-name="endash" unicode="&#x2013;" horiz-adv-x="601" 
d="M551 209h-501v90h501v-90z" />
    <glyph glyph-name="emdash" unicode="&#x2014;" horiz-adv-x="821" 
d="M771 209h-721v90h721v-90z" />
    <glyph glyph-name="quotedblleft" unicode="&#x201c;" horiz-adv-x="450" 
d="M367 655l33 -44c-35 -19 -53 -35 -66 -68h4c36 0 59 -28 59 -58c0 -39 -34 -66 -74 -66c-54 0 -82 42 -82 86c0 69 58 113 126 150zM176 655l33 -44c-35 -19 -53 -35 -66 -68h4c35 0 58 -29 58 -58c0 -38 -34 -66 -73 -66c-55 0 -82 42 -82 86c0 69 58 113 126 150z" />
    <glyph glyph-name="quotedblright" unicode="&#x201d;" horiz-adv-x="450" 
d="M275 406l-34 44c36 19 55 36 67 69h-4c-36 0 -59 29 -59 58c0 38 35 65 73 65c54 0 82 -41 82 -85c0 -71 -56 -112 -125 -151zM84 406l-34 44c36 19 55 36 66 69h-3c-36 0 -59 29 -59 58c0 38 35 65 73 65c54 0 82 -41 82 -85c0 -71 -57 -112 -125 -151z" />
    <glyph glyph-name="quoteleft" unicode="&#x2018;" horiz-adv-x="259" 
d="M176 655l33 -44c-35 -19 -53 -35 -66 -68h4c35 0 58 -29 58 -58c0 -38 -34 -66 -73 -66c-55 0 -82 42 -82 86c0 69 58 113 126 150z" />
    <glyph glyph-name="quoteright" unicode="&#x2019;" horiz-adv-x="259" 
d="M84 406l-34 44c36 19 55 36 66 69h-3c-36 0 -59 29 -59 58c0 38 35 65 73 65c54 0 82 -41 82 -85c0 -71 -57 -112 -125 -151z" />
    <glyph glyph-name="divide" unicode="&#xf7;" horiz-adv-x="524" 
d="M327 332c0 -32 -28 -59 -63 -59s-63 27 -63 59s28 58 63 58s63 -26 63 -58zM474 153h-424v87h424v-87zM327 66c0 -32 -28 -58 -63 -58s-63 26 -63 58s28 59 63 59s63 -27 63 -59z" />
    <glyph glyph-name="ydieresis" unicode="&#xff;" horiz-adv-x="526" 
d="M435 597c0 -30 -27 -59 -64 -59s-64 28 -64 59s27 59 64 59s64 -27 64 -59zM238 597c0 -30 -27 -59 -64 -59s-64 28 -64 59s27 59 64 59s64 -27 64 -59zM106 -188l-11 76c94 16 104 73 130 141c-25 -2 -59 6 -75 58l-100 321l97 24l91 -291c7 -21 12 -31 16 -37l128 328
l94 -26l-181 -466c-29 -74 -89 -120 -189 -128z" />
    <glyph glyph-name="Ydieresis" unicode="&#x178;" horiz-adv-x="598" 
d="M469 783c0 -29 -26 -57 -62 -57s-62 27 -62 57s26 57 62 57s62 -26 62 -57zM252 783c0 -29 -26 -57 -62 -57s-62 27 -62 57s26 57 62 57s62 -26 62 -57zM351 0h-105v263l-196 351h115l134 -244l134 244h115l-196 -351z" />
    <glyph glyph-name="fraction" unicode="&#x2044;" horiz-adv-x="711" 
d="M138 -110h-88l523 786h88z" />
    <glyph glyph-name="currency" unicode="&#xa4;" horiz-adv-x="598" 
d="M505 107l43 -73c-20 -12 -77 -46 -180 -46c-167 0 -243 85 -272 185h-53v87h38c-1 15 -1 30 -1 44c0 7 0 13 1 20h-38v87h51c27 110 104 211 286 211c103 0 159 -37 178 -50l-45 -72c-20 10 -67 34 -134 34c-103 0 -151 -57 -172 -123h260l-40 -87h-235
c0 -7 0 -14 -1 -21c0 -14 0 -28 1 -43h209l-41 -87h-149c22 -55 68 -98 159 -98c67 0 115 23 135 32z" />
    <glyph glyph-name="guilsinglleft" unicode="&#x2039;" horiz-adv-x="314" 
d="M264 71l-68 -38l-146 190l146 190l68 -37l-95 -152z" />
    <glyph glyph-name="guilsinglright" unicode="&#x203a;" horiz-adv-x="314" 
d="M117 33l-67 38l94 153l-94 152l67 37l147 -190z" />
    <glyph glyph-name="daggerdbl" unicode="&#x2021;" horiz-adv-x="492" 
d="M442 163h-153v-136h-94v136h-145v87h145v139h-145v86h145v136h94v-136h153v-86h-153v-139h153v-87z" />
    <glyph glyph-name="periodcentered" unicode="&#xb7;" horiz-adv-x="226" 
d="M176 258c0 -30 -26 -58 -63 -58s-63 28 -63 58s26 58 63 58s63 -28 63 -58z" />
    <glyph glyph-name="quotesinglbase" unicode="&#x201a;" horiz-adv-x="258" 
d="M83 -127l-33 44c37 20 54 37 65 69h-3c-36 0 -59 29 -59 58c0 38 35 65 73 65c54 0 82 -41 82 -85c0 -70 -56 -112 -125 -151z" />
    <glyph glyph-name="quotedblbase" unicode="&#x201e;" horiz-adv-x="450" 
d="M275 -126l-34 43c36 19 54 37 66 69c-37 -2 -63 25 -63 58c0 38 36 65 74 65c54 0 82 -41 82 -85c0 -46 -33 -93 -70 -118c-13 -9 -28 -18 -55 -32zM83 -127l-33 44c37 20 54 37 65 69h-3c-36 0 -59 29 -59 58c0 38 35 65 73 65c54 0 82 -41 82 -85
c0 -70 -56 -112 -125 -151z" />
    <glyph glyph-name="perthousand" unicode="&#x2030;" horiz-adv-x="1155" 
d="M946 -16c-102 0 -160 73 -160 163c0 91 55 163 160 163c106 0 159 -72 159 -163c0 -90 -57 -163 -159 -163zM601 -16c-102 0 -160 73 -160 163c0 91 55 163 160 163c106 0 159 -72 159 -163c0 -90 -57 -163 -159 -163zM357 -23l-85 24l190 638l85 -24zM210 299
c-102 0 -160 73 -160 163c0 91 54 164 160 164s159 -73 159 -164c0 -89 -58 -163 -159 -163zM946 63c43 0 61 35 61 87c0 54 -15 81 -61 81s-62 -28 -62 -81c0 -52 18 -87 62 -87zM601 63c43 0 61 35 61 87c0 54 -15 81 -61 81s-62 -28 -62 -81c0 -52 18 -87 62 -87z
M209 379c44 0 62 35 62 87c0 53 -16 80 -61 80c-46 0 -62 -27 -62 -80c0 -52 18 -87 61 -87z" />
    <glyph glyph-name="Acircumflex" unicode="&#xc2;" horiz-adv-x="665" 
d="M505 756l-34 -59c-37 14 -102 38 -134 53c-31 -16 -96 -39 -133 -53l-33 59l167 89zM615 0h-100l-72 186h-218l-72 -186h-103l236 613h94zM411 270l-77 202l-77 -202h154z" />
    <glyph glyph-name="Ecircumflex" unicode="&#xca;" horiz-adv-x="532" 
d="M427 756l-34 -59c-37 14 -102 38 -134 53c-31 -16 -96 -39 -133 -53l-33 59l167 89zM480 0h-430v613h432l-21 -86h-306v-161h225v-89h-225v-190h325v-87z" />
    <glyph glyph-name="Aacute" unicode="&#xc1;" horiz-adv-x="665" 
d="M332 677l-48 50c29 29 104 102 171 157l63 -65c-67 -57 -154 -120 -186 -142zM615 0h-100l-72 186h-218l-72 -186h-103l236 613h94zM411 270l-77 202l-77 -202h154z" />
    <glyph glyph-name="Edieresis" unicode="&#xcb;" horiz-adv-x="532" 
d="M439 747c0 -28 -26 -56 -62 -56s-62 27 -62 56c0 30 26 56 62 56s62 -25 62 -56zM222 747c0 -28 -26 -56 -62 -56s-62 27 -62 56c0 30 26 56 62 56s62 -25 62 -56zM480 0h-430v613h432l-21 -86h-306v-161h225v-89h-225v-190h325v-87z" />
    <glyph glyph-name="Egrave" unicode="&#xc8;" horiz-adv-x="532" 
d="M343 725l-51 -53c-32 23 -120 87 -189 144l66 68c68 -56 144 -130 174 -159zM480 0h-430v613h432l-21 -86h-306v-161h225v-89h-225v-190h325v-87z" />
    <glyph glyph-name="Iacute" unicode="&#xcd;" horiz-adv-x="334" 
d="M98 672l-48 49c29 29 104 101 171 155l63 -64c-67 -56 -154 -118 -186 -140zM161 0h-106v613h106v-613z" />
    <glyph glyph-name="Icircumflex" unicode="&#xce;" horiz-adv-x="434" 
d="M384 750l-34 -58c-37 14 -102 37 -134 52c-31 -16 -96 -38 -133 -52l-33 58l167 88zM263 0h-106v613h106v-613z" />
    <glyph glyph-name="Idieresis" unicode="&#xcf;" horiz-adv-x="441" 
d="M391 777c0 -29 -26 -57 -62 -57s-62 27 -62 57c0 29 26 56 62 56s62 -26 62 -56zM174 777c0 -29 -26 -57 -62 -57s-62 27 -62 57c0 29 26 56 62 56s62 -26 62 -56zM273 0h-107v613h107v-613z" />
    <glyph glyph-name="Igrave" unicode="&#xcc;" horiz-adv-x="340" 
d="M290 719l-51 -52c-32 23 -120 86 -189 142l66 67c68 -55 144 -128 174 -157zM287 0h-106v613h106v-613z" />
    <glyph glyph-name="Oacute" unicode="&#xd3;" horiz-adv-x="657" 
d="M337 677l-48 50c29 29 104 102 171 157l63 -65c-67 -57 -154 -120 -186 -142zM330 -12c-237 0 -280 189 -280 316c0 130 39 317 278 317c238 0 279 -187 279 -317c0 -127 -41 -316 -277 -316zM328 74c152 0 169 131 167 229c-2 101 -11 231 -167 231
c-157 0 -165 -130 -167 -230c-2 -99 14 -230 167 -230z" />
    <glyph glyph-name="Ocircumflex" unicode="&#xd4;" horiz-adv-x="657" 
d="M494 749l-34 -59c-37 14 -102 38 -134 53c-31 -16 -96 -39 -133 -53l-33 59l167 89zM330 -12c-237 0 -280 189 -280 316c0 130 39 317 278 317c238 0 279 -187 279 -317c0 -127 -41 -316 -277 -316zM328 74c152 0 169 131 167 229c-2 101 -11 231 -167 231
c-157 0 -165 -130 -167 -230c-2 -99 14 -230 167 -230z" />
    <glyph glyph-name="apple" horiz-adv-x="975" 
d="M847 578l-140 -37l124 70zM908 498l-139 -4l136 37zM921 403l-152 21l156 11zM853 317l-122 60l133 -26zM662 -4h-211c11 18 19 45 13 71c-26 112 -295 62 -180 -59c-70 -11 -182 -14 -202 -14l-32 55l126 3c-78 81 17 144 37 155l-1 4c-168 -16 -175 136 2 143
c20 18 -6 31 -9 32c-16 7 -31 82 -35 100c39 15 94 35 135 33c15 -22 21 -49 23 -77c-11 -4 -16 -12 -16 -19s5 -14 15 -19c-2 -11 -5 -18 -9 -22c-5 -64 184 -50 125 17l-62 3c-2 0 -13 4 -13 7v-1c-1 6 -5 33 -5 36c-3 12 7 13 7 13l297 77c17 4 21 -2 22 -4
c27 -37 35 -99 14 -142c-3 -6 -12 -5 -12 -5l-175 13c31 -66 -2 -94 -42 -105c-35 -9 -74 -8 -94 1c8 -34 3 -68 1 -80c108 -10 153 -51 170 -93c9 -24 11 -52 5 -78l95 4zM205 258l-1 35c-22 6 -33 -6 -34 -17s7 -24 35 -18z" />
    <glyph glyph-name="Ograve" unicode="&#xd2;" horiz-adv-x="657" 
d="M396 725l-51 -53c-32 23 -120 87 -189 144l66 68c68 -56 144 -130 174 -159zM330 -12c-237 0 -280 189 -280 316c0 130 39 317 278 317c238 0 279 -187 279 -317c0 -127 -41 -316 -277 -316zM328 74c152 0 169 131 167 229c-2 101 -11 231 -167 231
c-157 0 -165 -130 -167 -230c-2 -99 14 -230 167 -230z" />
    <glyph glyph-name="Uacute" unicode="&#xda;" horiz-adv-x="568" 
d="M285 677l-48 50c29 29 104 102 171 157l63 -65c-67 -57 -154 -120 -186 -142zM412 198v415h106v-432c0 -135 -95 -193 -230 -193c-128 0 -238 58 -238 190v435h106v-412c0 -88 39 -123 133 -123c89 0 123 39 123 120z" />
    <glyph glyph-name="Ucircumflex" unicode="&#xdb;" horiz-adv-x="568" 
d="M454 756l-34 -59c-37 14 -102 38 -134 53c-31 -16 -96 -39 -133 -53l-33 59l167 89zM412 198v415h106v-432c0 -135 -95 -193 -230 -193c-128 0 -238 58 -238 190v435h106v-412c0 -88 39 -123 133 -123c89 0 123 39 123 120z" />
    <glyph glyph-name="Ugrave" unicode="&#xd9;" horiz-adv-x="568" 
d="M332 727l-51 -53c-32 23 -120 87 -189 144l66 68c68 -56 144 -130 174 -159zM412 198v415h106v-432c0 -135 -95 -193 -230 -193c-128 0 -238 58 -238 190v435h106v-412c0 -88 39 -123 133 -123c89 0 123 39 123 120z" />
    <glyph glyph-name="dotlessi" unicode="&#x131;" horiz-adv-x="205" 
d="M97 0h-47v418l105 14v-363c0 -36 -27 -69 -58 -69z" />
    <glyph glyph-name="circumflex" unicode="&#x2c6;" horiz-adv-x="434" 
d="M384 741l-34 -59c-37 14 -102 38 -134 53c-31 -16 -96 -39 -133 -53l-33 59l167 89z" />
    <glyph glyph-name="tilde" unicode="&#x2dc;" horiz-adv-x="438" 
d="M341 648l47 -69c-33 -21 -78 -48 -118 -48c-55 0 -83 42 -108 42c-16 0 -58 -24 -73 -33l-39 68c29 19 79 50 114 50c51 0 87 -42 110 -42c16 0 51 24 67 32z" />
    <glyph glyph-name="macron" unicode="&#xaf;" horiz-adv-x="398" 
d="M348 690h-298v83h298v-83z" />
    <glyph glyph-name="breve" unicode="&#x2d8;" horiz-adv-x="434" 
d="M384 773l-168 -89l-166 89l33 58c38 -13 102 -37 134 -52c32 16 96 39 133 52z" />
    <glyph glyph-name="dotaccent" unicode="&#x2d9;" horiz-adv-x="226" 
d="M176 597c0 -31 -26 -59 -63 -59s-63 28 -63 59c0 30 26 58 63 58s63 -28 63 -58z" />
    <glyph glyph-name="ring" unicode="&#x2da;" horiz-adv-x="308" 
d="M258 582c0 -52 -46 -97 -103 -97c-59 0 -105 45 -105 97c0 53 46 97 105 97c57 0 103 -44 103 -97zM187 582c0 20 -16 32 -32 32c-18 0 -33 -12 -33 -32c0 -17 15 -32 33 -32c16 0 32 15 32 32z" />
    <glyph glyph-name="cedilla" unicode="&#xb8;" horiz-adv-x="262" 
d="M50 -253l11 78c55 0 64 12 65 20c1 7 -5 19 -39 29v74c93 -19 125 -59 125 -103c1 -55 -51 -105 -162 -98z" />
    <glyph glyph-name="hungarumlaut" unicode="&#x2dd;" horiz-adv-x="321" 
d="M260 -75h-72c-3 34 -11 108 -11 188h94c0 -80 -7 -154 -11 -188zM133 -75h-72c-4 34 -11 108 -11 188h94c0 -80 -7 -154 -11 -188z" />
    <glyph glyph-name="ogonek" unicode="&#x2db;" horiz-adv-x="262" 
d="M202 -175l10 -78c-111 -7 -162 44 -162 98c0 44 33 84 125 103v-74c-34 -10 -40 -22 -39 -29c1 -8 11 -20 66 -20z" />
    <glyph glyph-name="caron" unicode="&#x2c7;" horiz-adv-x="434" 
d="M384 591l-167 -90l-167 90l34 59c37 -13 102 -37 134 -53c31 16 95 40 133 53z" />
    <glyph glyph-name="Eth" unicode="&#xd0;" horiz-adv-x="677" 
d="M328 0h-197v263h-81v87h81v272h201c208 0 295 -137 295 -305c0 -169 -90 -317 -299 -317zM238 88h90c122 0 185 105 185 227c0 128 -53 220 -199 220h-76v-185h160v-87h-160v-175z" />
    <glyph glyph-name="eth" unicode="&#xf0;" 
 />
    <glyph glyph-name="Thorn" unicode="&#xde;" 
 />
    <glyph glyph-name="thorn" unicode="&#xfe;" 
 />
    <glyph glyph-name="onehalf" unicode="&#xbd;" 
 />
    <glyph glyph-name="onequarter" unicode="&#xbc;" 
 />
    <glyph glyph-name="onesuperior" unicode="&#xb9;" 
 />
    <glyph glyph-name="threequarters" unicode="&#xbe;" 
 />
    <glyph glyph-name="threesuperior" unicode="&#xb3;" 
 />
    <glyph glyph-name="twosuperior" unicode="&#xb2;" 
 />
    <glyph glyph-name="uni00A0" unicode="&#xa0;" horiz-adv-x="250" 
 />
    <glyph glyph-name="fl" unicode="&#xfb02;" 
 />
    <glyph glyph-name="fi" unicode="&#xfb01;" 
 />
    <glyph glyph-name="Euro" unicode="&#x20ac;" horiz-adv-x="598" 
d="M505 107l43 -73c-20 -12 -77 -46 -180 -46c-167 0 -243 85 -272 185h-53v87h38c-1 15 -1 30 -1 44c0 7 0 13 1 20h-38v87h51c27 110 104 211 286 211c103 0 159 -37 178 -50l-45 -72c-20 10 -67 34 -134 34c-103 0 -151 -57 -172 -123h260l-40 -87h-235
c0 -7 0 -14 -1 -21c0 -14 0 -28 1 -43h209l-41 -87h-149c22 -55 68 -98 159 -98c67 0 115 23 135 32z" />
    <glyph glyph-name="lozenge" unicode="&#x25ca;" 
 />
    <glyph glyph-name="partialdiff" unicode="&#x2202;" 
 />
    </font>
</defs>
</svg>
