<svg xmlns="http://www.w3.org/2000/svg" viewBox="0 0 384.17 306.19"><defs><style>.cls-1{fill:#a3ddec;}</style></defs><title>Asset 7</title><g id="Layer_2" data-name="Layer 2"><g id="big_palm_trees" data-name="big palm trees"><path class="cls-1" d="M363.7,107.17l-.9-.69-7.77,24c.62.43,1.23.9,1.83,1.4,6.27,5.22,11.25,11.4,16.17,18.14A113.1,113.1,0,0,1,384.17,169V131.62C379,122.38,371.72,113.35,363.7,107.17Z"/><path class="cls-1" d="M375.6,77.42l-1-.75-8.45,26.13c.67.47,1.34,1,2,1.52,6.15,5.12,11.16,11.1,16,17.6V85.28A73.12,73.12,0,0,0,375.6,77.42Z"/><path class="cls-1" d="M376.12,69.19c.67.47,1.34,1,2,1.52a75.94,75.94,0,0,1,6.06,5.68V44.3Z"/><path class="cls-1" d="M329.74,87.68c-24.24,13.78-45.56,36-57.09,60.81,9.65-6.94,17.19-17,27.17-23.75,11.24-7.59,22.49-13.52,35.36-17.58,8.65-2.73,17-4.93,25.85-5.46.85-.05,1.69-.06,2.51,0l8.68-26.06-1.23,0C357.23,75.94,341.62,80.93,329.74,87.68Z"/><path class="cls-1" d="M341.65,54.71c-24.24,13.78-45.56,36-57.09,60.81,9.65-6.94,17.19-17,27.17-23.75C323,84.19,334.22,78.25,347.1,74.2c8.65-2.73,17-4.93,25.85-5.46.85-.05,1.69-.06,2.51,0l8.69-26.06-1.23,0C369.14,43,353.53,48,341.65,54.71Z"/><path class="cls-1" d="M292.9,84c9.65-6.94,17.19-17,27.17-23.75,11.24-7.59,22.49-13.52,35.36-17.58,8.65-2.73,17-4.93,25.85-5.46.85-.05,1.69-.06,2.51,0l.38-1.12V11.71A96.43,96.43,0,0,0,350,23.21C325.76,37,304.43,59.25,292.9,84Z"/><path class="cls-1" d="M343.53,0c-16.87,13.26-31.13,30.5-39.82,49.18,9.65-6.94,17.19-17,27.17-23.75,11.24-7.59,22.49-13.52,35.36-17.58a131.9,131.9,0,0,1,17.92-4.53V0Z"/><path class="cls-1" d="M377.52,170c-5.12-11.48-14-23.69-24-31.42l-.9-.69-7.78,24c.62.43,1.23.9,1.83,1.4,6.27,5.22,11.25,11.4,16.17,18.14a123.56,123.56,0,0,1,16.61,32.3c2.51,7.05,3.37,14.63,4.7,22v-47A129,129,0,0,0,377.52,170Z"/><path class="cls-1" d="M343.34,169.6l-.76-.59L336,189.45q.79.55,1.56,1.19c5.33,4.44,9.56,9.69,13.74,15.42a105,105,0,0,1,14.12,27.46c3.16,8.87,3.24,18.71,6.1,27.55,4.22-20.94,1.12-44.84-7.76-64.75C359.38,186.55,351.86,176.17,343.34,169.6Z"/><path class="cls-1" d="M334.28,197.06l-.63-.48-5.42,16.75q.65.45,1.28,1a68.48,68.48,0,0,1,11.27,12.64,86.16,86.16,0,0,1,11.58,22.52c2.59,7.27,2.66,15.34,5,22.59,3.46-17.17.92-36.77-6.36-53.1C347.44,211,341.28,202.44,334.28,197.06Z"/><path class="cls-1" d="M326.73,219.93l-.5-.39L321.87,233c.35.24.69.5,1,.79A55.07,55.07,0,0,1,332,244a69.33,69.33,0,0,1,9.32,18.12c2.09,5.86,2.14,12.35,4,18.18,2.79-13.82.74-29.6-5.12-42.74A47.89,47.89,0,0,0,326.73,219.93Z"/><path class="cls-1" d="M320.65,238.19l-.37-.28-3.17,9.81q.38.27.75.57a40.11,40.11,0,0,1,6.6,7.4,50.45,50.45,0,0,1,6.78,13.18c1.52,4.26,1.55,9,2.93,13.22A53,53,0,0,0,330.44,251,34.84,34.84,0,0,0,320.65,238.19Z"/><path class="cls-1" d="M315.42,254l-.27-.21-2.38,7.36c.19.13.38.27.56.43a30.1,30.1,0,0,1,4.95,5.55,37.9,37.9,0,0,1,5.08,9.89c1.14,3.19,1.17,6.73,2.2,9.92a39.75,39.75,0,0,0-2.79-23.31A26.12,26.12,0,0,0,315.42,254Z"/><path class="cls-1" d="M324,118c-22.18,12.87-41.61,33.52-52,56.4,8.82-6.46,15.67-15.78,24.8-22.07a123.64,123.64,0,0,1,32.38-16.46c7.94-2.58,15.59-4.67,23.73-5.23.78-.05,1.55-.07,2.31-.06l7.78-24-1.13,0C349.17,107,334.85,111.67,324,118Z"/><path class="cls-1" d="M313.81,149.42c-22.18,12.87-41.61,33.52-52,56.4,8.82-6.46,15.67-15.78,24.8-22.07A123.57,123.57,0,0,1,319,167.3c7.94-2.58,15.59-4.67,23.73-5.23.79-.06,1.55-.07,2.31-.06l7.78-24-1.14,0C339,138.4,324.68,143.12,313.81,149.42Z"/><path class="cls-1" d="M309.6,178.8c-18.85,10.94-35.37,28.49-44.21,47.94,7.5-5.49,13.32-13.42,21.08-18.76A105,105,0,0,1,314,194c6.75-2.19,13.25-4,20.17-4.45.67,0,1.32-.06,2,0l6.61-20.43-1,0C331,169.42,318.84,173.44,309.6,178.8Z"/><path class="cls-1" d="M306.65,204.61c-15.46,9-29,23.36-36.25,39.31,6.15-4.5,10.92-11,17.29-15.38a86.18,86.18,0,0,1,22.57-11.47,68.48,68.48,0,0,1,16.54-3.65c.55,0,1.08,0,1.61,0l5.42-16.75-.79,0C324.21,196.92,314.23,200.21,306.65,204.61Z"/><path class="cls-1" d="M304.52,226c-12.44,7.22-23.34,18.81-29.18,31.64,4.95-3.62,8.79-8.85,13.91-12.38A69.32,69.32,0,0,1,307.42,236a55,55,0,0,1,13.31-2.94q.66,0,1.29,0l4.36-13.48-.64,0A47.91,47.91,0,0,0,304.52,226Z"/><path class="cls-1" d="M304.54,242.63a53,53,0,0,0-21.22,23c3.6-2.64,6.39-6.44,10.12-9a50.46,50.46,0,0,1,13.21-6.72,40.16,40.16,0,0,1,9.68-2.13c.32,0,.63,0,.94,0l3.17-9.8H320A34.84,34.84,0,0,0,304.54,242.63Z"/><path class="cls-1" d="M303.38,257.36a39.77,39.77,0,0,0-15.92,17.26c2.7-2,4.8-4.83,7.59-6.75a37.88,37.88,0,0,1,9.91-5,30.09,30.09,0,0,1,7.26-1.6c.24,0,.48,0,.71,0l2.38-7.36H315A26.13,26.13,0,0,0,303.38,257.36Z"/><path class="cls-1" d="M298.29,306.19s9.93-13.79,14.67-29.42c2.17-7.15,3.21-14.7,1.79-21.46Z"/><path class="cls-1" d="M303.61,273.79c-5.3,15.43-5.33,32.41-5.33,32.41l16.46-50.88C309.62,260,306,266.71,303.61,273.79Z"/><polygon class="cls-1" points="309.97 278.35 384.17 51.7 384.17 43.5 307.55 277.56 309.97 278.35"/><polygon class="cls-1" points="307.55 277.56 384.17 43.5 384.17 35.31 305.12 276.78 307.55 277.56"/><path class="cls-1" d="M127.84,39.49c3.72,10.43,3.81,22,7.18,32.41,4.67-23.16,1.72-49.38-7.32-71.9h-22c1.89,2.31,3.71,4.71,5.52,7.19A123.49,123.49,0,0,1,127.84,39.49Z"/><path class="cls-1" d="M149.8,51.54c3.32-16.44,3.09-34.3-.2-51.54H135.22A159.85,159.85,0,0,1,142,16.3C146,27.65,146.14,40.23,149.8,51.54Z"/><path class="cls-1" d="M161.94,0h-6c1,6.08,1.95,12.17,3.81,17.92A122,122,0,0,0,161.94,0Z"/><path class="cls-1" d="M17.69,0h-4c-1,1.86-1.94,3.74-2.82,5.63A76.84,76.84,0,0,0,17.69,0Z"/><path class="cls-1" d="M84.89,20.49c6.27,5.22,11.25,11.4,16.17,18.14a123.56,123.56,0,0,1,16.61,32.3c3.72,10.44,3.81,22,7.18,32.41,5-24.64,1.31-52.76-9.13-76.18A88.71,88.71,0,0,0,96.66,0H89.23L83.06,19.09C83.67,19.53,84.29,20,84.89,20.49Z"/><path class="cls-1" d="M81.54,26.74l-.76-.59L74.16,46.58q.79.55,1.56,1.19c5.33,4.44,9.56,9.69,13.74,15.42a105,105,0,0,1,14.12,27.46c3.16,8.87,3.24,18.71,6.1,27.55,4.22-20.94,1.12-44.84-7.76-64.75C97.58,43.68,90.07,33.31,81.54,26.74Z"/><path class="cls-1" d="M72.48,54.19l-.63-.48L66.44,70.46q.65.45,1.28,1A68.48,68.48,0,0,1,79,84.08,86.16,86.16,0,0,1,90.56,106.6c2.59,7.27,2.66,15.34,5,22.59,3.46-17.17.91-36.77-6.36-53.1C85.64,68.09,79.48,59.57,72.48,54.19Z"/><path class="cls-1" d="M64.93,77.06l-.5-.39L60.07,90.16c.35.24.69.5,1,.79a55.07,55.07,0,0,1,9.07,10.18,69.32,69.32,0,0,1,9.32,18.12c2.09,5.86,2.14,12.35,4,18.18,2.79-13.82.74-29.6-5.12-42.74A47.89,47.89,0,0,0,64.93,77.06Z"/><path class="cls-1" d="M58.85,95.33,58.49,95l-3.17,9.81q.38.27.75.57a40.1,40.1,0,0,1,6.6,7.4A50.44,50.44,0,0,1,69.44,126c1.52,4.26,1.55,9,2.93,13.22a53,53,0,0,0-3.72-31.08A34.84,34.84,0,0,0,58.85,95.33Z"/><path class="cls-1" d="M53.62,111.15l-.27-.21L51,118.3c.19.13.38.27.56.43a30.1,30.1,0,0,1,4.95,5.55,37.9,37.9,0,0,1,5.08,9.89c1.14,3.19,1.17,6.73,2.2,9.92A39.75,39.75,0,0,0,61,120.77,26.12,26.12,0,0,0,53.62,111.15Z"/><path class="cls-1" d="M35,9.45A143.68,143.68,0,0,1,50.6,0H31.37A121.32,121.32,0,0,0,10.17,31.51C19,25.05,25.84,15.73,35,9.45Z"/><path class="cls-1" d="M0,63C8.82,56.5,15.67,47.17,24.8,40.89A123.57,123.57,0,0,1,57.18,24.44c7.94-2.58,15.59-4.67,23.73-5.23.79-.06,1.55-.07,2.31-.06L89.41,0H66.2A88.38,88.38,0,0,0,52,6.56C29.83,19.43,10.41,40.08,0,63Z"/><path class="cls-1" d="M47.8,35.93C28.95,46.87,12.43,64.42,3.59,83.87c7.5-5.49,13.32-13.42,21.08-18.76a105,105,0,0,1,27.52-14c6.75-2.19,13.25-4,20.17-4.45.67,0,1.32-.06,2,0L80.93,26.2l-1,0C69.21,26.56,57,30.57,47.8,35.93Z"/><path class="cls-1" d="M44.85,61.74c-15.46,9-29,23.36-36.25,39.31,6.15-4.5,10.92-11,17.29-15.38A86.17,86.17,0,0,1,48.45,74.2,68.49,68.49,0,0,1,65,70.55c.55,0,1.08,0,1.61,0L72,53.76l-.79,0C62.41,54.05,52.43,57.34,44.85,61.74Z"/><path class="cls-1" d="M42.72,83.15C30.28,90.37,19.38,102,13.54,114.79c4.95-3.62,8.79-8.85,13.91-12.38a69.31,69.31,0,0,1,18.17-9.23,55,55,0,0,1,13.31-2.94q.66,0,1.29,0l4.36-13.48-.64,0A47.91,47.91,0,0,0,42.72,83.15Z"/><path class="cls-1" d="M42.74,99.77a53,53,0,0,0-21.22,23c3.6-2.64,6.39-6.44,10.12-9a50.46,50.46,0,0,1,13.21-6.72,40.16,40.16,0,0,1,9.68-2.13q.48,0,.94,0l3.17-9.8h-.46A34.85,34.85,0,0,0,42.74,99.77Z"/><path class="cls-1" d="M41.58,114.5a39.77,39.77,0,0,0-15.92,17.26c2.7-2,4.8-4.83,7.59-6.75a37.88,37.88,0,0,1,9.91-5,30.08,30.08,0,0,1,7.26-1.6c.24,0,.48,0,.71,0L53.5,111h-.35A26.13,26.13,0,0,0,41.58,114.5Z"/><path class="cls-1" d="M36.49,163.33s9.93-13.79,14.67-29.42c2.17-7.15,3.21-14.7,1.79-21.46Z"/><path class="cls-1" d="M41.82,130.92c-5.3,15.43-5.33,32.41-5.33,32.41l16.46-50.88C47.82,117.1,44.25,123.84,41.82,130.92Z"/><polygon class="cls-1" points="48.17 135.49 92.53 0 89.84 0 45.75 134.7 48.17 135.49"/><polygon class="cls-1" points="45.75 134.7 89.84 0 87.16 0 43.32 133.91 45.75 134.7"/><path class="cls-1" d="M298.68,36.18A120.87,120.87,0,0,0,305,0h-9.78c.24,1,.48,2.06.7,3.1C298.22,13.95,296.75,25.43,298.68,36.18Z"/><path class="cls-1" d="M284.37,66c7.07-20.36,8.19-44.1,3.83-66h-18a124.64,124.64,0,0,1,11.4,32.89C283.9,43.73,282.43,55.21,284.37,66Z"/><path class="cls-1" d="M243.19,4.28c4.68,5.12,8.16,10.89,11.54,17.13A105,105,0,0,1,265,50.52c1.94,9.22.69,19,2.33,28.12,7-20.18,7.15-44.28,1-65.21A75.57,75.57,0,0,0,262.95,0H243.19L241.8,2.9Q242.51,3.55,243.19,4.28Z"/><path class="cls-1" d="M239.11,10.21l-.55-.56-7.63,15.87q.58.53,1.14,1.14a68.51,68.51,0,0,1,9.46,14A86.16,86.16,0,0,1,250,64.57c1.59,7.56.56,15.56,1.91,23.06,5.75-16.55,5.87-36.31.86-53.47C250.27,25.75,245.32,16.49,239.11,10.21Z"/><path class="cls-1" d="M228.55,31.85l-.45-.45L222,44.17c.31.29.62.59.92.92a55.08,55.08,0,0,1,7.62,11.31,69.31,69.31,0,0,1,6.79,19.21c1.28,6.08.46,12.52,1.54,18.56,4.63-13.32,4.72-29.23.69-43A47.88,47.88,0,0,0,228.55,31.85Z"/><path class="cls-1" d="M220.06,49.13l-.33-.33-4.47,9.29c.23.21.45.43.66.67A40.11,40.11,0,0,1,221.47,67a50.44,50.44,0,0,1,4.94,14c.93,4.42.33,9.11,1.12,13.5a53,53,0,0,0,.5-31.3A34.83,34.83,0,0,0,220.06,49.13Z"/><path class="cls-1" d="M212.74,64.11l-.24-.25-3.35,7c.17.16.34.32.5.5a30.14,30.14,0,0,1,4.16,6.17A37.89,37.89,0,0,1,217.5,88c.7,3.32.25,6.83.84,10.12a39.74,39.74,0,0,0,.38-23.48A26.12,26.12,0,0,0,212.74,64.11Z"/><path class="cls-1" d="M179.48,0h-6.92a109.84,109.84,0,0,0-6.46,9.12A109,109,0,0,0,179.48,0Z"/><path class="cls-1" d="M166.84,30.33c8.17-4.43,15-11.5,23.42-15.74A105,105,0,0,1,219.42,4.44c7-1.26,13.67-2.15,20.59-1.69q1,.07,1.95.21l1.43-3H196.55A106.47,106.47,0,0,0,166.84,30.33Z"/><path class="cls-1" d="M210.71,14C194.18,20.77,178.82,33.2,169.49,48c6.7-3.63,12.31-9.43,19.2-12.91a86.18,86.18,0,0,1,23.91-8.32,68.51,68.51,0,0,1,16.88-1.38c.55,0,1.08.1,1.6.17l7.63-15.87-.79-.08C229.14,8.71,218.81,10.63,210.71,14Z"/><path class="cls-1" d="M205.72,34.89c-13.3,5.48-25.67,15.49-33.18,27.42,5.39-2.92,9.91-7.59,15.45-10.39a69.33,69.33,0,0,1,19.25-6.7,55,55,0,0,1,13.59-1.11q.66,0,1.29.14l6.14-12.77-.63-.07A47.91,47.91,0,0,0,205.72,34.89Z"/><path class="cls-1" d="M203.5,51.36A53,53,0,0,0,179.37,71.3c3.92-2.13,7.21-5.52,11.24-7.56a50.46,50.46,0,0,1,14-4.87,40.18,40.18,0,0,1,9.88-.81c.32,0,.63.06.94.1l4.46-9.29-.46,0A34.84,34.84,0,0,0,203.5,51.36Z"/><path class="cls-1" d="M200.35,65.8a39.77,39.77,0,0,0-18.1,15c2.94-1.6,5.4-4.14,8.43-5.67a37.87,37.87,0,0,1,10.5-3.65,30.11,30.11,0,0,1,7.41-.61c.24,0,.47,0,.7.08l3.35-7-.34,0A26.13,26.13,0,0,0,200.35,65.8Z"/><path class="cls-1" d="M188.73,113.49s11.7-12.33,18.5-27.17c3.11-6.79,5.17-14.13,4.67-21Z"/><path class="cls-1" d="M198.38,82.1c-7.33,14.58-9.65,31.39-9.65,31.39L211.89,65.3C206.19,69.22,201.74,75.42,198.38,82.1Z"/><polygon class="cls-1" points="204.06 87.48 246.12 0 243.29 0 201.76 86.38 204.06 87.48"/><polygon class="cls-1" points="201.76 86.38 243.29 0 240.46 0 199.46 85.27 201.76 86.38"/></g></g></svg>