<svg xmlns="http://www.w3.org/2000/svg" viewBox="0 0 95.03 6.61"><defs><style>.cls-1{fill:#f1e0c6;}</style></defs><title>Asset 19</title><g id="Layer_2" data-name="Layer 2"><g id="content_page" data-name="content page"><path class="cls-1" d="M1,6.61a1,1,0,0,1,0-2c.59,0,1.12-.81,1.7-1.66,1-1.44,2-3,4.12-3S10,1.53,10.92,3c.57.86,1.11,1.66,1.7,1.66s1.12-.81,1.7-1.66c1-1.44,2-3,4.12-3s3.16,1.53,4.12,3c.57.86,1.11,1.66,1.7,1.66s1.12-.81,1.7-1.66c1-1.44,2-3,4.12-3s3.16,1.53,4.12,3c.57.86,1.11,1.66,1.7,1.66S37,3.83,37.58,3c1-1.44,2-3,4.12-3s3.16,1.53,4.12,3c.57.86,1.11,1.66,1.69,1.66s1.12-.81,1.7-1.66c1-1.44,2-3,4.12-3s3.16,1.53,4.12,3c.57.86,1.11,1.66,1.7,1.66S60.27,3.83,60.84,3c1-1.44,2-3,4.12-3s3.16,1.53,4.12,3c.57.86,1.11,1.66,1.7,1.66S71.9,3.83,72.47,3c1-1.44,2-3,4.12-3s3.16,1.53,4.12,3c.57.86,1.11,1.66,1.7,1.66S83.53,3.83,84.1,3c1-1.44,2-3,4.12-3s3.16,1.53,4.12,3c.57.86,1.11,1.66,1.7,1.66a1,1,0,0,1,0,2c-1.63,0-2.46-1.23-3.33-2.54C90,3.05,89.31,2,88.22,2s-1.81,1.08-2.49,2.09c-.87,1.31-1.7,2.54-3.33,2.54S80,5.37,79.08,4.07C78.4,3.05,77.68,2,76.59,2s-1.81,1.08-2.49,2.09c-.87,1.31-1.7,2.54-3.33,2.54s-2.46-1.23-3.33-2.54C66.77,3.05,66,2,65,2s-1.81,1.08-2.49,2.09c-.87,1.31-1.7,2.54-3.33,2.54s-2.46-1.23-3.33-2.54c-.68-1-1.4-2.09-2.49-2.09s-1.81,1.08-2.49,2.09c-.87,1.31-1.7,2.54-3.33,2.54s-2.46-1.23-3.33-2.54C43.51,3.05,42.79,2,41.7,2s-1.81,1.08-2.49,2.09c-.87,1.31-1.7,2.54-3.33,2.54s-2.46-1.23-3.33-2.54c-.68-1-1.4-2.09-2.49-2.09s-1.81,1.08-2.49,2.09c-.87,1.31-1.7,2.54-3.33,2.54s-2.46-1.23-3.33-2.54c-.68-1-1.4-2.09-2.49-2.09s-1.81,1.08-2.49,2.09c-.87,1.31-1.7,2.54-3.33,2.54S10.16,5.37,9.29,4.07C8.61,3.05,7.89,2,6.8,2S5,3.05,4.32,4.07C3.44,5.37,2.62,6.61,1,6.61Z"/></g></g></svg>