<svg xmlns="http://www.w3.org/2000/svg" viewBox="0 0 460 5.78"><defs><style>.cls-1{fill:#f1e0c6;}</style></defs><title>Asset 1</title><g id="Layer_2" data-name="Layer 2"><g id="content_page" data-name="content page"><path class="cls-1" d="M6.77.45c-1,.22-2,.57-2.93.84A15,15,0,0,0,2.11,2a4.55,4.55,0,0,0-1.85.9h0A.77.77,0,0,0,.21,4c.91.92,2.13.61,3.3.39,1.58-.29,3.22-.24,4.77-.57A1.82,1.82,0,0,0,9.69,2.15l0-.36A1.75,1.75,0,0,0,6.77.45Z"/><path class="cls-1" d="M21.87.87c-1.25.07-2.41.7-3.65.67s-2.29-.76-3.54-.32c-.77.27-1.09,1.55-.09,1.79a28.79,28.79,0,0,1,3.15,1.13,10.19,10.19,0,0,0,4,.12C23.85,4.13,24.05.74,21.87.87Z"/><path class="cls-1" d="M34.48.9c-.56.42-2.13-.17-2.8-.19-1.25,0-2.41.65-3.66.67a.76.76,0,0,0-.63,1.24c1.24,1.41,3.15.52,4.7,1.09C33.92,4.38,35.64,4.77,37,3S35.88-.17,34.48.9Z"/><path class="cls-1" d="M50.14,1.43C49,.86,48,1.17,46.77,1a6.8,6.8,0,0,0-1.83,0A15.28,15.28,0,0,1,42.1,1c-.7,0-1.13,1-.45,1.37a7.16,7.16,0,0,0,3.48.94c1.29.05,2.42.86,3.69,1.07a1.68,1.68,0,0,0,1.48-.75l.22-.28A1.35,1.35,0,0,0,50.14,1.43Z"/><path class="cls-1" d="M63.72,1.43a6.67,6.67,0,0,1-2.91.48c-1.42-.08-2.82.07-4.24,0-.46-.63-1.55-.16-1.63.59l0,.34a1,1,0,0,0,.69,1,38.09,38.09,0,0,0,5.51,1.26c1.56.36,3.49.39,4.3-1.26C65.93,2.79,65.23.92,63.72,1.43Z"/><path class="cls-1" d="M76.66,2.33A9.2,9.2,0,0,1,73,2.58,14.17,14.17,0,0,0,69.05,3a.91.91,0,0,0,.15,1.8,28.38,28.38,0,0,1,5.07.46,19.34,19.34,0,0,0,1.91.54,5.91,5.91,0,0,0,1.64-.23C80.19,5.09,79.06,1.4,76.66,2.33Z"/><path class="cls-1" d="M91.14.72c-1,.09-2,.3-3,.44a15,15,0,0,0-1.8.44,4.55,4.55,0,0,0-2,.65h0a.77.77,0,0,0-.22,1.1c.78,1,2,.88,3.22.83,1.6-.07,3.22.19,4.81.07a1.82,1.82,0,0,0,1.62-1.46l.07-.36A1.75,1.75,0,0,0,91.14.72Z"/><path class="cls-1" d="M106,.87c-1.25.07-2.41.7-3.65.67s-2.29-.76-3.54-.32c-.77.27-1.09,1.55-.09,1.79a28.79,28.79,0,0,1,3.15,1.13,10.19,10.19,0,0,0,4,.12C108,4.13,108.2.74,106,.87Z"/><path class="cls-1" d="M118.62.9c-.56.42-2.13-.17-2.8-.19-1.25,0-2.41.65-3.66.67a.76.76,0,0,0-.63,1.24c1.24,1.41,3.15.52,4.7,1.09,1.82.67,3.55,1.06,4.88-.67S120-.17,118.62.9Z"/><path class="cls-1" d="M134.29,1.43c-1.12-.57-2.15-.26-3.37-.44a6.8,6.8,0,0,0-1.83,0,15.28,15.28,0,0,1-2.84,0c-.7,0-1.13,1-.45,1.37a7.16,7.16,0,0,0,3.48.94c1.29.05,2.42.86,3.69,1.07a1.68,1.68,0,0,0,1.48-.75l.22-.28A1.35,1.35,0,0,0,134.29,1.43Z"/><path class="cls-1" d="M147.87,1.43a6.67,6.67,0,0,1-2.91.48c-1.42-.08-2.82.07-4.24,0-.46-.63-1.55-.16-1.63.59l0,.34a1,1,0,0,0,.69,1,38.09,38.09,0,0,0,5.51,1.26c1.56.36,3.49.39,4.3-1.26C150.08,2.79,149.38.92,147.87,1.43Z"/><path class="cls-1" d="M160.8,2.33a9.2,9.2,0,0,1-3.66.25A14.17,14.17,0,0,0,153.2,3a.91.91,0,0,0,.15,1.8,28.38,28.38,0,0,1,5.07.46,19.34,19.34,0,0,0,1.91.54A5.91,5.91,0,0,0,162,5.54C164.33,5.09,163.21,1.4,160.8,2.33Z"/><path class="cls-1" d="M175.54,1.79c-1-.1-2-.07-3-.12a15,15,0,0,0-1.85.11,4.55,4.55,0,0,0-2,.28h0a.77.77,0,0,0-.41,1c.58,1.16,1.83,1.24,3,1.4,1.59.22,3.14.78,4.71,1a1.82,1.82,0,0,0,1.86-1.14l.13-.34A1.75,1.75,0,0,0,175.54,1.79Z"/><path class="cls-1" d="M191.46.87c-1.25.07-2.41.7-3.65.67s-2.29-.76-3.54-.32c-.77.27-1.09,1.55-.09,1.79a28.79,28.79,0,0,1,3.15,1.13,10.19,10.19,0,0,0,4,.12C193.44,4.13,193.64.74,191.46.87Z"/><path class="cls-1" d="M204.07.9c-.56.42-2.13-.17-2.8-.19-1.25,0-2.41.65-3.66.67A.76.76,0,0,0,197,2.61c1.24,1.41,3.15.52,4.7,1.09,1.82.67,3.55,1.06,4.88-.67S205.47-.17,204.07.9Z"/><path class="cls-1" d="M219.73,1.43c-1.12-.57-2.15-.26-3.37-.44a6.8,6.8,0,0,0-1.83,0,15.28,15.28,0,0,1-2.84,0c-.7,0-1.13,1-.45,1.37a7.16,7.16,0,0,0,3.48.94c1.29.05,2.42.86,3.69,1.07a1.68,1.68,0,0,0,1.48-.75l.22-.28A1.35,1.35,0,0,0,219.73,1.43Z"/><path class="cls-1" d="M233.31,1.43a6.67,6.67,0,0,1-2.91.48c-1.42-.08-2.82.07-4.24,0-.46-.63-1.55-.16-1.63.59l0,.34a1,1,0,0,0,.69,1,38.09,38.09,0,0,0,5.51,1.26c1.56.36,3.49.39,4.3-1.26C235.52,2.79,234.82.92,233.31,1.43Z"/><path class="cls-1" d="M246.25,2.33a9.2,9.2,0,0,1-3.66.25,14.17,14.17,0,0,0-3.95.39.91.91,0,0,0,.15,1.8,28.38,28.38,0,0,1,5.07.46,19.34,19.34,0,0,0,1.91.54,5.91,5.91,0,0,0,1.64-.23C249.78,5.09,248.65,1.4,246.25,2.33Z"/><path class="cls-1" d="M260.73.72c-1,.09-2,.3-3,.44a15,15,0,0,0-1.8.44,4.55,4.55,0,0,0-2,.65h0a.77.77,0,0,0-.22,1.1c.78,1,2,.88,3.22.83,1.6-.07,3.22.19,4.81.07a1.82,1.82,0,0,0,1.62-1.46l.07-.36A1.75,1.75,0,0,0,260.73.72Z"/><path class="cls-1" d="M275.6.87c-1.25.07-2.41.7-3.65.67s-2.29-.76-3.54-.32c-.77.27-1.09,1.55-.09,1.79a28.79,28.79,0,0,1,3.15,1.13,10.19,10.19,0,0,0,4,.12C277.59,4.13,277.79.74,275.6.87Z"/><path class="cls-1" d="M288.21.9c-.56.42-2.13-.17-2.8-.19-1.25,0-2.41.65-3.66.67a.76.76,0,0,0-.63,1.24c1.24,1.41,3.15.52,4.7,1.09,1.82.67,3.55,1.06,4.88-.67S289.62-.17,288.21.9Z"/><path class="cls-1" d="M303.88,1.43c-1.12-.57-2.15-.26-3.37-.44a6.8,6.8,0,0,0-1.83,0,15.28,15.28,0,0,1-2.84,0c-.7,0-1.13,1-.45,1.37a7.16,7.16,0,0,0,3.48.94c1.29.05,2.42.86,3.69,1.07A1.68,1.68,0,0,0,304,3.58l.22-.28A1.35,1.35,0,0,0,303.88,1.43Z"/><path class="cls-1" d="M317.46,1.43a6.67,6.67,0,0,1-2.91.48c-1.42-.08-2.82.07-4.24,0-.46-.63-1.55-.16-1.63.59l0,.34a1,1,0,0,0,.69,1,38.09,38.09,0,0,0,5.51,1.26c1.56.36,3.49.39,4.3-1.26C319.67,2.79,319,.92,317.46,1.43Z"/><path class="cls-1" d="M330.39,2.33a9.2,9.2,0,0,1-3.66.25,14.17,14.17,0,0,0-3.95.39.91.91,0,0,0,.15,1.8,28.38,28.38,0,0,1,5.07.46,19.34,19.34,0,0,0,1.91.54,5.91,5.91,0,0,0,1.64-.23C333.92,5.09,332.8,1.4,330.39,2.33Z"/><path class="cls-1" d="M345,.84c-1,0-2,.19-3,.27a15,15,0,0,0-1.82.34,4.55,4.55,0,0,0-2,.54h0a.77.77,0,0,0-.28,1.08c.72,1.08,2,1,3.17,1,1.6,0,3.21.37,4.8.34a1.82,1.82,0,0,0,1.7-1.37l.09-.35A1.75,1.75,0,0,0,345,.84Z"/><path class="cls-1" d="M360.4.87c-1.25.07-2.41.7-3.65.67s-2.29-.76-3.54-.32c-.77.27-1.09,1.55-.09,1.79a28.79,28.79,0,0,1,3.15,1.13,10.19,10.19,0,0,0,4,.12C362.39,4.13,362.59.74,360.4.87Z"/><path class="cls-1" d="M373,.9c-.56.42-2.13-.17-2.8-.19-1.25,0-2.41.65-3.66.67a.76.76,0,0,0-.63,1.24c1.24,1.41,3.15.52,4.7,1.09,1.82.67,3.55,1.06,4.88-.67S374.42-.17,373,.9Z"/><path class="cls-1" d="M388.67,1.43c-1.12-.57-2.15-.26-3.37-.44a6.8,6.8,0,0,0-1.83,0,15.28,15.28,0,0,1-2.84,0c-.7,0-1.13,1-.45,1.37a7.16,7.16,0,0,0,3.48.94c1.29.05,2.42.86,3.69,1.07a1.68,1.68,0,0,0,1.48-.75l.22-.28A1.35,1.35,0,0,0,388.67,1.43Z"/><path class="cls-1" d="M402.26,1.43a6.67,6.67,0,0,1-2.91.48c-1.42-.08-2.82.07-4.24,0-.46-.63-1.55-.16-1.63.59l0,.34a1,1,0,0,0,.69,1,38.09,38.09,0,0,0,5.51,1.26c1.56.36,3.49.39,4.3-1.26C404.46,2.79,403.76.92,402.26,1.43Z"/><path class="cls-1" d="M415.19,2.33a9.2,9.2,0,0,1-3.66.25,14.17,14.17,0,0,0-3.95.39.91.91,0,0,0,.15,1.8,28.38,28.38,0,0,1,5.07.46,19.34,19.34,0,0,0,1.91.54,5.91,5.91,0,0,0,1.64-.23C418.72,5.09,417.6,1.4,415.19,2.33Z"/><path class="cls-1" d="M429.68.72c-1,.09-2,.3-3,.44a15,15,0,0,0-1.8.44,4.55,4.55,0,0,0-2,.65h0a.77.77,0,0,0-.22,1.1c.78,1,2,.88,3.22.83,1.6-.07,3.22.19,4.81.07a1.82,1.82,0,0,0,1.62-1.46l.07-.36A1.75,1.75,0,0,0,429.68.72Z"/><path class="cls-1" d="M444.55.87c-1.25.07-2.41.7-3.65.67s-2.29-.76-3.54-.32c-.77.27-1.09,1.55-.09,1.79a28.79,28.79,0,0,1,3.15,1.13,10.19,10.19,0,0,0,4,.12C446.53,4.13,446.73.74,444.55.87Z"/><path class="cls-1" d="M457.16.9c-.56.42-2.13-.17-2.8-.19-1.25,0-2.41.65-3.66.67a.76.76,0,0,0-.63,1.24c1.24,1.41,3.15.52,4.7,1.09,1.82.67,3.55,1.06,4.88-.67S458.56-.17,457.16.9Z"/></g></g></svg>