<svg xmlns="http://www.w3.org/2000/svg" viewBox="0 0 614.38 221.62"><defs><style>.cls-1,.cls-5{fill:#7dcfe6;}.cls-2,.cls-6{fill:#effbff;}.cls-3{fill:#ddf4ff;}.cls-4{fill:#a3ddec;}.cls-5,.cls-6{fill-rule:evenodd;}</style></defs><title>Asset 3</title><g id="Layer_2" data-name="Layer 2"><g id="vectores"><path class="cls-1" d="M318.45,151.88a13.83,13.83,0,0,0-7.34,2.6,3.24,3.24,0,0,1-3.68.14l-2.89-1.85a.93.93,0,0,0-1.42.78v9.9a.93.93,0,0,0,1.42.78l2.89-1.85a3.24,3.24,0,0,1,3.68.14,13.83,13.83,0,0,0,7.34,2.6,6.62,6.62,0,0,0,0-13.24Zm0,0"/><path class="cls-2" d="M287.78,151.88a13.83,13.83,0,0,0-7.34,2.6,3.24,3.24,0,0,1-3.68.14l-2.89-1.85a.93.93,0,0,0-1.42.78v9.9a.93.93,0,0,0,1.42.78l2.89-1.85a3.24,3.24,0,0,1,3.68.14,13.83,13.83,0,0,0,7.34,2.6,6.62,6.62,0,0,0,0-13.24Zm0,0"/><path class="cls-1" d="M304.68,173.84a13.83,13.83,0,0,0-7.34,2.6,3.25,3.25,0,0,1-3.68.14l-2.89-1.85a.93.93,0,0,0-1.42.78v9.9a.93.93,0,0,0,1.42.78l2.89-1.85a3.25,3.25,0,0,1,3.68.14,13.83,13.83,0,0,0,7.34,2.6,6.62,6.62,0,0,0,0-13.24Zm0,0"/><path class="cls-2" d="M302.76,129.93a13.83,13.83,0,0,0-7.34,2.6,3.25,3.25,0,0,1-3.68.14l-2.89-1.85a.93.93,0,0,0-1.42.78v9.9a.93.93,0,0,0,1.42.78l2.89-1.85a3.24,3.24,0,0,1,3.68.14,13.83,13.83,0,0,0,7.34,2.6,6.62,6.62,0,1,0,0-13.24Zm0,0"/><path class="cls-1" d="M272.09,129.93a13.84,13.84,0,0,0-7.34,2.6,3.24,3.24,0,0,1-3.68.14l-2.89-1.85a.93.93,0,0,0-1.42.78v9.9a.93.93,0,0,0,1.42.78l2.89-1.85a3.24,3.24,0,0,1,3.68.14,13.83,13.83,0,0,0,7.34,2.6,6.62,6.62,0,0,0,0-13.24Zm0,0"/><path class="cls-3" d="M274.38,136a1.41,1.41,0,1,1-1.41-1.41,1.41,1.41,0,0,1,1.41,1.41Zm0,0"/><path class="cls-1" d="M257.11,151.88a13.83,13.83,0,0,0-7.34,2.6,3.25,3.25,0,0,1-3.68.14l-2.89-1.85a.93.93,0,0,0-1.42.78v9.9a.93.93,0,0,0,1.42.78l2.89-1.85a3.24,3.24,0,0,1,3.68.14,13.83,13.83,0,0,0,7.34,2.6,6.62,6.62,0,1,0,0-13.24Zm0,0"/><path class="cls-2" d="M274,173.84a13.83,13.83,0,0,0-7.34,2.6,3.24,3.24,0,0,1-3.68.14l-2.89-1.85a.93.93,0,0,0-1.42.78v9.9a.93.93,0,0,0,1.42.78l2.89-1.85a3.24,3.24,0,0,1,3.68.14,13.83,13.83,0,0,0,7.34,2.6,6.62,6.62,0,0,0,0-13.24Zm0,0"/><path class="cls-4" d="M305.18,135.71a1.41,1.41,0,1,1-1.41-1.41,1.41,1.41,0,0,1,1.41,1.41Zm0,0"/><path class="cls-3" d="M320.92,157.28a1.41,1.41,0,1,1-1.41-1.41,1.41,1.41,0,0,1,1.41,1.41Zm0,0"/><path class="cls-4" d="M290.33,157.28a1.41,1.41,0,1,1-1.41-1.41,1.42,1.42,0,0,1,1.41,1.41Zm0,0"/><path class="cls-3" d="M259.91,157.28a1.41,1.41,0,1,1-1.41-1.41,1.41,1.41,0,0,1,1.41,1.41Zm0,0"/><path class="cls-4" d="M277.15,179.48a1.41,1.41,0,1,1-1.41-1.41,1.41,1.41,0,0,1,1.41,1.41Zm0,0"/><path class="cls-3" d="M307,179.48a1.41,1.41,0,1,1-1.41-1.41,1.41,1.41,0,0,1,1.41,1.41Zm0,0"/><path class="cls-5" d="M439.17,117.8c2.37,5.24,10.59,9.11,20.38,9.11s18-3.87,20.38-9.11c-4.61,3-12,5-20.38,5S443.78,120.82,439.17,117.8Z"/><path class="cls-6" d="M470.47,141.85c2.37,5.24,10.59,9.11,20.38,9.11s18-3.87,20.38-9.11c-4.61,3-12,5-20.38,5S475.08,144.86,470.47,141.85Z"/><path class="cls-5" d="M396.56,146.41c2.37,5.24,10.59,9.11,20.38,9.11s18-3.87,20.38-9.11c-4.61,3-12,5-20.38,5S401.18,149.42,396.56,146.41Z"/><path class="cls-6" d="M427.87,170.46c2.37,5.24,10.59,9.11,20.38,9.11s18-3.87,20.38-9.11c-4.61,3-12,5-20.38,5S432.48,173.47,427.87,170.46Z"/><path class="cls-5" d="M66.47,159.85C68.84,165.1,77.07,169,86.85,169s18-3.87,20.38-9.11c-4.61,3-12,5-20.38,5S71.08,162.86,66.47,159.85Z"/><path class="cls-6" d="M97.78,183.9c2.37,5.24,10.59,9.11,20.38,9.11s18-3.87,20.38-9.11c-4.61,3-12,5-20.38,5S102.39,186.91,97.78,183.9Z"/><path class="cls-5" d="M23.87,188.46c2.37,5.24,10.59,9.11,20.38,9.11s18-3.87,20.38-9.11c-4.61,3-12,5-20.38,5S28.48,191.47,23.87,188.46Z"/><path class="cls-6" d="M55.17,212.5c2.37,5.24,10.59,9.11,20.38,9.11s18-3.87,20.38-9.11c-4.61,3-12,5-20.38,5S59.78,215.52,55.17,212.5Z"/><path class="cls-1" d="M46.31.75C44.2-3.76,27.16,13.41,24.66,15.59A107.74,107.74,0,0,0,15.4,8.87C14.23,8,12.24,6.29,10.68,6.33c-3.17.08-1.32,3.33-.39,5.38,1.39,3.06,6.6,8.69,5.93,12.09-.4,2.05-3.89,3.93-5.35,5.06-2.62,2-5.15,3.9-7.57,6.15-1.46,1.36-4.7,3.56-2.6,5.92s9.17.65,11.8.11c3.8-.78,9-2.8,12.37-.22,2.62,2,4.44,5.91,5.74,8.9C32,53.06,33.12,58,36.64,59.87c4.8,2.57,3.27-4.44,2.83-7-.66-3.81-2-9.89-.23-13.52,2.26-4.57,10.5-3.09,14.83-3.95,1.6-.32,5.45-.7,5.95-2.71.6-2.43-2.83-3.81-4.4-4.42-3.55-1.39-13.29-2.43-13.06-7.12C42.82,15.84,51.07,4.34,46.31.75Z"/><path class="cls-1" d="M600.59,44.45c-2.11-4.52-19.15,12.65-21.64,14.84a107.74,107.74,0,0,0-9.27-6.73C568.51,51.73,566.53,50,565,50c-3.17.08-1.32,3.33-.39,5.38,1.39,3.06,6.6,8.69,5.93,12.09-.4,2.05-3.89,3.93-5.35,5.06-2.62,2-5.15,3.9-7.57,6.15-1.46,1.36-4.7,3.56-2.6,5.92s9.17.65,11.8.11c3.8-.78,9-2.8,12.37-.22,2.62,2,4.44,5.91,5.74,8.9,1.45,3.34,2.53,8.27,6.06,10.15,4.8,2.57,3.27-4.44,2.83-7-.66-3.81-2-9.89-.23-13.52,2.26-4.57,10.5-3.09,14.83-3.95,1.6-.32,5.45-.7,5.95-2.71.6-2.43-2.83-3.81-4.4-4.42-3.55-1.39-13.29-2.43-13.06-7.12C597.11,59.54,605.36,48,600.59,44.45Z"/></g></g></svg>