<svg xmlns="http://www.w3.org/2000/svg" viewBox="0 0 1080 186.11"><defs><style>.cls-1{fill:#27b3d9;}.cls-2{fill:#a3ddec;}</style></defs><title>Asset 5</title><g id="Layer_2" data-name="Layer 2"><g id="vectores"><g id="_Group_" data-name="&lt;Group&gt;"><path id="_Compound_Path_" data-name="&lt;Compound Path&gt;" class="cls-1" d="M153.16,69.84l0,0a13.79,13.79,0,0,0-2.13-8.6,1.81,1.81,0,0,1,1.28.4c-1.69-3.26-4.56-4-7.82-4.62a4.32,4.32,0,0,1,1.55-1,15,15,0,0,0-9.16-.39,18.83,18.83,0,0,0-5.52,2.54,36.92,36.92,0,0,1,6.52-4.5A16.35,16.35,0,0,1,149,51.91a10.42,10.42,0,0,0-14.84-1,25.61,25.61,0,0,1,1.73-2.31c-1.92.61-3.34,2.21-4.54,3.81a13.71,13.71,0,0,0-2.89,6,19.09,19.09,0,0,0-4.77-9.81c-.45-.48-1.16-1.3-1.83-1.29,0,.49,0,1,0,1.46a6.15,6.15,0,0,0-5.41-1.65c-1.49.23-4.66,1.19-5.22,2.78.09-.27,4.13.82,4.42.91A19.56,19.56,0,0,1,120.6,53a25.48,25.48,0,0,1,5.86,5.41c-2.36-2.56-5.8-4.8-9-4.68a10.24,10.24,0,0,0,.33,1.34c-.23-.83-4-1.33-4.71-1.41a7.86,7.86,0,0,0-4.79.77A6.24,6.24,0,0,1,109.67,56c-.24-.36-2.82,1-3.11,1.21A7.73,7.73,0,0,0,104,59.62,17,17,0,0,0,101.65,67a22.64,22.64,0,0,1,3-3.08,17,17,0,0,1,3.7-2.17c5.78-2.62,12.37-3.71,18.21-1.52a15.39,15.39,0,0,0-11,1.94,1.52,1.52,0,0,1,1.1.64,17.29,17.29,0,0,0-4.49,2.1,7.48,7.48,0,0,0-3,3.88l1.38-.69a10.44,10.44,0,0,0-1.22,6.93,9.79,9.79,0,0,0,3.48,6.05c-.47-2.56,1.33-5.68,2.39-7.93a32.19,32.19,0,0,1,2.61-4.79c2.44-3.49,6.18-5.86,10.1-7.52l.19.09c0,1.44.21,16-7.25,27.77-7.86,12.45-9.94,18.65-9.94,18.65l7.83,3s4.29-15.83,5.53-19.3,4.75-13.92,5.06-19.33c.24-4.28.39-9.45.44-11.42,5.29,2,9.19,8,10.48,13.17a58.68,58.68,0,0,1,1.47,8.72l.24-.29s0,0,0,0,.2,0,.27-.11a12.35,12.35,0,0,0,3.35-6.54,7.71,7.71,0,0,0-2.28-6.79l1,0a10.51,10.51,0,0,0-4.25-4.57l1.55-.13a15.29,15.29,0,0,0-7-3.61A27,27,0,0,1,143.12,62a20.88,20.88,0,0,1,9.62,8.24,1.38,1.38,0,0,0,.28.39A1.48,1.48,0,0,0,153.16,69.84Zm-25-8.95v0S128.12,60.9,128.12,60.89Z"/><path id="_Compound_Path_2" data-name="&lt;Compound Path&gt;" class="cls-1" d="M30.07,36.21a2.34,2.34,0,0,0,.52-.61A35.25,35.25,0,0,1,47.84,23a45.53,45.53,0,0,1,14.61-2.07,25.81,25.81,0,0,0-12.31,5.17l2.59.41A17.74,17.74,0,0,0,45,33.61l1.68.18A13,13,0,0,0,42,44.93a20.84,20.84,0,0,0,4.8,11.43c.11.14.28.29.44.23s0,0,0,0l.36.52a99.08,99.08,0,0,1,3.58-14.49C54,34,61.32,24.43,70.48,21.76c-.17,3.32-.58,12-.71,19.27-.17,9.14,4.41,27.19,6,33.17s6.85,33.19,6.85,33.19l13.56-4s-2.71-10.7-14.35-32.66C70.83,49.85,73,25.45,73.23,23l.33-.12c6.39,3.3,12.38,7.78,16,14a54.33,54.33,0,0,1,3.77,8.4c1.5,3.92,4.13,9.4,3,13.66,3.31-2,5.68-6,6.62-9.75a17.62,17.62,0,0,0-1.16-11.82l2.23,1.35a12.63,12.63,0,0,0-4.5-6.9,29.19,29.19,0,0,0-7.28-4.11,2.56,2.56,0,0,1,1.94-.93A26,26,0,0,0,76,22.08c10.11-2.94,21.05-.25,30.45,4.89a28.75,28.75,0,0,1,6,4.12,38.22,38.22,0,0,1,4.6,5.56,28.75,28.75,0,0,0-3-12.78,13,13,0,0,0-4-4.43c-.47-.35-4.64-3-5.09-2.44a10.53,10.53,0,0,1,2.52-2.33,13.26,13.26,0,0,0-8-1.91c-1.25,0-7.63.41-8.11,1.77a17.28,17.28,0,0,0,.73-2.21c-5.38-.62-11.46,2.71-15.76,6.72A43,43,0,0,1,86.89,10.7a33,33,0,0,1,8.5-3.11c.49-.11,7.42-1.43,7.55-1C102.2,3.86,97,1.85,94.51,1.27A10.38,10.38,0,0,0,85.2,3.36c.09-.82.19-1.64.25-2.46C84.33.81,83,2.1,82.2,2.85a32.22,32.22,0,0,0-9.28,15.91c-.25-3.69-2.07-7.29-4.1-10.48-1.83-2.86-4-5.74-7.16-7a43.25,43.25,0,0,1,2.62,4.11,17.58,17.58,0,0,0-25.1-.23c6.43-1.06,13.06,1,18.6,4.45A62.33,62.33,0,0,1,68.18,18a31.78,31.78,0,0,0-9-5,25.39,25.39,0,0,0-15.47-.52,7.29,7.29,0,0,1,2.49,1.85c-5.57.62-10.5,1.51-13.76,6.78a3,3,0,0,1,2.21-.5A23.27,23.27,0,0,0,30,34.84l0,0A2.5,2.5,0,0,0,30.07,36.21ZM73.23,23v0S73.24,23,73.23,23Z"/><path id="_Path_" data-name="&lt;Path&gt;" class="cls-1" d="M65.5,112.73s15.79-12.9,31.08-13.45c17.41-.63,32.18,15.85,32.18,15.85S112.59,115.87,65.5,112.73Z"/></g><path class="cls-1" d="M0,94.45s184.88,19.64,246.05,22.29c78,3.38,199.7-22.65,277.72-24.09,52.47-1,276.21,23.61,287.38,24.09C841.35,118,900.7,101,930.91,100.28c37.42-.85,149.09,13.6,149.09,13.6v43.2H.09Z"/><path class="cls-2" d="M0,98.77s184.88,19.64,246.05,22.29c78,3.38,199.7-22.65,277.72-24.09,52.47-1,276.21,23.61,287.38,24.09,30.19,1.29,89.54-15.77,119.76-16.45,37.42-.85,149.09,13.6,149.09,13.6v67.91H.09Z"/><g id="_Group_2" data-name="&lt;Group&gt;"><path id="_Compound_Path_3" data-name="&lt;Compound Path&gt;" class="cls-2" d="M150.93,71l0,0a13.79,13.79,0,0,0-2.13-8.6,1.81,1.81,0,0,1,1.28.4c-1.69-3.26-4.56-4-7.82-4.62a4.32,4.32,0,0,1,1.55-1,15,15,0,0,0-9.16-.39,18.83,18.83,0,0,0-5.52,2.54,36.92,36.92,0,0,1,6.52-4.5A16.35,16.35,0,0,1,146.81,53,10.42,10.42,0,0,0,132,52a25.61,25.61,0,0,1,1.73-2.31c-1.92.61-3.34,2.21-4.54,3.81a13.71,13.71,0,0,0-2.89,6,19.09,19.09,0,0,0-4.77-9.81c-.45-.48-1.16-1.3-1.83-1.29,0,.49,0,1,0,1.46a6.15,6.15,0,0,0-5.41-1.65c-1.49.23-4.66,1.19-5.22,2.78.09-.27,4.13.82,4.42.91a19.56,19.56,0,0,1,4.88,2.22,25.48,25.48,0,0,1,5.86,5.41c-2.36-2.56-5.8-4.8-9-4.68a10.24,10.24,0,0,0,.33,1.34c-.23-.83-4-1.33-4.71-1.41a7.86,7.86,0,0,0-4.79.77,6.24,6.24,0,0,1,1.38,1.49c-.24-.36-2.82,1-3.11,1.21a7.73,7.73,0,0,0-2.55,2.44,17,17,0,0,0-2.36,7.41,22.64,22.64,0,0,1,3-3.08,17,17,0,0,1,3.7-2.17c5.78-2.62,12.37-3.71,18.21-1.52a15.39,15.39,0,0,0-11,1.94,1.52,1.52,0,0,1,1.1.64,17.29,17.29,0,0,0-4.49,2.1,7.48,7.48,0,0,0-3,3.88l1.38-.69a10.44,10.44,0,0,0-1.22,6.93,9.79,9.79,0,0,0,3.48,6.05c-.47-2.56,1.33-5.68,2.39-7.93a32.19,32.19,0,0,1,2.61-4.79C118,66,121.78,63.65,125.7,62l.19.09c0,1.44.21,16-7.25,27.77-7.86,12.45-9.94,18.65-9.94,18.65l7.83,3s4.29-15.83,5.53-19.3,4.75-13.92,5.06-19.33c.24-4.28.39-9.45.44-11.42,5.29,2,9.19,8,10.48,13.17a58.68,58.68,0,0,1,1.47,8.72l.24-.29s0,0,0,0,.2,0,.27-.11a12.35,12.35,0,0,0,3.35-6.54,7.71,7.71,0,0,0-2.28-6.79l1,0A10.51,10.51,0,0,0,137.85,65l1.55-.13a15.29,15.29,0,0,0-7-3.61,27,27,0,0,1,8.54,1.88,20.88,20.88,0,0,1,9.62,8.24,1.38,1.38,0,0,0,.28.39A1.48,1.48,0,0,0,150.93,71Zm-25-8.95v0S125.89,62,125.89,62Z"/><path id="_Compound_Path_4" data-name="&lt;Compound Path&gt;" class="cls-2" d="M27.84,37.33a2.34,2.34,0,0,0,.52-.61A35.25,35.25,0,0,1,45.61,24.08,45.53,45.53,0,0,1,60.22,22,25.81,25.81,0,0,0,47.9,27.18l2.59.41a17.74,17.74,0,0,0-7.74,7.15l1.68.18a13,13,0,0,0-4.71,11.14,20.84,20.84,0,0,0,4.8,11.43c.11.14.28.29.44.23s0,0,0,0l.36.52a99.08,99.08,0,0,1,3.58-14.49c2.83-8.58,10.16-18.16,19.32-20.83-.17,3.32-.58,12-.71,19.27-.17,9.14,4.41,27.19,6,33.17s6.85,33.19,6.85,33.19l13.56-4s-2.71-10.7-14.35-32.66C68.6,51,70.75,26.57,71,24.15l.33-.12c6.39,3.3,12.38,7.78,16,14a54.33,54.33,0,0,1,3.77,8.4c1.5,3.92,4.13,9.4,3,13.66,3.31-2,14-6,14.92-9.75,1-3.92-7.71-8.17-9.45-11.82l2.23,1.35a12.63,12.63,0,0,0-4.5-6.9,29.19,29.19,0,0,0-7.28-4.11A2.56,2.56,0,0,1,92,27.88a26,26,0,0,0-18.23-4.67c10.11-2.94,21.05-.25,30.45,4.89a28.75,28.75,0,0,1,6,4.12,38.22,38.22,0,0,1,4.6,5.56,28.75,28.75,0,0,0-3-12.78,13,13,0,0,0-4-4.43c-.47-.35-4.64-3-5.09-2.44a10.53,10.53,0,0,1,2.52-2.33,13.26,13.26,0,0,0-8-1.91c-1.25,0-7.63.41-8.11,1.77a17.28,17.28,0,0,0,.73-2.21c-5.38-.62-11.46,2.71-15.76,6.72a43,43,0,0,1,10.56-8.35,33,33,0,0,1,8.5-3.11c.49-.11,7.42-1.43,7.55-1C100,5,94.77,3,92.28,2.39A10.38,10.38,0,0,0,83,4.49c.09-.82.19-1.64.25-2.46C82.1,1.93,80.79,3.22,80,4a32.22,32.22,0,0,0-9.28,15.91c-.25-3.69-2.07-7.29-4.1-10.48-1.83-2.86-4-5.74-7.16-7a43.25,43.25,0,0,1,2.62,4.11A17.58,17.58,0,0,0,37,6.28c6.43-1.06,13.06,1,18.6,4.45a62.33,62.33,0,0,1,10.39,8.4,31.78,31.78,0,0,0-9-5,25.39,25.39,0,0,0-15.47-.52A7.29,7.29,0,0,1,44,15.48c-5.57.62-10.5,1.51-13.76,6.78a3,3,0,0,1,2.21-.5A23.27,23.27,0,0,0,27.75,36l0,0A2.5,2.5,0,0,0,27.84,37.33ZM71,24.1v0S71,24.09,71,24.1Z"/><path id="_Path_2" data-name="&lt;Path&gt;" class="cls-2" d="M63.27,113.85S79.06,101,94.35,100.4c17.41-.63,32.18,15.85,32.18,15.85S110.36,117,63.27,113.85Z"/></g></g></g></svg>