<svg xmlns="http://www.w3.org/2000/svg" viewBox="0 0 1016.74 413.38"><defs><style>.cls-1{fill:#ecbe63;}.cls-2{fill:#fff;}.cls-3{fill:#a3ddec;}</style></defs><title>Asset 1</title><g id="Layer_2" data-name="Layer 2"><g id="vectores"><path class="cls-1" d="M123.1,151.82a26.91,26.91,0,0,0,4.63-2.83,27.35,27.35,0,0,0,7.61-9.54c6.75-13.51,3.19-31.42-8.29-41.22C115.11,88,96.72,89,83.74,98c-5.3,3.66-9.81,8.8-11.73,15-2.27,7.35-1.7,15.35.27,22.78A32.88,32.88,0,0,0,76.06,145c4.07,6.42,11.35,10.4,18.86,11.61s15.24-.11,22.46-2.52A46.85,46.85,0,0,0,123.1,151.82Z"/><path class="cls-1" d="M94.06,87.09,87.6,64.53"/><path class="cls-1" d="M94.88,87.09c0-4.49-1.64-9.06-2.78-13.37-.87-3.3-1.12-7.85-4.15-9.81a.72.72,0,0,0-1,.26c-1.53,3.29.63,7.23,1.65,10.51,1.32,4.27,2.32,9,4.72,12.83a.83.83,0,0,0,1.54-.42Z"/><path class="cls-1" d="M102.6,87l-1.11-10.27"/><path class="cls-1" d="M103.23,87.2a19.88,19.88,0,0,0,.15-6.1c-.12-1.65,0-3.72-1.39-4.85a.73.73,0,0,0-1.13.15c-1.08,1.41-.52,3.45-.29,5.09A19.74,19.74,0,0,0,102,87.36a.66.66,0,0,0,1.2-.16Z"/><path class="cls-1" d="M110.29,88.74q1.09-13.06,3.35-26l.41.92"/><path class="cls-1" d="M111,88.94c1.84-8.4,3.65-17.59,4.07-26.18l-1.82,1.39.63.12a.63.63,0,0,0,.69-.28l.31-.5c1.08-1.75-2-3.16-2.63-1.11-2.43,8.11-3.07,18-2.71,26.37,0,.81,1.28,1.06,1.47.2Z"/><path class="cls-1" d="M120.83,90.19l5.56-13a.7.7,0,0,1,.11.7"/><path class="cls-1" d="M121.06,90.43a22.22,22.22,0,0,0,3.86-6,29.26,29.26,0,0,0,2.9-6.87l-1.44,1.1a2.17,2.17,0,0,0,.4-.05c2.55-.63,0-4.65-1.69-2.2a29.28,29.28,0,0,0-3,6.85,22.18,22.18,0,0,0-1.64,6.91.34.34,0,0,0,.57.24Z"/><path class="cls-1" d="M128.56,95.32q4.67-7.82,10.09-15.15"/><path class="cls-1" d="M129.1,95.86c2-2.62,4.09-5.19,6-7.91,1.65-2.35,4.08-4.81,4.31-7.78a.77.77,0,0,0-1-.74c-2.56,1-4,3.73-5.46,6a69.56,69.56,0,0,0-5.08,9.54c-.32.72.62,1.67,1.2.93Z"/><path class="cls-1" d="M137,102.34q10-6.95,19.35-14.87"/><path class="cls-1" d="M137.44,103.12a73.64,73.64,0,0,0,12-7.78c2.8-2.12,6.46-4.22,7.64-7.66.21-.6-.41-1-.94-.94-3.57.6-6.64,4.1-9.38,6.3-3.51,2.82-7.15,5.55-10.4,8.67-.77.74.21,1.85,1.09,1.42Z"/><path class="cls-1" d="M142.31,110.86q9.14-4.27,18.51-8c.54-.22,3.34-1.59,3.25-1"/><path class="cls-1" d="M142.6,111.9c5.17-2.09,10.39-4.06,15.58-6.1a35,35,0,0,0,4.29-1.81c.42-.23,2.61-1.4,1.45-1.56.42.06,1-.27.77-.77-1.64-4.43-20.49,7-22.92,8.26-1.06.56-.32,2.45.84,2Z"/><path class="cls-1" d="M144.46,120a42.53,42.53,0,0,1,11.14-3.19"/><path class="cls-1" d="M144.77,121.15a67.78,67.78,0,0,1,6.77-1.89c1.72-.39,3.68-.49,4.72-2.05a.78.78,0,0,0-.12-.94c-1.58-1.27-3.64-.63-5.46-.12a35.31,35.31,0,0,0-6.83,2.83,1.2,1.2,0,0,0,.92,2.18Z"/><path class="cls-1" d="M144,132.68a157.12,157.12,0,0,1,21.91,2.11"/><path class="cls-1" d="M143.69,133.86c3.75.58,7.55.88,11.32,1.32,3.62.43,7.62,1.65,11.09.23a.65.65,0,0,0,.28-1.07c-2.48-2.15-5.66-2.29-8.84-2.6a71.86,71.86,0,0,0-13.52-.27c-1.26.11-1.79,2.18-.32,2.4Z"/><path class="cls-1" d="M140.07,138.27l9.59,3.62"/><path class="cls-1" d="M139.6,139.07c2,.91,3.91,1.89,5.9,2.78,1.39.63,3.19,1.78,4.59.78a.9.9,0,0,0,.39-1c-.38-1.67-2.42-2-3.86-2.47-2.09-.66-4.21-1.2-6.31-1.82-1-.3-1.69,1.25-.72,1.7Z"/><path class="cls-1" d="M136.74,147.49a186.45,186.45,0,0,1,19.39,12"/><path class="cls-1" d="M136.13,148.54c3.86,2.35,7.63,4.87,11.36,7.43,2.49,1.71,5.66,5.23,8.85,4.32a.8.8,0,0,0,.58-.77c-.24-3.34-4.34-4.87-6.94-6.42-4.1-2.45-8.34-4.58-12.64-6.64a1.21,1.21,0,0,0-1.22,2.08Z"/><path class="cls-1" d="M122.26,160.6a116.79,116.79,0,0,1,13.22,20"/><path class="cls-1" d="M121.36,161.12c2.37,3.49,4.63,7.07,6.79,10.69,2,3.34,3.68,7,6.14,10,1.09,1.33,3.26-.11,2.81-1.64-2.24-7.64-8.71-14.69-14.11-20.33-.8-.83-2.31.27-1.63,1.26Z"/><path class="cls-1" d="M112.94,161.73c1.2,2.27,2.65,9.72,2.69,12.28"/><path class="cls-1" d="M112,162.28c1.67,3.79.77,8.49,3.07,12.06a.65.65,0,0,0,1.11,0c2-3.64-.51-9.83-2.3-13.15-.68-1.26-2.42-.15-1.87,1.09Z"/><path class="cls-1" d="M102.52,164.27A171.3,171.3,0,0,1,104,190"/><path class="cls-1" d="M101.42,164.27c.09,4.61.31,9.21.56,13.81.21,4,.06,8.24,1.43,12.07a.68.68,0,0,0,1.3,0c2.91-7.66.76-18.42-1.12-26.17a1.1,1.1,0,0,0-2.16.29Z"/><path class="cls-1" d="M76.29,151.88l-12.55,17.9"/><path class="cls-1" d="M75.48,151.07c-2.58,3.08-5,6.17-7.35,9.45-2,2.8-4.57,5.77-5,9.26-.07.52.59.75,1,.55,2.91-1.5,4.83-4.89,6.66-7.51,2.35-3.38,4.5-6.8,6.56-10.36.63-1.09-.94-2.41-1.8-1.39Z"/><path class="cls-1" d="M67,135.85A161.64,161.64,0,0,0,43,139"/><path class="cls-1" d="M67,134.74c-7.23,0-18-.45-24.3,3.63-.45.29-.46,1.15.16,1.26,3.28.58,6.51-.18,9.79-.66,4.78-.69,9.56-1.4,14.35-2,1.38-.17,1.48-2.22,0-2.23Z"/><path class="cls-1" d="M65.32,115.1q-12.94-3.7-26.08-6.64"/><path class="cls-1" d="M65.58,114.14a134.36,134.36,0,0,0-13.74-4.42c-4.08-1.08-8.36-2.66-12.61-2.37a1.11,1.11,0,0,0-.56,2c3.7,2.09,8.16,2.59,12.26,3.58,4.69,1.13,9.37,2.18,14.11,3.07a1,1,0,0,0,.53-1.92Z"/><path class="cls-1" d="M71.88,99.09,52.34,81.4"/><path class="cls-1" d="M72.65,98.32c-3.63-3.69-7.2-7.39-11-10.91-2.7-2.51-5.5-6.35-9.32-6.82-.55-.07-.88.57-.78,1,.83,3.78,5.36,6.42,8.13,8.86,3.71,3.26,7.58,6.29,11.42,9.38,1.06.86,2.54-.51,1.53-1.53Z"/><path class="cls-1" d="M79.69,94.67A14.33,14.33,0,0,0,75.1,89"/><path class="cls-1" d="M80.63,94.41a14.24,14.24,0,0,0-.6-2.08,11.55,11.55,0,0,0-1.14-1.88C78.1,89.39,76.82,88,75.39,88a1.23,1.23,0,0,0-1.17,1.53c.22,1.12,1.43,2,2.19,2.83a22.15,22.15,0,0,1,2.43,2.8,1,1,0,0,0,1.79-.75Z"/><path class="cls-1" d="M86.4,89.89a116,116,0,0,0-6.9-14.81"/><path class="cls-1" d="M87.08,89.89c.1-3-1.58-6.09-2.79-8.78-1.08-2.39-2-5.65-4.6-6.71a.7.7,0,0,0-.86.49c-.47,2.55,1.5,5,2.61,7.25,1.35,2.7,2.36,6,4.49,8.22a.68.68,0,0,0,1.15-.48Z"/><path class="cls-1" d="M67.72,107.54a53.11,53.11,0,0,0-14.27-7.78"/><path class="cls-1" d="M68.16,107.09a33.74,33.74,0,0,0-7.05-5.33c-2.28-1.28-5-2.85-7.66-2.53a.53.53,0,0,0-.37.89c1.73,1.9,4.48,2.71,6.73,3.86,2.56,1.3,5.09,2.68,7.59,4.1a.63.63,0,0,0,.76-1Z"/><path class="cls-1" d="M63.74,125.4A88.08,88.08,0,0,0,49,124.82"/><path class="cls-1" d="M64.07,124.83c-2.27-1.37-5.12-1.44-7.71-1.58s-5.5-.4-7.73,1a.65.65,0,0,0,0,1.11c2.16,1.14,4.77.91,7.16,1,2.68.06,5.54.52,8.13-.3a.67.67,0,0,0,.16-1.2Z"/><path class="cls-1" d="M68.71,144.33a109.13,109.13,0,0,0-11.47,6"/><path class="cls-1" d="M68.71,143.64a16.8,16.8,0,0,0-6.61,2.18c-1.89,1-4.62,2.1-5.52,4.15a.78.78,0,0,0,.66,1.15c2.09.17,4.28-1.43,6.06-2.39a23.47,23.47,0,0,0,5.9-3.91.7.7,0,0,0-.49-1.17Z"/><path class="cls-1" d="M84.9,159.73A214.38,214.38,0,0,0,74.68,182"/><path class="cls-1" d="M84.37,159.2c-3.06,3.53-5,7.94-7,12.13-1.54,3.21-4.23,7.18-3.31,10.82a.71.71,0,0,0,1,.42c3.12-2.14,4.06-7,5.54-10.27,1.81-4,4.07-8,5-12.36.15-.68-.73-1.33-1.25-.73Z"/><path class="cls-1" d="M130.57,155.27l5.42,6.34"/><path class="cls-1" d="M129.92,155.27a7,7,0,0,0,1.82,3.52c.92,1.2,1.88,2.38,2.89,3.5,1.29,1.44,3.27-.64,2.09-2.09-.93-1.14-1.91-2.24-2.92-3.31a6.8,6.8,0,0,0-3.05-2.25.66.66,0,0,0-.83.63Z"/><path class="cls-1" d="M93.12,163.61a76.12,76.12,0,0,1-2,9.59"/><path class="cls-1" d="M92.58,163.3c-1.36,2.67-2,6-2.62,8.86a1.43,1.43,0,0,0,.64,1.57,1.19,1.19,0,0,0,.7.19,1.43,1.43,0,0,0,1.34-1c.86-2.9,1.62-6.43,1.08-9.45a.63.63,0,0,0-1.14-.15Z"/><path class="cls-2" d="M57.45,192.35a25.79,25.79,0,0,1,8.36,1.35,19.18,19.18,0,0,1,10.55-2.93c7.12,0,13.08,3.35,14.68,7.86,3.56.73,6.41,2.56,7.71,4.9.43,0,.86,0,1.3,0,6.57,0,11.9,3.62,11.9,8.1s-5.33,8.11-11.9,8.11a16.47,16.47,0,0,1-5.66-1c-1.44,3.37-6,5.83-11.43,5.83a15.06,15.06,0,0,1-8.46-2.4,15.06,15.06,0,0,1-8.46,2.4,15.32,15.32,0,0,1-8.14-2.19A14.87,14.87,0,0,1,49.11,225a15.13,15.13,0,0,1-8.36-2.33,20.58,20.58,0,0,1-3.06.22c-7.84,0-14.19-4.32-14.19-9.66s6.35-9.65,14.19-9.65c.43,0,.85,0,1.27,0C40,197.28,47.86,192.35,57.45,192.35Z"/><path class="cls-2" d="M19,144.32a14.48,14.48,0,0,1,4.67.75,10.75,10.75,0,0,1,5.9-1.64,11,11,0,0,1,5.54,1.41q3.24,7.11,5.81,14.57a8.63,8.63,0,0,1-1.27-.36c-.81,1.88-3.36,3.26-6.39,3.26A8.43,8.43,0,0,1,28.5,161a8.41,8.41,0,0,1-4.73,1.34,8.56,8.56,0,0,1-4.55-1.22,8.29,8.29,0,0,1-4.91,1.47,8.44,8.44,0,0,1-4.67-1.3,11.41,11.41,0,0,1-1.71.13C3.55,161.39,0,159,0,156s3.55-5.4,7.93-5.4l.71,0C9.2,147.08,13.61,144.32,19,144.32Z"/><path class="cls-2" d="M207,137.33a25.79,25.79,0,0,1,8.36,1.35,19.18,19.18,0,0,1,10.55-2.93c7.12,0,13.08,3.35,14.68,7.86,3.56.73,6.41,2.56,7.71,4.9.43,0,.86,0,1.3,0,6.57,0,11.9,3.62,11.9,8.1s-5.33,8.11-11.9,8.11a16.47,16.47,0,0,1-5.66-1c-1.44,3.37-6,5.83-11.43,5.83a15.06,15.06,0,0,1-8.46-2.4,15.06,15.06,0,0,1-8.46,2.4,15.32,15.32,0,0,1-8.14-2.19,14.87,14.87,0,0,1-8.79,2.64,15.13,15.13,0,0,1-8.36-2.33,20.58,20.58,0,0,1-3.06.22c-7.84,0-14.19-4.32-14.19-9.66s6.35-9.65,14.19-9.65c.43,0,.85,0,1.27,0C189.56,142.26,197.44,137.33,207,137.33Z"/></g><g id="palm_trees" data-name="palm trees"><path class="cls-3" d="M989.11,144.69l-1.21-.93L977.4,176.2c.83.58,1.66,1.21,2.47,1.89,8.46,7,15.18,15.39,21.83,24.49a152.69,152.69,0,0,1,15,25.56V177.7C1009.72,165.23,999.93,153,989.11,144.69Z"/><path class="cls-3" d="M1005.17,104.53l-1.32-1-11.41,35.28c.91.63,1.8,1.32,2.69,2.05,8.3,6.92,15.06,15,21.61,23.76V115.13A98.72,98.72,0,0,0,1005.17,104.53Z"/><path class="cls-3" d="M1005.87,93.41c.91.63,1.8,1.32,2.69,2.05a102.52,102.52,0,0,1,8.18,7.66V59.81Z"/><path class="cls-3" d="M943.25,118.38c-32.72,18.6-61.51,48.65-77.08,82.1,13-9.37,23.21-23,36.69-32.06,15.18-10.25,30.36-18.26,47.74-23.73,11.68-3.68,22.94-6.65,34.9-7.37,1.15-.07,2.28-.09,3.39-.06l11.72-35.18-1.66,0C980.37,102.52,959.3,109.26,943.25,118.38Z"/><path class="cls-3" d="M959.34,73.86c-32.72,18.6-61.51,48.65-77.08,82.1,13-9.37,23.21-23,36.69-32.06,15.18-10.25,30.36-18.26,47.74-23.73,11.68-3.68,22.94-6.65,34.9-7.37,1.15-.07,2.28-.09,3.38-.06l11.73-35.18-1.66,0C996.45,58,975.38,64.74,959.34,73.86Z"/><path class="cls-3" d="M893.52,113.44c13-9.37,23.21-23,36.69-32.06C945.39,71.13,960.57,63.12,978,57.64c11.68-3.68,22.94-6.65,34.9-7.37,1.15-.07,2.28-.09,3.38-.06l.51-1.52V15.81A130.19,130.19,0,0,0,970.6,31.34C937.88,49.94,909.09,80,893.52,113.44Z"/><path class="cls-3" d="M961.88,0c-22.78,17.9-42,41.18-53.76,66.4,13-9.37,23.21-23,36.69-32.06C960,24.09,975.16,16.07,992.55,10.6a178.08,178.08,0,0,1,24.19-6.12V0Z"/><path class="cls-3" d="M1007.76,229.56c-6.91-15.5-18.84-32-32.39-42.41l-1.21-.94-10.5,32.45c.83.58,1.66,1.21,2.47,1.89,8.47,7,15.18,15.39,21.83,24.49,9.89,13.54,16.77,27.75,22.42,43.61,3.39,9.52,4.55,19.75,6.35,29.71V254.94A174.11,174.11,0,0,0,1007.76,229.56Z"/><path class="cls-3" d="M961.61,229l-1-.79-8.92,27.59q1.06.74,2.11,1.61c7.19,6,12.9,13.08,18.55,20.82,8.41,11.51,14.25,23.59,19.06,37.07,4.27,12,4.37,25.26,8.24,37.19,5.7-28.27,1.51-60.54-10.47-87.42C983.27,251.86,973.13,237.84,961.61,229Z"/><path class="cls-3" d="M949.39,266l-.85-.65L941.23,288q.87.61,1.73,1.32c5.9,4.91,10.58,10.73,15.22,17.07a116.33,116.33,0,0,1,15.63,30.4c3.5,9.82,3.59,20.71,6.75,30.5,4.68-23.19,1.24-49.65-8.59-71.69C967.15,284.8,958.83,273.31,949.39,266Z"/><path class="cls-3" d="M939.2,296.92l-.68-.52-5.89,18.2c.47.33.93.68,1.39,1.06a74.35,74.35,0,0,1,12.25,13.74,93.6,93.6,0,0,1,12.58,24.47c2.82,7.91,2.89,16.67,5.44,24.55,3.76-18.66,1-40-6.91-57.7C953.49,312,946.8,302.77,939.2,296.92Z"/><path class="cls-3" d="M931,321.58l-.5-.38-4.28,13.24q.51.36,1,.77a54.15,54.15,0,0,1,8.91,10,68.1,68.1,0,0,1,9.15,17.8c2.05,5.75,2.1,12.12,4,17.85,2.74-13.57.72-29.06-5-42A47,47,0,0,0,931,321.58Z"/><path class="cls-3" d="M923.92,342.95l-.37-.29-3.21,9.93c.25.18.51.37.76.58a40.63,40.63,0,0,1,6.68,7.49A51.17,51.17,0,0,1,934.64,374c1.54,4.31,1.58,9.09,3,13.39a53.67,53.67,0,0,0-3.77-31.47A35.27,35.27,0,0,0,923.92,342.95Z"/><path class="cls-3" d="M935.49,159.28c-29.94,17.38-56.18,45.25-70.22,76.14,11.91-8.72,21.16-21.31,33.48-29.79,13.88-9.54,27.77-17,43.72-22.22,10.72-3.48,21-6.3,32-7.06,1.06-.07,2.1-.1,3.11-.08l10.5-32.45-1.53,0C969.49,144.39,950.16,150.76,935.49,159.28Z"/><path class="cls-3" d="M921.75,201.73c-29.94,17.38-56.17,45.25-70.22,76.14,11.91-8.72,21.16-21.31,33.48-29.79,13.88-9.55,27.77-17,43.72-22.21,10.72-3.48,21-6.31,32-7.06,1.06-.07,2.1-.1,3.12-.08l10.5-32.45-1.53,0C955.76,186.84,936.43,193.22,921.75,201.73Z"/><path class="cls-3" d="M916.07,241.39c-25.45,14.77-47.75,38.47-59.69,64.73,10.12-7.41,18-18.12,28.46-25.32,11.79-8.11,23.61-14.48,37.16-18.88,9.11-3,17.89-5.36,27.23-6,.9-.06,1.78-.08,2.65-.07l8.92-27.58-1.3,0C945,228.74,928.54,234.15,916.07,241.39Z"/><path class="cls-3" d="M912.08,276.23c-20.87,12.11-39.16,31.54-48.95,53.07,8.3-6.08,14.75-14.86,23.34-20.77a116.34,116.34,0,0,1,30.47-15.49c7.47-2.42,14.67-4.39,22.33-4.92.74-.05,1.46-.07,2.17-.06l7.32-22.62-1.07,0C935.79,265.85,922.31,270.3,912.08,276.23Z"/><path class="cls-3" d="M909.21,305.13c-16.8,9.75-31.52,25.39-39.39,42.72,6.68-4.89,11.87-12,18.78-16.71a93.58,93.58,0,0,1,24.53-12.46,74.3,74.3,0,0,1,18-4q.89-.06,1.75,0l5.89-18.2-.86,0C928.29,296.78,917.44,300.36,909.21,305.13Z"/><path class="cls-3" d="M909.24,327.57C897,334.66,886.32,346,880.59,358.64c4.86-3.56,8.63-8.7,13.66-12.16a68.12,68.12,0,0,1,17.84-9.07,54.23,54.23,0,0,1,13.07-2.88c.43,0,.85,0,1.27,0l4.28-13.24-.62,0A47,47,0,0,0,909.24,327.57Z"/><path class="cls-3" d="M907.66,347.46a53.69,53.69,0,0,0-21.49,23.3c3.64-2.67,6.48-6.52,10.25-9.12a51.14,51.14,0,0,1,13.38-6.8,40.62,40.62,0,0,1,9.8-2.16c.32,0,.64,0,1,0l3.21-9.93-.47,0A35.28,35.28,0,0,0,907.66,347.46Z"/><path class="cls-3" d="M900.79,413.38s13.41-18.62,19.8-39.71c2.93-9.65,4.34-19.84,2.42-29Z"/><path class="cls-3" d="M908,369.63c-7.16,20.84-7.19,43.75-7.19,43.75L923,344.7C916.09,351,911.27,360.08,908,369.63Z"/><polygon class="cls-3" points="916.57 375.8 1016.74 69.81 1016.74 58.73 913.29 374.73 916.57 375.8"/><polygon class="cls-3" points="913.29 374.73 1016.74 58.73 1016.74 47.66 910.02 373.68 913.29 374.73"/><path class="cls-3" d="M670.68,53.31c5,14.09,5.15,29.71,9.69,43.75C686.67,65.8,682.69,30.4,670.49,0H640.81c2.55,3.11,5,6.36,7.45,9.7C658.15,23.24,665,37.45,670.68,53.31Z"/><path class="cls-3" d="M700.33,69.58c4.48-22.2,4.17-46.31-.27-69.58H680.64a215.82,215.82,0,0,1,9.15,22C695.25,37.33,695.39,54.31,700.33,69.58Z"/><path class="cls-3" d="M716.72,0h-8.1c1.36,8.21,2.63,16.43,5.14,24.19A164.67,164.67,0,0,0,716.72,0Z"/><path class="cls-3" d="M522,0h-5.44c-1.34,2.51-2.62,5-3.8,7.6A103.74,103.74,0,0,0,522,0Z"/><path class="cls-3" d="M612.69,27.67c8.47,7,15.18,15.39,21.83,24.49,9.89,13.54,16.77,27.75,22.42,43.61,5,14.09,5.15,29.71,9.69,43.76,6.71-33.27,1.77-71.22-12.32-102.84A119.77,119.77,0,0,0,628.58,0h-10l-8.34,25.78C611,26.36,611.88,27,612.69,27.67Z"/><path class="cls-3" d="M608.16,36.1l-1-.8-8.92,27.59q1.06.74,2.11,1.61c7.19,6,12.9,13.08,18.55,20.82,8.41,11.51,14.25,23.59,19.06,37.07,4.27,12,4.37,25.26,8.24,37.19,5.7-28.27,1.51-60.54-10.47-87.42C629.82,59,619.68,45,608.16,36.1Z"/><path class="cls-3" d="M595.94,73.16l-.84-.65-7.32,22.62q.87.61,1.73,1.32c5.9,4.91,10.58,10.73,15.22,17.07a116.32,116.32,0,0,1,15.63,30.4c3.5,9.82,3.59,20.71,6.75,30.5,4.68-23.19,1.24-49.65-8.59-71.69C613.7,91.92,605.38,80.43,595.94,73.16Z"/><path class="cls-3" d="M585.75,104l-.68-.52-5.89,18.2c.47.33.93.68,1.39,1.06a74.34,74.34,0,0,1,12.25,13.74A93.59,93.59,0,0,1,605.39,161c2.82,7.91,2.89,16.67,5.44,24.55,3.76-18.66,1-40-6.91-57.7C600,119.14,593.35,109.89,585.75,104Z"/><path class="cls-3" d="M577.54,128.7l-.5-.38-4.28,13.24q.51.36,1,.77a54.14,54.14,0,0,1,8.91,10,68.1,68.1,0,0,1,9.15,17.8c2.05,5.75,2.1,12.12,4,17.85,2.74-13.57.72-29.06-5-42A47,47,0,0,0,577.54,128.7Z"/><path class="cls-3" d="M570.47,150.07l-.37-.29-3.21,9.93c.25.18.51.37.76.58a40.63,40.63,0,0,1,6.68,7.49,51.17,51.17,0,0,1,6.86,13.35c1.54,4.31,1.58,9.09,3,13.39A53.67,53.67,0,0,0,580.38,163,35.27,35.27,0,0,0,570.47,150.07Z"/><path class="cls-3" d="M545.3,12.75A194,194,0,0,1,566.4,0h-26a163.79,163.79,0,0,0-28.61,42.54C523.72,33.82,533,21.23,545.3,12.75Z"/><path class="cls-3" d="M498.08,85c11.91-8.72,21.16-21.31,33.48-29.79,13.88-9.55,27.77-17,43.72-22.21,10.72-3.48,21-6.31,32-7.06,1.06-.07,2.09-.1,3.12-.08L618.79,0H587.46A119.31,119.31,0,0,0,568.3,8.85C538.36,26.23,512.13,54.1,498.08,85Z"/><path class="cls-3" d="M562.62,48.51C537.16,63.28,514.86,87,502.93,113.24c10.12-7.41,18-18.12,28.46-25.32C543.18,79.8,555,73.43,568.55,69c9.11-3,17.89-5.36,27.23-6,.9-.06,1.78-.08,2.65-.07l8.92-27.58-1.3,0C591.52,35.86,575.09,41.27,562.62,48.51Z"/><path class="cls-3" d="M558.63,83.35c-20.87,12.11-39.16,31.54-48.95,53.07,8.3-6.08,14.75-14.86,23.34-20.77a116.34,116.34,0,0,1,30.47-15.49c7.47-2.42,14.67-4.39,22.33-4.92.74-.05,1.46-.07,2.17-.06l7.32-22.62-1.07,0C582.34,73,568.86,77.42,558.63,83.35Z"/><path class="cls-3" d="M555.76,112.25C539,122,524.24,137.64,516.37,155c6.68-4.89,11.87-12,18.78-16.71a93.58,93.58,0,0,1,24.53-12.46,74.29,74.29,0,0,1,18-4q.89-.06,1.75,0l5.89-18.2-.86,0C574.84,103.9,564,107.48,555.76,112.25Z"/><path class="cls-3" d="M555.79,134.69c-12.22,7.09-22.92,18.46-28.65,31.07,4.86-3.56,8.63-8.7,13.66-12.16a68.13,68.13,0,0,1,17.84-9.07,54.22,54.22,0,0,1,13.07-2.88q.65,0,1.27,0l4.28-13.24-.62,0A47,47,0,0,0,555.79,134.69Z"/><path class="cls-3" d="M554.21,154.58a53.69,53.69,0,0,0-21.49,23.3c3.64-2.67,6.48-6.52,10.25-9.12a51.14,51.14,0,0,1,13.38-6.8,40.61,40.61,0,0,1,9.8-2.16c.32,0,.64,0,1,0l3.21-9.93-.47,0A35.28,35.28,0,0,0,554.21,154.58Z"/><path class="cls-3" d="M547.34,220.5s13.41-18.62,19.8-39.71c2.93-9.65,4.34-19.84,2.42-29Z"/><path class="cls-3" d="M554.54,176.75c-7.16,20.84-7.19,43.75-7.19,43.75l22.22-68.69C562.64,158.1,557.82,167.2,554.54,176.75Z"/><polygon class="cls-3" points="563.12 182.91 623 0 619.38 0 559.84 181.85 563.12 182.91"/><polygon class="cls-3" points="559.84 181.85 619.38 0 615.75 0 556.57 180.79 559.84 181.85"/><path class="cls-3" d="M901.33,48.85A163.18,163.18,0,0,0,909.9,0H896.69c.32,1.39.64,2.78.94,4.19C900.7,18.83,898.72,34.33,901.33,48.85Z"/><path class="cls-3" d="M882,89.07c9.55-27.49,11.05-59.54,5.18-89.07H862.9c7.41,14.16,12.08,28.6,15.4,44.4C881.38,59,879.39,74.54,882,89.07Z"/><path class="cls-3" d="M826.4,5.78c6.32,6.91,11,14.7,15.58,23.13,6.78,12.53,10.94,25.29,13.89,39.3,2.61,12.44.93,25.62,3.15,38,9.46-27.25,9.66-59.79,1.41-88A102,102,0,0,0,853.09,0H826.41l-1.88,3.91Q825.49,4.79,826.4,5.78Z"/><path class="cls-3" d="M820.9,13.78l-.75-.76-10.3,21.43q.78.72,1.53,1.54c5.18,5.67,9,12.06,12.78,19a116.32,116.32,0,0,1,11.39,32.23c2.15,10.2.76,21,2.58,31.13,7.76-22.34,7.92-49,1.16-72.19C836,34.77,829.28,22.26,820.9,13.78Z"/><path class="cls-3" d="M806.64,43l-.6-.61-8.29,17.24c.42.39.83.8,1.24,1.24a74.36,74.36,0,0,1,10.28,15.26,93.58,93.58,0,0,1,9.17,25.94c1.73,8.21.61,16.91,2.08,25.06,6.25-18,6.37-39.46.93-58.11C818.77,59.89,813.38,49.83,806.64,43Z"/><path class="cls-3" d="M795.18,66.33l-.44-.44-6,12.54c.3.28.6.58.9.9a54.15,54.15,0,0,1,7.48,11.1,68.1,68.1,0,0,1,6.67,18.87c1.26,6,.45,12.29,1.51,18.22,4.54-13.08,4.64-28.7.68-42.26A47,47,0,0,0,795.18,66.33Z"/><path class="cls-3" d="M785.3,86.55l-.33-.33-4.52,9.41c.23.21.45.43.67.67a40.69,40.69,0,0,1,5.61,8.33,51.15,51.15,0,0,1,5,14.15c.94,4.48.33,9.22,1.13,13.67a53.66,53.66,0,0,0,.51-31.69A35.27,35.27,0,0,0,785.3,86.55Z"/><path class="cls-3" d="M740.4,0h-9.34a148.29,148.29,0,0,0-8.72,12.32C728.69,8.87,734.53,4.43,740.4,0Z"/><path class="cls-3" d="M723.33,40.95c11-6,20.26-15.53,31.62-21.25C767.73,13.24,780.29,8.53,794.31,6c9.43-1.7,18.45-2.9,27.79-2.28q1.35.09,2.63.29l1.93-4H763.44C747.37,11,733.27,25.17,723.33,40.95Z"/><path class="cls-3" d="M782.56,18.85c-22.31,9.18-43.05,26-55.66,46,9-4.91,16.62-12.73,25.92-17.43a116.36,116.36,0,0,1,32.28-11.24c7.73-1.39,15.13-2.37,22.79-1.87.74.05,1.46.13,2.16.24l10.3-21.43L819.3,13C807.45,11.76,793.5,14.35,782.56,18.85Z"/><path class="cls-3" d="M775.82,47.1c-18,7.39-34.65,20.91-44.79,37,7.28-3.95,13.37-10.24,20.86-14a93.6,93.6,0,0,1,26-9,74.31,74.31,0,0,1,18.34-1.5q.89.06,1.74.19l8.29-17.24-.85-.09C795.85,41.4,784.62,43.48,775.82,47.1Z"/><path class="cls-3" d="M772.82,69.34c-13.06,5.38-25.2,15.21-32.58,26.92,5.29-2.87,9.73-7.45,15.18-10.2a68.13,68.13,0,0,1,18.9-6.58,54.25,54.25,0,0,1,13.34-1.09c.43,0,.85.08,1.26.14l6-12.54-.62-.06A47,47,0,0,0,772.82,69.34Z"/><path class="cls-3" d="M768.58,88.83A53.7,53.7,0,0,0,744.14,109c4-2.15,7.3-5.59,11.38-7.65a51.13,51.13,0,0,1,14.17-4.93,40.64,40.64,0,0,1,10-.82c.32,0,.64.06.95.11l4.52-9.41-.47,0A35.28,35.28,0,0,0,768.58,88.83Z"/><path class="cls-3" d="M752.88,153.23s15.79-16.64,25-36.68c4.2-9.17,7-19.07,6.3-28.38Z"/><path class="cls-3" d="M765.91,110.84c-9.9,19.68-13,42.38-13,42.38l31.28-65.06C776.46,93.45,770.45,101.82,765.91,110.84Z"/><polygon class="cls-3" points="773.58 118.11 830.36 0 826.54 0 770.48 116.62 773.58 118.11"/><polygon class="cls-3" points="770.48 116.62 826.54 0 822.72 0 767.38 115.12 770.48 116.62"/></g></g></svg>