<svg xmlns="http://www.w3.org/2000/svg" xmlns:xlink="http://www.w3.org/1999/xlink" viewBox="0 0 448.92 121.85"><defs><style>.cls-1,.cls-3{fill:#006780;stroke:#006780;}.cls-1{stroke-width:0.34px;}.cls-2{fill:url(#linear-gradient);}.cls-3{stroke-width:0.34px;}</style><linearGradient id="linear-gradient" x1="-22.26" y1="107.82" x2="426.83" y2="107.82" gradientTransform="matrix(1, 0.02, -0.02, 1, 24.86, -30.94)" gradientUnits="userSpaceOnUse"><stop offset="0" stop-color="#d61f26"/><stop offset="0.49" stop-color="#f7b611"/><stop offset="1" stop-color="#00afd6"/></linearGradient></defs><title>Asset 2</title><g id="Layer_2" data-name="Layer 2"><g id="header"><path class="cls-1" d="M165.11,106.53c0-1.26-.19-1.69-.7-1.77l-1.23-.16c-.48-.08-.61-.11-.61-.4s.07-.39.27-.38c1.81,0,3.66.15,5.47.2s3.66,0,5.48.07c.23,0,.39.11.42.24.05.45.29,2.79.28,3s-.07.23-.17.22h-.39c-.13,0-.19-.07-.29-.23L173,106.2c-.62-1-1.4-1.2-3.15-1.24-1.91,0-2.08,0-2.1,1l-.12,4.7c.61,0,1.16.09,1.72.11,1.52,0,1.79-.15,2-1.15.21-.81.35-.93.61-.93s.42,0,.41.27c0,.62-.17,1.58-.2,2.72,0,.74,0,1.39,0,2.08,0,.19-.14.26-.49.25s-.38-.17-.43-1.08-.78-1.15-1.82-1.18l-1.88,0-.13,5.22c0,.68.34.82,2.7.88,2,0,2.66-.06,3.6-1.27l1-1.24c0-.06.1-.1.23-.09h.32c.16,0,.22.1.22.2a2.21,2.21,0,0,1-.08.45l-.88,2.8c0,.16-.3.22-.62.21-.78,0-3-.14-4.92-.19-2.17-.05-4.38,0-6.55-.1-.19,0-.25-.23-.25-.4,0-.32.14-.35.53-.38l1.33-.1c.52-.05.76-.47.79-1.73Z"/><path class="cls-1" d="M188.75,113.17c-.09,3.5,1.24,4.86,3.74,4.92,3.24.08,4.51-2.81,4.67-9.19.07-2.92-.15-3.18-1.38-3.37l-.52-.08c-.16,0-.29,0-.28-.46s0-.39.33-.38c.78,0,1.65.1,2.56.13s1.78,0,2.56,0c.29,0,.32.1.32.36s0,.42-.17.42l-1,.11c-1.07.1-1.36,1.2-1.69,6.8-.22,3.66-1.93,7.25-6.5,7.13-3.69-.09-5.35-2.79-5.26-6.29l.15-6.29c0-1.33-.19-1.59-1-1.71l-1-.15c-.16,0-.29-.07-.28-.4,0-.16.07-.39.27-.38.42,0,1.75.11,3.4.15,1.88,0,3.21,0,3.63,0,.19,0,.25.23.25.39s-.14.35-.3.38l-1,.11c-1.07.1-1.3.32-1.34,1.72Z"/><path class="cls-1" d="M211.09,107.66c0-1.39-.25-1.72-.93-1.77l-1.33-.1c-.16,0-.29-.1-.28-.46,0-.16.07-.39.27-.38.42,0,1.75.11,3.66.15,1.36,0,2.69,0,4.05,0,3.11.08,4.76,1.58,4.7,3.84-.08,3.17-3.19,3.33-3.2,3.65a9.25,9.25,0,0,0,.5.89l2.7,4.93a1.3,1.3,0,0,0,1.21.71c.55,0,.78.08.77.34s0,.58-.21.58c-.75,0-1.46-.1-2.17-.12s-1.33,0-1.88,0c-.29,0-.45-.24-.82-1.09L216,114.26c-.4-.85-.63-1-1.31-1l-1.17,0-.1,3.92c0,1.39.28,1.69.8,1.77l1.1.16c.26,0,.39.07.38.4,0,.16-.07.39-.27.38-.42,0-1.75-.11-3.37-.15s-3,0-3.4,0c-.19,0-.25-.23-.25-.4,0-.32.14-.35.4-.38l1.1-.1c.49-.05.85-.34.89-1.73Zm2.51,4.63,1.56,0a3,3,0,0,0,3.25-2.9,3.06,3.06,0,0,0-3.06-3.35c-1.49,0-1.59,0-1.65,2.68Z"/><path class="cls-1" d="M239.28,105.43c4.6.11,7.52,2.84,7.39,7.83s-3.17,7.57-7.77,7.46-7.52-2.84-7.39-7.83S234.68,105.32,239.28,105.43Zm-.35,14.45c2.56.06,4.57-2.51,4.67-6.69s-1.78-6.85-4.34-6.91-4.57,2.51-4.67,6.69S236.36,119.82,238.92,119.88Z"/><path class="cls-1" d="M258.26,108.65c0-1.1-.19-1.5-.93-1.61l-1-.15c-.23,0-.39-.07-.38-.4,0-.16.07-.39.27-.38.42,0,1.75.11,3.4.15,1.26,0,2.56,0,3.76,0,3.37.08,4.87,2.39,4.82,4.49-.07,2.95-2.18,4.29-4.84,4.23a9.91,9.91,0,0,1-2.65-.42l-.09,3.76c0,1.39.35,1.69.93,1.77l1.33.1c.13,0,.29.1.28.46,0,.16-.07.39-.27.38-.42,0-1.75-.11-3.63-.15s-3.24,0-3.66,0c-.19,0-.25-.2-.25-.4s.14-.45.4-.44l1.23,0c.75,0,1-.46,1-1.73Zm3.89-1.43c-1.17,0-1.23,0-1.35,4.93,0,1.33,0,1.82,1.06,1.84a3.23,3.23,0,0,0,3.55-3.35A3.14,3.14,0,0,0,262.15,107.22Z"/><path class="cls-1" d="M279.74,109.34c0-1.26-.19-1.69-.7-1.77l-1.23-.16c-.48-.08-.61-.11-.61-.4s.07-.39.27-.38c1.81,0,3.66.15,5.47.2s3.66,0,5.48.07c.23,0,.39.11.42.24.05.45.29,2.79.28,3s-.07.23-.17.22h-.39c-.13,0-.19-.07-.29-.23l-.65-1.09c-.62-1-1.4-1.2-3.15-1.24-1.91,0-2.08,0-2.1,1l-.12,4.7c.61,0,1.16.09,1.72.11,1.52,0,1.79-.15,2-1.15.21-.81.35-.93.61-.93s.42,0,.41.27c0,.62-.17,1.58-.2,2.72,0,.74,0,1.39,0,2.08,0,.19-.14.26-.49.25s-.39-.17-.43-1.08-.78-1.15-1.82-1.18l-1.88,0-.13,5.22c0,.68.34.82,2.7.88,2,0,2.66-.06,3.6-1.27l1-1.24c0-.06.1-.1.23-.09h.32c.16,0,.22.1.22.2a2.18,2.18,0,0,1-.08.45l-.88,2.8c0,.16-.3.22-.62.21-.78,0-3-.14-4.92-.19-2.17-.05-4.38,0-6.55-.1-.19,0-.25-.23-.25-.4,0-.32.14-.35.53-.38l1.33-.1c.52-.05.76-.47.79-1.73Z"/><path class="cls-2" d="M412.48,84.51C300.18,81.76,64,75.71,36.54,74.82c-10.25-.3-17.7-.84-25.15-1h-.91c-1.85-.17-4.55-.43-8.38-.53C1,73.24,0,73.9,0,74.72s.73,1.63,2.16,1.66c.68,0,2.13,1.12,5.81,1.21a22.79,22.79,0,0,1,2.38.19,172.36,172.36,0,0,0,19.53,2.35,166,166,0,0,0,16.8-.49c4.21-.32,9.8-.18,18.65,0,15.84.39,46.18,1,78.8,1.77,147.25,3.61,304.75,7.83,304.79,6.24C448.95,86.28,445.09,85.31,412.48,84.51Z"/><path class="cls-3" d="M362.34,30.57c0-.49-.82-1.77-1.74-1.8-1.1,0-3.14,1.46-3.16,2.51,0,.62,0-.72-.09,1.09,0,.74.07,3.75,0,4.93-.05,2.1,0,7.56-.13,11.89-.48,19.56-.25,20.43,1.58,20.48,1.35,0,2-1.19,2.11-6.14.37-14.92,1-26.3,1.31-29.95C362.36,32.22,362.32,31.56,362.34,30.57Z"/><path class="cls-3" d="M52.92,40.94c-.67,0-5-.25-5.7-.21L48,21.38h0a2.27,2.27,0,0,0-2.17-2.13A2.1,2.1,0,0,0,43.55,21h0v.14s0,0,0,0L43.37,33c0,.17,0,.33,0,.5,0,.33,0,.66,0,1-.05,2.21-.17,4.48-.28,6.23l-16.29-.4c.18-2.86.78-24.9,1-31.6h0l.16-6.47h0a2.21,2.21,0,0,0-2.18-2,2.07,2.07,0,0,0-2.25,1.59h0V1.9s0,0,0,0l0,4.81s0,.06,0,.09a2.57,2.57,0,0,1-.05.3s0,0,0,0c0,2.71-.38,23.78-.59,33.49-3,.19-4.94.65-5,1.66,0,1.31.44,1.92,2.37,2l2.51.08c0,.19,0,.37,0,.52-.13,5.32-.62,10.25-.73,14.73,0,1,.21,1.63,1.13,1.65,1.78,0,2.78-.84,2.83-3l.27-11c.18-.84-.2-2.71.55-2.82,2.48-.37,11.85-.45,16.21-.85l-.54,39.79c0,1.88.37,2.22,1.54,2.25s2-2.35,2-3.85l1.22-37.43s.13-.26.62-.25,4.41.43,4.65.44c1,0,1.52-1.85,1.53-2.56S53.59,41,52.92,40.94Zm92.37-8.38c0-.49-.41-2-2.86-2.48,0,0-.25,0-.28,0a2.68,2.68,0,0,0-1.38,1,5.47,5.47,0,0,0-.57,1c-.84,3.24-10.06,17.34-12.21,22.61-5-11-6.92-17.77-6.89-19.2,0-.58-1.69-1.14-2.24-1.16s-.92.24-1.58,1.85c-1.63,4.05-9.64,15.68-11.55,18.62A246.88,246.88,0,0,1,97,31.24l-1.34-4.77,0-.08v0l-.17-.61-.69-2.42,0,0a1.31,1.31,0,0,0-1.22-.82,1.38,1.38,0,0,0-.85.26c-1.43.65-3.31,2-3.32,2.76,0,1.1,1.17,2.24,2.5,5.39a237.15,237.15,0,0,1,8.85,23.49L102,59.94l.19.85a1.38,1.38,0,0,0,.43.79l.12.11,0,0,0,0,.06,0a2.57,2.57,0,0,0,1.37.42,2,2,0,0,0,2.13-1.37l0,0c1.16-3.43,8-13.16,11.71-17.58,2.75,2.86,5.8,13.26,6.74,17.32a1.47,1.47,0,0,0,.24.51,2.11,2.11,0,0,0,2,1.17A2,2,0,0,0,129.17,61l0,0c.59-2.13,2.88-6.48,7.84-15C141.38,38.42,145.26,33.73,145.29,32.56Zm45.26-6.86-.36-.21a2.52,2.52,0,0,0-1.78-.61,2.63,2.63,0,0,0-2.55,2.7,2.07,2.07,0,0,0,0,.23v0a13.12,13.12,0,0,1-.08,1.65,9.12,9.12,0,0,1,0,1.83,9,9,0,0,1,0,1.26c0,1.87.09,3.81,0,7.66-.43,17.41-.3,29.46,1.54,29.51,1.35,0,2-1.05,2.1-5.46.33-13.28.91-31.76,1.23-35a2.27,2.27,0,0,1,.05-.64c0-.12.1-.58.1-.7A5.26,5.26,0,0,0,190.55,25.71Zm19.69,1.12c0-.49-.82-1.77-1.74-1.8-1.1,0-3.14,1.46-3.16,2.51,0,.62,0-.72-.09,1.09,0,.74.07,3.75,0,4.93-.05,2.1,0,7.56-.13,11.9-.48,19.56-.26,20.43,1.58,20.48,1.35,0,2-1.19,2.11-6.14.37-14.92,1-26.31,1.31-30C210.25,28.48,210.21,27.82,210.23,26.83Zm-8.38-11.48c-.49,0-6.17,10.25-6.19,11.24,0,.79,1.49,1.47,1.89,1.48s2.78-1.11,2.8-1.56-.08-.84-.07-1.18c0-1.08,2.82-8.51,2.83-9S202.14,15.36,201.85,15.35Zm-106.41,43-.63-1-.45-.59-3.93-4.57-.15-.05c-4.75-5.29-5.77-6.17-16.38-23l-.5-.82-.16-.16-3.11-4.92-.05,0A1.24,1.24,0,0,0,69,22.73a1.45,1.45,0,0,0-.32,0l-.06,0c-1.15.06-3.17,1.78-3.19,2.53s.9,1.34,1.87,2.46a4.15,4.15,0,0,1,.43,2c-.07,2.75-8.31,18.85-12.89,25.86-1.08,1.66-2.09,2.55-2.11,3.47s1.2,1.65,3.1,1.81l.23-.08a2.08,2.08,0,0,0,1.22-.94l.13-.22a3.72,3.72,0,0,1,.24-.36,2.9,2.9,0,0,1,.19-.55l3.23-6.58c1.23-2.5,2.47-3.31,5.6-3.23l16.23.4,6.95,9.81,1.73,2.13.67.58a2.23,2.23,0,0,0,.5.43l.12.11h.09a1.86,1.86,0,0,0,.76.19,2.38,2.38,0,0,0,2.23-2.5,2.82,2.82,0,0,0-.49-1.68ZM66.19,26a12,12,0,0,1,.86,1.27Zm5,19.57C65.34,45.39,65,45.3,65,44.46c0-.46.27-.91,1.37-3.18l4.26-8.62,9.32,12.47C79.31,45.42,77.59,45.69,71.16,45.53ZM181.93,59.44l-.63-.93-.45-.56-3.93-4.33-.15-.05c-4.76-5-5.77-5.86-16.41-21.79l-.5-.78-.16-.15-3.11-4.66-.05,0a1.26,1.26,0,0,0-1.07-.54,1.56,1.56,0,0,0-.32,0l-.06,0c-1.16.06-3.17,1.68-3.19,2.39s.91,1.27,1.87,2.33a3.76,3.76,0,0,1,.43,1.92c-.06,2.61-11.61,23.21-16.19,29.84-1.08,1.57-2.08,2.41-2.1,3.28s1.2,1.56,3.1,1.72l.23-.07a2.08,2.08,0,0,0,1.22-.89l.13-.21a3.2,3.2,0,0,1,.23-.34,2.74,2.74,0,0,1,.19-.52l6.55-11.59c1.22-2.36,2.47-3.13,5.59-3.05l16.24.4,7,9.31,1.73,2,.7.58a2.17,2.17,0,0,0,.41.34l.18.15h.11a1.94,1.94,0,0,0,.74.17,2.3,2.3,0,0,0,2.22-2.36,2.57,2.57,0,0,0-.49-1.57ZM152.63,28.67a11.51,11.51,0,0,1,.86,1.21Zm5,18.55c-5.82-.14-6.19-.22-6.17-1,0-.43.26-.86,1.36-3L157.07,35l9.33,11.83C165.78,47.13,164.06,47.38,157.63,47.22Z"/><path class="cls-3" d="M243.66,68.76c.12-1.15,1.43-24.07,1.64-32.73a105.2,105.2,0,0,0-.16-10.74l-7-.17c-.73,0-1.53.08-2.32.06-1,0-1.43-1.32-1.41-2.35A1.86,1.86,0,0,1,236.33,21c1.77.1,4.5.6,11.33.77,4.45.11,9-.27,13.42-.16.61,0,.91.33.89.88A4.27,4.27,0,0,1,259.17,25c-2.51.18-6.59.14-8.85.15-.91,4.68-2,35.58-2.16,41.56S243.54,69.91,243.66,68.76Z"/><path class="cls-3" d="M273.86,32c6.52.16,12,5.23,11.67,16.51-.26,10.79-7.72,16.46-15.22,16.28-6.16-.15-12.74-5.5-12.49-15.62C258,41.21,262.64,31.68,273.86,32ZM272,60.89c3.41.08,9.26-2,9.5-11.78.25-10-4.18-13.52-8.88-13.64-6.4-.16-10.21,5.79-10.38,12.8C262.16,51.19,263.88,60.69,272,60.89Z"/><path class="cls-3" d="M291.37,32.81a8.2,8.2,0,0,1,2.85-.85c.46,0,.79.51.76,1.54s-.28,3-.33,4.93c-.14,5.55-.24,22.26,11.06,22.54,12.66.31,11.41-18.27,11.52-23,.07-2.68.1-4.27,1.12-4.24a6,6,0,0,1,2.2,1.27,1.58,1.58,0,0,1,.68,1.6c0,1.58-.71,29-17.06,28.62-11.4-.28-14-23.28-13.81-30.66A1.91,1.91,0,0,1,291.37,32.81Z"/><path class="cls-3" d="M344.89,38.52c-.13,5.24-2.94,8.1-5.1,9l-4.38,1.85v.12a2.89,2.89,0,0,1,2,1c6.56,8.58,13.15,13.56,13.13,14.29a2,2,0,0,1-.83,1.57,5.56,5.56,0,0,1-2.4,1,2,2,0,0,1-1.75-1c-1.13-1.37-2.42-3.23-5.21-6.41l-6.41-7.29a3.16,3.16,0,0,0-2.66-1.16c-.09,1.28-.19,2.8-.24,4.81l-.24,9.94c0,.67-.28,1.27-1.19,1.25-1.1,0-3.46.22-3.1-2.7.12-1,1-12.24,1-15,.1-4.27,0-9.2-.07-12.14-.07-2.1-.69-3.76.34-4.4a19.23,19.23,0,0,1,9.79-3.16C342.59,30.23,345,33.89,344.89,38.52Zm-13.52,9c.11.37.54.5,1.09.51s7.88-3,8-8.77c.1-4-1.75-5.59-4-5.65a5.14,5.14,0,0,0-4.07,1.85,50.85,50.85,0,0,0-1,9.43Z"/><path class="cls-3" d="M369.94,64.82c1.16,0,2.59,1.22,4.85,1.28a3.66,3.66,0,0,0,3.75-3.51c.12-4.88-6.32-15.79-6.77-20.59s4.51-11.5,9.75-11.37c1.16,0,4.87.61,4.83,1.89,0,1.58-.41,1.94-2.67,1.95-5.37,0-7.63,2.68-7.71,6-.1,4.27,6.32,13.52,6.14,20.71,0,1.28-1.63,9.35-7.42,9.21-1.46,0-5-1.28-5.25-2.14a6.69,6.69,0,0,1-.37-2.21C369.08,65.1,369.57,64.81,369.94,64.82Z"/><path class="cls-3" d="M386.9,65.79c0,.49.41,2,2.86,2.48,0,0,.25,0,.28,0a2.68,2.68,0,0,0,1.38-1,5.42,5.42,0,0,0,.56-1c.84-3.24,10.06-17.34,12.21-22.61,5,11,6.92,17.77,6.88,19.2,0,.58,1.69,1.14,2.24,1.16s.92-.24,1.58-1.84c1.63-4.05,9.64-15.68,11.55-18.62a246.92,246.92,0,0,1,8.72,23.64l1.34,4.77,0,.08v0l.17.61.69,2.42,0,0a1.31,1.31,0,0,0,1.22.82,1.38,1.38,0,0,0,.85-.26c1.43-.65,3.31-2,3.32-2.76,0-1.1-1.17-2.24-2.5-5.39A237.13,237.13,0,0,1,431.48,44l-1.29-5.55-.19-.85a1.37,1.37,0,0,0-.43-.79l-.12-.11,0,0,0,0-.06,0a2.57,2.57,0,0,0-1.37-.42,2,2,0,0,0-2.13,1.37l0,0c-1.16,3.43-8,13.16-11.71,17.58-2.75-2.86-5.8-13.26-6.74-17.32a1.47,1.47,0,0,0-.24-.51,2.11,2.11,0,0,0-2-1.17A2,2,0,0,0,403,37.37l0,0c-.59,2.13-2.88,6.48-7.84,15C390.81,59.94,386.93,64.63,386.9,65.79Z"/></g></g></svg>