<svg id="Layer_1" data-name="Layer 1" xmlns="http://www.w3.org/2000/svg" viewBox="0 0 395.93 43.89"><defs><style>.cls-1,.cls-5{fill:#f28e00;}.cls-1,.cls-2,.cls-3,.cls-4{fill-rule:evenodd;}.cls-2{fill:#b0cb1c;}.cls-3,.cls-6{fill:#4fbeee;}.cls-4{fill:#e71e6e;}.cls-7{fill:#9d9d9c;}</style></defs><title>travelplanners_logo</title><path class="cls-1" d="M389.51,56.61a18,18,0,1,1-18,18,18,18,0,0,1,18-18Zm0,12.33a5.67,5.67,0,1,1-5.67,5.67,5.67,5.67,0,0,1,5.67-5.67Zm0-.71a6.38,6.38,0,1,1-6.38,6.38,6.38,6.38,0,0,1,6.38-6.38Zm0-9.11,1.69,7.72,4.68-6.36-1.6,7.74,6.87-3.91-4.61,6.42,7.86-.78-6.82,4,7.5,2.48-7.85.87,5.84,5.32-7.53-2.4,3.17,7.24-5.9-5.25,0,7.9-3.26-7.2-3.25,7.2,0-7.9-5.9,5.25,3.17-7.24L376,82.61l5.84-5.32-7.85-.87,7.5-2.48-6.82-4,7.86.78-4.61-6.42,6.86,3.91-1.6-7.74,4.68,6.36,1.69-7.72Z" transform="translate(-97.45 -51.92)"/><path class="cls-2" d="M346.64,56.91a18,18,0,1,1-18,18,18,18,0,0,1,18-18Zm3.9,6.49a4.78,4.78,0,0,1,4.61,1.53c1.74,1.73,2.21,4.11,1.1,5.4-.66-1.25-.86-2.41-1.94-3.48a5.64,5.64,0,0,0-3.18-1.66,6,6,0,0,1,2.24,1.44,6.22,6.22,0,0,1,1.23,1.72,5,5,0,0,0-3.36-1.22,7.59,7.59,0,0,1,2.46,1.65c2.6,2.58,2.94,6.46.76,8.65A4.92,4.92,0,0,1,352,78.76a4.8,4.8,0,0,0,.63-.53,5.16,5.16,0,0,0,1.42-4,4.76,4.76,0,0,1-1.45,3.18,3.56,3.56,0,0,1-3.37,1.29,4.83,4.83,0,0,0,.53-.46c2.41-2.43,1.73-5.78-.3-7.92A7.08,7.08,0,0,0,348,69.12a36.38,36.38,0,0,1,2.27-5.2l.28-.52Zm-4-2.77a5.07,5.07,0,0,1,3.64,2.57l-.39.34a19.78,19.78,0,0,0-3.87,4.76c-3.54-.7-6.9,1.12-7.54,4.11a4.67,4.67,0,0,0-.1.69,3.56,3.56,0,0,1-.77-3.53,4.76,4.76,0,0,1,1.87-3A5.16,5.16,0,0,0,336.79,70a4.86,4.86,0,0,0-.1.82,4.92,4.92,0,0,1-.24-2.81c.64-3,4.08-4.85,7.66-4.09a7.65,7.65,0,0,1,2.72,1.16A5,5,0,0,0,344,63a6.22,6.22,0,0,1,2.11.09,6,6,0,0,1,2.43,1.1,5.61,5.61,0,0,0-3.12-1.76c-1.49-.32-2.57.14-4,.27.47-1.63,2.71-2.54,5.12-2ZM350,63.78a20.53,20.53,0,0,0-4.45,5.82,11.13,11.13,0,0,0,1.66.93A38.31,38.31,0,0,1,350,63.78Zm-4.59,6.1A29.62,29.62,0,0,0,344,72.93,11.42,11.42,0,0,0,346.25,74q.38-1.66.85-3.22a11.62,11.62,0,0,1-1.71-1Zm-1.48,3.35a33.64,33.64,0,0,0-1,3.26,11.69,11.69,0,0,0,2.69,1.11c0-.17.05-.35.08-.52q.23-1.39.53-2.71a11.62,11.62,0,0,1-2.27-1.13Zm-1.1,3.57c-.14.57-.27,1.15-.39,1.74s-.2,1.1-.28,1.64a12,12,0,0,0,3,.9c.09-1,.21-2.11.37-3.18a12,12,0,0,1-2.72-1.1Zm-.72,3.7a33.94,33.94,0,0,0-.3,3.4,12.42,12.42,0,0,0,3.19.54q0-1.5.15-3.05a12.32,12.32,0,0,1-3-.89Zm-.31,3.72a29.5,29.5,0,0,0,.09,3.3,12.61,12.61,0,0,0,1.91.14c.43,0,.85,0,1.26-.06-.05-.93-.07-1.88-.06-2.85a12.66,12.66,0,0,1-3.2-.53Zm.12,3.61a13.36,13.36,0,0,0,.83,4.25l2.76.11a22.87,22.87,0,0,1-.42-4.28c-.42,0-.85.06-1.28.06a12.84,12.84,0,0,1-1.88-.14Z" transform="translate(-97.45 -51.92)"/><path class="cls-3" d="M475.37,57.27a18,18,0,1,1-18,18,18,18,0,0,1,18-18Zm-5.84,10.31H486.2a1.94,1.94,0,0,1,1.94,1.94V73.2H467.59V69.52a1.94,1.94,0,0,1,1.94-1.94Zm1.73,1.89a1.08,1.08,0,1,1-1.08,1.08,1.08,1.08,0,0,1,1.08-1.08Zm3.3,0a1.08,1.08,0,1,1-1.08,1.08,1.08,1.08,0,0,1,1.08-1.08Zm3.3,0a1.08,1.08,0,1,1-1.08,1.08,1.08,1.08,0,0,1,1.08-1.08Zm3.3,0a1.08,1.08,0,1,1-1.08,1.08,1.08,1.08,0,0,1,1.08-1.08Zm3.3,0a1.08,1.08,0,1,1-1.08,1.08,1.08,1.08,0,0,1,1.08-1.08Zm-5.76-6.56h3.11l-1.13,4h-3.11l1.13-4Zm-3.95,27.36c-2.73-.31-5.3-1.38-6.27-3.86a6,6,0,0,1,.61-5c-1.63.45-4.65,3.49-3.71,5.44,1.1,2.26,5.28,3.54,7.86,3.54a9.72,9.72,0,0,0,1.51-.12Zm-3.38-10.21a12.44,12.44,0,0,0-2.34.34c-2.33.55-5.8,4.25-4.53,6.88s5.76,4.1,8.74,4.1a10,10,0,0,0,3.46-.59l1.76-.66.74,1.72c.06.13.13.26.2.39.34-.08.67-.17,1-.27a2.84,2.84,0,0,1-.29-.51l-.57-1.33c.4-.06.78-.14,1.13-.23,3-.72,6.09-2.31,7.73-5.07a8.19,8.19,0,0,0,1.14-3.53,4.54,4.54,0,0,1,.22-1.1,5,5,0,0,1,2,.85c.12-.32.22-.65.31-1a9.71,9.71,0,0,0-1-.48,3.12,3.12,0,0,0-1.89-.31c-.5.23-.67,1.48-.71,1.93a7.21,7.21,0,0,1-1,3.11c-1.5,2.51-4.35,4-7.12,4.61-3.23.77-9.55.93-11-2.89-.8-2,.43-4.62,2-6Zm7,12.38-.1-.2-.37-.86-.88.33a10.91,10.91,0,0,1-3.8.66,11.42,11.42,0,0,1-2.44-.26,17.53,17.53,0,0,0,7.59.33Zm8.2-11.4c-.67,7.72-16.94,8.1-15.37,2.95,1.11-3.63,4.25-4,7.37-3.79-2.69-1.48-5.45-2.79-10-1.72-4,.94-6.6,5.34-6.21,8.43a17.59,17.59,0,0,0,1.69,1.64c-.15-.26-.29-.54-.44-.84-.68-1.4-.07-3.37.64-4.63a7.34,7.34,0,0,1,4.55-3.63,11.45,11.45,0,0,1,5-.15q.39.08.76.19a5.75,5.75,0,0,0-4.32,4.21,3,3,0,0,0,0,2c.62,1.57,2.45,2.26,4,2.53a14.94,14.94,0,0,0,5.91-.25c2.49-.59,5.13-1.89,6.5-4.16a6.31,6.31,0,0,0,.87-2.69c.08-.91.33-2.31,1.28-2.74a3.69,3.69,0,0,1,2.68.3c.28.12.56.25.84.4.07-.34.14-.67.2-1-2.9-1.46-5.61-1.29-6,3Zm-26.49-7.2h32.63c0,.47.06.94.06,1.42a17.23,17.23,0,0,1-.13,2.12,5.4,5.4,0,0,0-4.48-.5c-1.59.72-2.11,2.5-2.24,4.1-.2,2.25-1.9,3.73-3.85,4.62h-9.87a1.4,1.4,0,0,1-.36-.52,1.37,1.37,0,0,1,0-.91c1-3.23,3.77-3.5,6.7-3.33l2.91.18-2.56-1.41-.41-.23a16.06,16.06,0,0,0-4.32-1.71,13.08,13.08,0,0,0-5.76.16,8.8,8.8,0,0,0-5.21,3.77,14.54,14.54,0,0,1-3.11-7.76Z" transform="translate(-97.45 -51.92)"/><path class="cls-4" d="M429.59,74.36l-2.12,6.52-4.67,2.52L422,85.77l6.55-1.82,4.22,5.32.77-2.37-2.27-4.73,2.15-6.58,9.84,5.23,1-3.15L435.28,70l2-6.33a5.19,5.19,0,0,0,.32-1.6,1.87,1.87,0,0,0-2-1.8c-1,0-1.67.72-2.13,2.15l-2.09,6.38-11.67.87-1,3.15,10.9,1.53Zm2.22-17.57a18,18,0,1,1-18,18,18,18,0,0,1,18-18Z" transform="translate(-97.45 -51.92)"/><path class="cls-5" d="M101.09,60H97.45V58h3.64V51.92h2.22V58h4.15v2h-4.15V75.36h-2.22Z" transform="translate(-97.45 -51.92)"/><path class="cls-5" d="M109.8,58H112v2.5h.06c1-2.44,3-2.82,4.88-2.95v2.34a5.33,5.33,0,0,0-3.74,1.71,5.67,5.67,0,0,0-1.2,3.58V75.36H109.8Z" transform="translate(-97.45 -51.92)"/><path class="cls-5" d="M136.32,75.36h-2.22v-3H134a8,8,0,0,1-6.75,3.45,9.09,9.09,0,1,1,0-18.18A7.84,7.84,0,0,1,134,61.07h.06V58h2.22Zm-9-1.58a7.1,7.1,0,1,0-7.1-7A6.88,6.88,0,0,0,127.3,73.77Z" transform="translate(-97.45 -51.92)"/><path class="cls-5" d="M138.51,58h2.38L147,72.6,153.21,58h2.38l-7.32,17.33h-2.44Z" transform="translate(-97.45 -51.92)"/><path class="cls-5" d="M158.7,67.5a6.89,6.89,0,0,0,6.72,6.27,6.57,6.57,0,0,0,6.21-4.09H174a8.58,8.58,0,1,1,.51-2.19Zm13.53-2a6.82,6.82,0,0,0-13.53,0Z" transform="translate(-97.45 -51.92)"/><path class="cls-5" d="M177.87,51.92h2.22V75.36h-2.22Z" transform="translate(-97.45 -51.92)"/><path class="cls-6" d="M184.18,58h2.22v3h.06a8.09,8.09,0,0,1,6.75-3.48,9.09,9.09,0,1,1,0,18.18,8.14,8.14,0,0,1-6.75-3.45h-.06v9.12h-2.22Zm9,1.55a7.1,7.1,0,0,0,0,14.19,7.1,7.1,0,1,0,0-14.19Z" transform="translate(-97.45 -51.92)"/><path class="cls-6" d="M205.82,51.92H208V75.36h-2.22Z" transform="translate(-97.45 -51.92)"/><path class="cls-6" d="M229.77,75.36h-2.22v-3h-.06a8,8,0,0,1-6.75,3.45,9.09,9.09,0,1,1,0-18.18,7.84,7.84,0,0,1,6.75,3.48h.06V58h2.22Zm-9-1.58a7.1,7.1,0,1,0-7.1-7A6.88,6.88,0,0,0,220.74,73.77Z" transform="translate(-97.45 -51.92)"/><path class="cls-6" d="M233.79,58H236v2.22h.06a6.19,6.19,0,0,1,5.32-2.66,7.2,7.2,0,0,1,5.48,2.12A8.21,8.21,0,0,1,249,65.82v9.54h-2.22V65.82a6.45,6.45,0,0,0-1.65-4.75,5.52,5.52,0,0,0-7.54,0A6.32,6.32,0,0,0,236,65.82v9.54h-2.22Z" transform="translate(-97.45 -51.92)"/><path class="cls-6" d="M253.12,58h2.22v2.22h.06a6.19,6.19,0,0,1,5.32-2.66,7.2,7.2,0,0,1,5.48,2.12,8.21,8.21,0,0,1,2.15,6.11v9.54h-2.22V65.82a6.45,6.45,0,0,0-1.65-4.75,5.52,5.52,0,0,0-7.54,0,6.32,6.32,0,0,0-1.62,4.75v9.54h-2.22Z" transform="translate(-97.45 -51.92)"/><path class="cls-6" d="M273.87,67.5a6.89,6.89,0,0,0,6.72,6.27,6.57,6.57,0,0,0,6.21-4.09h2.34a8.58,8.58,0,1,1,.51-2.19Zm13.53-2a6.82,6.82,0,0,0-13.53,0Z" transform="translate(-97.45 -51.92)"/><path class="cls-6" d="M293,58h2.22v2.5h.06c1-2.44,3-2.82,4.88-2.95v2.34a5.33,5.33,0,0,0-3.74,1.71,5.67,5.67,0,0,0-1.2,3.58V75.36H293Z" transform="translate(-97.45 -51.92)"/><path class="cls-6" d="M304.13,70.23c.06,3.29,2.31,3.55,3.1,3.55a2.92,2.92,0,0,0,3.23-3.1c0-2.38-2.15-2.91-3.45-3.45-1.77-.6-4.59-1.55-4.59-4.82a4.72,4.72,0,0,1,4.94-4.81,4.63,4.63,0,0,1,4.72,4.72h-2.22a2.62,2.62,0,0,0-2.6-2.72,2.57,2.57,0,0,0-2.63,2.6c0,1.84,1.84,2.47,3.1,2.88,2,.66,4.94,1.77,4.94,5.35,0,3-1.77,5.35-5.45,5.35a5.18,5.18,0,0,1-5.32-5.54Z" transform="translate(-97.45 -51.92)"/><path class="cls-7" d="M154,90.57v.06a2.07,2.07,0,0,0,2.13,2.24,1.8,1.8,0,0,0,2-1.74c0-1.11-.69-1.54-2.1-2.11s-2.23-.91-2.23-2.28a2.18,2.18,0,0,1,2.45-2.16,2.06,2.06,0,0,1,2.3,2.13H158v0a1.6,1.6,0,0,0-1.8-1.6,1.63,1.63,0,0,0-1.85,1.6c0,1.36.89,1.39,2.6,2.16,1.19.54,1.76,1.19,1.76,2.31a2.31,2.31,0,0,1-2.56,2.2,2.51,2.51,0,0,1-2.71-2.77Z" transform="translate(-97.45 -51.92)"/><path class="cls-7" d="M160,89.18a3.73,3.73,0,0,0,7.21,1.34h.55a4.19,4.19,0,0,1-4,2.82,4.37,4.37,0,0,1-.08-8.74c2.51,0,4.27,1.79,4.33,4.58ZM163.81,85A3.8,3.8,0,0,0,160,88.67h7.49C167.23,86.36,165.76,85,163.81,85Z" transform="translate(-97.45 -51.92)"/><path class="cls-7" d="M169.32,84.85h.54v1a2.26,2.26,0,0,1,1.85-1.08v.62c-1.45.12-1.85.86-1.85,2.25v5.53h-.54Z" transform="translate(-97.45 -51.92)"/><path class="cls-7" d="M175.77,93.13l-3.38-8.28h.6l3.11,7.69,3.28-7.69h.6l-3.53,8.28Z" transform="translate(-97.45 -51.92)"/><path class="cls-7" d="M180.67,83.51V82.17h.52v1.34Zm0,9.62V84.85h.52v8.28Z" transform="translate(-97.45 -51.92)"/><path class="cls-7" d="M186.86,85a3.94,3.94,0,0,0,0,7.88,3.63,3.63,0,0,0,3.47-2.37h.52a4,4,0,0,1-3.95,2.82,4,4,0,0,1-3.07-1.28A4.69,4.69,0,0,1,182.59,89a4.3,4.3,0,0,1,4.28-4.39,4.1,4.1,0,0,1,4,2.76h-.54A3.58,3.58,0,0,0,186.86,85Z" transform="translate(-97.45 -51.92)"/><path class="cls-7" d="M192.44,89.18a3.73,3.73,0,0,0,7.21,1.34h.55a4.19,4.19,0,0,1-4,2.82,4.37,4.37,0,0,1-.08-8.74c2.51,0,4.27,1.79,4.33,4.58ZM196.23,85a3.8,3.8,0,0,0-3.79,3.65h7.49C199.65,86.36,198.19,85,196.23,85Z" transform="translate(-97.45 -51.92)"/><path class="cls-7" d="M210.28,84.64A4.19,4.19,0,0,1,214.52,89a4.27,4.27,0,0,1-4.25,4.39,4.21,4.21,0,0,1-3.7-2.19v2h-.49v-11h.49v4.71A4.12,4.12,0,0,1,210.28,84.64Zm-.06,8.29A3.87,3.87,0,0,0,214,89a3.8,3.8,0,0,0-3.71-3.95,3.95,3.95,0,0,0-.08,7.88Z" transform="translate(-97.45 -51.92)"/><path class="cls-7" d="M215.83,89.18A3.73,3.73,0,0,0,223,90.52h.55a4.19,4.19,0,0,1-4,2.82,4.37,4.37,0,0,1-.08-8.74c2.51,0,4.27,1.79,4.33,4.58ZM219.62,85a3.8,3.8,0,0,0-3.79,3.65h7.49C223,86.36,221.58,85,219.62,85Z" transform="translate(-97.45 -51.92)"/><path class="cls-7" d="M224.66,84.85l2.88,7.54,3-7.54h.63l-4.47,11h-.57l1.09-2.73-3.14-8.23Z" transform="translate(-97.45 -51.92)"/><path class="cls-7" d="M235.57,84.6A4.37,4.37,0,1,1,231.36,89,4.3,4.3,0,0,1,235.57,84.6Zm.06,8.29a3.93,3.93,0,0,0-.09-7.86,3.94,3.94,0,0,0,.09,7.86Z" transform="translate(-97.45 -51.92)"/><path class="cls-7" d="M241.7,86.25a3.5,3.5,0,0,1,5.62-.26,4.09,4.09,0,0,1,.62,2.64v4.5h-.49V88.72c0-2.37-1-3.56-2.9-3.56a2.74,2.74,0,0,0-2.39,1.23,4,4,0,0,0-.49,2.46v4.27h-.49V84.85h.52Z" transform="translate(-97.45 -51.92)"/><path class="cls-7" d="M257.14,82.17h.49v11h-.49v-2a4.29,4.29,0,1,1-3.71-6.52,4.06,4.06,0,0,1,3.71,2.25Zm-3.75,2.88A3.79,3.79,0,0,0,249.7,89a3.72,3.72,0,1,0,3.7-3.95Z" transform="translate(-97.45 -51.92)"/><path class="cls-7" d="M265,84.85h1.56v.54H265v7.74h-.54V85.39h-1.57v-.54h1.57V82.17H265Z" transform="translate(-97.45 -51.92)"/><path class="cls-7" d="M267.94,86.25a3.48,3.48,0,0,1,5.61-.26,4.11,4.11,0,0,1,.63,2.68v4.45h-.49V88.72c0-2.37-1-3.56-2.9-3.56a2.74,2.74,0,0,0-2.39,1.23,4,4,0,0,0-.49,2.46v4.27h-.49v-11h.52Z" transform="translate(-97.45 -51.92)"/><path class="cls-7" d="M276,89.18a3.73,3.73,0,0,0,7.21,1.34h.56a4.19,4.19,0,0,1-4,2.82,4.37,4.37,0,0,1-.08-8.74c2.51,0,4.27,1.79,4.33,4.58ZM279.76,85A3.8,3.8,0,0,0,276,88.67h7.49C283.18,86.36,281.72,85,279.76,85Z" transform="translate(-97.45 -51.92)"/><path class="cls-7" d="M293.41,85a3.94,3.94,0,0,0,0,7.88,3.63,3.63,0,0,0,3.47-2.37h.52a4,4,0,0,1-3.94,2.82,4,4,0,0,1-3.07-1.28A4.7,4.7,0,0,1,289.15,89a4.3,4.3,0,0,1,4.28-4.39,4.1,4.1,0,0,1,4,2.76h-.54A3.58,3.58,0,0,0,293.41,85Z" transform="translate(-97.45 -51.92)"/><path class="cls-7" d="M306.41,84.85h.49v8.28h-.49v-2a4.29,4.29,0,1,1-3.71-6.52,4.08,4.08,0,0,1,3.71,2.25Zm-3.75.2A3.79,3.79,0,0,0,299,89a3.72,3.72,0,1,0,3.7-3.95Z" transform="translate(-97.45 -51.92)"/><path class="cls-7" d="M308.76,93.13v-11h.53v11Z" transform="translate(-97.45 -51.92)"/><path class="cls-7" d="M311.26,93.13v-11h.53v11Z" transform="translate(-97.45 -51.92)"/></svg>