<svg xmlns="http://www.w3.org/2000/svg" xmlns:xlink="http://www.w3.org/1999/xlink" viewBox="0 0 1000 650"><defs><style>.cls-1{fill:url(#radial-gradient);}.cls-2{fill:#ecbe63;}.cls-3,.cls-7{fill:#7dcfe6;}.cls-3,.cls-4{fill-rule:evenodd;}.cls-4,.cls-6{fill:#effbff;}.cls-5{fill:#fff;}.cls-8{fill:#a5deed;}.cls-9{fill:#ddf4ff;}.cls-10{fill:#a3ddec;}.cls-11{fill:none;}</style><radialGradient id="radial-gradient" cx="500" cy="325" r="421.68" gradientUnits="userSpaceOnUse"><stop offset="0" stop-color="#ddf4ff"/><stop offset="1" stop-color="#c6ffff"/></radialGradient></defs><title>Asset 8</title><g id="Layer_2" data-name="Layer 2"><g id="bkg"><rect class="cls-1" width="1000" height="650"/></g><g id="icons"><path class="cls-2" d="M122.94,100.81a18.09,18.09,0,0,0,3.11-1.9,18.38,18.38,0,0,0,5.11-6.41c4.53-9.08,2.15-21.12-5.57-27.71-8-6.85-20.39-6.21-29.11-.18A19.73,19.73,0,0,0,88.6,74.7C87.07,79.64,87.45,85,88.78,90a22.1,22.1,0,0,0,2.54,6.22c2.74,4.32,7.63,7,12.68,7.81a32,32,0,0,0,15.1-1.69A31.49,31.49,0,0,0,122.94,100.81Z"/><path class="cls-2" d="M103.42,57.3,99.08,42.13"/><path class="cls-2" d="M104,57.3c0-3-1.1-6.09-1.87-9-.58-2.22-.75-5.28-2.79-6.59a.49.49,0,0,0-.66.17c-1,2.21.43,4.86,1.11,7.07.89,2.87,1.56,6.07,3.17,8.62a.56.56,0,0,0,1-.28Z"/><path class="cls-2" d="M109.16,57.25l-.74-6.9"/><path class="cls-2" d="M109.59,57.37a13.36,13.36,0,0,0,.1-4.1c-.08-1.11,0-2.5-.93-3.26a.49.49,0,0,0-.76.1c-.73.95-.35,2.32-.19,3.42a13.27,13.27,0,0,0,1,4,.45.45,0,0,0,.81-.11Z"/><path class="cls-2" d="M114.33,58.41q.73-8.78,2.25-17.47l.27.62"/><path class="cls-2" d="M114.82,58.54a109.68,109.68,0,0,0,2.74-17.6l-1.22.93.42.08a.43.43,0,0,0,.46-.19l.21-.34c.72-1.18-1.35-2.12-1.77-.74a56.48,56.48,0,0,0-1.82,17.72c0,.54.86.71,1,.13Z"/><path class="cls-2" d="M121.41,59.38l3.74-8.74a.47.47,0,0,1,.07.47"/><path class="cls-2" d="M121.57,59.54a14.94,14.94,0,0,0,2.6-4,19.67,19.67,0,0,0,2-4.62l-1,.74.27,0c1.71-.42,0-3.12-1.14-1.48a19.68,19.68,0,0,0-2,4.6,14.91,14.91,0,0,0-1.1,4.64.23.23,0,0,0,.39.16Z"/><path class="cls-2" d="M126.62,62.83q3.14-5.25,6.78-10.18"/><path class="cls-2" d="M127,63.19c1.37-1.76,2.75-3.49,4-5.32,1.11-1.58,2.74-3.23,2.9-5.23a.52.52,0,0,0-.65-.5c-1.72.69-2.69,2.51-3.67,4a46.76,46.76,0,0,0-3.42,6.41c-.22.48.42,1.12.81.62Z"/><path class="cls-2" d="M132.27,67.55q6.75-4.67,13-10"/><path class="cls-2" d="M132.58,68.07a49.5,49.5,0,0,0,8.06-5.23c1.88-1.43,4.34-2.84,5.14-5.15.14-.41-.28-.69-.63-.63-2.4.4-4.47,2.75-6.31,4.24-2.36,1.9-4.81,3.73-7,5.82-.52.5.14,1.24.73,1Z"/><path class="cls-2" d="M135.86,73.27Q142,70.4,148.3,67.89c.36-.14,2.25-1.07,2.19-.69"/><path class="cls-2" d="M136.05,74c3.47-1.41,7-2.73,10.47-4.1a23.54,23.54,0,0,0,2.88-1.22c.28-.16,1.76-.94,1-1.05.28,0,.64-.18.52-.52-1.1-3-13.77,4.69-15.4,5.55-.72.38-.21,1.65.56,1.33Z"/><path class="cls-2" d="M137.3,79.42a28.59,28.59,0,0,1,7.49-2.14"/><path class="cls-2" d="M137.51,80.19a45.56,45.56,0,0,1,4.55-1.27c1.15-.26,2.48-.33,3.17-1.38a.52.52,0,0,0-.08-.63c-1.06-.85-2.44-.42-3.67-.08a23.74,23.74,0,0,0-4.59,1.9.8.8,0,0,0,.62,1.46Z"/><path class="cls-2" d="M137,87.94a105.62,105.62,0,0,1,14.73,1.42"/><path class="cls-2" d="M136.78,88.74c2.52.39,5.07.59,7.61.89s5.12,1.11,7.45.15a.44.44,0,0,0,.19-.72c-1.67-1.45-3.81-1.54-5.95-1.75a48.31,48.31,0,0,0-9.09-.18c-.84.08-1.2,1.46-.22,1.61Z"/><path class="cls-2" d="M134.35,91.7l6.45,2.44"/><path class="cls-2" d="M134,92.24c1.33.61,2.63,1.27,4,1.87.94.42,2.14,1.2,3.09.52a.6.6,0,0,0,.26-.65c-.25-1.12-1.63-1.36-2.6-1.66-1.41-.44-2.83-.8-4.24-1.23-.66-.2-1.14.84-.48,1.14Z"/><path class="cls-2" d="M132.11,97.9a125.33,125.33,0,0,1,13,8.08"/><path class="cls-2" d="M131.7,98.6c2.6,1.58,5.13,3.27,7.63,5,1.67,1.15,3.81,3.52,6,2.9a.54.54,0,0,0,.39-.51c-.16-2.24-2.92-3.27-4.66-4.32-2.75-1.65-5.61-3.08-8.5-4.47a.81.81,0,0,0-.82,1.4Z"/><path class="cls-2" d="M122.38,106.71a78.51,78.51,0,0,1,8.89,13.47"/><path class="cls-2" d="M121.77,107.06c1.59,2.34,3.11,4.76,4.57,7.19a54.49,54.49,0,0,0,4.13,6.73c.73.9,2.19-.07,1.89-1.1-1.51-5.13-5.85-9.88-9.48-13.66-.54-.56-1.55.18-1.1.85Z"/><path class="cls-2" d="M116.11,107.47a29.61,29.61,0,0,1,1.81,8.25"/><path class="cls-2" d="M115.48,107.84c1.12,2.55.52,5.71,2.06,8.1a.44.44,0,0,0,.74,0c1.36-2.45-.34-6.61-1.55-8.84-.46-.84-1.63-.1-1.26.74Z"/><path class="cls-2" d="M109.11,109.18a115.15,115.15,0,0,1,1,17.27"/><path class="cls-2" d="M108.37,109.18c.06,3.1.21,6.19.37,9.28.14,2.71,0,5.54,1,8.11a.46.46,0,0,0,.87,0c2-5.15.51-12.38-.75-17.59a.74.74,0,0,0-1.45.2Z"/><path class="cls-2" d="M91.48,100.85l-8.44,12"/><path class="cls-2" d="M90.93,100.3c-1.74,2.07-3.37,4.15-4.94,6.35-1.34,1.88-3.07,3.88-3.39,6.23,0,.35.39.5.65.37,2-1,3.25-3.29,4.48-5.05,1.58-2.27,3-4.57,4.41-7,.42-.73-.63-1.62-1.21-.93Z"/><path class="cls-2" d="M85.2,90.08a108.66,108.66,0,0,0-16.1,2.09"/><path class="cls-2" d="M85.2,89.33c-4.86,0-12.09-.3-16.34,2.44-.3.2-.31.77.11.84,2.21.39,4.38-.12,6.58-.44,3.21-.47,6.43-.94,9.65-1.34.93-.12,1-1.49,0-1.5Z"/><path class="cls-2" d="M84.1,76.12q-8.7-2.49-17.53-4.46"/><path class="cls-2" d="M84.28,75.48a90.32,90.32,0,0,0-9.24-3c-2.74-.72-5.62-1.79-8.48-1.59a.75.75,0,0,0-.37,1.38c2.49,1.4,5.49,1.74,8.24,2.4,3.15.76,6.3,1.46,9.49,2.06a.67.67,0,0,0,.35-1.29Z"/><path class="cls-2" d="M88.51,65.36,75.38,53.47"/><path class="cls-2" d="M89,64.84c-2.44-2.48-4.84-5-7.38-7.34-1.81-1.69-3.7-4.27-6.27-4.58-.37,0-.59.38-.52.69.56,2.54,3.6,4.32,5.47,6,2.49,2.19,5.09,4.23,7.68,6.31.72.58,1.71-.35,1-1Z"/><path class="cls-2" d="M93.76,62.39a9.63,9.63,0,0,0-3.08-3.82"/><path class="cls-2" d="M94.39,62.22a9.57,9.57,0,0,0-.4-1.4,7.76,7.76,0,0,0-.77-1.27c-.53-.72-1.39-1.68-2.35-1.65a.83.83,0,0,0-.79,1c.15.76,1,1.36,1.47,1.9a14.89,14.89,0,0,1,1.63,1.88.66.66,0,0,0,1.2-.51Z"/><path class="cls-2" d="M98.28,59.18a78,78,0,0,0-4.64-10"/><path class="cls-2" d="M98.73,59.18c.07-2-1.06-4.09-1.87-5.9-.72-1.61-1.36-3.8-3.09-4.51a.47.47,0,0,0-.58.33c-.31,1.72,1,3.39,1.75,4.88.91,1.81,1.59,4.06,3,5.53a.46.46,0,0,0,.77-.32Z"/><path class="cls-2" d="M85.71,71a35.7,35.7,0,0,0-9.59-5.23"/><path class="cls-2" d="M86,70.74a22.68,22.68,0,0,0-4.74-3.59c-1.53-.86-3.34-1.92-5.15-1.7a.35.35,0,0,0-.25.6c1.16,1.28,3,1.82,4.53,2.59,1.72.87,3.42,1.8,5.1,2.76a.42.42,0,0,0,.51-.66Z"/><path class="cls-2" d="M83,83.05a59.21,59.21,0,0,0-9.94-.39"/><path class="cls-2" d="M83.26,82.67c-1.53-.92-3.44-1-5.18-1.06s-3.7-.27-5.2.68a.44.44,0,0,0,0,.74c1.45.77,3.21.61,4.81.65,1.8,0,3.72.35,5.46-.2a.45.45,0,0,0,.11-.81Z"/><path class="cls-2" d="M86.38,95.77a73.36,73.36,0,0,0-7.71,4.05"/><path class="cls-2" d="M86.38,95.31a11.29,11.29,0,0,0-4.45,1.47c-1.27.65-3.11,1.41-3.71,2.79a.52.52,0,0,0,.44.77c1.4.12,2.88-1,4.07-1.61a15.78,15.78,0,0,0,4-2.63.47.47,0,0,0-.33-.79Z"/><path class="cls-2" d="M97.26,106.13a144.11,144.11,0,0,0-6.87,14.94"/><path class="cls-2" d="M96.91,105.77a35.45,35.45,0,0,0-4.74,8.15c-1,2.16-2.84,4.83-2.23,7.27a.48.48,0,0,0,.69.28c2.1-1.44,2.73-4.68,3.72-6.91,1.21-2.71,2.73-5.4,3.39-8.31.1-.46-.49-.89-.84-.49Z"/><path class="cls-2" d="M128,103.13l3.65,4.26"/><path class="cls-2" d="M127.52,103.13a4.68,4.68,0,0,0,1.23,2.36c.62.81,1.27,1.6,1.94,2.35.87,1,2.2-.43,1.41-1.41-.62-.76-1.29-1.51-2-2.22a4.57,4.57,0,0,0-2.05-1.51.45.45,0,0,0-.56.43Z"/><path class="cls-2" d="M102.79,108.74a51.17,51.17,0,0,1-1.35,6.45"/><path class="cls-2" d="M102.42,108.52a26.45,26.45,0,0,0-1.76,6,1,1,0,0,0,.43,1.06.8.8,0,0,0,.47.13,1,1,0,0,0,.9-.69,14.66,14.66,0,0,0,.73-6.35.43.43,0,0,0-.77-.1Z"/><path class="cls-3" d="M679.75,436.44c1.41,3.12,6.31,5.43,12.14,5.43s10.73-2.3,12.14-5.43c-2.75,1.79-7.16,3-12.14,3S682.49,438.23,679.75,436.44Z"/><path class="cls-4" d="M698.38,450.76c1.41,3.12,6.31,5.43,12.14,5.43s10.73-2.3,12.14-5.43c-2.75,1.79-7.16,3-12.14,3S701.13,452.55,698.38,450.76Z"/><path class="cls-3" d="M654.37,453.47c1.41,3.12,6.31,5.43,12.14,5.43s10.73-2.3,12.14-5.43c-2.75,1.79-7.16,3-12.14,3S657.12,455.26,654.37,453.47Z"/><path class="cls-4" d="M673,467.79c1.41,3.12,6.31,5.43,12.14,5.43s10.73-2.3,12.14-5.43c-2.75,1.79-7.16,3-12.14,3S675.76,469.58,673,467.79Z"/><path class="cls-5" d="M78.81,128.05a17.33,17.33,0,0,1,5.62.91,12.9,12.9,0,0,1,7.1-2c4.78,0,8.79,2.25,9.87,5.29a7.54,7.54,0,0,1,5.18,3.3c.29,0,.58,0,.87,0,4.42,0,8,2.44,8,5.45s-3.59,5.45-8,5.45a11.07,11.07,0,0,1-3.8-.65c-1,2.26-4,3.92-7.69,3.92a10.13,10.13,0,0,1-5.69-1.62,10.12,10.12,0,0,1-5.69,1.62,10.3,10.3,0,0,1-5.47-1.47A10,10,0,0,1,73.21,150a10.17,10.17,0,0,1-5.62-1.57,13.83,13.83,0,0,1-2.05.15c-5.27,0-9.54-2.91-9.54-6.49s4.27-6.49,9.54-6.49l.85,0C67.07,131.37,72.37,128.05,78.81,128.05Z"/><path class="cls-5" d="M52.94,95.76a9.74,9.74,0,0,1,3.14.51,7.22,7.22,0,0,1,4-1.1,7.38,7.38,0,0,1,3.72.95q2.18,4.78,3.9,9.8a5.8,5.8,0,0,1-.85-.24c-.55,1.27-2.26,2.19-4.3,2.19a5.67,5.67,0,0,1-3.18-.9,5.65,5.65,0,0,1-3.18.9,5.75,5.75,0,0,1-3.06-.82,5.57,5.57,0,0,1-3.3,1,5.67,5.67,0,0,1-3.14-.88,7.67,7.67,0,0,1-1.15.08c-2.95,0-5.33-1.62-5.33-3.63S42.58,100,45.53,100l.47,0C46.38,97.62,49.34,95.76,52.94,95.76Z"/><path class="cls-6" d="M929.29,392a9.74,9.74,0,0,1,3.14.51,7.22,7.22,0,0,1,4-1.1,7.38,7.38,0,0,1,3.72.95q2.18,4.78,3.9,9.8a5.8,5.8,0,0,1-.85-.24c-.55,1.27-2.26,2.19-4.3,2.19a6.05,6.05,0,0,0-6.36,0,5.75,5.75,0,0,1-3.06-.82,5.57,5.57,0,0,1-3.3,1,5.67,5.67,0,0,1-3.14-.88,7.67,7.67,0,0,1-1.15.08c-2.95,0-5.33-1.62-5.33-3.63s2.39-3.63,5.33-3.63l.47,0C922.73,393.86,925.69,392,929.29,392Z"/><path class="cls-6" d="M896.34,375.37a7.47,7.47,0,0,1,2.41.39,5.55,5.55,0,0,1,3-.85c2.05,0,3.77,1,4.23,2.27a3.23,3.23,0,0,1,2.22,1.41h.38c1.9,0,3.44,1,3.44,2.34s-1.54,2.34-3.44,2.34A4.7,4.7,0,0,1,907,383a3.52,3.52,0,0,1-3.3,1.68,4.65,4.65,0,0,0-4.88,0,4.41,4.41,0,0,1-2.35-.63,4.29,4.29,0,0,1-2.54.76,4.36,4.36,0,0,1-2.41-.67,5.89,5.89,0,0,1-.88.06c-2.26,0-4.09-1.25-4.09-2.78s1.83-2.79,4.09-2.79H891C891.3,376.79,893.58,375.37,896.34,375.37Z"/><path class="cls-7" d="M921,378.06a15.72,15.72,0,0,1,5.31-.16c2.42.46,5,2.48,7.69,2.63s2.17-.88,2.17-.88-1.76.26-2.22-1.24,1.44-2.69,4.38-4.75,3.51-4.13,2.94-5.42c0,0-.52.83-2.94,2.12s-4.18,3.67-6.08,5.37-2,1.81-3.82,1.45S922.72,376.26,921,378.06Z"/><path class="cls-8" d="M762.37,483.63c1.13,1.13,3.32.7,5-1a5.59,5.59,0,0,0,1.46-2.4,8.48,8.48,0,0,0,2.65-.86,6.17,6.17,0,0,0,1.36,2.1c1.69,1.69,3.54,1.35,4.63.26s1.43-2.94-.26-4.63a6.17,6.17,0,0,0-2.1-1.36,8.48,8.48,0,0,0,.86-2.65,5.59,5.59,0,0,0,2.4-1.46c1.68-1.68,2.11-3.87,1-5-.52-.52-1.29-.45-2.3.22a13.69,13.69,0,0,0-1.75,1.46,8.46,8.46,0,0,0-1.73-2.49,12.68,12.68,0,0,0-3.78-2.49,6.24,6.24,0,0,0,.53-1.34,5.51,5.51,0,0,0,0-3,2.49,2.49,0,0,0-1.66-1.81,1.16,1.16,0,0,0-.9.13,1.66,1.66,0,0,0-.34.27c-.78.78-1.29,2.52-1.82,4.53l0,.06a7.44,7.44,0,0,0-5.73,1.31l-1.08-1.08a.47.47,0,1,0-.67.67l1.08,1.08a7.44,7.44,0,0,0-1.31,5.73l-.06,0c-2,.53-3.75,1-4.53,1.82a1.66,1.66,0,0,0-.27.34,1.16,1.16,0,0,0-.13.9c.41,1.54,2.53,2.26,4.82,1.65a6.24,6.24,0,0,0,1.34-.53,12.68,12.68,0,0,0,2.49,3.78,8.46,8.46,0,0,0,2.49,1.73,13.72,13.72,0,0,0-1.46,1.75c-.66,1-.74,1.78-.22,2.3Zm2.63-3.68"/><path class="cls-7" d="M762.37,483.63c1.13,1.13,3.32.7,5-1a5.59,5.59,0,0,0,1.46-2.4,8.48,8.48,0,0,0,2.65-.86,6.17,6.17,0,0,0,1.36,2.1c1.69,1.69,3.54,1.35,4.63.26s1.43-2.94-.26-4.63a6.17,6.17,0,0,0-2.1-1.36,8.48,8.48,0,0,0,.86-2.65,5.59,5.59,0,0,0,2.4-1.46c1.68-1.68,2.11-3.87,1-5-.52-.52-1.29-.45-2.3.22a13.69,13.69,0,0,0-1.75,1.46,8.46,8.46,0,0,0-1.73-2.49,12.68,12.68,0,0,0-3.78-2.49,6.24,6.24,0,0,0,.53-1.34,5.51,5.51,0,0,0,0-3,2.49,2.49,0,0,0-1.66-1.81,1.16,1.16,0,0,0-.9.13,1.66,1.66,0,0,0-.34.27c-.78.78-1.29,2.52-1.82,4.53l0,.06a7.44,7.44,0,0,0-5.73,1.31l-1.08-1.08a.47.47,0,1,0-.67.67l1.08,1.08a7.44,7.44,0,0,0-1.31,5.73l-.06,0c-2,.53-3.75,1-4.53,1.82a1.66,1.66,0,0,0-.27.34,1.16,1.16,0,0,0-.13.9c.41,1.54,2.53,2.26,4.82,1.65a6.24,6.24,0,0,0,1.34-.53,12.68,12.68,0,0,0,2.49,3.78,8.46,8.46,0,0,0,2.49,1.73,13.72,13.72,0,0,0-1.46,1.75c-.66,1-.74,1.78-.22,2.3Zm-.15-6.44-.35-.37,2.5-2.5,3.17.85v4.23a7.53,7.53,0,0,1-5.32-2.21ZM759,470.72h4l.78,2.9-2.45,2.45a14.23,14.23,0,0,1-2.3-5.35Zm12.85-5.14L769.38,468l-2.94-.79v-4a14.22,14.22,0,0,1,5.38,2.33Zm1.08.92a7.53,7.53,0,0,1,2.21,5.16h-4.27l-.79-3,2.51-2.51.34.32Zm0,10.69a7.52,7.52,0,0,1-4.42,2.15v-4.54l2.2-2.2h4.39a7.52,7.52,0,0,1-2.17,4.59Zm-6.83-9.07,3.06.82L770,472l-2.24,2.24-3.06-.82-.82-3.06Zm10.46,9.67c1.1,1.1,1.19,2.36.26,3.29s-2.2.84-3.29-.26a5.27,5.27,0,0,1-1.2-1.92,8.52,8.52,0,0,0,2.32-2.32,5.28,5.28,0,0,1,1.92,1.2Zm1-10.13c.54-.36,1-.49,1.11-.34.73.73.28,2.4-1,3.66a4.93,4.93,0,0,1-1.64,1.11,8.55,8.55,0,0,0-.39-2.8,14.53,14.53,0,0,1,1.9-1.63Zm-9.49-9.4a.81.81,0,0,1,.16-.13.22.22,0,0,1,.18,0,1.6,1.6,0,0,1,1,1.18,4.56,4.56,0,0,1,0,2.48,5.25,5.25,0,0,1-.5,1.23,14.89,14.89,0,0,0-2.28-.65l-.11,0c.35-1.31.91-3.41,1.55-4.05Zm-7.9,6.2a6.32,6.32,0,0,1,5.32-1.35v4.26l-2.42,2.42h-4.26a6.32,6.32,0,0,1,1.35-5.32Zm-2.7,9.23c-1.72.46-3.4,0-3.66-1a.22.22,0,0,1,0-.18c.41-.71,2.76-1.34,4.18-1.71l0,.11a14.87,14.87,0,0,0,.65,2.28,5.24,5.24,0,0,1-1.23.5Zm7.53,6.26a8.54,8.54,0,0,0,2.8.39A4.94,4.94,0,0,1,766.7,482c-1.26,1.26-2.94,1.71-3.66,1-.15-.15,0-.56.34-1.11a14.52,14.52,0,0,1,1.63-1.9Zm0,0"/><path class="cls-7" d="M501.18,239c-.52,0-.52-.09-.73-.22l-1.3-.87a1.58,1.58,0,0,0-1.62,0l-1.3.87a1.45,1.45,0,0,1-.73.22,3.55,3.55,0,0,1-1-.27c-.36-.19-1.23-.82-1.23-.82a1.58,1.58,0,0,0-1.62,0l-1.3.87a1.58,1.58,0,0,1-1.62,0l-1.3-.87a1.48,1.48,0,0,0-.81-.22h0v1h0a.54.54,0,0,1,.27.06l1.3.87a2.55,2.55,0,0,0,2.69,0l1.3-.87a.64.64,0,0,1,.54,0l1.3.87a2.55,2.55,0,0,0,2.69,0l1.3-.87a.64.64,0,0,1,.54,0l1.3.87a2.55,2.55,0,0,0,2.69,0l1.3-.87a.65.65,0,0,1,.54,0l1.3.87a2.55,2.55,0,0,0,2.69,0l1.3-.87a.54.54,0,0,1,.27-.06v-1a1.48,1.48,0,0,0-.8.22l-1.3.87a1.58,1.58,0,0,1-1.62,0l-1.3-.87a1.58,1.58,0,0,0-1.62,0,12.85,12.85,0,0,1-1.23.82A4.2,4.2,0,0,1,501.18,239Z"/><path class="cls-7" d="M404.92,107.63a1.72,1.72,0,1,1-2.13-1.17,1.72,1.72,0,0,1,2.13,1.17Zm0,0"/><path class="cls-7" d="M415.91,104.55l-3.17-.17-1.55.67v0l-15.59-.24v-.05l-1.44-.87-3.16-.25a3.78,3.78,0,0,0-.19,2.38l3.16.24,1.56-.63v0l1.76,0a.72.72,0,0,0,.23.54h0l2.68,4.51.15,3.95c0,.29,2.14.75,2.79.73.23,0,2.82-.31,2.9-1.13l.11-3.69,3-4.2h0a.75.75,0,0,0,.19-.52l1.78,0v0l1.46.84,3.16.17a3.77,3.77,0,0,0,.14-2.38Zm-10.22,4.24h0c-2.37,3-4.62,0-4.62,0l-2.17-3.14,8.9.14Zm0,0"/><path class="cls-8" d="M402.79,106.45"/><path class="cls-8" d="M411.15,105.89v0l1.46.84,3.16.17a3.77,3.77,0,0,0,.14-2.38h0l-3.17-.17-1.55.67v0l-15.59-.24v-.05l-1.44-.87-3.16-.25a3.78,3.78,0,0,0-.19,2.38l3.16.24,1.56-.63v0m3.36.05,8.9.14"/><path class="cls-8" d="M404.06,111.7a1.47,1.47,0,0,0-1.37,0L398,114.83a1.08,1.08,0,0,0-.48,1.18c.47,1.36,1.89,3.72,5.85,3.76s5.39-2.38,5.85-3.76a1.09,1.09,0,0,0-.48-1.18Zm0,0"/><path class="cls-7" d="M403.37,111.54a1.76,1.76,0,0,0-.69.17L398,114.83a1.08,1.08,0,0,0-.48,1.18c.47,1.36,1.89,3.72,5.85,3.76Zm.69.17"/><path class="cls-7" d="M842.86,295.42v4.74a.51.51,0,1,1-1,0v-4.74a.51.51,0,1,1,1,0Z"/><path class="cls-7" d="M848.62,299.49h0a2,2,0,0,1-2,2h-21a2,2,0,0,1-2-2h0a.68.68,0,0,1,.68-.68h23.72A.68.68,0,0,1,848.62,299.49Z"/><path class="cls-7" d="M843.2,280.51h0v-.68h0a9.59,9.59,0,0,0-.06-1c0-.11,0-.21,0-.32s-.07-.45-.11-.67-.06-.24-.09-.37-.11-.4-.17-.6-.09-.25-.13-.37-.14-.37-.23-.55l-.07-.16h0a9.48,9.48,0,0,0-8.56-5.42.57.57,0,0,0-.56.47l-.93,5h0l-.88,4.71-.9,4.78h0l-1,5.35a2.69,2.69,0,0,0,0,.47s0,0,0,.06,0,.05,0,.08,0,.1,0,.14h0a2.7,2.7,0,0,0,2,2.38l11.34,2.83a.34.34,0,0,0,.42-.33h0V290h0v-3.39h0Z"/><path class="cls-6" d="M839.64,290a.51.51,0,0,1-.51.51h-9.66a.51.51,0,1,1,0-1h9.66A.51.51,0,0,1,839.64,290Zm1.53-.51h-.07a.51.51,0,1,0,0,1h.07a.51.51,0,1,0,0-1Zm-2-4.74h-8.81a.51.51,0,1,0,0,1h8.81a.51.51,0,0,0,0-1Zm2,0h-.07a.51.51,0,1,0,0,1h.07a.51.51,0,1,0,0-1Zm-2-4.74h-7.86a.51.51,0,0,0,0,1h7.86a.51.51,0,0,0,0-1Zm2,1h.07a.51.51,0,0,0,0-1h-.07a.51.51,0,0,0,0,1Zm-8.91-4.74h5.59a.51.51,0,0,0,0-1h-5.59a.51.51,0,0,0,0,1Zm7.63-1h-.07a.51.51,0,0,0,0,1h.07a.51.51,0,0,0,0-1Z"/><path class="cls-5" d="M179.36,91.06A17.33,17.33,0,0,1,185,92a12.9,12.9,0,0,1,7.1-2c4.78,0,8.79,2.25,9.87,5.29a7.54,7.54,0,0,1,5.18,3.3c.29,0,.58,0,.87,0,4.42,0,8,2.44,8,5.45s-3.59,5.45-8,5.45a11.07,11.07,0,0,1-3.8-.65c-1,2.26-4,3.92-7.69,3.92a10.13,10.13,0,0,1-5.69-1.62,10.12,10.12,0,0,1-5.69,1.62,10.3,10.3,0,0,1-5.47-1.47,10,10,0,0,1-5.91,1.77,10.17,10.17,0,0,1-5.62-1.57,13.83,13.83,0,0,1-2.05.15c-5.27,0-9.54-2.91-9.54-6.49s4.27-6.49,9.54-6.49l.85,0C167.62,94.38,172.92,91.06,179.36,91.06Z"/><path class="cls-7" d="M499.18,213.21l.12.14a.4.4,0,0,0,.68-.4,10.36,10.36,0,0,0-13.18-6.45,10.54,10.54,0,0,1,9.26-1.59.4.4,0,0,0,.35-.71A14.26,14.26,0,1,0,497.88,226l.25-.27.12-.12a.4.4,0,0,0-.5-.61,7.57,7.57,0,0,1-2.82,1.07c3.25-1.61,5.44-3.82,4.89-4.94s-3-.8-5.78.38l.21-1.17a.53.53,0,0,0-.21-.52l-1.76-1.25,3.07-.7a.52.52,0,1,0-.23-1l-4.21,1,0,0a.49.49,0,0,0-.15.08l0,0c-2.57,2.2-2.66,2.46-2.7,2.6a.53.53,0,0,0,.33.67l.17,0a.53.53,0,0,0,.47-.29c.17-.22,1.16-1.12,2.11-1.94l1.41,1-2.16,2.08a.53.53,0,0,0-.16.42l.1,1.16a10.61,10.61,0,0,0-1.2,1,7.67,7.67,0,0,1-.73-11.75,7.71,7.71,0,0,1,10.89.24Zm-6.1,7.66-.21,1.2a18.91,18.91,0,0,0-1.65.93l0-.31Zm-3.31-6.2a1.4,1.4,0,1,1-1.4,1.4,1.4,1.4,0,0,1,1.4-1.4Zm0,0"/><path class="cls-7" d="M648.92,335.87s1.36,6.48,6.43,4.13c0,0-2.12-2-1.23-3.19s4.34-4.71,4.34-4.71,2.82,2.89.33,5.64a4.23,4.23,0,0,1,5.48.3s-4.12,6.28-6.79,3.81c0,0-4.84,7.63-16.48,8.54"/><path class="cls-7" d="M638,327.21a2.46,2.46,0,0,0-2.25-.86c-1.6.11-.64-2.35,1.12-2s.91,1.71,1.12,2.89Zm0,0"/><path class="cls-7" d="M638.16,324.29a1.55,1.55,0,0,0-.83-1.26c-.85-.53.54-1.43,1.32-.62s-.17,1.2-.49,1.88Zm0,0"/><path class="cls-7" d="M638.52,327.21a2.46,2.46,0,0,1,2.25-.86c1.6.11.64-2.35-1.12-2s-.91,1.71-1.12,2.89Zm0,0"/><path class="cls-7" d="M649.51,339.32a11.26,11.26,0,1,1-11.41-11.11,11.26,11.26,0,0,1,11.41,11.11Zm0,0"/><path class="cls-6" d="M627,340.05s3.87,1.53,6.77-.27c1.64-1,1.49,6.28,6.26,7.56s12.69-.63,17.44-5.49c0,0-10,14.59-24.8,7.83,0,0-5.44-2.32-5.67-9.63Zm0,0"/><path class="cls-4" d="M632.76,335.69a1,1,0,1,1-1-1,1,1,0,0,1,1,1Zm0,0"/><path class="cls-7" d="M617.73,469.75a8.24,8.24,0,0,0-4.37,1.55,1.93,1.93,0,0,1-2.19.09l-1.72-1.1a.55.55,0,0,0-.85.46v5.89a.55.55,0,0,0,.85.46l1.72-1.1a1.93,1.93,0,0,1,2.19.09,8.24,8.24,0,0,0,4.37,1.55,3.94,3.94,0,0,0,0-7.89Zm0,0"/><path class="cls-6" d="M599.46,469.75a8.24,8.24,0,0,0-4.37,1.55,1.93,1.93,0,0,1-2.19.09l-1.72-1.1a.55.55,0,0,0-.85.46v5.89a.55.55,0,0,0,.85.46l1.72-1.1a1.93,1.93,0,0,1,2.19.09,8.24,8.24,0,0,0,4.37,1.55,3.94,3.94,0,0,0,0-7.89Zm0,0"/><path class="cls-7" d="M609.53,482.83a8.24,8.24,0,0,0-4.37,1.55,1.93,1.93,0,0,1-2.19.09l-1.72-1.1a.55.55,0,0,0-.85.46v5.89a.55.55,0,0,0,.85.46l1.72-1.1a1.93,1.93,0,0,1,2.19.09,8.24,8.24,0,0,0,4.37,1.55,3.94,3.94,0,0,0,0-7.89Zm0,0"/><path class="cls-6" d="M608.39,456.68a8.24,8.24,0,0,0-4.37,1.55,1.93,1.93,0,0,1-2.19.09l-1.72-1.1a.55.55,0,0,0-.85.46v5.89a.55.55,0,0,0,.85.46l1.72-1.1A1.93,1.93,0,0,1,604,463a8.24,8.24,0,0,0,4.37,1.55,3.94,3.94,0,1,0,0-7.89Zm0,0"/><path class="cls-7" d="M590.12,456.68a8.24,8.24,0,0,0-4.37,1.55,1.93,1.93,0,0,1-2.19.09l-1.72-1.1a.55.55,0,0,0-.85.46v5.89a.55.55,0,0,0,.85.46l1.72-1.1a1.93,1.93,0,0,1,2.19.09,8.24,8.24,0,0,0,4.37,1.55,3.94,3.94,0,0,0,0-7.89Zm0,0"/><path class="cls-9" d="M591.48,460.31a.84.84,0,1,1-.84-.84.84.84,0,0,1,.84.84Zm0,0"/><path class="cls-7" d="M581.2,469.75a8.24,8.24,0,0,0-4.37,1.55,1.93,1.93,0,0,1-2.19.09l-1.72-1.1a.55.55,0,0,0-.85.46v5.89a.55.55,0,0,0,.85.46l1.72-1.1a1.93,1.93,0,0,1,2.19.09,8.23,8.23,0,0,0,4.37,1.55,3.94,3.94,0,1,0,0-7.89Zm0,0"/><path class="cls-6" d="M591.26,482.83a8.24,8.24,0,0,0-4.37,1.55,1.93,1.93,0,0,1-2.19.09l-1.72-1.1a.55.55,0,0,0-.85.46v5.89a.55.55,0,0,0,.85.46l1.72-1.1a1.93,1.93,0,0,1,2.19.09,8.24,8.24,0,0,0,4.37,1.55,3.94,3.94,0,0,0,0-7.89Zm0,0"/><path class="cls-10" d="M609.83,460.12a.84.84,0,1,1-.84-.84.84.84,0,0,1,.84.84Zm0,0"/><path class="cls-9" d="M619.2,473a.84.84,0,1,1-.84-.84.84.84,0,0,1,.84.84Zm0,0"/><path class="cls-10" d="M601,473a.84.84,0,1,1-.84-.84.84.84,0,0,1,.84.84Zm0,0"/><path class="cls-9" d="M582.87,473a.84.84,0,1,1-.84-.84.84.84,0,0,1,.84.84Zm0,0"/><path class="cls-10" d="M593.14,486.19a.84.84,0,1,1-.84-.84.84.84,0,0,1,.84.84Zm0,0"/><path class="cls-9" d="M610.93,486.19a.84.84,0,1,1-.84-.84.84.84,0,0,1,.84.84Zm0,0"/><path class="cls-7" d="M483.9,235.37c-.52,0-.52-.09-.73-.22l-1.3-.87a1.58,1.58,0,0,0-1.62,0l-1.3.87a1.45,1.45,0,0,1-.73.22,3.55,3.55,0,0,1-1-.27c-.36-.19-1.23-.82-1.23-.82a1.58,1.58,0,0,0-1.62,0l-1.3.87a1.58,1.58,0,0,1-1.62,0l-1.3-.87a1.48,1.48,0,0,0-.81-.22h0v1h0a.54.54,0,0,1,.27.06l1.3.87a2.55,2.55,0,0,0,2.69,0l1.3-.87a.64.64,0,0,1,.54,0l1.3.87a2.55,2.55,0,0,0,2.69,0l1.3-.87a.64.64,0,0,1,.54,0l1.3.87a2.55,2.55,0,0,0,2.69,0l1.3-.87a.65.65,0,0,1,.54,0l1.3.87a2.55,2.55,0,0,0,2.69,0l1.3-.87a.54.54,0,0,1,.27-.06v-1a1.48,1.48,0,0,0-.8.22l-1.3.87a1.58,1.58,0,0,1-1.62,0l-1.3-.87a1.58,1.58,0,0,0-1.62,0,12.85,12.85,0,0,1-1.23.82A4.2,4.2,0,0,1,483.9,235.37Z"/><path class="cls-7" d="M744.22,210"/><path class="cls-7" d="M732.18,206.29a16.21,16.21,0,0,1,5-.77,16.77,16.77,0,0,1,4.34.57h0a34.42,34.42,0,0,0,9,1.49,16.83,16.83,0,0,0,5-.7l5.7-11s-12-1.21-32.9,9.07v3h.31a15.34,15.34,0,0,1,3.62-1.71Zm13.54-6.12a.89.89,0,1,1-.89.89.89.89,0,0,1,.89-.89Zm-2.8.89a.89.89,0,1,1-.89.89.89.89,0,0,1,.89-.89Zm-2.69.89a.89.89,0,1,1-.89.89.89.89,0,0,1,.89-.89Zm0,0"/><path class="cls-7" d="M735.19,195.79l.27.89a22.43,22.43,0,0,1,3.4-1.12.55.55,0,0,1,.25,1.08,21.57,21.57,0,0,0-3.33,1.1l.78,2.58a60.22,60.22,0,0,1,15-4.44l-7.83-1.75a22.85,22.85,0,0,0-11,1.67,4.92,4.92,0,0,0,2.45,0Zm0,0"/><path class="cls-7" d="M637.4,356.67c-.52,0-.52-.09-.73-.22l-1.3-.87a1.58,1.58,0,0,0-1.62,0l-1.3.87a1.45,1.45,0,0,1-.73.22,3.55,3.55,0,0,1-1-.27c-.36-.19-1.23-.82-1.23-.82a1.58,1.58,0,0,0-1.62,0l-1.3.87a1.58,1.58,0,0,1-1.62,0l-1.3-.87a1.48,1.48,0,0,0-.81-.22h0v1h0a.54.54,0,0,1,.27.06l1.3.87a2.55,2.55,0,0,0,2.69,0l1.3-.87a.64.64,0,0,1,.54,0l1.3.87a2.55,2.55,0,0,0,2.69,0l1.3-.87a.64.64,0,0,1,.54,0l1.3.87a2.55,2.55,0,0,0,2.69,0l1.3-.87a.65.65,0,0,1,.54,0l1.3.87a2.55,2.55,0,0,0,2.69,0l1.3-.87a.54.54,0,0,1,.27-.06v-1a1.48,1.48,0,0,0-.8.22l-1.3.87a1.58,1.58,0,0,1-1.62,0l-1.3-.87a1.58,1.58,0,0,0-1.62,0,12.85,12.85,0,0,1-1.23.82A4.2,4.2,0,0,1,637.4,356.67Z"/><path class="cls-7" d="M620.12,353c-.52,0-.52-.09-.73-.22l-1.3-.87a1.58,1.58,0,0,0-1.62,0l-1.3.87a1.45,1.45,0,0,1-.73.22,3.55,3.55,0,0,1-1-.27c-.36-.19-1.23-.82-1.23-.82a1.58,1.58,0,0,0-1.62,0l-1.3.87a1.58,1.58,0,0,1-1.62,0l-1.3-.87a1.48,1.48,0,0,0-.81-.22h0v1h0a.54.54,0,0,1,.27.06l1.3.87a2.55,2.55,0,0,0,2.69,0l1.3-.87a.64.64,0,0,1,.54,0l1.3.87a2.55,2.55,0,0,0,2.69,0l1.3-.87a.64.64,0,0,1,.54,0l1.3.87a2.55,2.55,0,0,0,2.69,0l1.3-.87a.65.65,0,0,1,.54,0l1.3.87a2.55,2.55,0,0,0,2.69,0l1.3-.87a.54.54,0,0,1,.27-.06v-1a1.48,1.48,0,0,0-.8.22l-1.3.87a1.58,1.58,0,0,1-1.62,0l-1.3-.87a1.58,1.58,0,0,0-1.62,0,12.85,12.85,0,0,1-1.23.82A4.2,4.2,0,0,1,620.12,353Z"/><path class="cls-7" d="M751.89,213.73c-.52,0-.52-.09-.73-.22l-1.3-.87a1.58,1.58,0,0,0-1.62,0l-1.3.87a1.45,1.45,0,0,1-.73.22,3.55,3.55,0,0,1-1-.27c-.36-.19-1.23-.82-1.23-.82a1.58,1.58,0,0,0-1.62,0l-1.3.87a1.58,1.58,0,0,1-1.62,0l-1.3-.87a1.48,1.48,0,0,0-.81-.22h0v1h0a.54.54,0,0,1,.27.06l1.3.87a2.55,2.55,0,0,0,2.69,0l1.3-.87a.64.64,0,0,1,.54,0l1.3.87a2.55,2.55,0,0,0,2.69,0l1.3-.87a.64.64,0,0,1,.54,0l1.3.87a2.55,2.55,0,0,0,2.69,0l1.3-.87a.65.65,0,0,1,.54,0l1.3.87a2.55,2.55,0,0,0,2.69,0l1.3-.87a.54.54,0,0,1,.27-.06v-1a1.48,1.48,0,0,0-.8.22l-1.3.87a1.58,1.58,0,0,1-1.62,0l-1.3-.87a1.58,1.58,0,0,0-1.62,0,12.85,12.85,0,0,1-1.23.82A4.2,4.2,0,0,1,751.89,213.73Z"/><path class="cls-7" d="M734.61,210.07c-.52,0-.52-.09-.73-.22l-1.3-.87a1.58,1.58,0,0,0-1.62,0l-1.3.87a1.45,1.45,0,0,1-.73.22,3.55,3.55,0,0,1-1-.27c-.36-.19-1.23-.82-1.23-.82a1.58,1.58,0,0,0-1.62,0l-1.3.87a1.58,1.58,0,0,1-1.62,0l-1.3-.87a1.48,1.48,0,0,0-.81-.22h0v1h0a.54.54,0,0,1,.27.06l1.3.87a2.55,2.55,0,0,0,2.69,0l1.3-.87a.64.64,0,0,1,.54,0l1.3.87a2.55,2.55,0,0,0,2.69,0l1.3-.87a.64.64,0,0,1,.54,0l1.3.87a2.55,2.55,0,0,0,2.69,0l1.3-.87a.65.65,0,0,1,.54,0l1.3.87a2.55,2.55,0,0,0,2.69,0l1.3-.87a.54.54,0,0,1,.27-.06v-1a1.48,1.48,0,0,0-.8.22l-1.3.87a1.58,1.58,0,0,1-1.62,0l-1.3-.87a1.58,1.58,0,0,0-1.62,0,12.85,12.85,0,0,1-1.23.82A4.2,4.2,0,0,1,734.61,210.07Z"/><path class="cls-7" d="M766.72,491.63c-.52,0-.52-.09-.73-.22l-1.3-.87a1.58,1.58,0,0,0-1.62,0l-1.3.87a1.45,1.45,0,0,1-.73.22,3.55,3.55,0,0,1-1-.27c-.36-.19-1.23-.82-1.23-.82a1.58,1.58,0,0,0-1.62,0l-1.3.87a1.58,1.58,0,0,1-1.62,0l-1.3-.87a1.48,1.48,0,0,0-.81-.22h0v1h0a.54.54,0,0,1,.27.06l1.3.87a2.55,2.55,0,0,0,2.69,0l1.3-.87a.64.64,0,0,1,.54,0l1.3.87a2.55,2.55,0,0,0,2.69,0l1.3-.87a.64.64,0,0,1,.54,0l1.3.87a2.55,2.55,0,0,0,2.69,0l1.3-.87a.65.65,0,0,1,.54,0l1.3.87a2.55,2.55,0,0,0,2.69,0l1.3-.87a.54.54,0,0,1,.27-.06v-1a1.48,1.48,0,0,0-.8.22l-1.3.87a1.58,1.58,0,0,1-1.62,0l-1.3-.87a1.58,1.58,0,0,0-1.62,0,12.85,12.85,0,0,1-1.23.82A4.2,4.2,0,0,1,766.72,491.63Z"/><path class="cls-7" d="M749.44,488c-.52,0-.52-.09-.73-.22l-1.3-.87a1.58,1.58,0,0,0-1.62,0l-1.3.87a1.45,1.45,0,0,1-.73.22,3.55,3.55,0,0,1-1-.27c-.36-.19-1.23-.82-1.23-.82a1.58,1.58,0,0,0-1.62,0l-1.3.87a1.58,1.58,0,0,1-1.62,0l-1.3-.87a1.48,1.48,0,0,0-.81-.22h0v1h0a.54.54,0,0,1,.27.06l1.3.87a2.55,2.55,0,0,0,2.69,0l1.3-.87a.64.64,0,0,1,.54,0l1.3.87a2.55,2.55,0,0,0,2.69,0l1.3-.87a.64.64,0,0,1,.54,0l1.3.87a2.55,2.55,0,0,0,2.69,0l1.3-.87a.65.65,0,0,1,.54,0l1.3.87a2.55,2.55,0,0,0,2.69,0l1.3-.87a.54.54,0,0,1,.27-.06v-1a1.48,1.48,0,0,0-.8.22l-1.3.87a1.58,1.58,0,0,1-1.62,0l-1.3-.87a1.58,1.58,0,0,0-1.62,0,12.85,12.85,0,0,1-1.23.82A4.2,4.2,0,0,1,749.44,488Z"/><path class="cls-7" d="M406.21,126.88c-.52,0-.52-.09-.73-.22l-1.3-.87a1.58,1.58,0,0,0-1.62,0l-1.3.87a1.45,1.45,0,0,1-.73.22,3.55,3.55,0,0,1-1-.27c-.36-.19-1.23-.82-1.23-.82a1.58,1.58,0,0,0-1.62,0l-1.3.87a1.58,1.58,0,0,1-1.62,0l-1.3-.87a1.48,1.48,0,0,0-.81-.22h0v1h0a.54.54,0,0,1,.27.06l1.3.87a2.55,2.55,0,0,0,2.69,0l1.3-.87a.64.64,0,0,1,.54,0l1.3.87a2.55,2.55,0,0,0,2.69,0l1.3-.87a.64.64,0,0,1,.54,0l1.3.87a2.55,2.55,0,0,0,2.69,0l1.3-.87a.65.65,0,0,1,.54,0l1.3.87a2.55,2.55,0,0,0,2.69,0l1.3-.87a.54.54,0,0,1,.27-.06v-1a1.48,1.48,0,0,0-.8.22l-1.3.87a1.58,1.58,0,0,1-1.62,0l-1.3-.87a1.58,1.58,0,0,0-1.62,0,12.85,12.85,0,0,1-1.23.82A4.2,4.2,0,0,1,406.21,126.88Z"/><path class="cls-7" d="M388.93,123.22c-.52,0-.52-.09-.73-.22l-1.3-.87a1.58,1.58,0,0,0-1.62,0L384,123a1.45,1.45,0,0,1-.73.22,3.55,3.55,0,0,1-1-.27c-.36-.19-1.23-.82-1.23-.82a1.58,1.58,0,0,0-1.62,0l-1.3.87a1.58,1.58,0,0,1-1.62,0l-1.3-.87a1.48,1.48,0,0,0-.81-.22h0v1h0a.54.54,0,0,1,.27.06l1.3.87a2.55,2.55,0,0,0,2.69,0l1.3-.87a.64.64,0,0,1,.54,0l1.3.87a2.55,2.55,0,0,0,2.69,0l1.3-.87a.64.64,0,0,1,.54,0l1.3.87a2.55,2.55,0,0,0,2.69,0l1.3-.87a.65.65,0,0,1,.54,0l1.3.87a2.55,2.55,0,0,0,2.69,0l1.3-.87a.54.54,0,0,1,.27-.06v-1a1.48,1.48,0,0,0-.8.22l-1.3.87a1.58,1.58,0,0,1-1.62,0l-1.3-.87a1.58,1.58,0,0,0-1.62,0,12.85,12.85,0,0,1-1.23.82A4.2,4.2,0,0,1,388.93,123.22Z"/><path class="cls-7" d="M839.27,308.63c-.52,0-.52-.09-.73-.22l-1.3-.87a1.58,1.58,0,0,0-1.62,0l-1.3.87a1.45,1.45,0,0,1-.73.22,3.55,3.55,0,0,1-1-.27c-.36-.19-1.23-.82-1.23-.82a1.58,1.58,0,0,0-1.62,0l-1.3.87a1.58,1.58,0,0,1-1.62,0l-1.3-.87a1.48,1.48,0,0,0-.81-.22h0v1h0a.54.54,0,0,1,.27.06l1.3.87a2.55,2.55,0,0,0,2.69,0l1.3-.87a.64.64,0,0,1,.54,0l1.3.87a2.55,2.55,0,0,0,2.69,0l1.3-.87a.64.64,0,0,1,.54,0l1.3.87a2.55,2.55,0,0,0,2.69,0l1.3-.87a.65.65,0,0,1,.54,0l1.3.87a2.55,2.55,0,0,0,2.69,0l1.3-.87a.54.54,0,0,1,.27-.06v-1a1.48,1.48,0,0,0-.8.22l-1.3.87a1.58,1.58,0,0,1-1.62,0l-1.3-.87a1.58,1.58,0,0,0-1.62,0,12.85,12.85,0,0,1-1.23.82A4.2,4.2,0,0,1,839.27,308.63Z"/><path class="cls-7" d="M822,305c-.52,0-.52-.09-.73-.22l-1.3-.87a1.58,1.58,0,0,0-1.62,0l-1.3.87a1.45,1.45,0,0,1-.73.22,3.55,3.55,0,0,1-1-.27c-.36-.19-1.23-.82-1.23-.82a1.58,1.58,0,0,0-1.62,0l-1.3.87a1.58,1.58,0,0,1-1.62,0l-1.3-.87a1.48,1.48,0,0,0-.81-.22h0v1h0a.54.54,0,0,1,.27.06l1.3.87a2.55,2.55,0,0,0,2.69,0l1.3-.87a.64.64,0,0,1,.54,0l1.3.87a2.55,2.55,0,0,0,2.69,0l1.3-.87a.64.64,0,0,1,.54,0l1.3.87a2.55,2.55,0,0,0,2.69,0l1.3-.87a.65.65,0,0,1,.54,0l1.3.87a2.55,2.55,0,0,0,2.69,0l1.3-.87a.54.54,0,0,1,.27-.06v-1a1.48,1.48,0,0,0-.8.22l-1.3.87a1.58,1.58,0,0,1-1.62,0l-1.3-.87a1.58,1.58,0,0,0-1.62,0,12.85,12.85,0,0,1-1.23.82A4.2,4.2,0,0,1,822,305Z"/><path class="cls-3" d="M482.42,498.89c1.41,3.12,6.31,5.43,12.14,5.43s10.73-2.3,12.14-5.43c-2.75,1.79-7.16,3-12.14,3S485.17,500.69,482.42,498.89Z"/><path class="cls-4" d="M501.06,513.21c1.41,3.12,6.31,5.43,12.14,5.43s10.73-2.3,12.14-5.43c-2.75,1.79-7.16,3-12.14,3S503.81,515,501.06,513.21Z"/><path class="cls-3" d="M457.05,515.93c1.41,3.12,6.31,5.43,12.14,5.43s10.73-2.3,12.14-5.43c-2.75,1.79-7.16,3-12.14,3S459.8,517.72,457.05,515.93Z"/><path class="cls-4" d="M475.69,530.25c1.41,3.12,6.31,5.43,12.14,5.43s10.73-2.3,12.14-5.43c-2.75,1.79-7.16,3-12.14,3S478.44,532,475.69,530.25Z"/><path class="cls-3" d="M809,150.59c1.41,3.12,6.31,5.43,12.14,5.43s10.73-2.3,12.14-5.43c-2.75,1.79-7.16,3-12.14,3S811.73,152.39,809,150.59Z"/><path class="cls-4" d="M827.63,164.91c1.41,3.12,6.31,5.43,12.14,5.43s10.73-2.3,12.14-5.43c-2.75,1.79-7.16,3-12.14,3S830.37,166.71,827.63,164.91Z"/><path class="cls-3" d="M783.61,167.63c1.41,3.12,6.31,5.43,12.14,5.43s10.73-2.3,12.14-5.43c-2.75,1.79-7.16,3-12.14,3S786.36,169.42,783.61,167.63Z"/><path class="cls-4" d="M802.25,181.95c1.41,3.12,6.31,5.43,12.14,5.43s10.73-2.3,12.14-5.43c-2.75,1.79-7.16,3-12.14,3S805,183.74,802.25,181.95Z"/><path class="cls-7" d="M310.49,149.11l-.64-3.37a.43.43,0,0,0-.65-.29l-2.94,1.77a.43.43,0,0,0,.25.81l1.15-.08a6,6,0,0,1-4.64,2.23v-9.65H304a.92.92,0,1,0,0-1.47H303v-1.33a2,2,0,1,0-2.2,0v1.33h-.94a.92.92,0,1,0,0,1.47h.95v9.65a6,6,0,0,1-4.64-2.23l1.15.08a.43.43,0,0,0,.25-.81l-2.94-1.77a.43.43,0,0,0-.65.29l-.64,3.37a.43.43,0,0,0,.77.35l.69-.88A9.4,9.4,0,0,0,300.7,153l.92.92a.43.43,0,0,0,.61,0l.92-.92a9.4,9.4,0,0,0,5.88-4.46l.69.88a.43.43,0,0,0,.77-.35Zm-8.57-13.56a.53.53,0,1,1-.53.53.53.53,0,0,1,.53-.53Zm0,0"/><rect class="cls-11" x="565.3" y="329.93" width="76.22" height="88.85"/></g></g></svg>