<svg xmlns="http://www.w3.org/2000/svg" viewBox="0 0 116.23 107.72"><defs><style>.cls-1{fill:#27b3d9;}.cls-2{fill:#a3ddec;}</style></defs><title>Asset 21</title><g id="Layer_2" data-name="Layer 2"><g id="menu_bar" data-name="menu bar"><g id="_Group_" data-name="&lt;Group&gt;"><path class="cls-1" d="M116.21,64.67l0,0a12.77,12.77,0,0,0-2-8,1.67,1.67,0,0,1,1.19.37c-1.56-3-4.22-3.71-7.24-4.28a4,4,0,0,1,1.44-.91,13.93,13.93,0,0,0-8.48-.36A17.44,17.44,0,0,0,96,53.9a34.19,34.19,0,0,1,6-4.17,15.14,15.14,0,0,1,10.36-1.66,9.65,9.65,0,0,0-13.74-.92A23.71,23.71,0,0,1,100.25,45,9.09,9.09,0,0,0,96,48.55a12.7,12.7,0,0,0-2.68,5.56A17.67,17.67,0,0,0,88.95,45c-.41-.45-1.08-1.21-1.69-1.2,0,.45,0,.9,0,1.36a5.69,5.69,0,0,0-5-1.53c-1.38.22-4.31,1.1-4.83,2.58.09-.25,3.83.76,4.09.84a18.12,18.12,0,0,1,4.52,2.05,23.6,23.6,0,0,1,5.43,5c-2.18-2.37-5.37-4.45-8.34-4.33A9.48,9.48,0,0,0,83.46,51c-.21-.76-3.68-1.23-4.36-1.31a7.28,7.28,0,0,0-4.43.72,5.78,5.78,0,0,1,1.28,1.38c-.22-.34-2.61.95-2.88,1.12A7.15,7.15,0,0,0,70.7,55.2a15.77,15.77,0,0,0-2.19,6.87,21,21,0,0,1,2.75-2.85,15.77,15.77,0,0,1,3.43-2C80,54.79,86.13,53.78,91.54,55.8a14.25,14.25,0,0,0-10.17,1.8,1.41,1.41,0,0,1,1,.59,16,16,0,0,0-4.16,1.95,6.93,6.93,0,0,0-2.75,3.59l1.28-.64a9.67,9.67,0,0,0-1.13,6.42,9.07,9.07,0,0,0,3.22,5.61c-.43-2.37,1.23-5.26,2.22-7.35a29.81,29.81,0,0,1,2.41-4.44,21.29,21.29,0,0,1,9.36-7l.18.08c0,1.33.2,14.77-6.71,25.71C79,93.67,77.1,99.42,77.1,99.42l7.25,2.77s4-14.66,5.12-17.87,4.4-12.89,4.69-17.9c.23-4,.36-8.75.41-10.57,4.9,1.84,8.51,7.39,9.7,12.2a54.34,54.34,0,0,1,1.36,8.07l.22-.27s0,0,0,0,.18,0,.25-.11a11.43,11.43,0,0,0,3.1-6.06,7.14,7.14,0,0,0-2.11-6.29l.93,0a9.73,9.73,0,0,0-3.94-4.23l1.43-.12A14.16,14.16,0,0,0,99,55.71a25,25,0,0,1,7.91,1.74,19.34,19.34,0,0,1,8.91,7.63,1.28,1.28,0,0,0,.26.36A1.37,1.37,0,0,0,116.21,64.67ZM93,56.39v0S93,56.39,93,56.39Z"/><path class="cls-1" d="M2.22,33.53A2.16,2.16,0,0,0,2.71,33a32.64,32.64,0,0,1,16-11.7A42.16,42.16,0,0,1,32.2,19.34a23.9,23.9,0,0,0-11.4,4.79l2.4.38A16.43,16.43,0,0,0,16,31.13l1.56.17a12.05,12.05,0,0,0-4.36,10.31,19.3,19.3,0,0,0,4.44,10.59c.1.13.26.27.41.21s0,0,0,0l.33.48a91.75,91.75,0,0,1,3.32-13.41c2.62-7.95,9.41-16.82,17.89-19.29C39.49,23.22,39.11,31.29,39,38c-.16,8.46,4.08,25.18,5.6,30.72s6.34,30.73,6.34,30.73L63.49,95.7S61,85.79,50.2,65.46C40,46.16,42,23.57,42.19,21.33l.31-.11c5.92,3.06,11.46,7.2,14.86,12.92a50.31,50.31,0,0,1,3.5,7.78c1.39,3.63,3.83,8.71,2.79,12.65,3.07-1.88,5.26-5.6,6.13-9a16.31,16.31,0,0,0-1.08-10.95l2.07,1.25a11.7,11.7,0,0,0-4.16-6.39,27,27,0,0,0-6.74-3.81,2.37,2.37,0,0,1,1.79-.86,24.05,24.05,0,0,0-16.88-4.33C54.12,17.73,64.26,20.22,73,25a26.62,26.62,0,0,1,5.51,3.82,35.39,35.39,0,0,1,4.26,5.15,26.63,26.63,0,0,0-2.81-11.84A12.08,12.08,0,0,0,76.24,18c-.44-.32-4.3-2.79-4.71-2.26a9.75,9.75,0,0,1,2.33-2.16,12.28,12.28,0,0,0-7.37-1.77c-1.16,0-7.06.38-7.51,1.64a16,16,0,0,0,.68-2.05c-5-.57-10.61,2.51-14.59,6.23a39.83,39.83,0,0,1,9.78-7.73A30.58,30.58,0,0,1,62.72,7c.45-.1,6.87-1.32,7-.89-.69-2.56-5.51-4.42-7.81-5a9.61,9.61,0,0,0-8.63,1.94c.08-.76.17-1.52.23-2.28-1-.09-2.25,1.1-3,1.8a29.83,29.83,0,0,0-8.59,14.73c-.23-3.42-1.91-6.75-3.8-9.71C36.42,5,34.39,2.35,31.48,1.18A40,40,0,0,1,33.91,5a16.28,16.28,0,0,0-23.24-.21c6-1,12.09,1,17.22,4.12a57.72,57.72,0,0,1,9.62,7.78,29.43,29.43,0,0,0-8.31-4.61,23.51,23.51,0,0,0-14.32-.48,6.75,6.75,0,0,1,2.31,1.71c-5.16.57-9.72,1.4-12.74,6.28a2.82,2.82,0,0,1,2-.46A21.55,21.55,0,0,0,2.14,32.26l0,0A2.32,2.32,0,0,0,2.22,33.53Zm40-12.25v0S42.2,21.26,42.19,21.28Z"/><path class="cls-1" d="M35,104.39S49.65,92.44,63.81,91.93c16.12-.59,29.8,14.68,29.8,14.68S78.64,107.3,35,104.39Z"/></g><g id="_Group_2" data-name="&lt;Group&gt;"><path id="_Compound_Path_" data-name="&lt;Compound Path&gt;" class="cls-2" d="M114.14,65.71l0,0a12.77,12.77,0,0,0-2-8,1.67,1.67,0,0,1,1.19.37c-1.56-3-4.22-3.71-7.24-4.28a4,4,0,0,1,1.44-.91A13.93,13.93,0,0,0,99,52.59a17.44,17.44,0,0,0-5.12,2.35,34.19,34.19,0,0,1,6-4.17,15.14,15.14,0,0,1,10.36-1.66,9.65,9.65,0,0,0-13.74-.92,23.71,23.71,0,0,1,1.61-2.14A9.09,9.09,0,0,0,94,49.59a12.7,12.7,0,0,0-2.68,5.56,17.67,17.67,0,0,0-4.42-9.09c-.41-.45-1.08-1.21-1.69-1.2,0,.45,0,.9,0,1.36a5.69,5.69,0,0,0-5-1.53c-1.38.22-4.31,1.1-4.83,2.58.09-.25,3.83.76,4.09.84A18.12,18.12,0,0,1,84,50.16a23.6,23.6,0,0,1,5.43,5c-2.18-2.37-5.37-4.45-8.34-4.33a9.48,9.48,0,0,0,.31,1.24c-.21-.76-3.68-1.23-4.36-1.31a7.28,7.28,0,0,0-4.43.72,5.78,5.78,0,0,1,1.28,1.38c-.22-.34-2.61.95-2.88,1.12a7.15,7.15,0,0,0-2.36,2.26,15.77,15.77,0,0,0-2.19,6.87,21,21,0,0,1,2.75-2.85,15.77,15.77,0,0,1,3.43-2c5.35-2.42,11.45-3.44,16.86-1.41a14.25,14.25,0,0,0-10.17,1.8,1.41,1.41,0,0,1,1,.59,16,16,0,0,0-4.16,1.95,6.93,6.93,0,0,0-2.75,3.59l1.28-.64a9.67,9.67,0,0,0-1.13,6.42,9.07,9.07,0,0,0,3.22,5.61C76.36,73.78,78,70.88,79,68.8a29.81,29.81,0,0,1,2.41-4.44,21.29,21.29,0,0,1,9.36-7l.18.08c0,1.33.2,14.77-6.71,25.71C77,94.71,75,100.46,75,100.46l7.25,2.77s4-14.66,5.12-17.87,4.4-12.89,4.69-17.9c.23-4,.36-8.75.41-10.57,4.9,1.84,8.51,7.39,9.7,12.2a54.34,54.34,0,0,1,1.36,8.07l.22-.27s0,0,0,0,.18,0,.25-.11a11.43,11.43,0,0,0,3.1-6.06A7.14,7.14,0,0,0,105,64.47l.93,0A9.73,9.73,0,0,0,102,60.21l1.43-.12a14.16,14.16,0,0,0-6.52-3.34,25,25,0,0,1,7.91,1.74,19.34,19.34,0,0,1,8.91,7.63,1.28,1.28,0,0,0,.26.36A1.37,1.37,0,0,0,114.14,65.71ZM91,57.43v0S91,57.43,91,57.43Z"/><path id="_Compound_Path_2" data-name="&lt;Compound Path&gt;" class="cls-2" d="M.16,34.57A2.16,2.16,0,0,0,.64,34a32.64,32.64,0,0,1,16-11.7,42.16,42.16,0,0,1,13.53-1.92,23.9,23.9,0,0,0-11.4,4.79l2.4.38A16.43,16.43,0,0,0,14,32.17l1.56.17a12.05,12.05,0,0,0-4.36,10.31A19.3,19.3,0,0,0,15.6,53.23c.1.13.26.27.41.21s0,0,0,0l.33.48a91.75,91.75,0,0,1,3.32-13.41c2.62-7.95,9.41-16.82,17.89-19.29C37.43,24.26,37,32.33,36.92,39c-.16,8.46,4.08,25.18,5.6,30.72s6.34,30.73,6.34,30.73l12.56-3.74S58.91,86.83,48.13,66.5c-10.23-19.3-8.24-41.89-8-44.14l.31-.11c5.92,3.06,11.46,7.2,14.86,12.92A50.31,50.31,0,0,1,58.78,43c1.39,3.63,3.83,8.71,2.79,12.65,3.07-1.88,5.26-5.6,6.13-9a16.31,16.31,0,0,0-1.08-10.95l2.07,1.25a11.7,11.7,0,0,0-4.16-6.39,27,27,0,0,0-6.74-3.81,2.37,2.37,0,0,1,1.79-.86A24.05,24.05,0,0,0,42.7,21.49c9.36-2.72,19.49-.23,28.2,4.53a26.62,26.62,0,0,1,5.51,3.82A35.39,35.39,0,0,1,80.66,35a26.63,26.63,0,0,0-2.81-11.84A12.08,12.08,0,0,0,74.18,19c-.44-.32-4.3-2.79-4.71-2.26a9.75,9.75,0,0,1,2.33-2.16,12.28,12.28,0,0,0-7.37-1.77c-1.16,0-7.06.38-7.51,1.64a16,16,0,0,0,.68-2.05C52.61,11.89,47,15,43,18.68a39.83,39.83,0,0,1,9.78-7.73,30.58,30.58,0,0,1,7.87-2.88c.45-.1,6.87-1.32,7-.89-.69-2.56-5.51-4.42-7.81-5a9.61,9.61,0,0,0-8.63,1.94c.08-.76.17-1.52.23-2.28-1-.09-2.25,1.1-3,1.8a29.83,29.83,0,0,0-8.59,14.73C39.62,15,37.93,11.65,36,8.7c-1.69-2.65-3.71-5.31-6.63-6.48A40,40,0,0,1,31.84,6,16.28,16.28,0,0,0,8.6,5.81c6-1,12.09,1,17.22,4.12a57.72,57.72,0,0,1,9.62,7.78,29.43,29.43,0,0,0-8.31-4.61,23.51,23.51,0,0,0-14.32-.48,6.75,6.75,0,0,1,2.31,1.71c-5.16.57-9.72,1.4-12.74,6.28a2.82,2.82,0,0,1,2-.46A21.55,21.55,0,0,0,.08,33.3l0,0A2.32,2.32,0,0,0,.16,34.57Zm40-12.25v0S40.13,22.3,40.13,22.32Z"/><path id="_Path_" data-name="&lt;Path&gt;" class="cls-2" d="M33,105.43S47.59,93.48,61.75,93c16.12-.59,29.8,14.68,29.8,14.68S76.58,108.34,33,105.43Z"/></g></g></g></svg>