<svg xmlns="http://www.w3.org/2000/svg" xmlns:xlink="http://www.w3.org/1999/xlink" viewBox="0 0 1000.08 172.34"><defs><style>.cls-1{fill:#7dcfe6;}.cls-2{fill:#27b3d9;}.cls-3{fill:#a3ddec;}.cls-4,.cls-6{fill:#006780;stroke:#006780;}.cls-4{stroke-width:0.34px;}.cls-5{fill:url(#linear-gradient);}.cls-6{stroke-width:0.34px;}.cls-7{fill:#ddf4ff;}.cls-8{clip-path:url(#clip-path);}.cls-9{fill:#fff;}</style><linearGradient id="linear-gradient" x1="-33.66" y1="279.14" x2="97.47" y2="279.14" gradientTransform="matrix(1, 0.02, -0.02, 1, 60.08, -131.38)" gradientUnits="userSpaceOnUse"><stop offset="0" stop-color="#d61f26"/><stop offset="0.49" stop-color="#f7b611"/><stop offset="1" stop-color="#00afd6"/></linearGradient><clipPath id="clip-path"><path class="cls-1" d="M871.87,119.62a3.62,3.62,0,0,0,.75.42s.14-.11.19-.18l.56-.76,6.66,2.44c-.09.14-.17.25-.24.36s-.32.31-.12.49a2.79,2.79,0,0,0,.75.42s.19-.15.26-.25c1.32-1.85,2.64-3.7,3.94-5.56a.45.45,0,0,1,.63-.21c.66.25,1.34.47,2,.68s.43.23.79-.29l2.54.84c1.44.48,2.89,1,4.33,1.46a.35.35,0,0,0,.51-.2c.28-.55.22-.8-.37-.92a1.62,1.62,0,0,1-1.35-1.37c-.48-1.81-1.08-3.59-1.64-5.39-.33-1.07-.67-2.14-1-3.2a.61.61,0,0,1,.11-.61q2.19-3.06,4.36-6.14c.24-.33.22-.43-.13-.69s-.54-.29-.78.05c-.58.81-.58.8-1.52.62l-6-1.13-.28-.07a.66.66,0,0,0-.6-.93c-.11,0-.24.13-.31.23l-3.69,5.13-.63.87a.87.87,0,0,0-1,.2.35.35,0,0,0,0,.33,1,1,0,0,1-.18,1.2c-1.23,1.67-2.42,3.36-3.62,5a.35.35,0,0,1-.48.13c-1.07-.37-2.15-.71-3.22-1.09-.35-.13-.5,0-.61.28-.19.5-.14.64.35.81l3.1,1-1.1,1.54L872,119.14C871.87,119.28,871.65,119.45,871.87,119.62Zm9.56-10.17c-.53.52-1,1.07-1.59,1.56a12.52,12.52,0,0,1-1.18.84l-.05-.07,2.61-3.64c.11.3.19.54.3.78A.41.41,0,0,1,881.43,109.45Zm1.71,4.4c.34.11.4.33.45.65l-3.5-1.16c-.58-.2-.46-.18-.79.3l-1.6-.54c.12-.3.27-.39.54-.27a2.47,2.47,0,0,0,.61.17.51.51,0,0,0,.36-.07.73.73,0,0,1,.76-.12C881,113.16,882.08,113.52,883.14,113.85Zm2.72,1.41,4.29-6,2.6,8.35Zm-1-1.24c.85-1.25,1.74-2.48,2.61-3.71s1.88-2.61,2.79-3.94a35.1,35.1,0,0,0,2.69-4l.63.12-8.61,12.16-.12,0C884.8,114.42,884.72,114.16,884.82,114Zm-2.38-5.84a7.55,7.55,0,0,0-.3-.79.53.53,0,0,1,.08-.64c.68-.92,1.34-1.86,2-2.8L885.6,102A21.54,21.54,0,0,1,882.44,108.18Zm-8.57,10.28a.36.36,0,0,1,0-.09l3.36-4.25,4,1.35,2.48.83-3.25,4.59Z"/></clipPath></defs><title>Asset 2</title><g id="Layer_2" data-name="Layer 2"><g id="menu_bar" data-name="menu bar"><g id="_Group_" data-name="&lt;Group&gt;"><path class="cls-2" d="M141.83,64.67l0,0a12.77,12.77,0,0,0-2-8,1.67,1.67,0,0,1,1.19.37c-1.56-3-4.22-3.71-7.24-4.28a4,4,0,0,1,1.44-.91,13.93,13.93,0,0,0-8.48-.36,17.44,17.44,0,0,0-5.12,2.35,34.19,34.19,0,0,1,6-4.17A15.14,15.14,0,0,1,138,48.07a9.65,9.65,0,0,0-13.74-.92A23.71,23.71,0,0,1,125.87,45a9.09,9.09,0,0,0-4.21,3.53A12.7,12.7,0,0,0,119,54.11,17.67,17.67,0,0,0,114.57,45c-.41-.45-1.08-1.21-1.69-1.2,0,.45,0,.9,0,1.36a5.69,5.69,0,0,0-5-1.53c-1.38.22-4.31,1.1-4.83,2.58.09-.25,3.83.76,4.09.84a18.12,18.12,0,0,1,4.52,2.05,23.6,23.6,0,0,1,5.43,5c-2.18-2.37-5.37-4.45-8.34-4.33a9.48,9.48,0,0,0,.31,1.24c-.21-.76-3.68-1.23-4.36-1.31a7.28,7.28,0,0,0-4.43.72,5.78,5.78,0,0,1,1.28,1.38c-.22-.34-2.61.95-2.88,1.12a7.15,7.15,0,0,0-2.36,2.26,15.77,15.77,0,0,0-2.19,6.87,21,21,0,0,1,2.75-2.85,15.77,15.77,0,0,1,3.43-2c5.35-2.42,11.45-3.44,16.86-1.41A14.25,14.25,0,0,0,107,57.6a1.41,1.41,0,0,1,1,.59,16,16,0,0,0-4.16,1.95,6.93,6.93,0,0,0-2.75,3.59l1.28-.64a9.67,9.67,0,0,0-1.13,6.42,9.07,9.07,0,0,0,3.22,5.61c-.43-2.37,1.23-5.26,2.22-7.35a29.81,29.81,0,0,1,2.41-4.44,21.29,21.29,0,0,1,9.36-7l.18.08c0,1.33.2,14.77-6.71,25.71-7.28,11.53-9.21,17.27-9.21,17.27l7.25,2.77s4-14.66,5.12-17.87,4.4-12.89,4.69-17.9c.23-4,.36-8.75.41-10.57,4.9,1.84,8.51,7.39,9.7,12.2a54.34,54.34,0,0,1,1.36,8.07l.22-.27s0,0,0,0,.18,0,.25-.11a11.43,11.43,0,0,0,3.1-6.06,7.14,7.14,0,0,0-2.11-6.29l.93,0a9.73,9.73,0,0,0-3.94-4.23l1.43-.12a14.16,14.16,0,0,0-6.52-3.34,25,25,0,0,1,7.91,1.74,19.34,19.34,0,0,1,8.91,7.63,1.28,1.28,0,0,0,.26.36A1.37,1.37,0,0,0,141.83,64.67Zm-23.19-8.28v0S118.64,56.39,118.64,56.39Z"/><path class="cls-2" d="M27.84,33.53a2.16,2.16,0,0,0,.49-.57,32.64,32.64,0,0,1,16-11.7,42.16,42.16,0,0,1,13.53-1.92,23.9,23.9,0,0,0-11.4,4.79l2.4.38a16.43,16.43,0,0,0-7.17,6.62l1.56.17a12.05,12.05,0,0,0-4.36,10.31,19.3,19.3,0,0,0,4.44,10.59c.1.13.26.27.41.21s0,0,0,0l.33.48a91.75,91.75,0,0,1,3.32-13.41C50,31.49,56.79,22.62,65.27,20.15c-.15,3.07-.53,11.14-.66,17.85-.16,8.46,4.08,25.18,5.6,30.72s6.34,30.73,6.34,30.73L89.11,95.7S86.6,85.79,75.82,65.46c-10.23-19.3-8.24-41.89-8-44.14l.31-.11C74,24.27,79.57,28.42,83,34.14a50.31,50.31,0,0,1,3.5,7.78c1.39,3.63,3.83,8.71,2.79,12.65,3.07-1.88,5.26-5.6,6.13-9a16.31,16.31,0,0,0-1.08-10.95l2.07,1.25a11.7,11.7,0,0,0-4.16-6.39,27,27,0,0,0-6.74-3.81,2.37,2.37,0,0,1,1.79-.86,24.05,24.05,0,0,0-16.88-4.33c9.36-2.72,19.49-.23,28.2,4.53a26.62,26.62,0,0,1,5.51,3.82,35.39,35.39,0,0,1,4.26,5.15,26.63,26.63,0,0,0-2.81-11.84,12.08,12.08,0,0,0-3.68-4.1c-.44-.32-4.3-2.79-4.71-2.26a9.75,9.75,0,0,1,2.33-2.16,12.28,12.28,0,0,0-7.37-1.77c-1.16,0-7.06.38-7.51,1.64a16,16,0,0,0,.68-2.05c-5-.57-10.61,2.51-14.59,6.23a39.83,39.83,0,0,1,9.78-7.73A30.58,30.58,0,0,1,88.34,7c.45-.1,6.87-1.32,7-.89-.69-2.56-5.51-4.42-7.81-5a9.61,9.61,0,0,0-8.63,1.94c.08-.76.17-1.52.23-2.28-1-.09-2.25,1.1-3,1.8a29.83,29.83,0,0,0-8.59,14.73c-.23-3.42-1.91-6.75-3.8-9.71C62,5,60,2.35,57.1,1.18A40,40,0,0,1,59.53,5a16.28,16.28,0,0,0-23.24-.21c6-1,12.09,1,17.22,4.12a57.72,57.72,0,0,1,9.62,7.78,29.43,29.43,0,0,0-8.31-4.61,23.51,23.51,0,0,0-14.32-.48A6.75,6.75,0,0,1,42.8,13.3c-5.16.57-9.72,1.4-12.74,6.28a2.82,2.82,0,0,1,2-.46,21.55,21.55,0,0,0-4.34,13.15l0,0A2.32,2.32,0,0,0,27.84,33.53Zm40-12.25v0S67.82,21.26,67.81,21.28Z"/><path class="cls-2" d="M60.65,104.39S75.27,92.44,89.43,91.93c16.12-.59,29.8,14.68,29.8,14.68S104.26,107.3,60.65,104.39Z"/></g><path class="cls-2" d="M0,87.46s171.2,18.18,227.84,20.64c72.2,3.13,184.92-21,257.17-22.3,48.58-.89,255.77,21.86,266.12,22.3,28,1.19,82.92-14.6,110.9-15.24,34.65-.79,138.05,12.6,138.05,12.6v40H.08Z"/><path class="cls-3" d="M0,91.46s171.2,18.18,227.84,20.64c72.2,3.13,184.92-21,257.17-22.3,48.58-.89,255.77,21.86,266.12,22.3,28,1.19,82.92-14.6,110.9-15.24,34.65-.79,138.05,12.6,138.05,12.6v62.88H.08Z"/><path class="cls-4" d="M67.81,155.67c0-.37-.05-.49-.21-.52l-.36,0c-.14,0-.18,0-.18-.12s0-.11.08-.11l1.6.06,1.6,0c.07,0,.11,0,.12.07s.08.82.08.87,0,.07,0,.07h-.11s-.06,0-.08-.07l-.19-.32c-.18-.3-.41-.35-.92-.36s-.61,0-.61.3l0,1.37.5,0c.44,0,.52,0,.6-.34s.1-.27.18-.27.12,0,.12.08,0,.46-.06.79,0,.41,0,.61,0,.07-.14.07-.11,0-.12-.32-.23-.34-.53-.34h-.55l0,1.52c0,.2.1.24.79.26s.78,0,1.05-.37l.28-.36s0,0,.07,0h.09s.07,0,.06.06a.64.64,0,0,1,0,.13l-.26.82s-.09.06-.18.06l-1.44-.05-1.91,0c-.06,0-.07-.07-.07-.12s0-.1.15-.11l.39,0c.15,0,.22-.14.23-.51Z"/><path class="cls-4" d="M74.7,157.61c0,1,.36,1.42,1.09,1.44.95,0,1.32-.82,1.36-2.68,0-.85,0-.93-.4-1l-.15,0s-.08,0-.08-.13,0-.11.1-.11l.75,0h.75c.09,0,.09,0,.09.11s0,.12-.05.12l-.29,0c-.31,0-.4.35-.49,2-.06,1.07-.56,2.12-1.9,2.08-1.08,0-1.56-.81-1.54-1.84l0-1.84c0-.39-.05-.47-.3-.5l-.28,0s-.08,0-.08-.12,0-.11.08-.11l1,0h1.06c.06,0,.07.07.07.12s0,.1-.09.11l-.29,0c-.31,0-.38.09-.39.5Z"/><path class="cls-4" d="M81.23,156c0-.41-.07-.5-.27-.52l-.39,0s-.08,0-.08-.13,0-.11.08-.11l1.07,0h1.18c.91,0,1.39.46,1.37,1.12,0,.93-.93,1-.93,1.07a2.7,2.7,0,0,0,.15.26l.79,1.44a.38.38,0,0,0,.35.21c.16,0,.23,0,.22.1s0,.17-.06.17l-.63,0h-.55c-.09,0-.13-.07-.24-.32l-.61-1.35c-.12-.25-.18-.28-.38-.28H82l0,1.14c0,.41.08.49.23.52l.32,0c.08,0,.11,0,.11.12s0,.11-.08.11l-1,0h-1c-.06,0-.07-.07-.07-.12s0-.1.12-.11l.32,0c.14,0,.25-.1.26-.5Zm.73,1.35h.45a.88.88,0,0,0,.95-.85.89.89,0,0,0-.89-1c-.44,0-.46,0-.48.78Z"/><path class="cls-4" d="M89.46,155.35a2.23,2.23,0,1,1-2.27,2.18A2,2,0,0,1,89.46,155.35Zm-.1,4.22c.75,0,1.33-.73,1.36-2s-.52-2-1.27-2-1.33.73-1.36,2S88.61,159.55,89.36,159.57Z"/><path class="cls-4" d="M95,156.29c0-.32-.06-.44-.27-.47l-.28,0c-.07,0-.11,0-.11-.12s0-.11.08-.11l1,0h1.1a1.3,1.3,0,0,1,1.41,1.31,1.23,1.23,0,0,1-1.41,1.23,2.89,2.89,0,0,1-.77-.12l0,1.1c0,.41.1.49.27.52l.39,0s.08,0,.08.13,0,.11-.08.11l-1.06,0H94.23c-.06,0-.07-.06-.07-.12s0-.13.12-.13h.36c.22,0,.29-.14.3-.5Zm1.14-.42c-.34,0-.36,0-.4,1.44,0,.39,0,.53.31.54a.94.94,0,0,0,1-1A.92.92,0,0,0,96.14,155.87Z"/><path class="cls-4" d="M101.27,156.49c0-.37-.05-.49-.21-.52l-.36,0c-.14,0-.18,0-.18-.12s0-.11.08-.11l1.6.06,1.6,0c.07,0,.11,0,.12.07s.08.82.08.87,0,.07,0,.07h-.11s-.06,0-.08-.07l-.19-.32c-.18-.3-.41-.35-.92-.36s-.61,0-.61.3l0,1.37.5,0c.44,0,.52,0,.6-.34s.1-.27.18-.27.12,0,.12.08,0,.46-.06.79,0,.41,0,.61,0,.07-.14.07-.11,0-.12-.32-.23-.34-.53-.34H102l0,1.52c0,.2.1.24.79.26s.78,0,1.05-.37l.28-.36s0,0,.07,0h.09s.07,0,.06.06a.64.64,0,0,1,0,.13L104,160s-.09.06-.18.06l-1.44-.05-1.91,0c-.06,0-.07-.07-.07-.12s0-.1.15-.11l.39,0c.15,0,.22-.14.23-.51Z"/><path class="cls-5" d="M140,149.24c-32.79-.8-101.74-2.57-109.77-2.83-3-.09-5.17-.25-7.34-.3h-.27c-.54-.05-1.33-.13-2.45-.15-.33,0-.61.19-.61.42s.21.48.63.49a5.53,5.53,0,0,0,1.7.35,6.66,6.66,0,0,1,.7.06,50.33,50.33,0,0,0,5.7.69,48.48,48.48,0,0,0,4.9-.14c1.23-.09,2.86-.05,5.45,0,4.63.11,13.48.28,23,.52,43,1.05,89,2.29,89,1.82S149.55,149.47,140,149.24Z"/><path class="cls-6" d="M125.39,133.49c0-.14-.24-.52-.51-.52s-.92.43-.92.73,0-.21,0,.32c0,.22,0,1.1,0,1.44,0,.61,0,2.21,0,3.47-.14,5.71-.07,6,.46,6s.58-.35.62-1.79c.11-4.36.28-7.68.38-8.74C125.4,134,125.38,133.78,125.39,133.49Z"/><path class="cls-6" d="M35,136.52c-.2,0-1.47-.07-1.66-.06l.23-5.65h0a.66.66,0,0,0-.63-.62.61.61,0,0,0-.66.5h0v0h0l0,3.46v.15c0,.1,0,.19,0,.29,0,.64-.05,1.31-.08,1.82l-4.76-.12c.05-.83.23-7.27.28-9.23h0l0-1.89h0a.64.64,0,0,0-.64-.59.6.6,0,0,0-.66.47h0v0h0v1.43a.75.75,0,0,1,0,.09h0c0,.79-.11,6.94-.17,9.78-.88.05-1.44.19-1.45.48s.13.56.69.57l.73,0v.15c0,1.55-.18,3-.21,4.3,0,.3.06.48.33.48.52,0,.81-.25.83-.87l.08-3.22c.05-.25-.06-.79.16-.82.72-.11,3.46-.13,4.73-.25L32,148.9c0,.55.11.65.45.66s.57-.69.58-1.12l.36-10.93s0-.08.18-.07l1.36.13c.29,0,.44-.54.45-.75S35.24,136.52,35,136.52Zm27-2.45c0-.14-.12-.59-.83-.72H61.1a.78.78,0,0,0-.4.29,1.6,1.6,0,0,0-.17.31c-.24.94-2.94,5.06-3.57,6.6a22.61,22.61,0,0,1-2-5.61c0-.17-.49-.33-.65-.34s-.27.07-.46.54a56.68,56.68,0,0,1-3.37,5.44,72.08,72.08,0,0,1-2.55-6.9l-.39-1.39v0h0l0-.18-.2-.71h0a.38.38,0,0,0-.36-.24.4.4,0,0,0-.25.08c-.42.19-1,.59-1,.81s.34.65.73,1.57A69.24,69.24,0,0,1,49,140.44l.38,1.62.06.25a.4.4,0,0,0,.13.23l0,0h0a.75.75,0,0,0,.4.12.57.57,0,0,0,.62-.4h0a27.94,27.94,0,0,1,3.42-5.13c.8.84,1.69,3.87,2,5.06a.43.43,0,0,0,.07.15.62.62,0,0,0,.58.34.59.59,0,0,0,.61-.36h0A27.41,27.41,0,0,1,59.6,138C60.87,135.78,62,134.41,62,134.07Zm13.22-2-.11-.06a.74.74,0,0,0-.52-.18.77.77,0,0,0-.75.79.6.6,0,0,0,0,.07h0a3.83,3.83,0,0,1,0,.48,2.66,2.66,0,0,1,0,.53,2.62,2.62,0,0,1,0,.37c0,.55,0,1.11,0,2.24-.12,5.08-.09,8.6.45,8.62s.58-.31.61-1.59c.1-3.88.26-9.27.36-10.22a.66.66,0,0,1,0-.19s0-.17,0-.21A1.54,1.54,0,0,0,75.23,132.07Zm5.75.33c0-.14-.24-.52-.51-.52s-.92.43-.92.73,0-.21,0,.32c0,.22,0,1.1,0,1.44,0,.61,0,2.21,0,3.47-.14,5.71-.07,6,.46,6s.58-.35.62-1.79c.11-4.36.28-7.68.38-8.75C81,132.88,81,132.69,81,132.4ZM78.53,129a18,18,0,0,0-1.81,3.28c0,.23.44.43.55.43s.81-.33.82-.46,0-.25,0-.35c0-.32.82-2.48.83-2.63S78.62,129,78.53,129ZM47.46,141.61l-.18-.29-.13-.17L46,139.82l0,0c-1.39-1.54-1.68-1.8-4.78-6.71l-.15-.24,0,0-.91-1.44h0a.36.36,0,0,0-.31-.16h-.11c-.34,0-.93.52-.93.74s.26.39.55.72a1.21,1.21,0,0,1,.12.59c0,.8-2.43,5.51-3.76,7.55-.32.48-.61.74-.62,1s.35.48.9.53l.07,0a.61.61,0,0,0,.36-.27l0-.07.07-.11a.85.85,0,0,1,.06-.16l.94-1.92a1.45,1.45,0,0,1,1.63-.94l4.74.12,2,2.87.5.62.19.17a.65.65,0,0,0,.14.13l0,0h0a.54.54,0,0,0,.22.05.7.7,0,0,0,.65-.73.82.82,0,0,0-.14-.49Zm-8.54-9.47a3.5,3.5,0,0,1,.25.37Zm1.45,5.71c-1.7,0-1.81-.07-1.8-.31s.08-.27.4-.93l1.24-2.52,2.72,3.64A8,8,0,0,1,40.37,137.86Zm32.34,4.06-.19-.27-.13-.16-1.15-1.27,0,0c-1.39-1.47-1.69-1.71-4.79-6.36l-.15-.23,0,0-.91-1.36h0A.37.37,0,0,0,65,132h-.11c-.34,0-.93.49-.93.7s.26.37.55.68a1.1,1.1,0,0,1,.13.56c0,.76-3.39,6.78-4.73,8.71-.32.46-.61.7-.61,1s.35.46.9.5l.07,0a.61.61,0,0,0,.36-.26l0-.06.07-.1a.8.8,0,0,1,.06-.15l1.91-3.38a1.46,1.46,0,0,1,1.63-.89l4.74.12,2,2.72.51.59.2.17.12.1.05,0h0a.57.57,0,0,0,.22.05.67.67,0,0,0,.65-.69.75.75,0,0,0-.14-.46Zm-8.55-9a3.36,3.36,0,0,1,.25.35Zm1.46,5.42c-1.7,0-1.81-.07-1.8-.3s.08-.25.4-.88l1.24-2.38,2.72,3.45A8.47,8.47,0,0,1,65.62,138.35Z"/><path class="cls-6" d="M90.74,144.64c0-.34.42-7,.48-9.56a30.72,30.72,0,0,0,0-3.14l-2,0c-.21,0-.45,0-.68,0s-.42-.38-.41-.69a.54.54,0,0,1,.55-.52c.52,0,1.31.17,3.31.22,1.3,0,2.62-.08,3.92,0,.18,0,.26.1.26.26a1.25,1.25,0,0,1-.82.73c-.73.05-1.92,0-2.58,0-.27,1.37-.59,10.39-.63,12.13S90.7,145,90.74,144.64Z"/><path class="cls-6" d="M99.56,133.89c1.9,0,3.49,1.53,3.41,4.82s-2.26,4.81-4.45,4.75c-1.8,0-3.72-1.61-3.65-4.56C94.93,136.59,96.28,133.81,99.56,133.89ZM99,142.34c1,0,2.7-.57,2.77-3.44s-1.22-3.95-2.59-4c-1.87,0-3,1.69-3,3.74C96.14,139.51,96.64,142.28,99,142.34Z"/><path class="cls-6" d="M104.67,134.14a2.39,2.39,0,0,1,.83-.25c.14,0,.23.15.22.45s-.08.87-.1,1.44c0,1.62-.07,6.5,3.23,6.58,3.7.09,3.33-5.33,3.36-6.72,0-.78,0-1.25.33-1.24a1.74,1.74,0,0,1,.64.37.46.46,0,0,1,.2.47c0,.46-.21,8.47-5,8.36-3.33-.08-4.09-6.8-4-9A.56.56,0,0,1,104.67,134.14Z"/><path class="cls-6" d="M120.3,135.81a2.81,2.81,0,0,1-1.49,2.64l-1.28.54v0a.84.84,0,0,1,.58.3c1.92,2.5,3.84,4,3.83,4.17a.58.58,0,0,1-.24.46,1.62,1.62,0,0,1-.7.29.58.58,0,0,1-.51-.28c-.33-.4-.71-.94-1.52-1.87L117.09,140a.92.92,0,0,0-.78-.34c0,.37-.06.82-.07,1.41l-.07,2.9c0,.2-.08.37-.35.37s-1,.06-.9-.79c0-.29.28-3.57.3-4.39,0-1.25,0-2.69,0-3.55,0-.61-.2-1.1.1-1.28a5.62,5.62,0,0,1,2.86-.92A2.14,2.14,0,0,1,120.3,135.81Zm-3.95,2.63c0,.11.16.15.32.15S119,137.7,119,136c0-1.17-.51-1.63-1.17-1.65a1.5,1.5,0,0,0-1.19.54,14.85,14.85,0,0,0-.28,2.75Z"/><path class="cls-6" d="M127.61,143.49c.34,0,.76.36,1.42.37a1.07,1.07,0,0,0,1.09-1c0-1.42-1.85-4.61-2-6s1.32-3.36,2.85-3.32c.34,0,1.42.18,1.41.55s-.12.57-.78.57c-1.57,0-2.23.78-2.25,1.74,0,1.25,1.84,3.95,1.79,6,0,.37-.48,2.73-2.17,2.69-.43,0-1.45-.37-1.53-.63a2,2,0,0,1-.11-.64C127.36,143.57,127.5,143.48,127.61,143.49Z"/><path class="cls-6" d="M132.56,143.77c0,.14.12.59.83.72h.08a.78.78,0,0,0,.4-.29,1.58,1.58,0,0,0,.16-.31c.24-.94,2.94-5.06,3.57-6.6a22.61,22.61,0,0,1,2,5.61c0,.17.49.33.65.34s.27-.07.46-.54a56.68,56.68,0,0,1,3.37-5.44,72.1,72.1,0,0,1,2.55,6.9l.39,1.39v0h0l0,.18.2.71h0a.38.38,0,0,0,.36.24.4.4,0,0,0,.25-.08c.42-.19,1-.59,1-.81s-.34-.65-.73-1.57a69.24,69.24,0,0,1-2.58-6.86l-.38-1.62-.06-.25a.4.4,0,0,0-.13-.23l0,0h0a.75.75,0,0,0-.4-.12.57.57,0,0,0-.62.4h0a27.94,27.94,0,0,1-3.42,5.13c-.8-.84-1.69-3.87-2-5.06a.43.43,0,0,0-.07-.15.62.62,0,0,0-.58-.34.59.59,0,0,0-.61.36h0a27.42,27.42,0,0,1-2.29,4.39C133.7,142.06,132.57,143.43,132.56,143.77Z"/><path class="cls-1" d="M918.54,100.53,927,79.6a.31.31,0,0,1,.4-.17l.54.23a.31.31,0,0,1,.16.4L919.65,101l.05,0c-.3.67-.61,1.4-.94,2.19l-9.23,23a.31.31,0,0,1-.4.17l-.54-.23a.31.31,0,0,1-.16-.4l6.46-18.06c1-2.5,2.9-5.35,3.65-7.12Z"/><path class="cls-7" d="M927.86,79.4l.64.47c0,.08,0,.17-.06.25a34.51,34.51,0,0,1,10.4,12.33,57,57,0,0,1,5,14c-2.45,4.48-9.38,3.83-12.1-.21.08-2.63,0-5.36-.08-7.92a97,97,0,0,0-1.54-10.54,53.34,53.34,0,0,0-1.88-7.69S927.82,79.47,927.86,79.4Z"/><path class="cls-7" d="M890.22,80.38a88.4,88.4,0,0,1,13.36-3.3,57.74,57.74,0,0,1,12-.61,35.82,35.82,0,0,1,12,2.79,1.18,1.18,0,0,0,.1.19l-.11-.07-.09,0a1.09,1.09,0,0,0-.33.29h0c-.39.5-.69,1.46-1.52,3-.27.5-.77,1.49-1.42,2.84a126.25,126.25,0,0,0-6.74,16.73c-.07,0-3.43,3.6-8.93.18-4.68-2.91-4.34-6.76-4.34-6.76a59,59,0,0,1,13.87-12,43.48,43.48,0,0,1,5.32-3.13,12.28,12.28,0,0,1,3.62-1.1h.1l-.13,0a13.27,13.27,0,0,0-2.11-.59L924,78.7c-5.08-.71-11.59.63-17.25,2.56-5.5,1.88-10.09,4.43-11.94,6C891.86,89.86,885,84.22,890.22,80.38Z"/><path class="cls-1" d="M927.61,79.26c.09,0,.29.09.38.14.44.69,1.53,5.46,2.09,8.41a97,97,0,0,1,1.54,10.54c.1,2.57.16,5.29.08,7.92-1.28,4.31-13.82,1.44-14.2-4a126.25,126.25,0,0,1,6.74-16.73c.65-1.34,1.15-2.34,1.42-2.84.82-1.54,1.12-2.51,1.52-3A2.24,2.24,0,0,1,927.61,79.26Z"/><path class="cls-1" d="M928.12,79.45c6.54,3.49,13.46,9,17.33,14.66,2.21,3.23,4.61,8.08,4.56,11.88-1.16,5.37-6.17.66-6.21.49a57,57,0,0,0-5-14A34.45,34.45,0,0,0,928.33,80C928.25,79.77,928.12,79.62,928.12,79.45Z"/><path class="cls-1" d="M906.78,81.26C912.43,79.32,919,78,924,78.7l.88.15a13.27,13.27,0,0,1,2.11.59l.13,0H927a12.28,12.28,0,0,0-3.62,1.1,43.48,43.48,0,0,0-5.32,3.13c-6.14,4.15-12.27,9.87-13.87,12-3.89,2.29-12.74-5.53-9.41-8.42C896.59,85.59,901.28,83.14,906.78,81.26Z"/><ellipse class="cls-3" cx="927.21" cy="79.36" rx="0.69" ry="2.51" transform="translate(490.16 900.95) rotate(-66.88)"/><path class="cls-3" d="M871.87,119.62a3.62,3.62,0,0,0,.75.42s.14-.11.19-.18l.56-.76,6.66,2.44c-.09.14-.17.25-.24.36s-.32.31-.12.49a2.79,2.79,0,0,0,.75.42s.19-.15.26-.25c1.32-1.85,2.64-3.7,3.94-5.56a.45.45,0,0,1,.63-.21c.66.25,1.34.47,2,.68s.43.23.79-.29l2.54.84c1.44.48,2.89,1,4.33,1.46a.35.35,0,0,0,.51-.2c.28-.55.22-.8-.37-.92a1.62,1.62,0,0,1-1.35-1.37c-.48-1.81-1.08-3.59-1.64-5.39-.33-1.07-.67-2.14-1-3.2a.61.61,0,0,1,.11-.61q2.19-3.06,4.36-6.14c.24-.33.22-.43-.13-.69s-.54-.29-.78.05c-.58.81-.58.8-1.52.62l-6-1.13-.28-.07a.66.66,0,0,0-.6-.93c-.11,0-.24.13-.31.23l-3.69,5.13-.63.87a.87.87,0,0,0-1,.2.35.35,0,0,0,0,.33,1,1,0,0,1-.18,1.2c-1.23,1.67-2.42,3.36-3.62,5a.35.35,0,0,1-.48.13c-1.07-.37-2.15-.71-3.22-1.09-.35-.13-.5,0-.61.28-.19.5-.14.64.35.81l3.1,1-1.1,1.54L872,119.14C871.87,119.28,871.65,119.45,871.87,119.62Zm9.56-10.17c-.53.52-1,1.07-1.59,1.56a12.52,12.52,0,0,1-1.18.84l-.05-.07,2.61-3.64c.11.3.19.54.3.78A.41.41,0,0,1,881.43,109.45Zm1.71,4.4c.34.11.4.33.45.65l-3.5-1.16c-.58-.2-.46-.18-.79.3l-1.6-.54c.12-.3.27-.39.54-.27a2.47,2.47,0,0,0,.61.17.51.51,0,0,0,.36-.07.73.73,0,0,1,.76-.12C881,113.16,882.08,113.52,883.14,113.85Zm2.72,1.41,4.29-6,2.6,8.35Zm-1-1.24c.85-1.25,1.74-2.48,2.61-3.71s1.88-2.61,2.79-3.94a35.1,35.1,0,0,0,2.69-4l.63.12-8.61,12.16-.12,0C884.8,114.42,884.72,114.16,884.82,114Zm-2.38-5.84a7.55,7.55,0,0,0-.3-.79.53.53,0,0,1,.08-.64c.68-.92,1.34-1.86,2-2.8L885.6,102A21.54,21.54,0,0,1,882.44,108.18Zm-8.57,10.28a.36.36,0,0,1,0-.09l3.36-4.25,4,1.35,2.48.83-3.25,4.59Z"/><path class="cls-1" d="M871.87,119.62a3.62,3.62,0,0,0,.75.42s.14-.11.19-.18l.56-.76,6.66,2.44c-.09.14-.17.25-.24.36s-.32.31-.12.49a2.79,2.79,0,0,0,.75.42s.19-.15.26-.25c1.32-1.85,2.64-3.7,3.94-5.56a.45.45,0,0,1,.63-.21c.66.25,1.34.47,2,.68s.43.23.79-.29l2.54.84c1.44.48,2.89,1,4.33,1.46a.35.35,0,0,0,.51-.2c.28-.55.22-.8-.37-.92a1.62,1.62,0,0,1-1.35-1.37c-.48-1.81-1.08-3.59-1.64-5.39-.33-1.07-.67-2.14-1-3.2a.61.61,0,0,1,.11-.61q2.19-3.06,4.36-6.14c.24-.33.22-.43-.13-.69s-.54-.29-.78.05c-.58.81-.58.8-1.52.62l-6-1.13-.28-.07a.66.66,0,0,0-.6-.93c-.11,0-.24.13-.31.23l-3.69,5.13-.63.87a.87.87,0,0,0-1,.2.35.35,0,0,0,0,.33,1,1,0,0,1-.18,1.2c-1.23,1.67-2.42,3.36-3.62,5a.35.35,0,0,1-.48.13c-1.07-.37-2.15-.71-3.22-1.09-.35-.13-.5,0-.61.28-.19.5-.14.64.35.81l3.1,1-1.1,1.54L872,119.14C871.87,119.28,871.65,119.45,871.87,119.62Zm9.56-10.17c-.53.52-1,1.07-1.59,1.56a12.52,12.52,0,0,1-1.18.84l-.05-.07,2.61-3.64c.11.3.19.54.3.78A.41.41,0,0,1,881.43,109.45Zm1.71,4.4c.34.11.4.33.45.65l-3.5-1.16c-.58-.2-.46-.18-.79.3l-1.6-.54c.12-.3.27-.39.54-.27a2.47,2.47,0,0,0,.61.17.51.51,0,0,0,.36-.07.73.73,0,0,1,.76-.12C881,113.16,882.08,113.52,883.14,113.85Zm2.72,1.41,4.29-6,2.6,8.35Zm-1-1.24c.85-1.25,1.74-2.48,2.61-3.71s1.88-2.61,2.79-3.94a35.1,35.1,0,0,0,2.69-4l.63.12-8.61,12.16-.12,0C884.8,114.42,884.72,114.16,884.82,114Zm-2.38-5.84a7.55,7.55,0,0,0-.3-.79.53.53,0,0,1,.08-.64c.68-.92,1.34-1.86,2-2.8L885.6,102A21.54,21.54,0,0,1,882.44,108.18Zm-8.57,10.28a.36.36,0,0,1,0-.09l3.36-4.25,4,1.35,2.48.83-3.25,4.59Z"/><g class="cls-8"><polygon class="cls-9" points="886.24 100.82 892.95 102.37 891.67 104.37 885.31 102.95 886.24 100.82"/><polygon class="cls-9" points="884.77 104.31 890.67 105.7 889.42 107.51 883.78 106.11 884.77 104.31"/><polygon class="cls-9" points="882.98 107.39 888.44 108.87 887.25 110.64 881.89 109.01 882.98 107.39"/><polygon class="cls-9" points="880.51 110.38 886.12 112.14 884.92 113.88 878.67 111.85 880.51 110.38"/></g><g id="_Group_2" data-name="&lt;Group&gt;"><path id="_Compound_Path_" data-name="&lt;Compound Path&gt;" class="cls-3" d="M139.76,65.71l0,0a12.77,12.77,0,0,0-2-8,1.67,1.67,0,0,1,1.19.37c-1.56-3-4.22-3.71-7.24-4.28a4,4,0,0,1,1.44-.91,13.93,13.93,0,0,0-8.48-.36,17.44,17.44,0,0,0-5.12,2.35,34.19,34.19,0,0,1,6-4.17,15.14,15.14,0,0,1,10.36-1.66,9.65,9.65,0,0,0-13.74-.92,23.71,23.71,0,0,1,1.61-2.14,9.09,9.09,0,0,0-4.21,3.53,12.7,12.7,0,0,0-2.68,5.56,17.67,17.67,0,0,0-4.42-9.09c-.41-.45-1.08-1.21-1.69-1.2,0,.45,0,.9,0,1.36a5.69,5.69,0,0,0-5-1.53c-1.38.22-4.31,1.1-4.83,2.58.09-.25,3.83.76,4.09.84a18.12,18.12,0,0,1,4.52,2.05,23.6,23.6,0,0,1,5.43,5c-2.18-2.37-5.37-4.45-8.34-4.33a9.48,9.48,0,0,0,.31,1.24c-.21-.76-3.68-1.23-4.36-1.31a7.28,7.28,0,0,0-4.43.72,5.78,5.78,0,0,1,1.28,1.38c-.22-.34-2.61.95-2.88,1.12a7.15,7.15,0,0,0-2.36,2.26,15.77,15.77,0,0,0-2.19,6.87,21,21,0,0,1,2.75-2.85,15.77,15.77,0,0,1,3.43-2c5.35-2.42,11.45-3.44,16.86-1.41a14.25,14.25,0,0,0-10.17,1.8,1.41,1.41,0,0,1,1,.59,16,16,0,0,0-4.16,1.95A6.93,6.93,0,0,0,99,64.77l1.28-.64a9.67,9.67,0,0,0-1.13,6.42,9.07,9.07,0,0,0,3.22,5.61c-.43-2.37,1.23-5.26,2.22-7.35A29.81,29.81,0,0,1,107,64.36a21.29,21.29,0,0,1,9.36-7l.18.08c0,1.33.2,14.77-6.71,25.71-7.28,11.53-9.21,17.27-9.21,17.27l7.25,2.77s4-14.66,5.12-17.87,4.4-12.89,4.69-17.9c.23-4,.36-8.75.41-10.57,4.9,1.84,8.51,7.39,9.7,12.2a54.34,54.34,0,0,1,1.36,8.07l.22-.27s0,0,0,0,.18,0,.25-.11a11.43,11.43,0,0,0,3.1-6.06,7.14,7.14,0,0,0-2.11-6.29l.93,0a9.73,9.73,0,0,0-3.94-4.23l1.43-.12a14.16,14.16,0,0,0-6.52-3.34,25,25,0,0,1,7.91,1.74,19.34,19.34,0,0,1,8.91,7.63,1.28,1.28,0,0,0,.26.36A1.37,1.37,0,0,0,139.76,65.71Zm-23.19-8.28v0S116.57,57.43,116.58,57.43Z"/><path id="_Compound_Path_2" data-name="&lt;Compound Path&gt;" class="cls-3" d="M25.78,34.57a2.16,2.16,0,0,0,.49-.57,32.64,32.64,0,0,1,16-11.7,42.16,42.16,0,0,1,13.53-1.92,23.9,23.9,0,0,0-11.4,4.79l2.4.38a16.43,16.43,0,0,0-7.17,6.62l1.56.17a12.05,12.05,0,0,0-4.36,10.31,19.3,19.3,0,0,0,4.44,10.59c.1.13.26.27.41.21s0,0,0,0l.33.48a91.75,91.75,0,0,1,3.32-13.41c2.62-7.95,9.41-16.82,17.89-19.29-.15,3.07-.53,11.14-.66,17.85-.16,8.46,4.08,25.18,5.6,30.72s6.34,30.73,6.34,30.73L87,96.74S84.53,86.83,73.76,66.5c-10.23-19.3-8.24-41.89-8-44.14l.31-.11C72,25.31,77.51,29.46,80.9,35.18A50.31,50.31,0,0,1,84.4,43c1.39,3.63,3.83,8.71,2.79,12.65,3.07-1.88,5.26-5.6,6.13-9a16.31,16.31,0,0,0-1.08-10.95l2.07,1.25a11.7,11.7,0,0,0-4.16-6.39,27,27,0,0,0-6.74-3.81,2.37,2.37,0,0,1,1.79-.86,24.05,24.05,0,0,0-16.88-4.33c9.36-2.72,19.49-.23,28.2,4.53A26.62,26.62,0,0,1,102,29.84,35.39,35.39,0,0,1,106.28,35a26.63,26.63,0,0,0-2.81-11.84A12.08,12.08,0,0,0,99.8,19c-.44-.32-4.3-2.79-4.71-2.26a9.75,9.75,0,0,1,2.33-2.16A12.28,12.28,0,0,0,90,12.86c-1.16,0-7.06.38-7.51,1.64a16,16,0,0,0,.68-2.05c-5-.57-10.61,2.51-14.59,6.23a39.83,39.83,0,0,1,9.78-7.73,30.58,30.58,0,0,1,7.87-2.88c.45-.1,6.87-1.32,7-.89-.69-2.56-5.51-4.42-7.81-5a9.61,9.61,0,0,0-8.63,1.94c.08-.76.17-1.52.23-2.28-1-.09-2.25,1.1-3,1.8a29.83,29.83,0,0,0-8.59,14.73c-.23-3.42-1.91-6.75-3.8-9.71C60,6.05,58,3.39,55,2.22A40,40,0,0,1,57.46,6a16.28,16.28,0,0,0-23.24-.21c6-1,12.09,1,17.22,4.12a57.72,57.72,0,0,1,9.62,7.78,29.43,29.43,0,0,0-8.31-4.61,23.51,23.51,0,0,0-14.32-.48,6.75,6.75,0,0,1,2.31,1.71c-5.16.57-9.72,1.4-12.74,6.28a2.82,2.82,0,0,1,2-.46A21.55,21.55,0,0,0,25.7,33.3l0,0A2.32,2.32,0,0,0,25.78,34.57Zm40-12.25v0S65.76,22.3,65.75,22.32Z"/><path id="_Path_" data-name="&lt;Path&gt;" class="cls-3" d="M58.59,105.43S73.21,93.48,87.37,93c16.12-.59,29.8,14.68,29.8,14.68S102.2,108.34,58.59,105.43Z"/></g></g></g></svg>